<svg id="Слой_1" data-name="Слой 1" xmlns="http://www.w3.org/2000/svg" xmlns:xlink="http://www.w3.org/1999/xlink" viewBox="0 0 691.03 282.01"><defs><style>.cls-1{fill:url(#Безымянный_градиент_16);}.cls-2{fill:url(#Безымянный_градиент_16-2);}.cls-3{fill:url(#Безымянный_градиент_16-3);}.cls-4{fill:url(#Безымянный_градиент_16-4);}.cls-5{fill:#23222d;}</style><linearGradient id="Безымянный_градиент_16" x1="182.68" y1="626.96" x2="427.84" y2="626.96" gradientUnits="userSpaceOnUse"><stop offset="0" stop-color="#39d82f"/><stop offset="1" stop-color="#279813"/></linearGradient><linearGradient id="Безымянный_градиент_16-2" x1="182.68" y1="590.06" x2="427.84" y2="590.06" xlink:href="#Безымянный_градиент_16"/><linearGradient id="Безымянный_градиент_16-3" x1="182.68" y1="553.31" x2="427.84" y2="553.31" xlink:href="#Безымянный_градиент_16"/><linearGradient id="Безымянный_градиент_16-4" x1="182.68" y1="516.86" x2="427.84" y2="516.86" xlink:href="#Безымянный_градиент_16"/></defs><title>SmartSignal_Black</title><path class="cls-1" d="M424.9,598.37v57.19H373.33A57.5,57.5,0,0,1,424.9,598.37Z" transform="translate(-153.35 -378.16)"/><path class="cls-2" d="M299.69,655.56H336A94.78,94.78,0,0,1,424.9,561V524.56C355.33,527.67,299.69,585.23,299.69,655.56Z" transform="translate(-153.35 -378.16)"/><path class="cls-3" d="M286.14,510.89a203.27,203.27,0,0,0-59.92,144.67h36.33A168.23,168.23,0,0,1,424.9,487.43V451.06A203.1,203.1,0,0,0,286.14,510.89Z" transform="translate(-153.35 -378.16)"/><path class="cls-4" d="M322.81,399.92A277.31,277.31,0,0,0,153.35,655.56h36.33c0-131.19,104.79-237.91,235.22-241V378.16A275.3,275.3,0,0,0,322.81,399.92Z" transform="translate(-153.35 -378.16)"/><path class="cls-5" d="M510.09,469.33q-23.89,0-38.23-13.69L483.61,439a37.48,37.48,0,0,0,27.52,11.37c3.79,0,6.78-.66,9-2s3.3-3,3.3-5.1q0-2.72-3.62-4.46a32.37,32.37,0,0,0-9-2.58A89.85,89.85,0,0,1,499,433.48a84.5,84.5,0,0,1-11.76-4.39,21.58,21.58,0,0,1-9-8.07,23.85,23.85,0,0,1-3.62-13.3q0-11.37,9.24-19.38t25.12-8q21.06,0,35,12l-12.15,15.89a38.49,38.49,0,0,0-25.18-8.91q-9.3,0-9.3,6.2,0,2.46,3.61,4.2a34.1,34.1,0,0,0,9.05,2.65,97.82,97.82,0,0,1,11.69,2.77,82.24,82.24,0,0,1,11.69,4.46,22.39,22.39,0,0,1,9,8A22.72,22.72,0,0,1,546,440.52q0,13.19-9.43,21T510.09,469.33Z" transform="translate(-153.35 -378.16)"/><path class="cls-5" d="M657.92,467.78H638.15v-38q0-8.39-8.26-8.39-6.72,0-11.24,6.07v40.3H598.76v-38q0-8.39-8.27-8.39-6.19,0-11.11,6.07v40.3H559.49V405.39h19.89V413q2.46-3.22,8.14-6.2a26.36,26.36,0,0,1,12.4-3q13.82,0,17.7,11.11a24.81,24.81,0,0,1,8.84-7.82,25.67,25.67,0,0,1,12.73-3.29q8.91,0,13.82,4.72t4.91,14Z" transform="translate(-153.35 -378.16)"/><path class="cls-5" d="M730.31,467.78h-19.9v-6.2a20.88,20.88,0,0,1-8.2,5.62A29.34,29.34,0,0,1,691,469.33,23,23,0,0,1,676.25,464q-6.66-5.36-6.65-15.18,0-10.34,6.46-15.18a24.33,24.33,0,0,1,15-4.84q13.56,0,19.37,7.23v-7.49a7.78,7.78,0,0,0-3.35-6.59q-3.36-2.44-9.3-2.45a26.56,26.56,0,0,0-17.7,6.59L673,413.53q11.35-9.69,28.28-9.69a45.51,45.51,0,0,1,10.92,1.23,30.1,30.1,0,0,1,9.17,3.94,18.33,18.33,0,0,1,6.59,7.75,27.84,27.84,0,0,1,2.39,12Zm-31-11.5c5.33,0,9-1.5,11.1-4.52v-5.55q-3.23-4.4-11.1-4.39a12.65,12.65,0,0,0-7.11,1.87,6.48,6.48,0,0,0,0,10.72A12.65,12.65,0,0,0,699.31,456.28Z" transform="translate(-153.35 -378.16)"/><path class="cls-5" d="M764.66,467.78H744.77V405.39h19.89V413a26.59,26.59,0,0,1,8.66-6.59,24.18,24.18,0,0,1,10.85-2.71v19.12a22.88,22.88,0,0,0-4.91-.52,24,24,0,0,0-8.46,1.62,13,13,0,0,0-6.14,4.07Z" transform="translate(-153.35 -378.16)"/><path class="cls-5" d="M824.6,469.33q-9.55,0-14.53-4.65t-5-13.69V422.7H794.76V405.39h10.33V388.34h19.77v17.05h12.66V422.7H824.86v22.73a6.83,6.83,0,0,0,1.48,4.59,5.07,5.07,0,0,0,4.07,1.74c2.5,0,4.18-.51,5-1.55l3.87,15Q834.94,469.33,824.6,469.33Z" transform="translate(-153.35 -378.16)"/><path class="cls-5" d="M510.09,589.27q-23.89,0-38.23-13.69l11.75-16.66a37.47,37.47,0,0,0,27.52,11.36c3.79,0,6.78-.66,9-2s3.3-3,3.3-5.1c0-1.81-1.21-3.29-3.62-4.46a32.37,32.37,0,0,0-9-2.58A89.71,89.71,0,0,1,499,553.43,85.79,85.79,0,0,1,487.23,549a21.54,21.54,0,0,1-9-8.08,23.82,23.82,0,0,1-3.62-13.3q0-11.37,9.24-19.38t25.12-8q21.06,0,35,12l-12.15,15.89a38.44,38.44,0,0,0-25.18-8.92q-9.3,0-9.3,6.2,0,2.46,3.61,4.2a33.73,33.73,0,0,0,9.05,2.65,96.07,96.07,0,0,1,11.69,2.78,81,81,0,0,1,11.69,4.45,22.47,22.47,0,0,1,9,8A22.75,22.75,0,0,1,546,560.47q0,13.17-9.43,21T510.09,589.27Z" transform="translate(-153.35 -378.16)"/><path class="cls-5" d="M576.42,516.42a11.37,11.37,0,0,1-16.14,0,11.18,11.18,0,0,1-3.3-8.14,11.37,11.37,0,1,1,22.74,0A11.18,11.18,0,0,1,576.42,516.42Zm1.87,71.3H558.4V525.33h19.89Z" transform="translate(-153.35 -378.16)"/><path class="cls-5" d="M621.31,613q-16.27,0-27.65-9.3l8.66-14.21q6.7,7.23,19,7.23a19.46,19.46,0,0,0,11-3.22q4.85-3.24,4.84-11.11v-4.78q-7.74,9-18.47,9-12,0-19.76-8.2t-7.75-23.32q0-15,7.69-23.18t19.82-8.21a22.72,22.72,0,0,1,18.47,8.92v-7.37H657v56.84a34.74,34.74,0,0,1-2.26,13,24.75,24.75,0,0,1-5.75,8.91,28.81,28.81,0,0,1-8.4,5.43,38.57,38.57,0,0,1-9.56,2.84A64.55,64.55,0,0,1,621.31,613Zm4-43.92a16,16,0,0,0,6.65-1.55,12.93,12.93,0,0,0,5.23-4V546.91a12.86,12.86,0,0,0-5.23-4,16.12,16.12,0,0,0-6.65-1.55,13.76,13.76,0,0,0-9.88,3.62q-3.81,3.62-3.81,10.2t3.81,10.34A13.76,13.76,0,0,0,625.31,569.12Z" transform="translate(-153.35 -378.16)"/><path class="cls-5" d="M736.27,587.72h-19.9v-36q0-10.32-10.2-10.33A15.06,15.06,0,0,0,694,547.42v40.3H674.14V525.33H694V533q7.88-9.16,21.57-9.17,10.33,0,15.5,5.36t5.17,14.41Z" transform="translate(-153.35 -378.16)"/><path class="cls-5" d="M807.44,587.72H787.55v-6.2a20.89,20.89,0,0,1-8.21,5.62,29.3,29.3,0,0,1-11.17,2.13,23,23,0,0,1-14.79-5.36q-6.66-5.35-6.65-15.17,0-10.34,6.46-15.18a24.28,24.28,0,0,1,15-4.85q13.56,0,19.38,7.24v-7.5a7.74,7.74,0,0,0-3.36-6.58q-3.36-2.46-9.3-2.46a26.56,26.56,0,0,0-17.7,6.59l-7.1-12.53q11.35-9.69,28.28-9.69A45.51,45.51,0,0,1,789.29,525a30.1,30.1,0,0,1,9.17,3.94,18.33,18.33,0,0,1,6.59,7.75,27.84,27.84,0,0,1,2.39,12Zm-31-11.49q8,0,11.11-4.52v-5.56q-3.24-4.39-11.11-4.39a12.73,12.73,0,0,0-7.11,1.87,6.48,6.48,0,0,0,0,10.72A12.65,12.65,0,0,0,776.44,576.23Z" transform="translate(-153.35 -378.16)"/><path class="cls-5" d="M844.38,587.72H824.49V501.57h19.89Z" transform="translate(-153.35 -378.16)"/><path class="cls-5" d="M497.6,627.2l-12,26.78a11.35,11.35,0,0,1-3.37,4.78,7.5,7.5,0,0,1-4.59,1.41,9.25,9.25,0,0,1-3.23-.55,7,7,0,0,1-2.59-1.63l1.5-2.41a6,6,0,0,0,4.37,1.81,4.35,4.35,0,0,0,2.79-.91,8,8,0,0,0,2.16-3.09l1.05-2.32L473,627.2h3.37l9,20.33,9-20.33Z" transform="translate(-153.35 -378.16)"/><path class="cls-5" d="M505.63,649.8a11.17,11.17,0,0,1-4.39-4.34,12.55,12.55,0,0,1-1.59-6.3,12.4,12.4,0,0,1,1.59-6.28,11.19,11.19,0,0,1,4.39-4.32A12.89,12.89,0,0,1,512,627a12.35,12.35,0,0,1,5.53,1.21,9.19,9.19,0,0,1,3.84,3.52l-2.41,1.64a7.57,7.57,0,0,0-3-2.66,8.92,8.92,0,0,0-4-.89,9.39,9.39,0,0,0-4.66,1.16,8.27,8.27,0,0,0-3.23,3.3,10.84,10.84,0,0,0,0,9.76,8.2,8.2,0,0,0,3.23,3.27,9.39,9.39,0,0,0,4.66,1.16,9.18,9.18,0,0,0,4-.86,7.45,7.45,0,0,0,3-2.64l2.41,1.64a9.18,9.18,0,0,1-3.86,3.52,12.42,12.42,0,0,1-5.51,1.21A12.89,12.89,0,0,1,505.63,649.8Z" transform="translate(-153.35 -378.16)"/><path class="cls-5" d="M527.57,627.2h3.23v19l16-19h2.87v23.92H546.4v-19l-15.92,19h-2.91Z" transform="translate(-153.35 -378.16)"/><path class="cls-5" d="M578.42,627.2v23.92h-3.23V630.06H563.73l-.32,5.91a43.69,43.69,0,0,1-1.73,11.46q-1.36,4-4.86,4a9,9,0,0,1-2.32-.37l.22-2.77a6.43,6.43,0,0,0,1.14.18,3,3,0,0,0,2.82-1.73,11.68,11.68,0,0,0,1.27-4.27q.33-2.55.55-6.73l.41-8.55Z" transform="translate(-153.35 -378.16)"/><path class="cls-5" d="M608.52,640.16h-20a8.58,8.58,0,0,0,2.87,6,9.47,9.47,0,0,0,6.55,2.3,10.32,10.32,0,0,0,4.09-.79,9,9,0,0,0,3.23-2.35l1.82,2.09a10.24,10.24,0,0,1-4,2.92,13.57,13.57,0,0,1-5.25,1,13.36,13.36,0,0,1-6.53-1.57,11.37,11.37,0,0,1-4.43-4.35,12.29,12.29,0,0,1-1.6-6.27,12.78,12.78,0,0,1,1.53-6.28,11,11,0,0,1,4.18-4.32,11.72,11.72,0,0,1,6-1.55,11.56,11.56,0,0,1,6,1.55,10.91,10.91,0,0,1,4.14,4.3,12.93,12.93,0,0,1,1.5,6.3ZM591.17,632a8.73,8.73,0,0,0-2.66,5.76h17a8.73,8.73,0,0,0-2.66-5.76,8.81,8.81,0,0,0-11.65,0Z" transform="translate(-153.35 -378.16)"/><path class="cls-5" d="M615.71,627.2h3.23v10.59h15V627.2h3.23v23.92H634V640.57h-15v10.55h-3.23Z" transform="translate(-153.35 -378.16)"/><path class="cls-5" d="M646.41,627.2h3.23v19l16-19h2.87v23.92h-3.23v-19l-15.92,19h-2.91Z" transform="translate(-153.35 -378.16)"/><path class="cls-5" d="M698.62,640.16h-20a8.53,8.53,0,0,0,2.86,6,9.47,9.47,0,0,0,6.55,2.3,10.29,10.29,0,0,0,4.09-.79,8.91,8.91,0,0,0,3.23-2.35l1.82,2.09a10.24,10.24,0,0,1-4,2.92,13.57,13.57,0,0,1-5.25,1,13.36,13.36,0,0,1-6.53-1.57,11.37,11.37,0,0,1-4.43-4.35,12.38,12.38,0,0,1-1.59-6.27,12.88,12.88,0,0,1,1.52-6.28,11,11,0,0,1,4.19-4.32,11.66,11.66,0,0,1,6-1.55,11.53,11.53,0,0,1,5.95,1.55,10.91,10.91,0,0,1,4.14,4.3,12.93,12.93,0,0,1,1.5,6.3ZM681.27,632a8.69,8.69,0,0,0-2.66,5.76h17a8.69,8.69,0,0,0-2.66-5.76,8.8,8.8,0,0,0-11.64,0Z" transform="translate(-153.35 -378.16)"/><path class="cls-5" d="M721.38,649.8a11.24,11.24,0,0,1-4.39-4.34,12.55,12.55,0,0,1-1.59-6.3,12.4,12.4,0,0,1,1.59-6.28,11.25,11.25,0,0,1,4.39-4.32,12.91,12.91,0,0,1,6.34-1.55,12.32,12.32,0,0,1,5.53,1.21,9.19,9.19,0,0,1,3.84,3.52l-2.41,1.64a7.57,7.57,0,0,0-3-2.66,8.92,8.92,0,0,0-4-.89,9.42,9.42,0,0,0-4.66,1.16,8.27,8.27,0,0,0-3.23,3.3,10.84,10.84,0,0,0,0,9.76,8.2,8.2,0,0,0,3.23,3.27,9.42,9.42,0,0,0,4.66,1.16,9.18,9.18,0,0,0,4-.86,7.45,7.45,0,0,0,3-2.64l2.41,1.64a9.18,9.18,0,0,1-3.86,3.52,12.39,12.39,0,0,1-5.51,1.21A12.91,12.91,0,0,1,721.38,649.8Z" transform="translate(-153.35 -378.16)"/><path class="cls-5" d="M763.43,644.62a5.62,5.62,0,0,1-2.32,4.82c-1.55,1.12-3.85,1.68-6.92,1.68H743.32V627.2h10.55a11.25,11.25,0,0,1,6.42,1.59,5.2,5.2,0,0,1,2.32,4.55,5.34,5.34,0,0,1-1.07,3.34,6.47,6.47,0,0,1-3,2.07C761.8,639.51,763.43,641.46,763.43,644.62Zm-17-6.78h7.19a7.29,7.29,0,0,0,4.25-1.05,3.5,3.5,0,0,0,1.48-3,3.41,3.41,0,0,0-1.48-3,7.63,7.63,0,0,0-4.25-1h-7.19Zm12.24,9.73a3.47,3.47,0,0,0,1.54-3.14,3.66,3.66,0,0,0-1.41-3.16,7.67,7.67,0,0,0-4.45-1h-7.92v8.32h7.6A8.64,8.64,0,0,0,758.7,647.57Z" transform="translate(-153.35 -378.16)"/><path class="cls-5" d="M789.35,627.2v23.92h-3v-7.91H778l-5.55,7.91h-3.5l6-8.37a8,8,0,0,1-4.28-2.64,7.3,7.3,0,0,1-1.5-4.73,7.21,7.21,0,0,1,2.73-6.09,11.94,11.94,0,0,1,7.46-2.09Zm-10.19,13.59h7.23V630.06h-7q-7,0-7,5.41T779.16,640.79Z" transform="translate(-153.35 -378.16)"/><path class="cls-5" d="M813.61,640.7a4.94,4.94,0,0,1,1.39,3.55,5.52,5.52,0,0,1-1.43,3.73,9.37,9.37,0,0,1-3.89,2.53,15.87,15.87,0,0,1-5.41.88,17.69,17.69,0,0,1-5.1-.75,13.22,13.22,0,0,1-4.37-2.2l1.1-2.42a12.33,12.33,0,0,0,3.82,1.91,14.5,14.5,0,0,0,4.41.69,10.59,10.59,0,0,0,5.43-1.25,3.82,3.82,0,0,0,2.12-3.39,3.33,3.33,0,0,0-1.73-3,9,9,0,0,0-4.73-1.07h-4.09v-2.36H805a8.08,8.08,0,0,0,4.32-1,3.12,3.12,0,0,0,1.64-2.75,3.36,3.36,0,0,0-1.85-3,9.26,9.26,0,0,0-4.79-1.09,16.53,16.53,0,0,0-7.65,1.95l-.9-2.5a19,19,0,0,1,8.86-2.23,14.5,14.5,0,0,1,4.94.8,8.08,8.08,0,0,1,3.46,2.25,5,5,0,0,1,1.25,3.37,4.75,4.75,0,0,1-1.25,3.23,7.53,7.53,0,0,1-3.39,2.09A7.6,7.6,0,0,1,813.61,640.7Z" transform="translate(-153.35 -378.16)"/><path class="cls-5" d="M822.32,627.2h3.23v19l16-19h2.87v23.92h-3.23v-19l-15.92,19h-2.91Z" transform="translate(-153.35 -378.16)"/></svg>