<?xml version="1.0" encoding="utf-8"?>
<!-- Generator: Adobe Illustrator 24.0.2, SVG Export Plug-In . SVG Version: 6.00 Build 0)  -->
<svg version="1.1" id="Слой_1" xmlns="http://www.w3.org/2000/svg" xmlns:xlink="http://www.w3.org/1999/xlink" x="0px" y="0px"
	 viewBox="0 0 1024 1024" style="enable-background:new 0 0 1024 1024;" xml:space="preserve">
<style type="text/css">
	.st0{fill:url(#SVGID_1_);}
	.st1{fill:url(#SVGID_2_);}
	.st2{fill:url(#SVGID_3_);}
	.st3{fill:url(#SVGID_4_);}
	.st4{fill:#FFFFFF;}
</style>
<linearGradient id="SVGID_1_" gradientUnits="userSpaceOnUse" x1="182.6776" y1="626.9636" x2="427.8423" y2="626.9636">
	<stop  offset="0" style="stop-color:#39D82F"/>
	<stop  offset="1" style="stop-color:#279813"/>
</linearGradient>
<path class="st0" d="M424.9,598.37v57.18h-51.57C373.33,625.81,395.93,601.34,424.9,598.37z"/>
<linearGradient id="SVGID_2_" gradientUnits="userSpaceOnUse" x1="182.6776" y1="590.0601" x2="427.8423" y2="590.0601">
	<stop  offset="0" style="stop-color:#39D82F"/>
	<stop  offset="1" style="stop-color:#279813"/>
</linearGradient>
<path class="st1" d="M299.69,655.56h36.34c0-50.37,39.27-91.55,88.87-94.61v-36.38C355.33,527.67,299.69,585.23,299.69,655.56z"/>
<linearGradient id="SVGID_3_" gradientUnits="userSpaceOnUse" x1="182.6776" y1="553.3079" x2="427.8423" y2="553.3079">
	<stop  offset="0" style="stop-color:#39D82F"/>
	<stop  offset="1" style="stop-color:#279813"/>
</linearGradient>
<path class="st2" d="M286.14,510.89c-38.64,38.64-59.92,90.02-59.92,144.66h36.34c0-90.95,72.16-165.02,162.35-168.13v-36.37
	C372.47,452.53,323.4,473.63,286.14,510.89z"/>
<linearGradient id="SVGID_4_" gradientUnits="userSpaceOnUse" x1="182.6776" y1="516.8586" x2="427.8423" y2="516.8586">
	<stop  offset="0" style="stop-color:#39D82F"/>
	<stop  offset="1" style="stop-color:#279813"/>
</linearGradient>
<path class="st3" d="M322.81,399.92c-33.05,13.97-62.72,33.97-88.19,59.44c-25.47,25.48-45.47,55.14-59.44,88.19
	c-14.49,34.23-21.83,70.57-21.83,108.01h36.34c0-131.19,104.78-237.91,235.21-241.04v-36.35
	C389.55,378.89,355.24,386.2,322.81,399.92z"/>
<g>
	<path class="st4" d="M510.09,469.33c-15.93,0-28.68-4.56-38.23-13.69l11.75-16.66c7.58,7.58,16.75,11.37,27.51,11.37
		c3.79,0,6.78-0.67,8.98-2c2.2-1.33,3.29-3.04,3.29-5.1c0-1.81-1.21-3.29-3.62-4.46c-2.41-1.16-5.42-2.02-9.04-2.58
		c-3.62-0.56-7.54-1.46-11.75-2.71c-4.22-1.25-8.14-2.71-11.75-4.39c-3.62-1.68-6.63-4.37-9.04-8.07c-2.41-3.7-3.62-8.14-3.62-13.3
		c0-7.58,3.08-14.03,9.24-19.38c6.16-5.34,14.53-8.01,25.12-8.01c14.04,0,25.7,4,35,12.01l-12.14,15.89
		c-7.23-5.94-15.63-8.91-25.19-8.91c-6.2,0-9.3,2.07-9.3,6.2c0,1.64,1.2,3.04,3.62,4.2c2.41,1.16,5.43,2.05,9.04,2.65
		c3.62,0.6,7.51,1.53,11.69,2.78c4.18,1.25,8.07,2.73,11.69,4.46c3.62,1.72,6.63,4.39,9.04,8.01c2.41,3.62,3.62,7.92,3.62,12.92
		c0,8.78-3.15,15.78-9.43,20.99C530.29,466.73,521.46,469.33,510.09,469.33z"/>
	<path class="st4" d="M657.92,467.78h-19.76V429.8c0-5.6-2.76-8.4-8.27-8.4c-4.48,0-8.22,2.02-11.24,6.07v40.3h-19.89V429.8
		c0-5.6-2.76-8.4-8.27-8.4c-4.13,0-7.84,2.02-11.11,6.07v40.3h-19.89v-62.39h19.89v7.62c1.63-2.15,4.35-4.22,8.14-6.2
		c3.79-1.98,7.92-2.97,12.4-2.97c9.21,0,15.11,3.7,17.7,11.11c1.98-3.01,4.93-5.62,8.85-7.81c3.92-2.2,8.16-3.29,12.72-3.29
		c5.94,0,10.55,1.57,13.82,4.71c3.27,3.14,4.91,7.81,4.91,14.02V467.78z"/>
	<path class="st4" d="M730.31,467.78h-19.89v-6.2c-1.98,2.33-4.71,4.2-8.2,5.62c-3.49,1.42-7.21,2.13-11.17,2.13
		c-5.42,0-10.36-1.79-14.79-5.36c-4.44-3.57-6.65-8.63-6.65-15.18c0-6.89,2.15-11.95,6.46-15.18c4.31-3.23,9.3-4.84,14.98-4.84
		c9.04,0,15.5,2.41,19.38,7.23v-7.49c0-2.75-1.12-4.95-3.36-6.59c-2.24-1.63-5.34-2.45-9.3-2.45c-6.63,0-12.53,2.2-17.7,6.59
		l-7.1-12.53c7.58-6.46,17.01-9.69,28.29-9.69c3.96,0,7.6,0.41,10.92,1.23c3.31,0.82,6.37,2.13,9.17,3.94
		c2.8,1.81,4.99,4.39,6.59,7.75c1.59,3.36,2.39,7.36,2.39,12.01V467.78z M699.31,456.28c5.34,0,9.04-1.51,11.11-4.52v-5.55
		c-2.15-2.93-5.86-4.39-11.11-4.39c-2.84,0-5.21,0.63-7.1,1.87c-1.9,1.25-2.84,3.04-2.84,5.36c0,2.32,0.95,4.11,2.84,5.36
		C694.1,455.66,696.46,456.28,699.31,456.28z"/>
	<path class="st4" d="M764.66,467.78h-19.89v-62.39h19.89v7.62c2.15-2.58,5.04-4.78,8.66-6.59c3.62-1.81,7.23-2.71,10.85-2.71v19.12
		c-1.55-0.34-3.19-0.52-4.91-0.52c-2.76,0-5.58,0.54-8.46,1.61c-2.89,1.08-4.93,2.43-6.14,4.07V467.78z"/>
	<path class="st4" d="M824.6,469.33c-6.37,0-11.22-1.55-14.53-4.65c-3.32-3.1-4.97-7.66-4.97-13.69V422.7h-10.33v-17.31h10.33
		v-17.05h19.76v17.05h12.66v17.31h-12.66v22.73c0,1.9,0.49,3.42,1.48,4.59c0.99,1.16,2.35,1.74,4.07,1.74c2.5,0,4.18-0.52,5.04-1.55
		l3.88,14.98C836.4,467.95,831.49,469.33,824.6,469.33z"/>
	<path class="st4" d="M510.09,589.27c-15.93,0-28.68-4.56-38.23-13.69l11.75-16.66c7.58,7.58,16.75,11.37,27.51,11.37
		c3.79,0,6.78-0.67,8.98-2c2.2-1.33,3.29-3.04,3.29-5.1c0-1.81-1.21-3.29-3.62-4.46c-2.41-1.16-5.42-2.02-9.04-2.58
		c-3.62-0.56-7.54-1.46-11.75-2.71c-4.22-1.25-8.14-2.71-11.75-4.39c-3.62-1.68-6.63-4.37-9.04-8.07c-2.41-3.7-3.62-8.14-3.62-13.3
		c0-7.58,3.08-14.04,9.24-19.38c6.16-5.34,14.53-8.01,25.12-8.01c14.04,0,25.7,4,35,12.01l-12.14,15.89
		c-7.23-5.94-15.63-8.91-25.19-8.91c-6.2,0-9.3,2.07-9.3,6.2c0,1.64,1.2,3.04,3.62,4.2c2.41,1.16,5.43,2.05,9.04,2.65
		c3.62,0.6,7.51,1.53,11.69,2.78c4.18,1.25,8.07,2.74,11.69,4.46c3.62,1.72,6.63,4.39,9.04,8.01c2.41,3.62,3.62,7.92,3.62,12.92
		c0,8.78-3.15,15.78-9.43,20.99C530.29,586.67,521.46,589.27,510.09,589.27z"/>
	<path class="st4" d="M576.42,516.42c-2.2,2.24-4.89,3.36-8.07,3.36c-3.19,0-5.88-1.12-8.07-3.36c-2.2-2.24-3.29-4.95-3.29-8.14
		c0-3.19,1.1-5.88,3.29-8.07c2.2-2.2,4.89-3.29,8.07-3.29c3.18,0,5.88,1.1,8.07,3.29c2.2,2.2,3.29,4.89,3.29,8.07
		C579.72,511.47,578.62,514.18,576.42,516.42z M578.29,587.72H558.4v-62.39h19.89V587.72z"/>
	<path class="st4" d="M621.31,613.04c-10.85,0-20.07-3.1-27.64-9.3l8.65-14.21c4.48,4.82,10.81,7.23,18.99,7.23
		c4.13,0,7.81-1.08,11.04-3.23c3.23-2.15,4.84-5.86,4.84-11.11v-4.78c-5.17,6.03-11.32,9.04-18.47,9.04c-8.01,0-14.6-2.73-19.76-8.2
		c-5.17-5.47-7.75-13.24-7.75-23.31c0-9.99,2.56-17.72,7.69-23.19c5.12-5.47,11.73-8.2,19.83-8.2c7.49,0,13.65,2.97,18.47,8.91
		v-7.36h19.76v56.83c0,4.91-0.76,9.24-2.26,12.98c-1.51,3.75-3.42,6.72-5.75,8.91c-2.32,2.2-5.12,4-8.4,5.42
		c-3.27,1.42-6.46,2.37-9.56,2.84C627.89,612.8,624.66,613.04,621.31,613.04z M625.31,569.12c2.15,0,4.37-0.52,6.65-1.55
		c2.28-1.03,4.02-2.37,5.23-4v-16.66c-1.21-1.63-2.95-2.97-5.23-4c-2.28-1.03-4.5-1.55-6.65-1.55c-4.05,0-7.34,1.21-9.88,3.62
		c-2.54,2.41-3.81,5.81-3.81,10.2c0,4.48,1.27,7.92,3.81,10.33C617.97,567.92,621.26,569.12,625.31,569.12z"/>
	<path class="st4" d="M736.27,587.72h-19.89v-36.04c0-6.89-3.4-10.33-10.2-10.33c-4.82,0-8.87,2.02-12.14,6.07v40.3h-19.89v-62.39
		h19.89v7.62c5.25-6.11,12.44-9.17,21.57-9.17c6.89,0,12.06,1.79,15.5,5.36c3.44,3.57,5.17,8.38,5.17,14.4V587.72z"/>
	<path class="st4" d="M807.44,587.72h-19.89v-6.2c-1.98,2.33-4.71,4.2-8.2,5.62c-3.49,1.42-7.21,2.13-11.17,2.13
		c-5.42,0-10.36-1.79-14.79-5.36c-4.44-3.57-6.65-8.63-6.65-15.18c0-6.89,2.15-11.95,6.46-15.18c4.31-3.23,9.3-4.84,14.98-4.84
		c9.04,0,15.5,2.41,19.38,7.23v-7.49c0-2.75-1.12-4.95-3.36-6.59c-2.24-1.63-5.34-2.45-9.3-2.45c-6.63,0-12.53,2.2-17.7,6.59
		l-7.1-12.53c7.58-6.46,17.01-9.69,28.29-9.69c3.96,0,7.6,0.41,10.92,1.23c3.31,0.82,6.37,2.13,9.17,3.94
		c2.8,1.81,4.99,4.39,6.59,7.75c1.59,3.36,2.39,7.36,2.39,12.01V587.72z M776.44,576.23c5.34,0,9.04-1.51,11.11-4.52v-5.55
		c-2.15-2.93-5.86-4.39-11.11-4.39c-2.84,0-5.21,0.63-7.1,1.87c-1.9,1.25-2.84,3.04-2.84,5.36c0,2.33,0.95,4.11,2.84,5.36
		C771.23,575.6,773.59,576.23,776.44,576.23z"/>
	<path class="st4" d="M844.38,587.72h-19.89v-86.16h19.89V587.72z"/>
</g>
<g>
	<path class="st4" d="M497.6,627.2l-11.96,26.79c-0.97,2.24-2.09,3.84-3.37,4.78c-1.27,0.94-2.8,1.41-4.59,1.41
		c-1.15,0-2.23-0.18-3.23-0.54c-1-0.36-1.86-0.91-2.59-1.64l1.5-2.41c1.21,1.21,2.67,1.82,4.37,1.82c1.09,0,2.02-0.3,2.8-0.91
		c0.77-0.61,1.49-1.64,2.16-3.09l1.05-2.32l-10.69-23.88h3.37l9,20.33l9.01-20.33H497.6z"/>
	<path class="st4" d="M505.63,649.8c-1.86-1.03-3.33-2.48-4.39-4.34c-1.06-1.86-1.59-3.96-1.59-6.3c0-2.33,0.53-4.43,1.59-6.28
		c1.06-1.85,2.52-3.29,4.39-4.32c1.86-1.03,3.98-1.55,6.34-1.55c2.06,0,3.9,0.4,5.53,1.21c1.62,0.8,2.9,1.98,3.84,3.52l-2.41,1.64
		c-0.79-1.18-1.79-2.07-3-2.66c-1.21-0.59-2.53-0.89-3.96-0.89c-1.73,0-3.28,0.39-4.66,1.16c-1.38,0.77-2.46,1.87-3.23,3.3
		c-0.77,1.43-1.16,3.05-1.16,4.87c0,1.85,0.39,3.48,1.16,4.89c0.77,1.41,1.85,2.5,3.23,3.27c1.38,0.77,2.93,1.16,4.66,1.16
		c1.43,0,2.74-0.29,3.96-0.86c1.21-0.57,2.21-1.45,3-2.64l2.41,1.64c-0.94,1.55-2.23,2.72-3.86,3.52c-1.64,0.8-3.47,1.2-5.5,1.2
		C509.61,651.35,507.49,650.83,505.63,649.8z"/>
	<path class="st4" d="M527.57,627.2h3.23v19.01l15.96-19.01h2.87v23.92h-3.23v-19.01l-15.92,19.01h-2.91V627.2z"/>
	<path class="st4" d="M578.42,627.2v23.92h-3.23v-21.06h-11.46l-0.32,5.91c-0.24,4.97-0.82,8.79-1.73,11.46
		c-0.91,2.67-2.53,4-4.87,4c-0.64,0-1.41-0.12-2.32-0.36l0.23-2.78c0.55,0.12,0.92,0.18,1.14,0.18c1.24,0,2.18-0.57,2.82-1.73
		c0.64-1.15,1.06-2.58,1.27-4.28c0.21-1.7,0.39-3.94,0.55-6.73l0.41-8.55H578.42z"/>
	<path class="st4" d="M608.52,640.16h-20.01c0.18,2.49,1.14,4.49,2.87,6.03s3.91,2.3,6.55,2.3c1.48,0,2.85-0.26,4.09-0.8
		c1.24-0.53,2.32-1.31,3.23-2.34l1.82,2.09c-1.06,1.27-2.39,2.24-3.98,2.91c-1.59,0.67-3.34,1-5.25,1c-2.46,0-4.63-0.52-6.53-1.57
		c-1.9-1.05-3.37-2.49-4.43-4.34c-1.06-1.85-1.59-3.94-1.59-6.28c0-2.33,0.51-4.43,1.52-6.28c1.01-1.85,2.41-3.29,4.18-4.32
		c1.77-1.03,3.77-1.55,5.98-1.55c2.21,0,4.2,0.52,5.96,1.55c1.76,1.03,3.14,2.46,4.14,4.3c1,1.84,1.5,3.93,1.5,6.3L608.52,640.16z
		 M591.17,631.99c-1.56,1.47-2.45,3.39-2.66,5.75h16.96c-0.21-2.37-1.1-4.28-2.66-5.75c-1.56-1.47-3.51-2.21-5.84-2.21
		C594.67,629.79,592.74,630.52,591.17,631.99z"/>
	<path class="st4" d="M615.71,627.2h3.23v10.6h15.05v-10.6h3.23v23.92h-3.23v-10.55h-15.05v10.55h-3.23V627.2z"/>
	<path class="st4" d="M646.41,627.2h3.23v19.01l15.96-19.01h2.87v23.92h-3.23v-19.01l-15.92,19.01h-2.91V627.2z"/>
	<path class="st4" d="M698.62,640.16h-20.01c0.18,2.49,1.14,4.49,2.87,6.03c1.73,1.53,3.91,2.3,6.55,2.3c1.48,0,2.85-0.26,4.09-0.8
		c1.24-0.53,2.32-1.31,3.23-2.34l1.82,2.09c-1.06,1.27-2.39,2.24-3.98,2.91c-1.59,0.67-3.34,1-5.25,1c-2.46,0-4.63-0.52-6.53-1.57
		s-3.37-2.49-4.43-4.34c-1.06-1.85-1.59-3.94-1.59-6.28c0-2.33,0.51-4.43,1.52-6.28c1.02-1.85,2.41-3.29,4.18-4.32
		c1.77-1.03,3.77-1.55,5.98-1.55c2.21,0,4.2,0.52,5.96,1.55c1.76,1.03,3.14,2.46,4.14,4.3c1,1.84,1.5,3.93,1.5,6.3L698.62,640.16z
		 M681.27,631.99c-1.56,1.47-2.45,3.39-2.66,5.75h16.96c-0.21-2.37-1.1-4.28-2.66-5.75c-1.56-1.47-3.51-2.21-5.84-2.21
		C684.76,629.79,682.83,630.52,681.27,631.99z"/>
	<path class="st4" d="M721.38,649.8c-1.87-1.03-3.33-2.48-4.39-4.34c-1.06-1.86-1.59-3.96-1.59-6.3c0-2.33,0.53-4.43,1.59-6.28
		c1.06-1.85,2.52-3.29,4.39-4.32c1.87-1.03,3.98-1.55,6.34-1.55c2.06,0,3.9,0.4,5.53,1.21c1.62,0.8,2.9,1.98,3.84,3.52l-2.41,1.64
		c-0.79-1.18-1.79-2.07-3-2.66c-1.21-0.59-2.53-0.89-3.96-0.89c-1.73,0-3.28,0.39-4.66,1.16c-1.38,0.77-2.46,1.87-3.23,3.3
		c-0.77,1.43-1.16,3.05-1.16,4.87c0,1.85,0.39,3.48,1.16,4.89c0.77,1.41,1.85,2.5,3.23,3.27c1.38,0.77,2.93,1.16,4.66,1.16
		c1.42,0,2.74-0.29,3.96-0.86c1.21-0.57,2.21-1.45,3-2.64l2.41,1.64c-0.94,1.55-2.23,2.72-3.86,3.52c-1.64,0.8-3.47,1.2-5.5,1.2
		C725.36,651.35,723.25,650.83,721.38,649.8z"/>
	<path class="st4" d="M763.43,644.62c0,2.09-0.77,3.7-2.32,4.82c-1.55,1.12-3.85,1.68-6.91,1.68h-10.87V627.2h10.55
		c2.73,0,4.87,0.53,6.41,1.59c1.55,1.06,2.32,2.58,2.32,4.55c0,1.3-0.36,2.42-1.07,3.34c-0.71,0.92-1.71,1.61-2.98,2.07
		C761.8,639.51,763.43,641.46,763.43,644.62z M746.46,637.84h7.19c1.85,0,3.27-0.35,4.25-1.05c0.98-0.7,1.48-1.71,1.48-3.05
		c0-1.33-0.49-2.33-1.48-3c-0.99-0.67-2.4-1-4.25-1h-7.19V637.84z M758.7,647.57c1.03-0.67,1.55-1.71,1.55-3.14
		s-0.47-2.48-1.41-3.16c-0.94-0.68-2.43-1.02-4.46-1.02h-7.91v8.32h7.6C756.12,648.57,757.66,648.24,758.7,647.57z"/>
	<path class="st4" d="M789.35,627.2v23.92h-2.96v-7.91h-7.5h-0.91l-5.55,7.91h-3.5l5.96-8.37c-1.85-0.52-3.28-1.39-4.28-2.64
		c-1-1.24-1.5-2.82-1.5-4.73c0-2.67,0.91-4.7,2.73-6.09c1.82-1.39,4.31-2.09,7.46-2.09H789.35z M779.16,640.79h7.23v-10.73h-7
		c-4.67,0-7,1.81-7,5.41C772.38,639.02,774.64,640.79,779.16,640.79z"/>
	<path class="st4" d="M813.61,640.7c0.93,0.97,1.39,2.15,1.39,3.55c0,1.4-0.48,2.64-1.43,3.73c-0.96,1.09-2.25,1.93-3.89,2.52
		c-1.64,0.59-3.44,0.89-5.41,0.89c-1.73,0-3.43-0.25-5.09-0.75s-3.12-1.24-4.37-2.21l1.09-2.41c1.09,0.82,2.37,1.46,3.82,1.91
		c1.46,0.46,2.93,0.68,4.41,0.68c2.21,0,4.03-0.42,5.44-1.25c1.41-0.83,2.11-1.96,2.11-3.39c0-1.27-0.58-2.27-1.73-2.98
		c-1.15-0.71-2.73-1.07-4.73-1.07h-4.09v-2.37h3.91c1.79,0,3.23-0.34,4.32-1.02c1.09-0.68,1.64-1.6,1.64-2.75
		c0-1.27-0.61-2.27-1.84-3c-1.23-0.73-2.83-1.09-4.8-1.09c-2.58,0-5.12,0.65-7.64,1.95l-0.91-2.5c2.85-1.48,5.81-2.23,8.87-2.23
		c1.82,0,3.46,0.27,4.93,0.8c1.47,0.53,2.62,1.28,3.46,2.25c0.83,0.97,1.25,2.09,1.25,3.37c0,1.21-0.42,2.29-1.25,3.23
		c-0.84,0.94-1.96,1.64-3.39,2.09C811.38,639.05,812.69,639.73,813.61,640.7z"/>
	<path class="st4" d="M822.32,627.2h3.23v19.01l15.96-19.01h2.87v23.92h-3.23v-19.01l-15.92,19.01h-2.91V627.2z"/>
</g>
</svg>
