<?xml version="1.0" encoding="utf-8"?>
<!-- Generator: Adobe Illustrator 24.0.2, SVG Export Plug-In . SVG Version: 6.00 Build 0)  -->
<svg version="1.1" id="Слой_1" xmlns="http://www.w3.org/2000/svg" xmlns:xlink="http://www.w3.org/1999/xlink" x="0px" y="0px"
	 viewBox="0 0 120 120" style="enable-background:new 0 0 120 120;" xml:space="preserve">
<style type="text/css">
	.st0{fill:url(#SVGID_1_);}
	.st1{fill:url(#SVGID_2_);}
	.st2{fill:url(#SVGID_3_);}
	.st3{fill:url(#SVGID_4_);}
</style>
<linearGradient id="SVGID_1_" gradientUnits="userSpaceOnUse" x1="15.2161" y1="107.6313" x2="121.2742" y2="107.6313">
	<stop  offset="0" style="stop-color:#39D82F"/>
	<stop  offset="1" style="stop-color:#279813"/>
</linearGradient>
<path class="st0" d="M120,95.26V120H97.69C97.69,107.13,107.47,96.55,120,95.26z"/>
<linearGradient id="SVGID_2_" gradientUnits="userSpaceOnUse" x1="15.2161" y1="91.6669" x2="121.2742" y2="91.6669">
	<stop  offset="0" style="stop-color:#39D82F"/>
	<stop  offset="1" style="stop-color:#279813"/>
</linearGradient>
<path class="st1" d="M65.84,120h15.72c0-21.79,16.99-39.6,38.45-40.93V63.33C89.91,64.68,65.84,89.58,65.84,120z"/>
<linearGradient id="SVGID_3_" gradientUnits="userSpaceOnUse" x1="15.2161" y1="75.7679" x2="121.2742" y2="75.7679">
	<stop  offset="0" style="stop-color:#39D82F"/>
	<stop  offset="1" style="stop-color:#279813"/>
</linearGradient>
<path class="st2" d="M59.97,57.42C43.26,74.13,34.05,96.36,34.05,120h15.72c0-39.34,31.21-71.39,70.23-72.73V31.54
	C97.32,32.17,76.09,41.3,59.97,57.42z"/>
<linearGradient id="SVGID_4_" gradientUnits="userSpaceOnUse" x1="15.2161" y1="60" x2="121.2742" y2="60">
	<stop  offset="0" style="stop-color:#39D82F"/>
	<stop  offset="1" style="stop-color:#279813"/>
</linearGradient>
<path class="st3" d="M75.84,9.41c-14.3,6.05-27.13,14.7-38.15,25.71C26.67,46.15,18.02,58.98,11.97,73.28
	C5.7,88.08,2.53,103.8,2.53,120h15.72C18.25,63.25,63.58,17.08,120,15.73V0C104.71,0.31,89.87,3.48,75.84,9.41z"/>
</svg>
