<svg width="40" height="40" viewBox="0 0 40 40" fill="none" xmlns="http://www.w3.org/2000/svg">
<path d="M38.4375 40C37.5745 40 36.875 39.3005 36.875 38.4375V1.5625C36.875 0.699463 37.5745 0 38.4375 0C39.3005 0 40 0.699463 40 1.5625V38.4375C40 39.3005 39.3005 40 38.4375 40ZM33.8281 38.4375V7.89062C33.8281 7.02759 33.1287 6.32812 32.2656 6.32812C31.4026 6.32812 30.7031 7.02759 30.7031 7.89062V38.4375C30.7031 39.3005 31.4026 40 32.2656 40C33.1287 40 33.8281 39.3005 33.8281 38.4375ZM27.6562 38.4375V14.1406C27.6562 13.2776 26.9568 12.5781 26.0938 12.5781C25.2307 12.5781 24.5312 13.2776 24.5312 14.1406V38.4375C24.5312 39.3005 25.2307 40 26.0938 40C26.9568 40 27.6562 39.3005 27.6562 38.4375ZM21.4844 38.4375V20.3906C21.4844 19.5276 20.7849 18.8281 19.9219 18.8281C19.0588 18.8281 18.3594 19.5276 18.3594 20.3906V38.4375C18.3594 39.3005 19.0588 40 19.9219 40C20.7849 40 21.4844 39.3005 21.4844 38.4375ZM15.3125 38.4375V26.6406C15.3125 25.7776 14.613 25.0781 13.75 25.0781C12.887 25.0781 12.1875 25.7776 12.1875 26.6406V38.4375C12.1875 39.3005 12.887 40 13.75 40C14.613 40 15.3125 39.3005 15.3125 38.4375ZM9.14062 38.4375V32.1094C9.14062 31.2463 8.44116 30.5469 7.57812 30.5469C6.71509 30.5469 6.01562 31.2463 6.01562 32.1094V38.4375C6.01562 39.3005 6.71509 40 7.57812 40C8.44116 40 9.14062 39.3005 9.14062 38.4375ZM3.125 38.4375C3.125 37.5745 2.42554 36.875 1.5625 36.875C0.699463 36.875 0 37.5745 0 38.4375C0 39.3005 0.699463 40 1.5625 40C2.42554 40 3.125 39.3005 3.125 38.4375Z" fill="url(#paint0_linear)"/>
<defs>
<linearGradient id="paint0_linear" x1="20" y1="0" x2="20" y2="40" gradientUnits="userSpaceOnUse">
<stop stop-color="#D4FC79"/>
<stop offset="1" stop-color="#96E6A1"/>
</linearGradient>
</defs>
</svg>
