<svg id="Слой_1" data-name="Слой 1" xmlns="http://www.w3.org/2000/svg" xmlns:xlink="http://www.w3.org/1999/xlink" viewBox="0 0 439.31 263.45"><defs><style>.cls-1{fill:url(#Безымянный_градиент_7);}.cls-2{fill:#fff;}</style><linearGradient id="Безымянный_градиент_7" x1="37.97" y1="-49.96" x2="394.28" y2="306.35" gradientUnits="userSpaceOnUse"><stop offset="0" stop-color="#4dca40"/><stop offset="1" stop-color="#c0e69c"/></linearGradient></defs><title>SmartSignal_icon</title><rect class="cls-1" width="439.31" height="263.45"/><path class="cls-2" d="M323.45,171.23l-7-12.19a3.75,3.75,0,0,0-6.49,0l-7,12.19a3.75,3.75,0,0,0,2.85,5.6l.39,0h4.06a1.78,1.78,0,0,0,1.77-1.78h0a1.77,1.77,0,0,0-1.77-1.77h-4.06a.17.17,0,0,1-.17-.1.16.16,0,0,1,0-.19l7-12.2a.16.16,0,0,1,.17-.1.16.16,0,0,1,.16.1l7.05,12.2a.2.2,0,0,1,0,.19.19.19,0,0,1-.18.1H315a1.78,1.78,0,0,0-1.78,1.77h0a1.78,1.78,0,0,0,1.78,1.78h5.26l.39,0a3.74,3.74,0,0,0,2.85-5.6Z"/><path class="cls-2" d="M326.76,187.49l-6.16-10.66-1-1.65a3.76,3.76,0,0,0-3.25-1.88H315a1.78,1.78,0,0,0-1.78,1.77h0a1.78,1.78,0,0,0,1.78,1.78h1.45a.17.17,0,0,1,.17.1l7.12,12.32a.17.17,0,0,1,0,.2.19.19,0,0,1-.17.09H302.83a.19.19,0,0,1-.17-.09.17.17,0,0,1,0-.2l7.12-12.33a.18.18,0,0,1,.17-.09h.25a1.78,1.78,0,0,0,1.77-1.78h0a1.77,1.77,0,0,0-1.77-1.77H310a3.77,3.77,0,0,0-3.25,1.87l-.95,1.66-6.16,10.67a3.74,3.74,0,0,0,3.24,5.61h20.69a3.75,3.75,0,0,0,3.24-5.62Z"/><path class="cls-2" d="M326.82,209.37H299.53a3.74,3.74,0,0,1-3.24-5.61l7.12-12.33a3.74,3.74,0,0,1,3.24-1.87H319.7a3.73,3.73,0,0,1,3.24,1.88l7.12,12.32a3.74,3.74,0,0,1-3.24,5.61Zm-20.17-16.26a.19.19,0,0,0-.17.09l-7.12,12.33a.19.19,0,0,0,0,.2.18.18,0,0,0,.17.1h27.29a.18.18,0,0,0,.17-.1.19.19,0,0,0,0-.2l-7.12-12.32a.18.18,0,0,0-.17-.1Z"/><path class="cls-2" d="M319.27,221.15H307.08V205.83h12.19Zm-8.64-3.54h5.1v-8.24h-5.1Z"/><path class="cls-2" d="M139.82,198.51l-8-13.89a4.87,4.87,0,0,0,3.72-7.28l-8-13.88a4.87,4.87,0,0,0,3.71-7.28l-9.16-15.88a4.88,4.88,0,0,0-8.44,0l-9.16,15.88a4.87,4.87,0,0,0,3.71,7.28l-8,13.88a4.88,4.88,0,0,0,3.73,7.28l-8,13.89a4.88,4.88,0,0,0,4.22,7.31h9.82v15.34h15.87V205.82h9.83a4.88,4.88,0,0,0,4.22-7.31Zm-31.37-40,9.17-15.87a.22.22,0,0,1,.22-.13.23.23,0,0,1,.22.13l9.17,15.87a.25.25,0,0,1,0,.26.24.24,0,0,1-.23.13H108.67a.24.24,0,0,1-.22-.13A.25.25,0,0,1,108.45,158.48Zm12.71,58.06h-6.64V205.82h6.64Zm14.66-15.47a.24.24,0,0,1-.22.13H100.08a.23.23,0,0,1-.22-.13.21.21,0,0,1,0-.25l9.27-16a.22.22,0,0,1,.21-.12h8a2.32,2.32,0,0,0,2.31-2.31h0a2.32,2.32,0,0,0-2.31-2.31h-13a.24.24,0,0,1-.22-.13.23.23,0,0,1,0-.25l9.27-16a.23.23,0,0,1,.21-.13H122a.29.29,0,0,1,.23.13l9.25,16a.21.21,0,0,1,0,.25.22.22,0,0,1-.22.13h-6a2.32,2.32,0,0,0-2.31,2.31h0a2.32,2.32,0,0,0,2.31,2.31h1a.27.27,0,0,1,.23.12l9.26,16A.23.23,0,0,1,135.82,201.07Z"/><path class="cls-2" d="M200.5,172.48a2.28,2.28,0,0,1-2.28,2.27h0a2.28,2.28,0,1,1,0-4.56h0A2.28,2.28,0,0,1,200.5,172.48Z"/><path class="cls-2" d="M285.89,200.89h-5.71v-48.3a2.28,2.28,0,1,0-4.55,0v48.3H209.12V140.1a2.28,2.28,0,0,0-2.28-2.27H172.58a2.27,2.27,0,0,0-2.27,2.27v60.79h-9.25V189.14a2.28,2.28,0,0,0-4.56,0v11.75h-5.7a2.28,2.28,0,0,0-2.28,2.29v15.74a2.28,2.28,0,0,0,2.28,2.28h31a2.28,2.28,0,0,0,0-4.56H153.08V205.45H283.61v11.19h-87a2.28,2.28,0,0,0,0,4.56h89.27a2.28,2.28,0,0,0,2.28-2.28V203.18A2.28,2.28,0,0,0,285.89,200.89Zm-81.33,0h-29.7V142.38h29.7Z"/><path class="cls-2" d="M229,179.06h37.58a2.28,2.28,0,0,0,2.28-2.28V140.1a2.28,2.28,0,0,0-2.28-2.27h-7.62a2.28,2.28,0,0,0-2.28,2.28h0a2.28,2.28,0,0,0,2.28,2.28h5.34v19.5h-33v-19.5h19.81a2.28,2.28,0,0,0,2.28-2.28h0a2.28,2.28,0,0,0-2.28-2.28H229a2.28,2.28,0,0,0-2.28,2.27v36.68A2.28,2.28,0,0,0,229,179.06Zm2.28-12.61h33v8.05h-33Z"/><path class="cls-2" d="M218.34,100.49a15.18,15.18,0,1,0,15.18,15.17A15.19,15.19,0,0,0,218.34,100.49Zm0,25.79A10.62,10.62,0,1,1,229,115.66,10.62,10.62,0,0,1,218.34,126.28Z"/><path class="cls-2" d="M294.35,128.65a5.38,5.38,0,0,0-1.92-3.75L255.31,94a2.26,2.26,0,0,0-3.2.29h0a2.28,2.28,0,0,0,.29,3.22l37.12,30.9a.78.78,0,0,1,.29.55.83.83,0,0,1-.21.59l-3.83,4.19a.79.79,0,0,1-1.09.08L221.76,81.64a5.36,5.36,0,0,0-6.83,0L152,133.82a.79.79,0,0,1-1.09-.08l-3.83-4.19a.81.81,0,0,1-.2-.59.8.8,0,0,1,.28-.55L217.84,69.8a.77.77,0,0,1,.5-.18.81.81,0,0,1,.51.18l20.89,17.33a2.28,2.28,0,0,0,3.2-.29h0a2.28,2.28,0,0,0-.3-3.22L221.76,66.29a5.36,5.36,0,0,0-6.83,0L188.69,88.05V66.41h.49a4.13,4.13,0,0,0,4.12-4.12V56.15A4.13,4.13,0,0,0,189.18,52H159.09A4.14,4.14,0,0,0,155,56.15v6.14a4.14,4.14,0,0,0,4.13,4.12h.48v45.78L144.25,124.9a5.34,5.34,0,0,0-.53,7.72l3.83,4.2a5.34,5.34,0,0,0,7.36.51L156.5,136v42.4a2.35,2.35,0,0,0,2.06,2.36,2.28,2.28,0,0,0,2.5-2.27V132.23l56.78-47.08a.8.8,0,0,1,1,0l56.78,47.08v9.63a2.34,2.34,0,0,0,2.05,2.36,2.28,2.28,0,0,0,2.5-2.27V136l1.59,1.32a5.36,5.36,0,0,0,7.37-.51l3.82-4.2A5.33,5.33,0,0,0,294.35,128.65ZM184.13,91.82,182,93.61l-5.49,4.56-12.35,10.25v-42h20Zm-24.61-30V56.58h29.22v5.27Z"/><rect class="cls-2" x="230.42" y="154.81" width="34.67" height="4.73" transform="translate(90.59 404.92) rotate(-90)"/><rect class="cls-2" x="216.06" y="105.05" width="4.56" height="21.23" transform="translate(334.01 -102.68) rotate(90)"/><rect class="cls-2" x="216.06" y="105.05" width="4.56" height="21.23" transform="translate(436.69 231.33) rotate(180)"/><rect class="cls-2" x="172.79" y="146.86" width="34.93" height="4.48"/><rect class="cls-2" x="172.79" y="191.93" width="34.93" height="4.48"/><path class="cls-2" d="M276.84,103.73a17.07,17.07,0,0,1-14.54-26,5.11,5.11,0,0,1,8-.91l16.38,16.37a5.12,5.12,0,0,1,1.47,4.25,5,5,0,0,1-2.38,3.73A17,17,0,0,1,276.84,103.73ZM266.64,80h-.06a.46.46,0,0,0-.35.21,12.44,12.44,0,0,0,17.1,17.1.43.43,0,0,0,.22-.34.57.57,0,0,0-.15-.45L267,80.11A.52.52,0,0,0,266.64,80Z"/><rect class="cls-2" x="264.08" y="96.65" width="4.61" height="9.52"/><path class="cls-2" d="M287.64,87.57a2.31,2.31,0,0,1-2.29-2,8.38,8.38,0,0,0-7.28-7.28,2.31,2.31,0,0,1,.57-4.58A13,13,0,0,1,289.93,85a2.3,2.3,0,0,1-2,2.57Z"/><path class="cls-2" d="M298,88.75a2.31,2.31,0,0,1-2.29-2,21.85,21.85,0,0,0-19-19,2.3,2.3,0,1,1,.57-4.57,26.46,26.46,0,0,1,23,23,2.31,2.31,0,0,1-2,2.58Z"/><path class="cls-2" d="M309.45,90.19a2.3,2.3,0,0,1-2.28-2,35.42,35.42,0,0,0-30.74-30.74,2.31,2.31,0,0,1,.57-4.58A40.06,40.06,0,0,1,311.75,87.6a2.31,2.31,0,0,1-2,2.57Z"/><circle class="cls-2" cx="278.28" cy="84.86" r="1.57"/></svg>