<svg id="Слой_1" data-name="Слой 1" xmlns="http://www.w3.org/2000/svg" xmlns:xlink="http://www.w3.org/1999/xlink" viewBox="0 0 439.31 263.45"><defs><style>.cls-1{fill:url(#Безымянный_градиент_7);}.cls-2{fill:#fff;}</style><linearGradient id="Безымянный_градиент_7" x1="37.97" y1="-49.96" x2="394.28" y2="306.35" gradientUnits="userSpaceOnUse"><stop offset="0" stop-color="#4dca40"/><stop offset="1" stop-color="#c0e69c"/></linearGradient></defs><title>SmartSignal_icon</title><rect class="cls-1" width="439.31" height="263.45"/><path class="cls-2" d="M243.42,168.79V198a3,3,0,0,1-3,3H190.52a3,3,0,0,1-3-3V168.79a3,3,0,0,1,3-3h12.41a3,3,0,0,1,0,6.06h-9.38v11.56h7.59a3,3,0,1,1,0,6.05h-7.59V195h43.82v-5.55H210.9a3,3,0,1,1,0-6.05h26.47V171.82H216.25a3,3,0,0,1,0-6.06h24.14A3,3,0,0,1,243.42,168.79Z"/><path class="cls-2" d="M311,165.76H261.15a3,3,0,0,0-3,3V198a3,3,0,0,0,3,3h26.51a3,3,0,0,0,0-6.07H264.17v-5.55H308V195h-7.35a3,3,0,0,0-2.13,5.18,3,3,0,0,0,2.13.89H311a3,3,0,0,0,3-3V168.79A3,3,0,0,0,311,165.76Zm-3,17.62H264.17V171.82H308Z"/><path class="cls-2" d="M119.51,71a3,3,0,0,1-2,1.15,13.58,13.58,0,0,0-11.76,11.77,3,3,0,0,1-6-.75,19.65,19.65,0,0,1,17-17,2.48,2.48,0,0,1,.38,0,3,3,0,0,1,3,2.66A3,3,0,0,1,119.51,71Z"/><path class="cls-2" d="M121.52,54.69a3,3,0,0,1-2,1.15A34.41,34.41,0,0,0,89.65,85.71a3,3,0,0,1-3.39,2.62A3,3,0,0,1,83.64,85a40.48,40.48,0,0,1,35.12-35.12l.38,0a3.07,3.07,0,0,1,1.84.62,3,3,0,0,1,.54,4.26Z"/><path class="cls-2" d="M120,39.81A55.45,55.45,0,0,0,71.92,87.93a3,3,0,1,1-6-.76A61.55,61.55,0,0,1,119.28,33.8a2.36,2.36,0,0,1,.37,0,3,3,0,0,1,.39,6Z"/><path class="cls-2" d="M250.57,111V76.3a3,3,0,0,0-3-3h-19.9a3,3,0,0,0-3,3V111H138.69v-8l.14-.15a25.67,25.67,0,0,0,2.7-30.69,7.24,7.24,0,0,0-5.39-3.44A7.39,7.39,0,0,0,130,70.83L118.93,81.9l-.38-.37a1.85,1.85,0,0,0-1.32-.54,1.89,1.89,0,0,0-1.89,1.89,1.85,1.85,0,0,0,.54,1.32l.38.38L104.63,96.21a7.39,7.39,0,0,0-2.12,6.13,7.31,7.31,0,0,0,3.43,5.4,25.77,25.77,0,0,0,25.88.67l.81-.43v4.46L94.41,146.63a3.07,3.07,0,0,0-1,2.26v14.53a3,3,0,0,0,3,3,3,3,0,0,0,2.13-.88,3,3,0,0,0,.9-2.15V150.25l36-32.2,36,32.2v66.17h-6.61V205.17a3,3,0,0,0-3-3,3,3,0,0,0-2.13.89,3,3,0,0,0-.9,2.14v11.25H112.84v-34h45.92v10.19a3,3,0,0,0,6.06,0V161.33a3,3,0,0,0-3-3h-52a3,3,0,0,0-2.13.88,3.06,3.06,0,0,0-.54.7,2.87,2.87,0,0,0-.37,1.45v55.09H99.46V175.94a3,3,0,0,0-5.17-2.14,3,3,0,0,0-.88,2.14v43.51a3,3,0,0,0,3,3H326.5a3,3,0,0,0,3-3v-8.22a3,3,0,0,0-3-3,3.06,3.06,0,0,0-2.15.88,3.09,3.09,0,0,0-.88,2.15v5.19h-146v-64.5h146v41.59a3,3,0,1,0,6.06,0V148.89c0-.11,0-.22,0-.32l0-.26c-.05-.16-.07-.26-.1-.35s-.07-.18-.11-.28h-.21v-.41a.76.76,0,0,0-.11-.16l0,0a2.36,2.36,0,0,0-.2-.23.93.93,0,0,0-.19-.2l-39-34.91a3,3,0,0,0-2-.78h-4.14V56.85a3,3,0,0,0-3-3h-19.9a3,3,0,0,0-3,3V111ZM133.48,99.67a19.73,19.73,0,0,1-24.36,2.91,1.3,1.3,0,0,1-.6-.93,1.43,1.43,0,0,1,.4-1.15l25.39-25.38a1.34,1.34,0,0,1,1-.41h.15a1.22,1.22,0,0,1,1,.61A19.71,19.71,0,0,1,133.48,99.67Zm18.17,64.68h7.11v12h-7.11Zm-26,0h19.94v12H125.65Zm-12.81,0h6.76v12h-6.76ZM263.44,59.87h13.85V111H263.44ZM230.67,79.32H244.5V111H230.67Zm-16.62,66-31-27.76h28.31l31,27.76Zm-38.44.54L143.38,117h29.14l32.24,28.85Zm77.25,0L220.6,117h30l32.24,28.85Zm39,0L259.63,117h26.69l32.25,28.85Z"/></svg>