<svg id="Слой_1" data-name="Слой 1" xmlns="http://www.w3.org/2000/svg" xmlns:xlink="http://www.w3.org/1999/xlink" viewBox="0 0 439.31 263.45"><defs><style>.cls-1{fill:url(#Безымянный_градиент_7);}.cls-2{fill:#fff;}</style><linearGradient id="Безымянный_градиент_7" x1="37.97" y1="-49.96" x2="394.28" y2="306.35" gradientUnits="userSpaceOnUse"><stop offset="0" stop-color="#4dca40"/><stop offset="1" stop-color="#c0e69c"/></linearGradient></defs><title>SmartSignal_icon</title><rect class="cls-1" width="439.31" height="263.45"/><path class="cls-2" d="M314.41,222.79a13.74,13.74,0,0,1-8.24-2.73l-1.62-1.2-1.62,1.2A13.82,13.82,0,0,1,280.87,209a13.86,13.86,0,0,1,9-13l2.23-.83-.54-2.33a13.82,13.82,0,1,1,27.29-3.08,14.13,14.13,0,0,1-.42,3.43l-.56,2.21,2.09.92a13.81,13.81,0,0,1,5.6,4.54,2.75,2.75,0,0,0,2.23,1.18h0a2.71,2.71,0,0,0,2.24-4.23,19.23,19.23,0,0,0-5.94-5.44,20.67,20.67,0,0,0,.17-2.61,19.24,19.24,0,1,0-38.47.32c0,.58.05,1.17.11,1.75a19.24,19.24,0,0,0,8.75,36.38,18.61,18.61,0,0,0,3.25-.29,4.89,4.89,0,0,0,.53-.09,19.51,19.51,0,0,0,6.07-2.34,19.5,19.5,0,0,0,6.06,2.34l.55.1a19.14,19.14,0,0,0,14.08-3.07,2.7,2.7,0,0,0-1.56-4.92h0a2.63,2.63,0,0,0-1.47.43A13.7,13.7,0,0,1,314.41,222.79Z"/><path class="cls-2" d="M313.86,249.66H295.24V223l2.17-.44a13.84,13.84,0,0,0,5.52-2.46l1.62-1.2,1.62,1.2a13.63,13.63,0,0,0,5.51,2.45l2.18.44Zm-13.21-5.42h7.8v-17a19.3,19.3,0,0,1-3.9-1.77,19.05,19.05,0,0,1-3.9,1.77Z"/><path class="cls-2" d="M135.14,248.38H116.52V219.45l1.86-.62a13.55,13.55,0,0,0,6.68-4.92l1.69-2.35L129,213.4a13.43,13.43,0,0,0,4.31,2.39l1.85.61ZM121.94,243h7.79V220.2a19,19,0,0,1-2-1,18.77,18.77,0,0,1-5.79,4.1Z"/><path class="cls-2" d="M269.06,50.61a2.71,2.71,0,0,1-2.68-2.37,9.85,9.85,0,0,0-8.55-8.56,2.71,2.71,0,0,1,.67-5.37,15.25,15.25,0,0,1,13.25,13.25,2.71,2.71,0,0,1-2.35,3Z"/><path class="cls-2" d="M281.24,52a2.71,2.71,0,0,1-2.68-2.38,25.64,25.64,0,0,0-22.25-22.25A2.71,2.71,0,1,1,257,22a31,31,0,0,1,26.95,27,2.71,2.71,0,0,1-2.35,3Z"/><path class="cls-2" d="M294.67,53.68A2.7,2.7,0,0,1,292,51.31,41.6,41.6,0,0,0,255.9,15.23a2.71,2.71,0,0,1,.67-5.38,47,47,0,0,1,40.79,40.79,2.7,2.7,0,0,1-2.35,3Z"/><path class="cls-2" d="M239.09,224.93h0c0-1.42-.24-127.11,0-158.83a5.74,5.74,0,0,0-9.44-4.43L220.82,69a2.71,2.71,0,0,0-.33,3.81h0a2.72,2.72,0,0,0,3.82.33l8.78-7.37a.3.3,0,0,1,.35,0,.29.29,0,0,1,.19.3c-.18,29.28,0,136.3,0,156.16H178.14V209.87a2.71,2.71,0,0,0-5.42,0v17.76h66.37Zm-63.66-24.35a2.67,2.67,0,0,0,1.91-.8,2.71,2.71,0,0,0,.8-1.91V112.06a.29.29,0,0,1,.1-.23L213,82.66a2.71,2.71,0,0,0,.34-3.82h0a2.71,2.71,0,0,0-3.82-.33l-34.76,29.17a5.71,5.71,0,0,0-2.05,4.38v85.81A2.71,2.71,0,0,0,175.43,200.58Z"/><path class="cls-2" d="M266.54,248.38H167.62a5.72,5.72,0,0,1-5.72-5.72V227.93a5.72,5.72,0,0,1,5.72-5.71h98.92a5.71,5.71,0,0,1,5.71,5.71v14.73A5.72,5.72,0,0,1,266.54,248.38Zm-98.92-20.75a.3.3,0,0,0-.3.3v14.73a.29.29,0,0,0,.3.3h98.92a.3.3,0,0,0,.3-.3V227.93a.31.31,0,0,0-.3-.3Z"/><path class="cls-2" d="M209,115.6H172.72v82.26a2.71,2.71,0,0,0,2.71,2.71h0a2.71,2.71,0,0,0,2.71-2.71V121H209a.3.3,0,0,1,.3.3v89.36a.3.3,0,0,1-.3.3H178.14v-1.09a2.71,2.71,0,0,0-2.71-2.71h0a2.71,2.71,0,0,0-2.71,2.71v6.51H209a5.72,5.72,0,0,0,5.72-5.72V121.31A5.73,5.73,0,0,0,209,115.6Z"/><rect class="cls-2" x="190.99" y="146.71" width="5.42" height="38.58" transform="translate(359.69 -27.7) rotate(90)"/><path class="cls-2" d="M240.05,52.89h0a2.7,2.7,0,0,1-3.31,1.91L198.23,44.48l-2.53-.68,1.4-5.23,1.13.3,39.91,10.7A2.71,2.71,0,0,1,240.05,52.89Z"/><path class="cls-2" d="M260.21,55.48,259,60.19l-.14.52L252.5,59a2.7,2.7,0,0,1-1.91-3.31h0a2.71,2.71,0,0,1,3.31-1.92l5,1.36Z"/><rect class="cls-2" x="245.03" y="128.71" width="5.42" height="22.41" transform="translate(387.66 -107.83) rotate(90)"/><rect class="cls-2" x="245.03" y="107.1" width="5.42" height="22.41" transform="translate(366.05 -129.43) rotate(90)"/><rect class="cls-2" x="245.03" y="85.5" width="5.42" height="22.41" transform="translate(344.44 -151.04) rotate(90)"/><rect class="cls-2" x="245.03" y="150.32" width="5.42" height="22.41" transform="translate(409.26 -86.22) rotate(90)"/><rect class="cls-2" x="245.03" y="171.92" width="5.42" height="22.41" transform="translate(430.87 -64.62) rotate(90)"/><rect class="cls-2" x="190.99" y="170.55" width="5.42" height="38.58" transform="translate(383.54 -3.86) rotate(90)"/><path class="cls-2" d="M185.64,128.89H187a2,2,0,0,1,2,2v21.79a0,0,0,0,1,0,0h-5.42a0,0,0,0,1,0,0V130.92A2,2,0,0,1,185.64,128.89Z" transform="translate(327.12 -45.52) rotate(90)"/><path class="cls-2" d="M261.66,49.06V77.87A2.71,2.71,0,0,1,259,80.58h0a2.71,2.71,0,0,1-2.71-2.71V49.06a.29.29,0,0,0-.22-.29l-54.7-14.66a.26.26,0,0,0-.26,0,.29.29,0,0,0-.12.25V53.54a2.71,2.71,0,0,1-2.71,2.71h0a2.71,2.71,0,0,1-2.71-2.71V34.6a6,6,0,0,1,2.16-4.68,5.68,5.68,0,0,1,5-1.05l54.69,14.66A5.73,5.73,0,0,1,261.66,49.06Z"/><path class="cls-2" d="M259,86.34h0a2.71,2.71,0,0,1,2.71,2.71V224.93h-5.42V89.05A2.71,2.71,0,0,1,259,86.34Z"/><path class="cls-2" d="M198.23,62.81h0a2.71,2.71,0,0,1,2.71,2.71V92.27h-5.42V65.52A2.71,2.71,0,0,1,198.23,62.81Z"/><path class="cls-2" d="M235.84,227.63h-15V186.14a5.72,5.72,0,0,1,5.71-5.72h9.29v5.42h-9.29a.3.3,0,0,0-.3.3v36.08h9.59Z"/><path class="cls-2" d="M250.45,227.63H233.83V189.84h10.9a5.72,5.72,0,0,1,5.72,5.72Zm-11.21-5.41H245V195.56a.3.3,0,0,0-.3-.31h-5.49Z"/><path class="cls-2" d="M143.58,185.06a17.56,17.56,0,0,0,.1-1.93A18.91,18.91,0,0,0,106.13,180a2.71,2.71,0,0,0,2.68,3.14h0a2.69,2.69,0,0,0,2.66-2.24,13.49,13.49,0,0,1,26.8,2.24,13.12,13.12,0,0,1-.41,3.26l-.71,2.82,2.86.52a13.49,13.49,0,0,1-1.35,26.71,13.48,13.48,0,0,1-9.68-3l-2.23-1.84-1.69,2.35a13.5,13.5,0,0,1-23.29-13.36,2.7,2.7,0,0,0-2.48-3.78h0a2.72,2.72,0,0,0-2.49,1.64,18.91,18.91,0,0,0,30.93,20.74,19.4,19.4,0,0,0,3.84,1.78,18.91,18.91,0,0,0,12-35.87Z"/></svg>