<?xml version="1.0" encoding="UTF-8"?>
<svg width="1665" height="1020" version="1.1" viewBox="0 0 1665 1020" xml:space="preserve" xmlns="http://www.w3.org/2000/svg" xmlns:cc="http://creativecommons.org/ns#" xmlns:dc="http://purl.org/dc/elements/1.1/" xmlns:rdf="http://www.w3.org/1999/02/22-rdf-syntax-ns#"><metadata><rdf:RDF><cc:Work rdf:about=""><dc:format>image/svg+xml</dc:format><dc:type rdf:resource="http://purl.org/dc/dcmitype/StillImage"/><dc:title/></cc:Work></rdf:RDF></metadata>
<style type="text/css">
	.st0{fill:#279813;}
	.st1{fill:#1A1A1A;}
	.st2{fill:#FFFFFF;}
	.st3{fill:url(#SVGID_1_);}
	.st4{fill:url(#SVGID_2_);}
	.st5{fill:url(#SVGID_3_);}
	.st6{fill:url(#SVGID_4_);}
	.st7{fill:#23222D;}
</style>
<g transform="translate(-20.314 -97.219)">
	<path class="st0" d="m726.86 494.1c-0.45 0-0.9-0.17-1.24-0.51-0.68-0.68-0.68-1.79 0-2.47 15.41-15.41 15.41-40.49 0-55.9-0.68-0.68-0.68-1.79 0-2.47s1.79-0.68 2.47 0c16.78 16.78 16.78 44.08 0 60.85-0.34 0.33-0.78 0.5-1.23 0.5z"/>


	<path class="st0" d="m743.07 510.31c-0.45 0-0.9-0.17-1.24-0.51-0.68-0.68-0.68-1.79 0-2.47 24.35-24.35 24.35-63.98 0-88.34-0.68-0.68-0.68-1.79 0-2.47s1.79-0.68 2.47 0c25.72 25.72 25.72 67.57 0 93.29-0.33 0.33-0.78 0.5-1.23 0.5z"/>


	<path class="st0" d="m759.29 526.53c-0.45 0-0.9-0.17-1.24-0.51-0.68-0.68-0.68-1.79 0-2.47 16.13-16.13 25.01-37.57 25.01-60.38s-8.88-44.25-25.01-60.38c-0.68-0.68-0.68-1.79 0-2.47s1.79-0.68 2.47 0c16.79 16.79 26.04 39.11 26.04 62.86s-9.25 46.07-26.04 62.86c-0.33 0.32-0.78 0.49-1.23 0.49z"/>
</g>
<path class="st0" d="m124.67 1010.9h-97.11c-2.93 0-5.57-1.51-7.05-4.04s-1.51-5.57-0.07-8.13l123.27-218.99c0.82-1.46 0.81-3.2-0.04-4.64-0.85-1.45-2.35-2.31-4.03-2.31h-26.83c-2.93 0-5.57-1.51-7.05-4.04s-1.51-5.57-0.07-8.13l62.38-110.83c0.82-1.46 0.81-3.2-0.04-4.64-0.85-1.45-2.35-2.31-4.03-2.31h-10.7c-2.93 0-5.57-1.51-7.05-4.04s-1.51-5.57-0.07-8.13l41.48-73.68c1.47-2.61 4.13-4.16 7.12-4.16s5.65 1.55 7.12 4.16l41.47 73.69c1.44 2.56 1.41 5.59-0.07 8.13-1.48 2.53-4.12 4.04-7.05 4.04h-10.7c-1.68 0-3.18 0.86-4.03 2.31s-0.86 3.18-0.04 4.64l21.2 37.66c0.47 0.84 0.18 1.91-0.67 2.38-0.84 0.47-1.91 0.18-2.38-0.67l-21.2-37.66c-1.44-2.56-1.41-5.59 0.07-8.13 1.48-2.53 4.12-4.04 7.05-4.04h10.7c1.68 0 3.18-0.86 4.03-2.31s0.86-3.18 0.04-4.64l-41.47-73.69c-0.84-1.49-2.36-2.38-4.07-2.38s-3.23 0.89-4.07 2.38l-41.48 73.68c-0.82 1.46-0.81 3.2 0.04 4.64 0.85 1.45 2.35 2.31 4.03 2.31h10.7c2.93 0 5.57 1.51 7.05 4.04s1.51 5.57 0.07 8.13l-62.38 110.83c-0.82 1.46-0.81 3.2 0.04 4.64 0.85 1.45 2.35 2.31 4.03 2.31h26.83c2.93 0 5.57 1.51 7.05 4.04s1.51 5.57 0.07 8.13l-123.27 219c-0.82 1.46-0.81 3.2 0.04 4.64 0.85 1.45 2.35 2.31 4.03 2.31h97.11c0.97 0 1.75 0.78 1.75 1.75s-0.78 1.75-1.75 1.75z"/>
<path class="st0" d="m194.79 661.92c-0.97 0-1.75-0.78-1.75-1.75v-105.59c0-0.97 0.78-1.75 1.75-1.75s1.75 0.78 1.75 1.75v105.59c0 0.97-0.78 1.75-1.75 1.75z"/>
<path class="st0" d="m211.84 621.04c-0.61 0-1.21-0.32-1.53-0.89l-17.05-30.29c-0.47-0.84-0.18-1.91 0.67-2.38 0.84-0.47 1.91-0.18 2.38 0.67l17.05 30.29c0.47 0.84 0.18 1.91-0.67 2.38-0.27 0.15-0.56 0.22-0.85 0.22z"/>
<path class="st0" d="m209.14 575.18c-0.23 0-0.46-0.04-0.68-0.14-0.89-0.38-1.3-1.41-0.92-2.3 5.36-12.59 19.64-21.37 39.44-24.34-25.65-29.67-33.07-63.36-17.5-80.95 11.76-13.29 34.54-14.98 59.93-4.6-3.15-26.53 4.47-47.27 19.39-52.09 11.76-3.8 26 3.15 38.1 18.59 0.6 0.76 0.46 1.86-0.3 2.46s-1.86 0.46-2.46-0.3c-11.15-14.24-23.96-20.75-34.26-17.42-13.58 4.39-20.4 25.49-16.59 51.32 0.09 0.63-0.16 1.26-0.67 1.65-0.51 0.38-1.19 0.46-1.77 0.21-25.08-11.06-47.59-10.1-58.74 2.51-14.8 16.72-6.53 49.85 19.67 78.76 0.44 0.49 0.57 1.18 0.34 1.79s-0.79 1.05-1.44 1.12c-20.21 2.31-34.76 10.58-39.91 22.67-0.3 0.66-0.95 1.06-1.63 1.06z"/>
<path class="st1" d="m1587.8 1011.3h-1333.5c-0.97 0-1.75-0.78-1.75-1.75s0.78-1.75 1.75-1.75h1333.5c0.97 0 1.75 0.78 1.75 1.75s-0.78 1.75-1.75 1.75z"/>
<path class="st1" d="m293.2 909.89c-40.96 0-70.38-5.44-99.53-33.23-0.04-0.04-0.08-0.08-0.12-0.11-2.89-2.76-5.83-5.8-8.71-9.03-17.25-20.79-21.23-46.55-10.18-65.68 7.54-13.08 21.43-21.87 38.37-24.4-1.91-3.07-3.69-6.28-5.32-9.6-16.59-33.87-12.69-69.96 8.7-80.44 13.85-6.79 32.04-1.53 48.13 13.7 0.51-5.77 1.53-11.61 3.04-17.41 4.61-17.72 13.28-33.23 24.41-43.67 11.12-10.43 23.42-14.57 34.63-11.65 8.89 2.31 16.24 8.83 21.25 18.85 0.43 0.86 0.08 1.92-0.78 2.35-0.87 0.43-1.92 0.08-2.35-0.78-4.55-9.09-11.12-14.98-19.01-17.03-10-2.61-21.14 1.23-31.35 10.82-10.65 9.99-18.97 24.9-23.42 41.99-1.78 6.87-2.86 13.78-3.2 20.54-0.04 0.7-0.48 1.31-1.13 1.55-0.65 0.25-1.39 0.08-1.87-0.42-15.65-16.17-33.58-22.19-46.81-15.7-19.66 9.63-22.84 43.61-7.1 75.75 1.98 4.03 4.2 7.92 6.6 11.55 0.34 0.51 0.38 1.16 0.12 1.71s-0.79 0.93-1.4 0.99c-17.07 1.83-31.1 10.22-38.49 23.03-10.31 17.85-6.46 42.04 9.8 61.65 2.77 3.1 5.64 6.07 8.48 8.79 0.03 0.02 0.05 0.05 0.08 0.07 28.32 27.01 57.06 32.29 97.14 32.29 0.97 0 1.75 0.78 1.75 1.75s-0.76 1.77-1.73 1.77z"/>
<path class="st0" d="m293.2 909.89c-0.97 0-1.75-0.78-1.75-1.75s0.78-1.75 1.75-1.75c16.97 0 35.07-0.7 52.4-5.81 0.93-0.28 1.9 0.26 2.17 1.18 0.27 0.93-0.26 1.9-1.18 2.17-17.76 5.24-36.15 5.96-53.39 5.96z"/>
<path class="st1" d="m194.79 877.06c-0.42 0-0.83-0.15-1.17-0.44-3.17-2.83-6.14-5.91-8.82-9.14-0.61-0.73-0.52-1.82 0.21-2.44 0.72-0.62 1.81-0.55 2.45 0.16 2.82 3.15 5.69 6.13 8.54 8.85 0.69 0.66 0.73 1.75 0.08 2.45-0.35 0.37-0.82 0.56-1.29 0.56z"/>
<path class="st1" d="m293.2 1010.9c-0.97 0-1.75-0.78-1.75-1.75v-101.03c0-0.97 0.78-1.75 1.75-1.75s1.75 0.78 1.75 1.75v101.03c0 0.97-0.78 1.75-1.75 1.75z"/>
<path class="st0" d="m235.63 1010.9h-110.96c-0.97 0-1.75-0.78-1.75-1.75s0.78-1.75 1.75-1.75h109.11c-0.65-10.31-3.32-21.64-7.74-32.89-11.6-29.49-32.68-49.97-46.03-44.72-6.1 2.4-8.79 9.3-9.98 14.67-0.14 0.62-0.59 1.11-1.2 1.3-0.6 0.18-1.26 0.03-1.72-0.4-23.64-22.44-51.65-30.16-65.15-17.95-8.91 8.06-10.08 23.61-3.11 41.59 0.27 0.69 0.07 1.47-0.49 1.96s-1.36 0.56-2.01 0.2c-11.37-6.48-20.75-7.07-25.73-1.64-4.39 4.8-4.15 13.54 0.56 20.33 0.55 0.79 0.35 1.88-0.44 2.44-0.79 0.55-1.88 0.35-2.44-0.44-5.71-8.23-5.82-18.62-0.26-24.68 2.7-2.95 10.4-8.55 26.03-1.14-5.73-17.6-3.75-32.8 5.54-41.2 14.45-13.06 43.21-6.13 67.74 16.01 2.18-7.28 6.07-12.19 11.36-14.28 15.64-6.15 37.85 14.37 50.57 46.69 4.83 12.28 7.62 24.68 8.08 35.85 0.02 0.48-0.16 0.94-0.49 1.28-0.31 0.32-0.77 0.52-1.24 0.52z"/>
<path class="st1" d="m293.2 909.89c-0.97 0-1.75-0.78-1.75-1.75v-209.03c0-0.97 0.78-1.75 1.75-1.75s1.75 0.78 1.75 1.75v209.02c0 0.97-0.78 1.76-1.75 1.76z"/>
<path class="st1" d="m293.2 909.89c-0.45 0-0.9-0.17-1.24-0.51l-80.13-80.13c-0.68-0.68-0.68-1.79 0-2.47s1.79-0.68 2.47 0l80.13 80.13c0.68 0.68 0.68 1.79 0 2.47-0.33 0.34-0.78 0.51-1.23 0.51z"/>
<path class="st1" d="m293.2 852.76c-0.45 0-0.9-0.17-1.24-0.51-0.68-0.68-0.68-1.79 0-2.47l26.65-26.65c0.68-0.68 1.79-0.68 2.47 0s0.68 1.79 0 2.47l-26.65 26.65c-0.33 0.33-0.78 0.51-1.23 0.51z"/>
<path class="st1" d="m293.2 789.35c-0.27 0-0.54-0.06-0.79-0.19-0.86-0.44-1.2-1.49-0.76-2.35l52.9-103.82c0.44-0.86 1.49-1.2 2.35-0.76s1.2 1.49 0.76 2.35l-52.9 103.82c-0.31 0.6-0.92 0.95-1.56 0.95z"/>
<g transform="translate(-20.314 -97.219)">
	<path class="st0" d="m366.63 681.67c-0.44 0-0.89-0.17-1.23-0.51l-66.45-65.76c-0.69-0.68-0.69-1.79-0.01-2.47 0.68-0.69 1.79-0.69 2.47-0.01l66.45 65.76c0.69 0.68 0.69 1.79 0.01 2.47-0.33 0.35-0.79 0.52-1.24 0.52z"/>


	<path class="st0" d="m366.64 681.67h-0.07l-52.94-2.16c-0.97-0.04-1.72-0.85-1.68-1.82s0.86-1.72 1.82-1.68l52.94 2.16c0.97 0.04 1.72 0.85 1.68 1.82-0.05 0.95-0.82 1.68-1.75 1.68z"/>


	<path class="st0" d="m328.37 643.81c-0.07 0-0.14 0-0.21-0.01l-17.85-2.18c-0.96-0.12-1.64-0.99-1.53-1.95 0.12-0.96 0.99-1.64 1.95-1.53l17.85 2.18c0.96 0.12 1.64 0.99 1.53 1.95-0.11 0.89-0.87 1.54-1.74 1.54z"/>


	<path class="st0" d="m366.63 681.67c-0.7 0-1.36-0.42-1.63-1.11l-24.01-61.61c-0.35-0.9 0.09-1.92 1-2.27 0.9-0.35 1.92 0.09 2.27 1l24.01 61.61c0.35 0.9-0.09 1.92-1 2.27-0.21 0.07-0.42 0.11-0.64 0.11z"/>
</g>
<path class="st0" d="m181.79 992.59h-0.25c-2.65-0.1-5.06-1.4-7.16-3.86-7.18-8.43-9.64-29.84-7.8-44.84 0.08-0.67 0.54-1.23 1.19-1.45 0.64-0.21 1.35-0.04 1.82 0.45 17.07 17.84 22.13 36.7 18.23 45.4-1.24 2.75-3.43 4.3-6.03 4.3zm-12.09-44.41c-0.95 13.91 1.55 31.47 7.35 38.28 1.45 1.71 2.97 2.57 4.63 2.63 0.47 0.02 1.91 0.07 2.95-2.24 2.78-6.2-0.2-21.94-14.93-38.67z"/>
<path class="st1" d="m260.79 816.31c-11.21 0-30.37-10.96-46.28-36.57-0.33-0.53-0.35-1.18-0.07-1.73 0.29-0.55 0.84-0.91 1.46-0.94 26.66-1.47 49.17 19.1 52.54 30.78 1.36 4.73-0.93 6.6-1.99 7.18-1.51 0.85-3.42 1.28-5.66 1.28zm-41.64-35.81c18.18 27.73 38.86 35.23 45.61 31.47 0.92-0.51 0.6-2.2 0.32-3.15-2.45-8.49-21.3-28.05-45.93-28.32z"/>
<g transform="translate(-20.314 -97.219)">
	<path class="st0" d="m1531.8 1108.5h-65.19c-0.97 0-1.75-0.78-1.75-1.75v-328.97c0-0.23 0.05-0.46 0.13-0.67 14.57-35.03 32.24-54.61 46.07-51.09 19 4.81 22.95 51.74 9 106.83-2.03 8-4.35 15.83-6.93 23.33 13.74-8.02 27.15-9.58 38.18-4.31 24.29 11.61 28.58 53.44 9.56 93.25-3.28 6.87-7.08 13.34-11.34 19.31 24.36-5.83 45.36-1.39 56.82 12.23 21.1 25.08 4.75 73.7-36.46 108.38-11.74 9.88-24.33 17.74-37.41 23.34-0.21 0.08-0.45 0.12-0.68 0.12zm-63.44-3.5h63.08c12.65-5.46 24.83-13.08 36.21-22.66 39.73-33.44 55.9-79.84 36.04-103.45-11.3-13.44-33.01-17.11-58.07-9.83-0.73 0.21-1.51-0.07-1.94-0.7s-0.4-1.46 0.07-2.06c5.35-6.85 10.05-14.49 13.97-22.72 18.18-38.07 14.63-77.81-7.91-88.58-11.01-5.26-24.87-2.85-39.03 6.78-0.63 0.43-1.46 0.4-2.06-0.07s-0.83-1.27-0.57-1.98c3.22-8.82 6.09-18.16 8.52-27.76 13.02-51.42 10.06-98.39-6.47-102.58-11.63-2.95-28.43 16.62-41.84 48.72z"/>


	<path class="st0" d="m1494.3 1010.4c-0.81 0-1.56-0.09-2.24-0.29-1.92-0.54-4.31-2.07-4.76-6.29-1.53-14.17 28.74-27.08 57.22-38.08 0.73-0.28 1.56-0.04 2.03 0.59s0.46 1.49-0.02 2.12c-18.59 24.07-41.09 41.95-52.23 41.95zm45.43-39.04c-18.73 7.36-50.19 20.75-48.96 32.09 0.27 2.46 1.4 3.06 2.23 3.29 7.07 2.01 27.4-11.91 46.73-35.38z"/>
</g>
<path class="st1" d="m601.8 142.59h-108.96c-2.75 0-4.98-2.24-4.98-4.98v-51.03c0-2.75 2.24-4.98 4.98-4.98h108.95c2.75 0 4.98 2.24 4.98 4.98v51.02c0.01 2.76-2.22 4.99-4.97 4.99zm-108.96-57.49c-0.82 0-1.48 0.67-1.48 1.48v51.02c0 0.82 0.67 1.48 1.48 1.48h108.95c0.82 0 1.48-0.67 1.48-1.48v-51.02c0-0.82-0.67-1.48-1.48-1.48z"/>
<path class="st1" d="m504.66 282.52c-0.97 0-1.75-0.78-1.75-1.75v-139.93c0-0.97 0.78-1.75 1.75-1.75s1.75 0.78 1.75 1.75v139.93c0 0.97-0.78 1.75-1.75 1.75z"/>
<path class="st1" d="m589.98 252.59c-0.97 0-1.75-0.78-1.75-1.75v-110c0-0.97 0.78-1.75 1.75-1.75s1.75 0.78 1.75 1.75v110c0 0.97-0.78 1.75-1.75 1.75z"/>
<g transform="translate(-20.314 -97.219)">
	<path class="st2" d="m1258 234.21v46.12c0-7.33-5.95-13.27-13.28-13.27h-510.48c-7.33 0-13.27 5.94-13.27 13.27v-46.12c0-7.33 5.94-13.28 13.27-13.28h510.48c7.33-0.01 13.28 5.94 13.28 13.28z"/>
	<path class="st1" d="m1258 282.08c-0.97 0-1.75-0.78-1.75-1.75 0-6.35-5.17-11.52-11.53-11.52h-510.48c-6.35 0-11.52 5.17-11.52 11.52 0 0.97-0.78 1.75-1.75 1.75s-1.75-0.78-1.75-1.75v-46.12c0-8.29 6.74-15.03 15.02-15.03h510.48c8.29 0 15.03 6.74 15.03 15.03v46.12c0 0.97-0.78 1.75-1.75 1.75zm-523.76-16.77h510.48c4.63 0 8.77 2.1 11.53 5.4v-36.5c0-6.36-5.17-11.53-11.53-11.53h-510.48c-6.35 0-11.52 5.17-11.52 11.53v36.5c2.76-3.3 6.9-5.4 11.52-5.4z"/>
</g>
<path class="st2" d="m1237.6 183.11v153.36c0 7.33-5.95 13.27-13.28 13.27h-112.21l18.1 47.52-74.25-47.52h-342.12c-7.33 0-13.27-5.94-13.27-13.27v-153.36c0-7.33 5.94-13.27 13.27-13.27h510.48c7.33 0 13.28 5.94 13.28 13.27z"/>
<path class="st1" d="m1130.2 399.01c-0.33 0-0.65-0.09-0.94-0.28l-73.82-47.25h-341.6c-8.28 0-15.02-6.74-15.02-15.02v-153.35c0-8.28 6.74-15.02 15.02-15.02h510.48c8.29 0 15.03 6.74 15.03 15.02v153.36c0 8.28-6.74 15.02-15.03 15.02h-109.67l17.2 45.15c0.27 0.71 0.05 1.5-0.53 1.98-0.34 0.26-0.73 0.39-1.12 0.39z"/>
<path class="st0" d="m713.88 171.59c-6.35 0-11.52 5.17-11.52 11.52v153.36c0 6.35 5.17 11.52 11.52 11.52h342.11c0.33 0 0.66 0.1 0.94 0.28l69.79 44.66-16.22-42.57c-0.2-0.54-0.13-1.14 0.19-1.62 0.33-0.47 0.87-0.76 1.44-0.76h112.21c6.36 0 11.53-5.17 11.53-11.52v-153.35c0-6.35-5.17-11.52-11.53-11.52z"/>
<g transform="translate(-20.314 -97.219)">
	
		<line class="st1" x1="1069.8" x2="1069.8" y1="259.31" y2="250.64"/>
		<rect class="st1" x="1066.8" y="250.64" width="6" height="8.68"/>
	
	
		<line class="st1" x1="1084" x2="1084" y1="259.31" y2="245.56"/>
		<rect class="st1" x="1081" y="245.56" width="6" height="13.75"/>
	
	
		<line class="st1" x1="1098.3" x2="1098.3" y1="259.31" y2="240.49"/>
		<rect class="st1" x="1095.3" y="240.49" width="6" height="18.83"/>
	
	
		<line class="st1" x1="1112.6" x2="1112.6" y1="259.31" y2="235.41"/>
		<rect class="st1" x="1109.6" y="235.41" width="6" height="23.9"/>
	
	
		<line class="st1" x1="1126.9" x2="1126.9" y1="259.31" y2="230.34"/>
		<rect class="st1" x="1123.9" y="230.34" width="6" height="28.97"/>
	


	<path class="st1" d="m1217.6 257.56h-56.35c-0.97 0-1.75-0.78-1.75-1.75v-23.25c0-0.97 0.78-1.75 1.75-1.75h56.35c0.97 0 1.75 0.78 1.75 1.75v4.06h6.04c0.97 0 1.75 0.78 1.75 1.75v11.63c0 0.97-0.78 1.75-1.75 1.75h-6.04v4.06c0 0.96-0.78 1.75-1.75 1.75zm-54.6-3.5h52.85v-4.06c0-0.97 0.78-1.75 1.75-1.75h6.04v-8.13h-6.04c-0.97 0-1.75-0.78-1.75-1.75v-4.06h-52.85z"/>
</g>
<rect class="st1" x="1149.3" y="143.27" width="27.71" height="7.38"/>
<g transform="translate(-20.314 -97.219)">
	
		<circle class="st1" cx="750.56" cy="243.91" r="5.61"/>
		<path class="st1" d="m750.56 251.28c-4.06 0-7.36-3.3-7.36-7.36s3.3-7.36 7.36-7.36 7.36 3.3 7.36 7.36c0 4.05-3.3 7.36-7.36 7.36zm0-11.23c-2.13 0-3.86 1.73-3.86 3.86s1.73 3.86 3.86 3.86 3.86-1.73 3.86-3.86-1.73-3.86-3.86-3.86z"/>
	
	
		<circle class="st1" cx="778.91" cy="243.91" r="5.61"/>
		<path class="st1" d="m778.91 251.28c-4.06 0-7.36-3.3-7.36-7.36s3.3-7.36 7.36-7.36 7.36 3.3 7.36 7.36c0 4.05-3.3 7.36-7.36 7.36zm0-11.23c-2.13 0-3.86 1.73-3.86 3.86s1.73 3.86 3.86 3.86 3.86-1.73 3.86-3.86-1.73-3.86-3.86-3.86z"/>
	
	
		<circle class="st1" cx="807.26" cy="243.91" r="5.61"/>
		<path class="st1" d="m807.26 251.28c-4.06 0-7.36-3.3-7.36-7.36s3.3-7.36 7.36-7.36 7.36 3.3 7.36 7.36c0 4.05-3.3 7.36-7.36 7.36zm0-11.23c-2.13 0-3.86 1.73-3.86 3.86s1.73 3.86 3.86 3.86 3.86-1.73 3.86-3.86-1.73-3.86-3.86-3.86z"/>
	


	
		<path class="st0" d="m1684 309.9h-219.56c-0.87 0-1.61-0.64-1.73-1.5s0.4-1.68 1.23-1.93c14.04-4.15 19.22-14.59 24.7-25.65 3.22-6.48 6.54-13.18 11.79-18.26 9.68-9.37 22.4-9.79 31.18-6.16 0.06-0.48 0.12-0.95 0.2-1.43 1.38-9.04 5.15-17.19 10.61-22.94 5.62-5.92 12.36-8.63 18.99-7.61 11.91 1.82 20.05 15.62 19.62 31.96 13.56-14.84 32.64-19.9 44.37-11.04 7.52 5.68 10.63 15.83 8.58 27.57 5.83-1.93 11.6-2 16.23-0.15 8.74 2.4 14.29 10.78 19.65 18.89 4.6 6.95 8.94 13.51 14.52 14.77 0.87 0.2 1.45 1.02 1.35 1.9-0.09 0.91-0.84 1.58-1.73 1.58zm-211.05-3.5h204.09c-3.71-3.14-6.85-7.88-10.1-12.8-5.03-7.6-10.23-15.45-17.75-17.47-0.07-0.02-0.14-0.04-0.21-0.07-4.58-1.87-10.66-1.41-16.68 1.26-0.61 0.27-1.32 0.17-1.84-0.26s-0.73-1.11-0.57-1.76c2.91-11.68 0.43-21.83-6.62-27.15-11.22-8.48-30.49-1.94-42.96 14.56-0.45 0.68-1.36 1.01-2.12 0.71-0.76-0.29-1.26-1.03-1.14-1.84 2.45-16.83-4.81-31.95-16.19-33.69-5.46-0.84-11.11 1.49-15.92 6.56-4.97 5.24-8.41 12.72-9.69 21.07-0.19 1.22-0.33 2.45-0.4 3.66-0.04 0.6-0.38 1.13-0.9 1.42s-1.16 0.29-1.68 0c-7.64-4.16-20.1-4.53-29.42 4.48-4.81 4.66-7.86 10.8-11.09 17.3-4.48 9.05-9.09 18.35-18.81 24.02z"/>
	


	<path class="st0" d="m1546 287.31c-1.37 0-2.83-0.4-4.28-1.21-5.42-3-10.99-11.69-10.38-27.1 0.02-0.57 0.33-1.1 0.81-1.41 0.49-0.31 1.09-0.36 1.62-0.13 7.12 3.01 18.27 13.35 19.08 21.48 0.31 3.08-0.86 5.62-3.38 7.34-1.02 0.68-2.2 1.03-3.47 1.03zm-11.2-25.41c0.16 12.1 4.62 18.92 8.62 21.14 1.61 0.89 3.09 1.01 4.08 0.34 1.45-0.99 2.05-2.29 1.87-4.1-0.58-5.8-8.45-13.76-14.57-17.38z"/>


	
		<path class="st0" d="m202.64 327.52h-179.01c-0.85 0-1.58-0.61-1.72-1.45-0.15-0.84 0.33-1.66 1.13-1.95 10.16-3.68 20.85-15.95 30.29-26.78 7.03-8.07 13.67-15.69 19.74-19.6 8.63-6.37 20.2-7.08 29.48-2.17-3.52-17.38 0.27-31.96 10.44-39.5 12.93-9.58 34.04-5.61 53.1 9.79 10-26.28 30.37-41.99 49.12-37.56 16.38 3.87 27.38 22.81 27.55 46.76 1.05-0.9 2.15-1.78 3.28-2.62 8.03-5.95 17.13-9.49 25.64-9.95 8.77-0.47 15.89 2.35 20.05 7.96 1.44 1.96 2.47 4.19 3.06 6.63 0.15 0.62-0.05 1.27-0.52 1.7-8.78 8.08-15.52 19.79-18.98 32.99-0.88 3.31-1.54 6.69-1.95 10.04-0.07 0.57-0.41 1.06-0.91 1.33s-1.1 0.28-1.61 0.02c-17.7-8.95-35.69-8.18-45.84 1.97-2.67 2.41-5.15 4.89-7.87 7.86-1.27 1.38-2.47 2.74-3.64 4.06-3.12 3.52-6.06 6.85-9.67 10.03-0.32 0.28-0.73 0.44-1.16 0.44zm-171.71-3.5h171.04c3.23-2.92 5.98-6.02 8.88-9.29 1.19-1.34 2.4-2.71 3.68-4.1 2.79-3.06 5.35-5.61 8.04-8.03 10.75-10.75 29.27-12.11 47.64-3.62 0.42-2.71 1-5.42 1.71-8.09 3.52-13.44 10.33-25.45 19.21-33.94-0.5-1.61-1.24-3.09-2.21-4.4-3.43-4.63-9.49-6.96-17.04-6.55-7.83 0.42-16.26 3.71-23.74 9.26-2.14 1.59-4.14 3.31-5.95 5.12-0.51 0.51-1.28 0.66-1.94 0.37s-1.08-0.96-1.04-1.68c1.07-24.18-9.12-43.66-24.78-47.36-17.24-4.07-36.96 12.13-45.87 37.67-0.19 0.55-0.64 0.96-1.2 1.11s-1.15 0.02-1.59-0.36c-18.29-15.63-38.65-20.15-50.68-11.24-9.8 7.27-12.85 22.23-8.16 40.02 0.19 0.72-0.1 1.48-0.72 1.9s-1.44 0.39-2.03-0.06c-8.52-6.46-20.47-6.52-29.06-0.16-0.03 0.02-0.06 0.05-0.1 0.07-5.67 3.63-12.16 11.09-19.04 18.98-8.12 9.3-16.44 18.85-25.05 24.38z"/>
	
	
		<path class="st0" d="m181.82 296.62c-1.31 0-2.65-0.31-3.95-0.96-10.08-5.04-18.35-21.97-12.7-47.24 0.13-0.59 0.56-1.07 1.14-1.27 0.57-0.2 1.21-0.08 1.68 0.3 25.95 21.27 25.59 38.19 21.28 44.83-1.82 2.81-4.56 4.34-7.45 4.34zm-13.81-44.6c-4.06 21.84 2.9 36.23 11.43 40.5 2.57 1.28 5.21 0.46 6.9-2.15 3.31-5.11 3.51-19.52-18.33-38.35z"/>
	


	<path class="st0" d="m493.22 345.12h-328.15c-0.88 0-1.62-0.65-1.74-1.53-0.11-0.87 0.44-1.69 1.29-1.92 21.79-5.72 30.86-11.92 36.86-17.23 3.45-3.04 6.32-6.29 9.37-9.73 1.19-1.34 2.4-2.71 3.68-4.1 2.79-3.06 5.35-5.61 8.04-8.03 10.75-10.75 29.27-12.11 47.64-3.62 0.42-2.71 1-5.42 1.71-8.09 3.63-13.83 10.73-26.15 19.99-34.67 10.54-9.7 23-13.57 34.18-10.63 16.62 4.37 27.62 23.17 27.54 46.39 16.86-12.86 36.26-14.88 48.16-4.66 5.24 4.49 8.51 11.07 9.39 18.79 7.04-5.02 15.68-0.8 23.4 4.24 3.94 2.57 8.08 5.69 12.47 8.99 13.89 10.45 29.64 22.3 46.19 22.3 0.97 0 1.75 0.78 1.75 1.75s-0.8 1.75-1.77 1.75zm-316.12-3.5h299.09c-11.19-4.41-21.65-12.28-31.26-19.5-4.34-3.26-8.44-6.35-12.28-8.85-10.79-7.05-17.07-7.7-21.66-2.25-0.47 0.56-1.24 0.77-1.93 0.52s-1.15-0.89-1.16-1.62c-0.11-8.45-3.02-15.34-8.4-19.95-11.09-9.52-30.69-6.54-46.61 7.09-0.53 0.46-1.29 0.55-1.91 0.24-0.63-0.31-1.01-0.97-0.97-1.67 1.29-23.29-8.91-42.48-24.82-46.67-10-2.63-21.27 0.94-30.92 9.82-8.78 8.08-15.52 19.79-18.98 32.99-0.88 3.31-1.54 6.69-1.95 10.04-0.07 0.57-0.41 1.06-0.91 1.33s-1.1 0.28-1.61 0.02c-17.7-8.95-35.69-8.18-45.84 1.97-2.67 2.41-5.15 4.89-7.87 7.86-1.27 1.38-2.47 2.74-3.64 4.06-3.12 3.52-6.06 6.85-9.67 10.03-6.84 6.05-15.15 10.63-26.7 14.54z"/>


	<path class="st0" d="m1437.4 159.4c-0.97 0-1.75-0.78-1.75-1.75 0-13.97-11.36-25.33-25.33-25.33-0.97 0-1.75-0.78-1.75-1.75s0.78-1.75 1.75-1.75c15.9 0 28.83 12.93 28.83 28.83 0 0.97-0.79 1.75-1.75 1.75z"/>


	<path class="st0" d="m1452.5 159.4c-0.97 0-1.75-0.78-1.75-1.75 0-22.26-18.11-40.38-40.38-40.38-0.97 0-1.75-0.78-1.75-1.75s0.78-1.75 1.75-1.75c24.19 0 43.88 19.68 43.88 43.88 0 0.97-0.78 1.75-1.75 1.75z"/>


	<path class="st0" d="m1467.5 159.4c-0.97 0-1.75-0.78-1.75-1.75 0-30.56-24.86-55.42-55.42-55.42-0.97 0-1.75-0.78-1.75-1.75s0.78-1.75 1.75-1.75c32.49 0 58.92 26.43 58.92 58.92 0 0.97-0.79 1.75-1.75 1.75z"/>
</g>
<path class="st1" d="m1347.9 152.85c-15.53 0-31.06-0.93-46.48-2.78-0.8-0.1-1.43-0.73-1.53-1.53-3.7-30.84-3.7-62.12 0-92.96 0.1-0.8 0.73-1.43 1.53-1.53 30.84-3.7 62.12-3.7 92.96 0 0.8 0.1 1.43 0.73 1.53 1.53 3.7 30.84 3.7 62.12 0 92.96-0.1 0.8-0.73 1.43-1.53 1.53-15.42 1.86-30.95 2.78-46.48 2.78zm-44.7-6.09c29.67 3.45 59.73 3.45 89.39 0 3.45-29.67 3.45-59.73 0-89.4-29.67-3.45-59.72-3.45-89.39 0-3.45 29.68-3.45 59.74 0 89.4z"/>
<path class="st1" d="m1347.9 133.97c-9.58 0-19.15-0.57-28.66-1.71-0.8-0.1-1.43-0.73-1.53-1.53-2.28-19.02-2.28-38.31 0-57.33 0.1-0.8 0.73-1.43 1.53-1.53 19.02-2.28 38.3-2.28 57.32 0 0.8 0.1 1.43 0.73 1.53 1.53 2.28 19.02 2.28 38.31 0 57.33-0.1 0.8-0.73 1.43-1.53 1.53-9.51 1.14-19.08 1.71-28.66 1.71zm28.45-3.45m-55.33-1.58c17.84 2.04 35.91 2.04 53.75 0 2.04-17.84 2.04-35.91 0-53.75-17.84-2.03-35.91-2.03-53.75 0-2.03 17.84-2.03 35.91 0 53.75z"/>
<path class="st1" d="m1347.9 126.51c-7.22 0-14.45-0.43-21.62-1.29-0.96-0.11-1.64-0.99-1.53-1.95s0.97-1.65 1.95-1.53c13.61 1.63 27.41 1.69 41.03 0.16 1.53-13.62 1.47-27.42-0.16-41.03-0.12-0.96 0.57-1.83 1.53-1.95 0.97-0.12 1.83 0.57 1.95 1.53 1.72 14.34 1.72 28.89 0 43.24-0.1 0.8-0.73 1.43-1.53 1.53-7.17 0.85-14.4 1.29-21.62 1.29z"/>
<path class="st1" d="m1344.4 241.01c-0.97 0-1.75-0.78-1.75-1.75v-88.14c0-0.97 0.78-1.75 1.75-1.75s1.75 0.78 1.75 1.75v88.14c0 0.96-0.78 1.75-1.75 1.75z"/>
<path class="st1" d="m1352.7 248.41c-0.97 0-1.75-0.78-1.75-1.75v-95.55c0-0.97 0.78-1.75 1.75-1.75s1.75 0.78 1.75 1.75v95.55c0 0.97-0.78 1.75-1.75 1.75z"/>
<path class="st1" d="m1187.1 122.67-48.88-43.83c-0.47-0.43-1.15-0.56-1.75-0.35l-131.65 46.18h10.57l121.26-42.54 45.2 40.54z"/>
<path class="st1" d="m1211.8 122.67h5.24l-74.29-66.62c-0.48-0.43-1.15-0.56-1.75-0.35l-196.62 68.97h10.57l186.22-65.32z"/>
<path class="st1" d="m1477.4 356.2-239.86-215.11v4.7l234.12 209.96h-24.71l-209.41-187.8v4.7l207.57 186.15c0.32 0.29 0.74 0.45 1.17 0.45h29.96c0.73 0 1.38-0.45 1.63-1.12 0.26-0.67 0.07-1.44-0.47-1.93z"/>
<path class="st1" d="m700.02 231.58-354 124.18h-49.85l403.84-141.66v-3.71l-414.7 145.47c-0.81 0.28-1.29 1.1-1.15 1.95 0.14 0.84 0.87 1.46 1.73 1.46h60.42c0.2 0 0.39-0.03 0.58-0.1l353.12-123.87v-3.72z"/>
<path class="st1" d="m346.32 1011.3c-0.97 0-1.75-0.78-1.75-1.75v-652c0-0.97 0.78-1.75 1.75-1.75s1.75 0.78 1.75 1.75v652c0 0.96-0.78 1.75-1.75 1.75z"/>
<path class="st1" d="m1446.3 1011.3c-0.97 0-1.75-0.78-1.75-1.75v-652c0-0.97 0.78-1.75 1.75-1.75s1.75 0.78 1.75 1.75v652c0 0.96-0.78 1.75-1.75 1.75z"/>
<path class="st1" d="m565.17 261.22c-0.97 0-1.75-0.78-1.75-1.75v-118.63c0-0.97 0.78-1.75 1.75-1.75s1.75 0.78 1.75 1.75v118.63c0 0.97-0.79 1.75-1.75 1.75z"/>
<path class="st1" d="m578.05 142.59c-0.97 0-1.75-0.78-1.75-1.75v-57.49c0-0.97 0.78-1.75 1.75-1.75s1.75 0.78 1.75 1.75v57.49c0 0.97-0.78 1.75-1.75 1.75z"/>
<g transform="translate(-20.314 -97.219)">
	<path class="st0" d="m588.12 494.1c-0.45 0-0.9-0.17-1.24-0.51-16.78-16.78-16.78-44.08 0-60.85 0.68-0.68 1.79-0.68 2.47 0s0.68 1.79 0 2.47c-15.41 15.41-15.41 40.49 0 55.9 0.68 0.68 0.68 1.79 0 2.47-0.33 0.35-0.78 0.52-1.23 0.52z"/>


	<path class="st0" d="m571.91 510.31c-0.45 0-0.9-0.17-1.24-0.51-25.72-25.72-25.72-67.57 0-93.29 0.68-0.68 1.79-0.68 2.47 0s0.68 1.79 0 2.47c-11.8 11.8-18.29 27.48-18.29 44.17s6.5 32.37 18.29 44.17c0.68 0.68 0.68 1.79 0 2.47-0.34 0.35-0.78 0.52-1.23 0.52z"/>


	<path class="st0" d="m555.69 526.53c-0.45 0-0.9-0.17-1.24-0.51-34.66-34.66-34.66-91.06 0-125.72 0.68-0.68 1.79-0.68 2.47 0s0.68 1.79 0 2.47c-33.3 33.3-33.3 87.47 0 120.77 0.68 0.68 0.68 1.79 0 2.47-0.33 0.35-0.78 0.52-1.23 0.52z"/>
</g>
<path class="st1" d="m689.23 442.43h-103.28c-0.97 0-1.75-0.78-1.75-1.75v-149.49c0-0.97 0.78-1.75 1.75-1.75h103.28c0.97 0 1.75 0.78 1.75 1.75v149.49c0 0.97-0.78 1.75-1.75 1.75zm-101.53-3.5h99.78v-145.99h-99.78z"/>
<path class="st1" d="m689.23 356.51h-103.28c-0.97 0-1.75-0.78-1.75-1.75s0.78-1.75 1.75-1.75h103.28c0.97 0 1.75 0.78 1.75 1.75s-0.78 1.75-1.75 1.75z"/>
<path class="st1" d="m600.7 442.43c-0.97 0-1.75-0.78-1.75-1.75v-35.67c0-0.97 0.78-1.75 1.75-1.75s1.75 0.78 1.75 1.75v35.67c0 0.97-0.78 1.75-1.75 1.75z"/>
<path class="st1" d="m615.46 442.43c-0.97 0-1.75-0.78-1.75-1.75v-35.67c0-0.97 0.78-1.75 1.75-1.75s1.75 0.78 1.75 1.75v35.67c0 0.97-0.79 1.75-1.75 1.75z"/>
<path class="st1" d="m630.21 442.43c-0.97 0-1.75-0.78-1.75-1.75v-35.67c0-0.97 0.78-1.75 1.75-1.75s1.75 0.78 1.75 1.75v35.67c0 0.97-0.78 1.75-1.75 1.75z"/>
<path class="st1" d="m644.97 442.43c-0.97 0-1.75-0.78-1.75-1.75v-35.67c0-0.97 0.78-1.75 1.75-1.75s1.75 0.78 1.75 1.75v35.67c0 0.97-0.79 1.75-1.75 1.75z"/>
<path class="st1" d="m624.82 320.4c-0.97 0-1.75-0.78-1.75-1.75v-13.62c0-0.97 0.78-1.75 1.75-1.75s1.75 0.78 1.75 1.75v13.62c0 0.96-0.79 1.75-1.75 1.75z"/>
<path class="st1" d="m633.06 320.4c-0.97 0-1.75-0.78-1.75-1.75v-13.62c0-0.97 0.78-1.75 1.75-1.75s1.75 0.78 1.75 1.75v13.62c0 0.96-0.78 1.75-1.75 1.75z"/>
<path class="st1" d="m616.66 334.85h-13.62c-0.97 0-1.75-0.78-1.75-1.75s0.78-1.75 1.75-1.75h13.62c0.97 0 1.75 0.78 1.75 1.75s-0.78 1.75-1.75 1.75z"/>
<path class="st1" d="m616.66 326.6h-13.62c-0.97 0-1.75-0.78-1.75-1.75s0.78-1.75 1.75-1.75h13.62c0.97 0 1.75 0.78 1.75 1.75s-0.78 1.75-1.75 1.75z"/>
<path class="st1" d="m641.3 320.4c-0.97 0-1.75-0.78-1.75-1.75v-13.62c0-0.97 0.78-1.75 1.75-1.75s1.75 0.78 1.75 1.75v13.62c0 0.96-0.78 1.75-1.75 1.75z"/>
<path class="st1" d="m649.55 320.4c-0.97 0-1.75-0.78-1.75-1.75v-13.62c0-0.97 0.78-1.75 1.75-1.75s1.75 0.78 1.75 1.75v13.62c0 0.96-0.79 1.75-1.75 1.75z"/>
<g transform="translate(-20.314 -97.219)">
	<path class="st1" d="m645.13 432.28c-0.97 0-1.75-0.78-1.75-1.75v-0.97c0-0.97 0.78-1.75 1.75-1.75s1.75 0.78 1.75 1.75v0.97c0 0.96-0.79 1.75-1.75 1.75z"/>


	<path class="st1" d="m653.37 432.28c-0.97 0-1.75-0.78-1.75-1.75v-0.97c0-0.97 0.78-1.75 1.75-1.75s1.75 0.78 1.75 1.75v0.97c0 0.96-0.78 1.75-1.75 1.75z"/>


	<path class="st1" d="m661.61 432.28c-0.97 0-1.75-0.78-1.75-1.75v-0.97c0-0.97 0.78-1.75 1.75-1.75s1.75 0.78 1.75 1.75v0.97c0 0.96-0.78 1.75-1.75 1.75z"/>


	<path class="st1" d="m669.86 432.28c-0.97 0-1.75-0.78-1.75-1.75v-0.97c0-0.97 0.78-1.75 1.75-1.75s1.75 0.78 1.75 1.75v0.97c0 0.96-0.78 1.75-1.75 1.75z"/>
</g>
<path class="st1" d="m659.72 442.43c-0.97 0-1.75-0.78-1.75-1.75v-35.67c0-0.97 0.78-1.75 1.75-1.75s1.75 0.78 1.75 1.75v35.67c0 0.97-0.78 1.75-1.75 1.75z"/>
<path class="st1" d="m674.48 442.43c-0.97 0-1.75-0.78-1.75-1.75v-35.67c0-0.97 0.78-1.75 1.75-1.75s1.75 0.78 1.75 1.75v35.67c0 0.97-0.79 1.75-1.75 1.75z"/>
<path class="st1" d="m657.7 341.05h-41.04c-0.97 0-1.75-0.78-1.75-1.75v-20.66c0-0.97 0.78-1.75 1.75-1.75h41.04c0.97 0 1.75 0.78 1.75 1.75v20.66c0 0.97-0.78 1.75-1.75 1.75zm-39.29-3.5h37.54v-17.16h-37.54z"/>
<linearGradient id="SVGID_1_" x1="773.1" x2="802.36" y1="333.25" y2="333.25" gradientTransform="matrix(1 0 0 -1 -173.66 726.62)" gradientUnits="userSpaceOnUse">
	<stop stop-color="#39D82F" offset="0"/>
	<stop stop-color="#279813" offset="1"/>
</linearGradient>
<path class="st3" d="m628.35 389.96v6.82h-6.16c0-3.51 2.66-6.46 6.16-6.82z" fill="url(#SVGID_1_)"/>
<linearGradient id="SVGID_2_" x1="773.1" x2="802.36" y1="337.65" y2="337.65" gradientTransform="matrix(1 0 0 -1 -173.66 726.62)" gradientUnits="userSpaceOnUse">
	<stop stop-color="#39D82F" offset="0"/>
	<stop stop-color="#279813" offset="1"/>
</linearGradient>
<path class="st4" d="m613.4 396.78h4.33c0-5.97 4.65-10.92 10.61-11.29v-4.35c-8.29 0.38-14.94 7.25-14.94 15.64z" fill="url(#SVGID_2_)"/>
<linearGradient id="SVGID_3_" x1="773.1" x2="802.36" y1="342.04" y2="342.04" gradientTransform="matrix(1 0 0 -1 -173.66 726.62)" gradientUnits="userSpaceOnUse">
	<stop stop-color="#39D82F" offset="0"/>
	<stop stop-color="#279813" offset="1"/>
</linearGradient>
<path class="st5" d="m611.79 379.51c-4.59 4.57-7.17 10.79-7.15 17.27h4.34c0-10.82 8.57-19.69 19.38-20.07v-4.34c-6.24 0.16-12.18 2.72-16.57 7.14z" fill="url(#SVGID_3_)"/>
<linearGradient id="SVGID_4_" x1="773.1" x2="802.36" y1="346.39" y2="346.39" gradientTransform="matrix(1 0 0 -1 -173.66 726.62)" gradientUnits="userSpaceOnUse">
	<stop stop-color="#39D82F" offset="0"/>
	<stop stop-color="#279813" offset="1"/>
</linearGradient>
<path class="st6" d="m616.16 366.27c-12.27 5.18-20.24 17.2-20.23 30.51h4.34c0-15.66 12.51-28.4 28.08-28.77v-4.34c-4.19 0.08-8.33 0.96-12.19 2.6z" fill="url(#SVGID_4_)"/>
<path class="st7" d="m638.52 374.55c-1.9 0-3.42-0.54-4.56-1.63l1.4-1.99c0.86 0.89 2.05 1.38 3.28 1.36 0.45 0 0.81-0.08 1.07-0.24s0.39-0.36 0.39-0.61c0-0.22-0.14-0.39-0.43-0.53-0.34-0.15-0.7-0.26-1.07-0.31-0.48-0.08-0.95-0.19-1.41-0.33-0.48-0.14-0.95-0.31-1.4-0.52-0.44-0.21-0.82-0.55-1.07-0.96-0.3-0.48-0.45-1.03-0.43-1.59 0-0.9 0.37-1.68 1.1-2.31 0.74-0.64 1.73-0.96 3-0.95 1.68 0 3.07 0.48 4.18 1.43l-1.45 1.9c-0.84-0.7-1.91-1.08-3.01-1.06-0.74 0-1.11 0.25-1.11 0.74 0 0.2 0.14 0.36 0.43 0.5 0.34 0.15 0.71 0.26 1.08 0.32 0.47 0.08 0.94 0.19 1.4 0.33 0.48 0.14 0.94 0.32 1.4 0.53 0.44 0.21 0.81 0.54 1.07 0.95 0.3 0.46 0.45 1 0.43 1.54 0 1.05-0.38 1.89-1.13 2.51-0.75 0.61-1.8 0.92-3.16 0.92z"/>
<path class="st7" d="m656.17 374.37h-2.36v-4.54c0-0.67-0.33-1-0.99-1-0.53 0-0.98 0.24-1.34 0.72v4.81h-2.37v-4.54c0-0.67-0.33-1-0.99-1-0.49 0-0.93 0.24-1.33 0.72v4.81h-2.37v-7.44h2.37v0.91c0.2-0.26 0.52-0.5 0.97-0.74 0.46-0.24 0.96-0.36 1.48-0.36 1.1 0 1.8 0.44 2.11 1.33 0.27-0.39 0.63-0.71 1.06-0.93 0.46-0.26 0.99-0.4 1.52-0.39 0.71 0 1.26 0.19 1.65 0.56 0.39 0.38 0.59 0.93 0.59 1.67z"/>
<path class="st7" d="m664.81 374.37h-2.38v-0.74c-0.27 0.3-0.6 0.53-0.98 0.67-0.43 0.17-0.88 0.26-1.34 0.25-0.64 0-1.27-0.22-1.76-0.64-0.53-0.43-0.79-1.03-0.79-1.81 0-0.82 0.26-1.43 0.77-1.81 0.52-0.39 1.15-0.59 1.79-0.58 1.08 0 1.85 0.29 2.31 0.86v-0.89c0.01-0.31-0.14-0.61-0.4-0.79-0.27-0.19-0.64-0.29-1.11-0.29-0.78-0.01-1.53 0.27-2.11 0.79l-0.85-1.5c0.9-0.77 2.03-1.16 3.38-1.16 0.44 0 0.88 0.05 1.3 0.15 0.39 0.09 0.76 0.25 1.09 0.47 0.34 0.23 0.62 0.55 0.79 0.93 0.2 0.45 0.3 0.94 0.29 1.43zm-3.7-1.37c0.64 0 1.07-0.18 1.32-0.54v-0.66c-0.26-0.35-0.7-0.52-1.32-0.52-0.3-0.01-0.59 0.07-0.85 0.22-0.35 0.24-0.45 0.72-0.21 1.07 0.05 0.08 0.12 0.15 0.21 0.21 0.25 0.15 0.55 0.23 0.85 0.22z"/>
<path class="st7" d="m668.91 374.37h-2.37v-7.45h2.37v0.91c0.29-0.33 0.64-0.6 1.03-0.79 0.4-0.21 0.84-0.32 1.3-0.32v2.28c-0.19-0.04-0.39-0.06-0.59-0.06-0.35 0-0.69 0.07-1.01 0.19-0.29 0.09-0.54 0.26-0.73 0.49z"/>
<path class="st7" d="m676.06 374.55c-0.76 0-1.34-0.18-1.73-0.56-0.4-0.37-0.6-0.91-0.6-1.63v-3.38h-1.23v-2.07h1.23v-2.04h2.36v2.04h1.51v2.07h-1.51v2.71c-0.01 0.2 0.05 0.39 0.18 0.55 0.12 0.14 0.3 0.22 0.49 0.21 0.3 0 0.5-0.06 0.6-0.19l0.46 1.79c-0.35 0.34-0.94 0.5-1.76 0.5z"/>
<path class="st7" d="m638.52 388.87c-1.9 0-3.42-0.54-4.56-1.63l1.4-1.99c0.86 0.89 2.05 1.38 3.28 1.36 0.45 0 0.81-0.08 1.07-0.24 0.27-0.16 0.39-0.36 0.39-0.61 0-0.22-0.14-0.39-0.43-0.53-0.34-0.15-0.7-0.26-1.07-0.31-0.48-0.08-0.95-0.18-1.41-0.32-0.48-0.14-0.95-0.32-1.4-0.53-0.44-0.21-0.82-0.55-1.07-0.96-0.3-0.48-0.45-1.03-0.43-1.59 0-0.9 0.37-1.68 1.1-2.31s1.73-0.96 3-0.95c1.68 0 3.07 0.48 4.18 1.43l-1.45 1.9c-0.84-0.7-1.91-1.08-3.01-1.06-0.74 0-1.11 0.25-1.11 0.74 0 0.2 0.14 0.36 0.43 0.5 0.34 0.16 0.71 0.26 1.08 0.32 0.47 0.08 0.94 0.19 1.4 0.33 0.48 0.14 0.94 0.32 1.4 0.53 0.44 0.21 0.81 0.54 1.07 0.95 0.3 0.46 0.45 1 0.43 1.55 0 1.05-0.38 1.88-1.13 2.51-0.75 0.6-1.8 0.91-3.16 0.91z"/>
<path class="st7" d="m646.44 380.18c-0.53 0.53-1.39 0.54-1.92 0.01l-0.01-0.01c-0.26-0.26-0.4-0.61-0.39-0.97 0-0.75 0.61-1.36 1.36-1.36s1.36 0.61 1.36 1.36c0 0.36-0.14 0.71-0.4 0.97zm0.22 8.51h-2.37v-7.45h2.37z"/>
<path class="st7" d="m651.8 391.7c-1.29 0-2.39-0.37-3.3-1.11l1.03-1.7c0.53 0.58 1.29 0.86 2.27 0.86 0.47 0.01 0.92-0.13 1.31-0.38 0.39-0.26 0.58-0.7 0.58-1.33v-0.57c-0.62 0.72-1.35 1.07-2.2 1.07-0.95 0-1.74-0.33-2.36-0.98s-0.93-1.58-0.93-2.78c0-1.19 0.31-2.12 0.92-2.77s1.4-0.98 2.37-0.98c0.86-0.02 1.68 0.38 2.2 1.06v-0.88h2.37v6.78c0.01 0.53-0.08 1.06-0.27 1.55-0.15 0.4-0.38 0.76-0.69 1.06-0.29 0.27-0.63 0.49-1 0.65-0.36 0.16-0.75 0.28-1.14 0.34-0.39 0.08-0.78 0.11-1.16 0.11zm0.47-5.24c0.27 0 0.55-0.07 0.79-0.18 0.25-0.1 0.46-0.27 0.62-0.48v-1.98c-0.16-0.21-0.38-0.38-0.62-0.48-0.25-0.12-0.52-0.18-0.79-0.18-0.43-0.02-0.86 0.14-1.18 0.43-0.3 0.29-0.45 0.69-0.45 1.22s0.15 0.94 0.45 1.23c0.32 0.29 0.75 0.44 1.18 0.42z"/>
<path class="st7" d="m665.52 388.69h-2.38v-4.3c0-0.82-0.41-1.23-1.22-1.23-0.57 0-1.11 0.26-1.45 0.72v4.81h-2.37v-7.45h2.37v0.92c0.63-0.73 1.49-1.09 2.57-1.09 0.82 0 1.44 0.21 1.85 0.64s0.62 1 0.62 1.72z"/>
<path class="st7" d="m674.01 388.69h-2.37v-0.74c-0.27 0.3-0.6 0.53-0.98 0.67-0.42 0.17-0.88 0.26-1.33 0.25-0.65 0-1.27-0.23-1.77-0.64-0.53-0.43-0.79-1.03-0.79-1.81 0-0.82 0.26-1.43 0.77-1.81 0.52-0.39 1.15-0.59 1.79-0.58 1.08 0 1.85 0.29 2.31 0.86v-0.9c0.01-0.31-0.14-0.61-0.4-0.79-0.27-0.2-0.64-0.29-1.11-0.29-0.78-0.01-1.53 0.27-2.11 0.79l-0.85-1.5c0.9-0.77 2.03-1.16 3.38-1.16 0.44 0 0.87 0.04 1.3 0.15 0.39 0.09 0.76 0.25 1.09 0.47 0.34 0.23 0.62 0.55 0.79 0.93 0.2 0.45 0.3 0.94 0.29 1.43v4.67zm-3.7-1.38c0.64 0 1.08-0.18 1.33-0.54v-0.66c-0.26-0.35-0.7-0.52-1.33-0.52-0.3-0.01-0.59 0.07-0.85 0.22-0.35 0.24-0.45 0.72-0.21 1.07 0.05 0.08 0.12 0.15 0.21 0.21 0.26 0.16 0.55 0.24 0.85 0.22z"/>
<path class="st7" d="m678.42 388.69h-2.37v-10.28h2.37z"/>
<path class="st7" d="m637.03 393.4-1.43 3.2c-0.08 0.22-0.22 0.42-0.4 0.57-0.16 0.11-0.35 0.17-0.55 0.17-0.13 0-0.26-0.02-0.39-0.07-0.12-0.04-0.22-0.11-0.31-0.19l0.18-0.29c0.14 0.14 0.33 0.22 0.52 0.22 0.12 0 0.24-0.03 0.33-0.11 0.11-0.1 0.2-0.23 0.26-0.37l0.13-0.28-1.28-2.85h0.4l1.07 2.43 1.07-2.43z"/>
<path class="st7" d="m637.99 396.1c-0.22-0.12-0.4-0.3-0.52-0.52-0.13-0.23-0.19-0.49-0.19-0.75s0.06-0.52 0.19-0.75c0.12-0.22 0.3-0.4 0.52-0.52 0.23-0.13 0.5-0.19 0.76-0.19 0.23 0 0.45 0.05 0.66 0.14 0.19 0.09 0.35 0.24 0.46 0.42l-0.29 0.2c-0.09-0.14-0.21-0.25-0.36-0.32s-0.31-0.11-0.48-0.11c-0.19 0-0.39 0.04-0.56 0.14-0.16 0.09-0.3 0.23-0.39 0.39-0.18 0.37-0.18 0.8 0 1.17 0.09 0.16 0.22 0.3 0.39 0.39s0.36 0.14 0.56 0.14c0.16 0 0.33-0.03 0.48-0.1s0.27-0.18 0.36-0.32l0.29 0.2c-0.11 0.18-0.27 0.33-0.46 0.42-0.21 0.1-0.43 0.15-0.66 0.14-0.27 0.02-0.53-0.05-0.76-0.17z"/>
<path class="st7" d="m640.61 393.4h0.39v2.27l1.91-2.27h0.34v2.86h-0.39v-2.27l-1.9 2.27h-0.35z"/>
<path class="st7" d="m646.68 393.4v2.86h-0.39v-2.51h-1.37l-0.04 0.71c-0.01 0.46-0.08 0.92-0.21 1.37-0.11 0.32-0.3 0.48-0.58 0.48-0.09 0-0.19-0.02-0.28-0.04l0.03-0.33c0.04 0.01 0.09 0.02 0.14 0.02 0.14 0 0.28-0.08 0.34-0.21 0.08-0.16 0.13-0.33 0.15-0.51 0.03-0.2 0.05-0.47 0.07-0.8l0.05-1.02z"/>
<path class="st7" d="m650.27 394.95h-2.39c0.01 0.28 0.14 0.53 0.34 0.72 0.22 0.19 0.5 0.29 0.78 0.27 0.17 0 0.33-0.03 0.49-0.09 0.15-0.06 0.28-0.16 0.39-0.28l0.22 0.25c-0.13 0.15-0.29 0.27-0.48 0.35-0.2 0.08-0.41 0.12-0.63 0.12-0.27 0-0.54-0.06-0.78-0.19-0.22-0.12-0.4-0.3-0.53-0.52-0.13-0.23-0.2-0.49-0.19-0.75 0-0.26 0.06-0.52 0.18-0.75 0.12-0.21 0.29-0.39 0.5-0.52 0.22-0.12 0.47-0.19 0.72-0.19s0.5 0.06 0.72 0.19c0.21 0.12 0.38 0.3 0.49 0.51 0.12 0.23 0.18 0.49 0.18 0.75zm-2.07-0.98c-0.19 0.18-0.3 0.43-0.32 0.69h2.03c-0.02-0.26-0.13-0.51-0.32-0.69-0.4-0.35-0.99-0.35-1.39 0z"/>
<path class="st7" d="m651.13 393.4h0.39v1.26h1.79v-1.26h0.38v2.86h-0.38v-1.26h-1.79v1.26h-0.39z"/>
<path class="st7" d="m654.79 393.4h0.39v2.27l1.91-2.27h0.34v2.86h-0.39v-2.27l-1.9 2.27h-0.35z"/>
<path class="st7" d="m661.02 394.95h-2.39c0.01 0.28 0.14 0.53 0.34 0.72 0.22 0.19 0.5 0.29 0.78 0.27 0.17 0 0.33-0.03 0.49-0.09 0.15-0.06 0.28-0.16 0.39-0.28l0.22 0.25c-0.13 0.15-0.29 0.27-0.48 0.35-0.2 0.08-0.41 0.12-0.63 0.12-0.27 0-0.54-0.06-0.78-0.19-0.22-0.12-0.4-0.3-0.53-0.52-0.13-0.23-0.19-0.49-0.19-0.75s0.06-0.52 0.18-0.75c0.12-0.22 0.29-0.39 0.5-0.52 0.22-0.13 0.47-0.19 0.72-0.19s0.49 0.06 0.71 0.19c0.21 0.12 0.38 0.3 0.49 0.51 0.12 0.23 0.18 0.49 0.18 0.75zm-2.07-0.98c-0.19 0.18-0.3 0.43-0.32 0.69h2.03c-0.02-0.26-0.13-0.51-0.32-0.69-0.39-0.35-0.99-0.35-1.39 0z"/>
<path class="st7" d="m663.74 396.1c-0.22-0.12-0.4-0.3-0.52-0.52-0.13-0.23-0.19-0.49-0.19-0.75s0.06-0.52 0.19-0.75c0.12-0.22 0.3-0.4 0.52-0.52 0.23-0.13 0.49-0.19 0.76-0.19 0.23 0 0.45 0.05 0.66 0.14 0.19 0.09 0.35 0.24 0.46 0.42l-0.29 0.2c-0.09-0.14-0.21-0.25-0.36-0.32s-0.31-0.11-0.48-0.11c-0.19 0-0.39 0.05-0.56 0.14-0.16 0.09-0.3 0.23-0.39 0.39-0.18 0.37-0.18 0.8 0 1.17 0.09 0.16 0.22 0.3 0.39 0.39s0.36 0.14 0.56 0.14c0.16 0 0.33-0.03 0.48-0.1s0.27-0.18 0.36-0.32l0.29 0.2c-0.11 0.18-0.27 0.33-0.46 0.42-0.21 0.1-0.43 0.15-0.66 0.14-0.27 0.02-0.53-0.05-0.76-0.17z"/>
<path class="st7" d="m668.76 395.48c0.01 0.23-0.09 0.44-0.28 0.58-0.19 0.13-0.46 0.2-0.83 0.2h-1.3v-2.86h1.26c0.27-0.01 0.54 0.05 0.77 0.19 0.18 0.12 0.29 0.33 0.28 0.54 0 0.14-0.04 0.28-0.13 0.4-0.09 0.11-0.22 0.2-0.36 0.25 0.4 0.09 0.59 0.32 0.59 0.7zm-2.03-0.81h0.86c0.18 0.01 0.36-0.03 0.51-0.13 0.12-0.08 0.18-0.22 0.18-0.36 0.01-0.14-0.06-0.28-0.18-0.36-0.15-0.09-0.33-0.13-0.51-0.12h-0.86zm1.46 1.16c0.12-0.08 0.19-0.23 0.18-0.37 0.01-0.15-0.05-0.29-0.17-0.38-0.16-0.09-0.35-0.13-0.53-0.12h-0.95v0.99h0.91c0.2 0.01 0.39-0.03 0.56-0.12z"/>
<path class="st7" d="m671.85 393.4v2.86h-0.36v-0.94h-1l-0.66 0.94h-0.42l0.72-1c-0.2-0.05-0.38-0.16-0.51-0.32-0.12-0.16-0.19-0.36-0.18-0.56-0.02-0.28 0.1-0.55 0.33-0.73 0.26-0.18 0.57-0.27 0.89-0.25zm-1.21 1.62h0.86v-1.28h-0.84c-0.56 0-0.84 0.22-0.84 0.65s0.28 0.64 0.82 0.63z"/>
<path class="st7" d="m674.75 395.01c0.11 0.11 0.17 0.27 0.17 0.42 0 0.16-0.06 0.32-0.17 0.45-0.13 0.14-0.29 0.24-0.46 0.3-0.21 0.07-0.43 0.11-0.65 0.11-0.21 0-0.41-0.03-0.61-0.09-0.19-0.05-0.37-0.14-0.52-0.26l0.13-0.29c0.14 0.1 0.29 0.18 0.46 0.23s0.35 0.08 0.53 0.08c0.23 0.01 0.45-0.04 0.65-0.15 0.15-0.08 0.25-0.23 0.25-0.4 0-0.15-0.08-0.29-0.21-0.36-0.17-0.09-0.37-0.14-0.56-0.13h-0.49v-0.28h0.46c0.18 0.01 0.36-0.03 0.52-0.12 0.12-0.07 0.2-0.19 0.2-0.33 0-0.15-0.09-0.29-0.22-0.36-0.18-0.09-0.37-0.14-0.57-0.13-0.32 0-0.63 0.08-0.91 0.23l-0.11-0.3c0.33-0.17 0.69-0.26 1.06-0.27 0.2 0 0.4 0.03 0.59 0.1 0.16 0.05 0.3 0.14 0.41 0.27 0.1 0.11 0.15 0.25 0.15 0.4 0 0.14-0.05 0.28-0.15 0.39-0.11 0.12-0.25 0.2-0.4 0.25 0.15 0.03 0.32 0.11 0.45 0.24z"/>
<path class="st7" d="m675.79 393.4h0.39v2.27l1.91-2.27h0.34v2.86h-0.39v-2.27l-1.9 2.27h-0.35z"/>
<path class="st1" d="m1290.8 761.62c-0.98 0-1.75-0.79-1.75-1.76 0.2-38.16 1.3-63.87 6.56-90.4 6.03-30.39 12.6-50.75 17.88-67.12 6.8-21.08 11.72-36.3 11.72-59.92 0-24.52-19.95-44.47-44.47-44.47s-44.47 19.95-44.47 44.47v177.74c0 0.97-0.78 1.75-1.75 1.75s-1.75-0.78-1.75-1.75v-177.73c0-26.45 21.52-47.97 47.97-47.97s47.97 21.52 47.97 47.97c0 24.16-4.99 39.61-11.89 60.99-5.25 16.27-11.79 36.53-17.78 66.72-5.2 26.25-6.29 51.79-6.49 89.74 0 0.97-0.79 1.74-1.75 1.74z"/>
<path class="st1" d="m1276.3 731.35h-0.05c-0.97-0.03-1.73-0.83-1.7-1.8 0.75-25.73 2.6-43.98 6.37-63 6.2-31.26 12.92-52.08 18.32-68.8 6.62-20.51 10.99-34.06 10.99-55.31 0-16.25-13.22-29.47-29.47-29.47s-29.47 13.22-29.47 29.47v178.63c0 0.97-0.78 1.75-1.75 1.75s-1.75-0.78-1.75-1.75v-178.64c0-18.18 14.79-32.97 32.97-32.97s32.97 14.79 32.97 32.97c0 21.8-4.44 35.56-11.16 56.38-5.37 16.64-12.06 37.35-18.21 68.41-3.73 18.81-5.55 36.9-6.3 62.42-0.04 0.96-0.82 1.71-1.76 1.71z"/>
<path class="st1" d="m1280.7 575.41c-18.18 0-32.97-14.79-32.97-32.97s14.79-32.97 32.97-32.97 32.97 14.79 32.97 32.97-14.79 32.97-32.97 32.97zm0-62.44c-16.25 0-29.47 13.22-29.47 29.47s13.22 29.47 29.47 29.47 29.47-13.22 29.47-29.47-13.22-29.47-29.47-29.47z"/>
<path class="st1" d="m1200.4 971.99h-15c-0.97 0-1.75-0.78-1.75-1.75v-210.37c0-12.16-9.9-22.06-22.07-22.06-12.16 0-22.06 9.9-22.06 22.06v210.37c0 0.97-0.78 1.75-1.75 1.75h-15c-0.97 0-1.75-0.78-1.75-1.75v-210.37c0-22.37 18.2-40.56 40.56-40.56 22.37 0 40.57 18.2 40.57 40.56v210.37c0 0.97-0.79 1.75-1.75 1.75zm-13.25-3.5h11.5v-208.62c0-20.44-16.63-37.06-37.07-37.06s-37.06 16.62-37.06 37.06v208.62h11.5v-208.62c0-14.09 11.47-25.56 25.56-25.56 14.1 0 25.57 11.47 25.57 25.56z"/>
<path class="st1" d="m1249.5 722.81h-87.89c-0.97 0-1.75-0.78-1.75-1.75s0.78-1.75 1.75-1.75h87.89c0.97 0 1.75 0.78 1.75 1.75s-0.78 1.75-1.75 1.75z"/>
<path class="st1" d="m1290.8 971.99h-90.37c-0.97 0-1.75-0.78-1.75-1.75s0.78-1.75 1.75-1.75h88.62v-208.62c0-20.44-16.63-37.06-37.07-37.06h-2.48c-0.97 0-1.75-0.78-1.75-1.75s0.78-1.75 1.75-1.75h2.48c22.37 0 40.57 18.2 40.57 40.56v210.37c0 0.97-0.79 1.75-1.75 1.75z"/>
<path class="st1" d="m1161.6 785.44c-14.09 0-25.56-11.47-25.56-25.57 0-14.09 11.47-25.56 25.56-25.56 14.1 0 25.57 11.47 25.57 25.56 0 14.1-11.47 25.57-25.57 25.57zm0-47.63c-12.16 0-22.06 9.9-22.06 22.06 0 12.17 9.9 22.07 22.06 22.07 12.17 0 22.07-9.9 22.07-22.07 0-12.16-9.9-22.06-22.07-22.06z"/>
<path class="st1" d="m1185.4 971.99h-47.63c-0.97 0-1.75-0.78-1.75-1.75v-210.37c0-0.97 0.78-1.75 1.75-1.75s1.75 0.78 1.75 1.75c0 12.17 9.9 22.07 22.06 22.07 12.17 0 22.07-9.9 22.07-22.07 0-0.97 0.78-1.75 1.75-1.75s1.75 0.78 1.75 1.75v210.37c0 0.97-0.79 1.75-1.75 1.75zm-45.88-3.5h44.13v-195.71c-4.44 7.57-12.67 12.67-22.07 12.67-9.39 0-17.62-5.09-22.06-12.67z"/>
<path class="st1" d="m988.25 702.58c-0.97 0-1.75-0.78-1.75-1.75v-158.4c0-26.45 21.52-47.97 47.97-47.97h41.58c0.97 0 1.75 0.78 1.75 1.75s-0.78 1.75-1.75 1.75h-41.58c-24.52 0-44.47 19.95-44.47 44.47v158.39c0 0.97-0.79 1.76-1.75 1.76z"/>
<path class="st1" d="m876.55 854.22c-0.97 0-1.75-0.78-1.75-1.75v-92.59c0-22.37 18.2-40.56 40.56-40.56 18.97 0 35.22 12.88 39.51 31.33 0.22 0.94-0.37 1.88-1.31 2.1-0.93 0.22-1.88-0.37-2.1-1.31-3.92-16.85-18.77-28.62-36.11-28.62-20.44 0-37.06 16.62-37.06 37.06v92.59c0.01 0.97-0.78 1.75-1.74 1.75z"/>
<path class="st1" d="m891.55 971.99h-15c-0.97 0-1.75-0.78-1.75-1.75v-44.59c0-0.97 0.78-1.75 1.75-1.75s1.75 0.78 1.75 1.75v42.84h11.5v-60.96c0-0.97 0.78-1.75 1.75-1.75s1.75 0.78 1.75 1.75v62.71c0 0.97-0.79 1.75-1.75 1.75z"/>
<path class="st1" d="m891.55 831.67c-0.97 0-1.75-0.78-1.75-1.75v-70.04c0-14.09 11.47-25.56 25.56-25.56 14.1 0 25.57 11.47 25.57 25.56 0 0.97-0.78 1.75-1.75 1.75s-1.75-0.78-1.75-1.75c0-12.16-9.9-22.06-22.07-22.06-12.16 0-22.06 9.9-22.06 22.06v70.04c0 0.96-0.79 1.75-1.75 1.75z"/>
<path class="st1" d="m954.17 971.99h-15c-0.97 0-1.75-0.78-1.75-1.75v-115.02c0-0.97 0.78-1.75 1.75-1.75s1.75 0.78 1.75 1.75v113.27h11.5v-130.96c0-0.97 0.78-1.75 1.75-1.75s1.75 0.78 1.75 1.75v132.71c0 0.97-0.78 1.75-1.75 1.75z"/>
<path class="st1" d="m976.37 722.81h-61.01c-0.97 0-1.75-0.78-1.75-1.75s0.78-1.75 1.75-1.75h61.01c0.97 0 1.75 0.78 1.75 1.75s-0.79 1.75-1.75 1.75z"/>
<path class="st1" d="m915.36 785.44c-14.09 0-25.56-11.47-25.56-25.57 0-14.09 11.47-25.56 25.56-25.56 14.1 0 25.57 11.47 25.57 25.56 0 1.3-0.1 2.61-0.29 3.89-0.15 0.96-1.04 1.61-1.99 1.46-0.96-0.15-1.61-1.04-1.46-1.99 0.17-1.1 0.25-2.24 0.25-3.36 0-12.16-9.9-22.06-22.07-22.06-12.16 0-22.06 9.9-22.06 22.06 0 12.17 9.9 22.07 22.06 22.07 2.98 0 5.87-0.58 8.59-1.73 0.89-0.38 1.92 0.04 2.29 0.93s-0.04 1.92-0.93 2.29c-3.17 1.34-6.51 2.01-9.96 2.01z"/>
<path class="st1" d="m891.55 831.67c-0.97 0-1.75-0.78-1.75-1.75v-70.04c0-0.97 0.78-1.75 1.75-1.75s1.75 0.78 1.75 1.75c0 12.17 9.9 22.07 22.06 22.07 2.95 0 5.81-0.57 8.5-1.7 0.89-0.37 1.92 0.05 2.29 0.94s-0.05 1.92-0.94 2.29c-3.12 1.3-6.44 1.97-9.85 1.97-9.39 0-17.62-5.09-22.06-12.67v57.14c0 0.96-0.79 1.75-1.75 1.75z"/>
<path class="st1" d="m939.17 971.99h-47.63c-0.97 0-1.75-0.78-1.75-1.75v-62.71c0-0.97 0.78-1.75 1.75-1.75s1.75 0.78 1.75 1.75v60.96h44.13c-0.01-9.41-0.04-55.28-0.09-101.19 0-0.97 0.78-1.75 1.75-1.75s1.75 0.78 1.75 1.75c0.06 51.5 0.09 102.95 0.09 102.95 0 0.46-0.18 0.91-0.51 1.24-0.33 0.32-0.77 0.5-1.24 0.5z"/>
<path class="st1" d="m1122.8 963.7h-74.98c-0.97 0-1.75-0.78-1.75-1.75s0.78-1.75 1.75-1.75h74.98c0.97 0 1.75 0.78 1.75 1.75s-0.79 1.75-1.75 1.75z"/>
<path class="st1" d="m991.7 963.7h-37.53c-0.97 0-1.75-0.78-1.75-1.75s0.78-1.75 1.75-1.75h37.53c0.97 0 1.75 0.78 1.75 1.75s-0.78 1.75-1.75 1.75z"/>
<path class="st1" d="m891.55 971.99h-209.5c-0.97 0-1.75-0.78-1.75-1.75s0.78-1.75 1.75-1.75h209.49c0.97 0 1.75 0.78 1.75 1.75s-0.78 1.75-1.74 1.75z"/>
<path class="st1" d="m1349.6 971.99h-58.81c-0.97 0-1.75-0.78-1.75-1.75s0.78-1.75 1.75-1.75h58.81c0.97 0 1.75 0.78 1.75 1.75s-0.78 1.75-1.75 1.75z"/>
<path class="st1" d="m496.99 441.79c-0.47 0-0.92-0.19-1.25-0.52-4.83-4.89-7.38-10.67-7.38-16.72 0-6.04 2.55-11.82 7.38-16.72 0.66-0.67 1.83-0.67 2.49 0 4.83 4.89 7.38 10.67 7.38 16.72 0 6.04-2.55 11.82-7.38 16.72-0.32 0.33-0.77 0.52-1.24 0.52zm0-30.15c-3.36 3.91-5.12 8.34-5.12 12.91s1.77 9 5.12 12.91c3.36-3.91 5.12-8.34 5.12-12.91s-1.76-9-5.12-12.91z"/>
<path class="st1" d="m475.3 510.96c-0.97 0-1.75-0.78-1.75-1.75v-69.17c0-0.97 0.78-1.75 1.75-1.75h21.69c0.97 0 1.75 0.78 1.75 1.75s-0.78 1.75-1.75 1.75h-19.94v67.42c0 0.97-0.78 1.75-1.75 1.75z"/>
<path class="st1" d="m518.68 469.67c-0.97 0-1.75-0.78-1.75-1.75v-26.13h-19.94c-0.97 0-1.75-0.78-1.75-1.75s0.78-1.75 1.75-1.75h21.69c0.97 0 1.75 0.78 1.75 1.75v27.88c0 0.97-0.78 1.75-1.75 1.75z"/>
<path class="st1" d="m531.09 469.67c-0.54 0-1.05-0.25-1.38-0.67-2.71-3.48-4.14-7.57-4.14-11.84s1.43-8.36 4.14-11.84c0.66-0.85 2.1-0.85 2.76 0 2.71 3.48 4.14 7.57 4.14 11.84 0 4.26-1.43 8.36-4.14 11.84-0.33 0.42-0.84 0.67-1.38 0.67zm0-20.13c-1.33 2.35-2.02 4.95-2.02 7.62s0.69 5.26 2.02 7.62c1.33-2.35 2.02-4.95 2.02-7.62s-0.69-5.26-2.02-7.62z"/>
<path class="st1" d="m511.42 510.96c-0.97 0-1.75-0.78-1.75-1.75v-41.29c0-0.97 0.78-1.75 1.75-1.75h19.67c0.97 0 1.75 0.78 1.75 1.75s-0.78 1.75-1.75 1.75h-17.92v39.54c0 0.97-0.78 1.75-1.75 1.75z"/>
<path class="st1" d="m550.76 510.96c-0.97 0-1.75-0.78-1.75-1.75v-39.54h-17.92c-0.97 0-1.75-0.78-1.75-1.75s0.78-1.75 1.75-1.75h19.67c0.97 0 1.75 0.78 1.75 1.75v41.29c0 0.97-0.79 1.75-1.75 1.75z"/>
<g transform="translate(-20.314 -97.219)">
	<path class="st1" d="m702.77 608.18h-89.75c-0.97 0-1.75-0.78-1.75-1.75v-55.23c0-0.97 0.78-1.75 1.75-1.75h89.75c0.97 0 1.75 0.78 1.75 1.75v55.23c0 0.97-0.78 1.75-1.75 1.75zm-87.99-3.5h86.25v-51.73h-86.25z"/>


	<path class="st1" d="m692.77 598.18h-69.75c-0.97 0-1.75-0.78-1.75-1.75v-35.23c0-0.97 0.78-1.75 1.75-1.75h69.75c0.97 0 1.75 0.78 1.75 1.75v35.23c0 0.97-0.78 1.75-1.75 1.75zm-67.99-3.5h66.25v-31.73h-66.25z"/>


	<path class="st1" d="m623.03 562.95c-0.45 0-0.9-0.17-1.24-0.51l-10-10c-0.68-0.68-0.68-1.79 0-2.47s1.79-0.68 2.47 0l10 10c0.68 0.68 0.68 1.79 0 2.47-0.34 0.34-0.79 0.51-1.23 0.51z"/>


	<path class="st1" d="m692.77 562.95c-0.45 0-0.9-0.17-1.24-0.51-0.68-0.68-0.68-1.79 0-2.47l10-10c0.68-0.68 1.79-0.68 2.47 0s0.68 1.79 0 2.47l-10 10c-0.33 0.34-0.78 0.51-1.23 0.51z"/>


	<path class="st1" d="m702.77 608.18c-0.45 0-0.9-0.17-1.24-0.51l-10-10c-0.68-0.68-0.68-1.79 0-2.47s1.79-0.68 2.47 0l10 10c0.68 0.68 0.68 1.79 0 2.47-0.33 0.34-0.78 0.51-1.23 0.51z"/>


	<path class="st1" d="m613.03 608.18c-0.45 0-0.9-0.17-1.24-0.51-0.68-0.68-0.68-1.79 0-2.47l10-10c0.68-0.68 1.79-0.68 2.47 0s0.68 1.79 0 2.47l-10 10c-0.34 0.34-0.79 0.51-1.23 0.51z"/>


	<path class="st1" d="m995.88 563.56h-74.33c-0.97 0-1.75-0.78-1.75-1.75v-97.9c0-0.97 0.78-1.75 1.75-1.75h74.33c0.97 0 1.75 0.78 1.75 1.75v97.9c0 0.97-0.78 1.75-1.75 1.75zm-72.58-3.5h70.83v-94.4h-70.83z"/>


	<path class="st1" d="m985.88 553.56h-54.33c-0.97 0-1.75-0.78-1.75-1.75v-77.9c0-0.97 0.78-1.75 1.75-1.75h54.33c0.97 0 1.75 0.78 1.75 1.75v77.9c0 0.97-0.78 1.75-1.75 1.75zm-52.58-3.5h50.83v-74.4h-50.83z"/>


	<path class="st1" d="m931.55 475.66c-0.45 0-0.9-0.17-1.24-0.51l-10-10c-0.68-0.68-0.68-1.79 0-2.47s1.79-0.68 2.47 0l10 10c0.68 0.68 0.68 1.79 0 2.47-0.33 0.34-0.78 0.51-1.23 0.51z"/>


	<path class="st1" d="m985.88 475.66c-0.45 0-0.9-0.17-1.24-0.51-0.68-0.68-0.68-1.79 0-2.47l10-10c0.68-0.68 1.79-0.68 2.47 0s0.68 1.79 0 2.47l-10 10c-0.33 0.34-0.78 0.51-1.23 0.51z"/>


	<path class="st1" d="m995.88 563.56c-0.45 0-0.9-0.17-1.24-0.51l-10-10c-0.68-0.68-0.68-1.79 0-2.47s1.79-0.68 2.47 0l10 10c0.68 0.68 0.68 1.79 0 2.47-0.33 0.34-0.78 0.51-1.23 0.51z"/>


	<path class="st1" d="m921.55 563.56c-0.45 0-0.9-0.17-1.24-0.51-0.68-0.68-0.68-1.79 0-2.47l10-10c0.68-0.68 1.79-0.68 2.47 0s0.68 1.79 0 2.47l-10 10c-0.33 0.34-0.78 0.51-1.23 0.51z"/>
</g>
<path class="st1" d="m833.96 510.96h-33.29c-0.31 0-0.61-0.08-0.88-0.24-10.74-6.23-17.41-17.81-17.41-30.22 0-0.61 0.01-1.21 0.04-1.8 0.74-18.33 12.97-28.92 20.28-35.25 2.16-1.87 5.12-4.43 5.16-5.32 0-4.96-3.71-15.3-3.75-15.4-0.19-0.54-0.11-1.13 0.21-1.6 0.33-0.47 0.86-0.74 1.43-0.74h23.11c0.57 0 1.1 0.28 1.43 0.74 0.33 0.47 0.41 1.06 0.21 1.6-0.04 0.1-3.75 10.45-3.75 15.41 0.04 0.88 3 3.44 5.16 5.32 7.31 6.33 19.54 16.92 20.28 35.27 0.03 0.57 0.04 1.17 0.04 1.78 0 12.41-6.67 23.99-17.41 30.22-0.25 0.15-0.55 0.23-0.86 0.23zm-32.81-3.5h32.33c9.43-5.66 15.27-15.95 15.27-26.96 0-0.55-0.01-1.09-0.04-1.62-0.68-16.86-11.75-26.45-19.08-32.79-3.83-3.32-6.37-5.52-6.37-7.96 0-4.04 2-10.72 3.15-14.25h-18.22c1.16 3.53 3.15 10.21 3.15 14.25 0 2.45-2.53 4.64-6.37 7.96-7.32 6.34-18.39 15.93-19.07 32.77-0.03 0.55-0.04 1.09-0.04 1.64 0.02 11.02 5.86 21.3 15.29 26.96z"/>
<path class="st1" d="m894.05 510.96h-36.74c-0.97 0-1.75-0.78-1.75-1.75s0.78-1.75 1.75-1.75h34.27l-29.99-84.74c-0.13-0.36-0.13-0.75-0.02-1.12l5.19-16.12h-9.45c-0.97 0-1.75-0.78-1.75-1.75s0.78-1.75 1.75-1.75h11.85c0.56 0 1.08 0.27 1.41 0.72s0.42 1.03 0.25 1.57l-5.75 17.84 30.62 86.52c0.19 0.54 0.11 1.13-0.22 1.59-0.32 0.47-0.85 0.74-1.42 0.74z"/>
<path class="st1" d="m840.77 453.88c-0.19 0-0.39-0.03-0.58-0.1-0.91-0.32-1.39-1.32-1.07-2.23l10.42-29.44-5.75-17.84c-0.17-0.53-0.08-1.11 0.25-1.57 0.33-0.45 0.85-0.72 1.41-0.72h11.85c0.97 0 1.75 0.78 1.75 1.75s-0.78 1.75-1.75 1.75h-9.45l5.19 16.12c0.12 0.37 0.11 0.76-0.02 1.12l-10.62 30c-0.23 0.71-0.91 1.16-1.63 1.16z"/>
<path class="st1" d="m448.3 530.81c-10.69 0-16.57-12.54-17.33-21.45-0.04-0.49 0.12-0.97 0.46-1.33 0.33-0.36 0.8-0.57 1.29-0.57h555.52c0.97 0 1.75 0.78 1.75 1.75s-0.78 1.75-1.75 1.75h-553.53c1.21 7.19 5.91 16.35 13.6 16.35 0.97 0 1.75 0.78 1.75 1.75s-0.79 1.75-1.76 1.75z"/>
<path class="st1" d="m988.25 530.81h-539.95c-0.97 0-1.75-0.78-1.75-1.75s0.78-1.75 1.75-1.75h539.94c0.97 0 1.75 0.78 1.75 1.75s-0.78 1.75-1.74 1.75z"/>
<path class="st1" d="m988.25 541.04h-523.08c-10.43 0-14.41-4.52-17.18-11.31-0.36-0.89 0.07-1.92 0.96-2.28s1.92 0.07 2.28 0.96c2.41 5.92 5.35 9.13 13.94 9.13h523.08c0.97 0 1.75 0.78 1.75 1.75s-0.79 1.75-1.75 1.75z"/>
<path class="st1" d="m988.25 607.19h-523.08c-10.43 0-14.41-4.52-17.18-11.31-0.22-0.54-0.16-1.15 0.17-1.64s0.87-0.77 1.45-0.77h538.64c0.97 0 1.75 0.78 1.75 1.75s-0.78 1.75-1.75 1.75h-535.92c2.28 4.38 5.5 6.72 12.83 6.72h523.08c0.97 0 1.75 0.78 1.75 1.75s-0.78 1.75-1.74 1.75z"/>
<path class="st1" d="m876.55 849.65h-426.94c-0.58 0-1.13-0.29-1.45-0.77s-0.39-1.1-0.17-1.64c2.77-6.79 6.75-11.31 17.18-11.31h411.38c0.97 0 1.75 0.78 1.75 1.75s-0.78 1.75-1.75 1.75h-411.38c-7.34 0-10.55 2.34-12.83 6.72h424.21c0.97 0 1.75 0.78 1.75 1.75s-0.79 1.75-1.75 1.75z"/>
<path class="st1" d="m465.17 596.97c-0.97 0-1.75-0.78-1.75-1.75v-55.93c0-0.97 0.78-1.75 1.75-1.75s1.75 0.78 1.75 1.75v55.93c0 0.96-0.79 1.75-1.75 1.75z"/>
<path class="st1" d="m465.17 836.89c-0.97 0-1.75-0.78-1.75-1.75v-229.7c0-0.97 0.78-1.75 1.75-1.75s1.75 0.78 1.75 1.75v229.7c0 0.96-0.79 1.75-1.75 1.75z"/>
<path class="st1" d="m449.61 906.95c-0.97 0-1.75-0.78-1.75-1.75v-57.29c0-0.97 0.78-1.75 1.75-1.75s1.75 0.78 1.75 1.75v57.29c0 0.96-0.78 1.75-1.75 1.75z"/>
<path class="st1" d="m815.54 906.95h-410.08c-0.97 0-1.75-0.78-1.75-1.75s0.78-1.75 1.75-1.75h410.07c0.97 0 1.75 0.78 1.75 1.75s-0.78 1.75-1.74 1.75z"/>
<path class="st1" d="m551.83 839.43h-21.33c-0.97 0-1.75-0.78-1.75-1.75v-232.24c0-0.97 0.78-1.75 1.75-1.75h21.33c0.97 0 1.75 0.78 1.75 1.75v232.24c0 0.97-0.78 1.75-1.75 1.75zm-19.58-3.5h17.83v-228.74h-17.83z"/>
<path class="st1" d="m988.24 667.41c-0.33 0-0.67-0.09-0.97-0.29-44.48-29.57-123.66-46.52-217.24-46.52s-172.76 16.96-217.24 46.52c-0.8 0.54-1.89 0.32-2.43-0.49-0.54-0.8-0.32-1.89 0.49-2.43 63.97-42.52 174.59-47.11 219.18-47.11s155.21 4.59 219.18 47.11c0.8 0.53 1.02 1.62 0.49 2.43-0.33 0.5-0.89 0.78-1.46 0.78z"/>
<path class="st1" d="m595.47 645.92c-0.97 0-1.75-0.78-1.75-1.75v-38.74c0-0.97 0.78-1.75 1.75-1.75s1.75 0.78 1.75 1.75v38.74c0 0.97-0.78 1.75-1.75 1.75z"/>
<path class="st1" d="m639.12 633.57c-0.97 0-1.75-0.78-1.75-1.75v-26.38c0-0.97 0.78-1.75 1.75-1.75s1.75 0.78 1.75 1.75v26.38c0 0.97-0.79 1.75-1.75 1.75z"/>
<path class="st1" d="m682.76 626.01c-0.97 0-1.75-0.78-1.75-1.75v-18.82c0-0.97 0.78-1.75 1.75-1.75s1.75 0.78 1.75 1.75v18.82c0 0.97-0.79 1.75-1.75 1.75z"/>
<path class="st1" d="m726.4 621.9c-0.97 0-1.75-0.78-1.75-1.75v-14.71c0-0.97 0.78-1.75 1.75-1.75s1.75 0.78 1.75 1.75v14.71c0 0.97-0.79 1.75-1.75 1.75z"/>
<path class="st1" d="m944.6 645.92c-0.97 0-1.75-0.78-1.75-1.75v-38.74c0-0.97 0.78-1.75 1.75-1.75s1.75 0.78 1.75 1.75v38.74c0 0.97-0.78 1.75-1.75 1.75z"/>
<path class="st1" d="m900.96 633.57c-0.97 0-1.75-0.78-1.75-1.75v-26.38c0-0.97 0.78-1.75 1.75-1.75s1.75 0.78 1.75 1.75v26.38c0 0.97-0.78 1.75-1.75 1.75z"/>
<path class="st1" d="m857.32 626.01c-0.97 0-1.75-0.78-1.75-1.75v-18.82c0-0.97 0.78-1.75 1.75-1.75s1.75 0.78 1.75 1.75v18.82c0 0.97-0.78 1.75-1.75 1.75z"/>
<path class="st1" d="m813.68 621.9c-0.97 0-1.75-0.78-1.75-1.75v-14.71c0-0.97 0.78-1.75 1.75-1.75s1.75 0.78 1.75 1.75v14.71c0 0.97-0.78 1.75-1.75 1.75z"/>
<path class="st1" d="m770.04 620.59c-0.97 0-1.75-0.78-1.75-1.75v-13.4c0-0.97 0.78-1.75 1.75-1.75s1.75 0.78 1.75 1.75v13.4c0 0.97-0.78 1.75-1.75 1.75z"/>
<g transform="translate(-20.314 -97.219)">
	<path class="st1" d="m796.02 936.5h-92.96c-0.97 0-1.75-0.78-1.75-1.75v-16.82c0-0.97 0.78-1.75 1.75-1.75h15.88c0.13 0 0.25 0.01 0.37 0.04l77.07 16.82c0.87 0.19 1.46 1.01 1.37 1.9s-0.83 1.56-1.73 1.56zm-91.2-3.5h74.98l-61.04-13.32h-13.94z"/>


	<path class="st1" d="m869.03 936.5h-31.1c-0.22 0-0.44-0.04-0.65-0.12l-42.39-16.82c-0.78-0.31-1.23-1.13-1.07-1.96s0.88-1.42 1.72-1.42h73.49c0.97 0 1.75 0.78 1.75 1.75v16.82c0 0.97-0.78 1.75-1.75 1.75zm-30.77-3.5h29.02v-13.32h-62.58z"/>


	<path class="st1" d="m800.45 936.5h-4.43c-0.12 0-0.25-0.01-0.37-0.04l-81.27-17.74c-0.47-0.1-0.87-0.39-1.12-0.8s-0.32-0.9-0.2-1.36l3.53-13.25c0.24-0.9 1.15-1.46 2.06-1.26l11.03 2.4c0.45 0.1 0.84 0.37 1.09 0.74l70.33 27.92c0.78 0.31 1.23 1.13 1.07 1.96-0.15 0.84-0.88 1.43-1.72 1.43zm-83.54-20.8 68.39 14.93-56.78-22.54c-0.24-0.1-0.46-0.24-0.63-0.43l-8.36-1.82z"/>


	<path class="st1" d="m837.93 936.5h-37.47c-0.22 0-0.44-0.04-0.65-0.12l-71.28-28.29c-0.45-0.18-0.8-0.53-0.98-0.98s-0.16-0.95 0.04-1.39l0.13-0.29c0.03-0.06 0.06-0.11 0.09-0.17l5.83-12.04c0.4-0.83 1.37-1.2 2.22-0.86l102.72 40.76c0.78 0.31 1.23 1.13 1.07 1.96s-0.88 1.42-1.72 1.42zm-37.14-3.5h27.99l-92.7-36.79-4.51 9.31z"/>


	<path class="st1" d="m779.36 913.26c-0.22 0-0.44-0.04-0.65-0.12l-17.24-6.84c-0.72-0.29-1.16-1-1.1-1.77s0.62-1.4 1.38-1.56l74.31-15.81c0.92-0.19 1.82 0.37 2.06 1.27l3.92 15.07c0.13 0.49 0.04 1.01-0.25 1.42-0.28 0.42-0.73 0.69-1.23 0.75l-60.98 7.58c-0.08 0-0.15 0.01-0.22 0.01zm-11.22-8.09 11.45 4.54 58.56-7.28-2.99-11.52z"/>


	<path class="st1" d="m862.48 919.68h-66.94c-0.22 0-0.44-0.04-0.65-0.12l-16.18-6.42c-0.74-0.29-1.19-1.06-1.09-1.85s0.73-1.42 1.52-1.51l80.63-10.02c0.94-0.13 1.8 0.54 1.95 1.47l2.49 16.45c0.08 0.5-0.07 1.02-0.4 1.4s-0.82 0.6-1.33 0.6zm-66.6-3.5h64.57l-1.93-12.75-72.16 8.97z"/>
</g>
<path class="st1" d="m729.24 804.71c-0.5 0-1-0.22-1.35-0.64-9.03-10.93-2.65-23.21 4.73-37.43 7.3-14.06 15.57-29.99 13.04-49.81-0.09-0.74 0.29-1.46 0.95-1.79s1.47-0.21 2 0.31c12.78 12.43 11.31 28.16 10.24 39.65-0.64 6.88-1.19 12.81 1.45 15.49 2.26 2.29 5.43 0.23 7.12-1.21 5.64-4.8 9.79-15.01 6.4-19.64-0.51-0.7-0.44-1.66 0.17-2.27s1.57-0.69 2.27-0.18c32.31 23.42 12.8 51.28 12.6 51.56-0.57 0.79-1.66 0.96-2.44 0.4-0.78-0.57-0.96-1.66-0.4-2.44 0.69-0.97 15.85-22.78-7.44-43.2 0.25 6.6-4.2 14.45-8.89 18.45-4.38 3.73-8.83 4.1-11.88 1-3.78-3.84-3.16-10.53-2.44-18.27 0.94-10.12 2.09-22.44-5.8-32.96 0.71 18.51-7.3 33.93-13.84 46.54-7.09 13.65-12.69 24.44-5.14 33.59 0.62 0.75 0.51 1.85-0.24 2.46-0.33 0.26-0.72 0.39-1.11 0.39z"/>
<path class="st1" d="m694.44 821.55c-0.26 0-0.53-0.06-0.78-0.18-14.08-6.98-25.79-25.02-28.48-43.87-2.6-18.21 3.22-34.92 16.39-47.05 0.63-0.58 1.6-0.62 2.28-0.08s0.86 1.49 0.43 2.24c-5.02 8.8-2.79 18.72 1.87 23.59 1.85 1.94 5.76 4.79 11.11 2.04 3.01-1.54 4.84-3.73 5.6-6.68 1.83-7.11-2.52-18.53-12.92-33.95-7.53-11.16-9.25-25.1-4.51-36.37 4.37-10.36 13.79-17.35 26.53-19.67 0.64-0.12 1.3 0.13 1.7 0.65s0.48 1.21 0.2 1.81c-5.32 11.43-4.67 26.31 1.53 35.38 2.67 3.9 7.58 8.43 15.88 7.91 6.6-0.42 12.59-5.84 16.45-14.86 6.48-15.15 6.08-40.24-10.12-59.51-0.51-0.61-0.55-1.49-0.09-2.14s1.3-0.91 2.04-0.63c54.2 20.28 51.77 57.34 45.5 77.62-4.81 15.58-3.98 32.45 0.05 34.83 1.45 0.86 3.67-1.09 4.85-2.33 8.79-9.16 8.89-31.89 8.89-32.12 0-0.74 0.46-1.4 1.16-1.65s1.47-0.04 1.94 0.53c15.71 18.98 23.88 37.24 24.3 54.27 0.35 14.25-4.76 24.63-8.64 31.2-0.49 0.83-1.56 1.11-2.4 0.62-0.83-0.49-1.11-1.56-0.62-2.4 5.21-8.83 20.79-35.23-12.44-77.84-0.52 7.58-2.47 22.3-9.68 29.81-4.21 4.39-7.3 4.01-9.16 2.93-6.6-3.89-6.3-23.73-1.62-38.88 5.67-18.35 7.94-51.32-37.57-70.97 13.3 19.57 13.12 43.24 6.79 58.03-4.4 10.28-11.48 16.47-19.44 16.98-7.76 0.5-14.5-2.85-19-9.43-6.29-9.2-7.45-23.71-3.12-35.67-12.53 3.24-18.18 10.84-20.73 16.88-4.3 10.19-2.69 22.86 4.18 33.05 11.14 16.52 15.53 28.55 13.41 36.78-1.01 3.93-3.5 6.93-7.39 8.92-5.3 2.72-11 1.7-15.24-2.74-4.07-4.26-6.62-11.73-5.33-19.47-8.26 10.55-11.66 23.71-9.64 37.86 2.54 17.78 13.47 34.73 26.57 41.23 0.87 0.43 1.22 1.48 0.79 2.34-0.26 0.63-0.88 0.99-1.52 0.99z"/>
<path class="st1" d="m813.71 700.59h-0.03c-5.87-0.01-10.5-3.55-13.39-10.23-6.3-14.56-3.12-42.7 10.41-57.16 0.55-0.59 1.42-0.72 2.13-0.33 0.7 0.39 1.05 1.21 0.84 1.98-6.43 23.93-1.06 35.02 3.84 36.38 2.83 0.78 5.59-1.65 6.87-6.06 0.19-0.66 0.75-1.15 1.44-1.25s1.36 0.22 1.73 0.8c3.1 4.94 4.22 19.16-0.64 27.94-2.89 5.19-7.45 7.93-13.2 7.93zm-5.28-58.44c-8.33 14.22-9.85 35.45-4.93 46.83 2.33 5.38 5.75 8.11 10.18 8.12h0.02c4.47 0 7.88-2.06 10.13-6.12 3.38-6.1 3.36-15.21 2.09-20.71-2.28 3.61-5.77 5.33-9.35 4.33-6.82-1.9-11.71-12.78-8.14-32.45z"/>
<path class="st1" d="m837.34 770.72c-0.5 0-0.98-0.21-1.32-0.6-0.48-0.56-0.57-1.36-0.2-2 0.06-0.12 6.54-11.99 0.01-23.24-0.64-1.1-1.3-2.21-1.97-3.32-6.92-11.53-14.77-24.59 0.27-39.62 0.61-0.61 1.56-0.68 2.26-0.18 0.69 0.5 0.92 1.42 0.55 2.18-0.08 0.17-3.32 7.85 7.84 22.21 7.59 9.76 10.43 19.95 8.02 28.68-1.97 7.12-7.37 12.87-14.82 15.77-0.22 0.08-0.43 0.12-0.64 0.12zm-4.36-62.11c-8.06 11.25-2.25 20.94 3.87 31.13 0.68 1.13 1.35 2.25 2 3.37 4.95 8.53 3.55 17.12 1.91 22.18 4.3-2.72 7.37-6.72 8.66-11.4 2.11-7.65-0.52-16.74-7.41-25.6-6.74-8.66-8.71-15.29-9.03-19.68z"/>
<path class="st1" d="m650.94 745.48c-0.47 0-0.94-0.19-1.28-0.55-14.09-15.03-9.55-26.83-3.8-41.76 2.76-7.18 5.9-15.31 7.35-25.03 0.1-0.67 0.58-1.22 1.23-1.42s1.35 0 1.81 0.51c15.33 17.2 7.66 34.92 1.5 49.16-2.93 6.78-5.47 12.64-5.07 17.19 0.07 0.74-0.35 1.45-1.03 1.75-0.22 0.1-0.47 0.15-0.71 0.15zm5.07-62.99c-1.67 8.4-4.41 15.54-6.88 21.93-5.07 13.15-8.84 22.95 0.32 34.87 0.76-4.29 2.81-9.03 5.09-14.29 5.68-13.13 12.08-27.91 1.47-42.51z"/>
<path class="st1" d="m968.16 987.74c-2.75 0-7.56-0.45-8.84-3.49-1.4-3.31 2.5-6.87 3.78-8.03 3.57-3.26 9.61-6.33 16.6-9.89 12.73-6.48 28.58-14.54 29.92-25.48 0.12-0.96 1-1.64 1.95-1.52 0.96 0.12 1.64 0.99 1.52 1.95-1.58 12.79-17.64 20.96-31.81 28.17-6.48 3.3-12.6 6.41-15.82 9.35-2.75 2.51-3.03 3.8-2.91 4.09 0.36 0.85 3.67 1.49 6.8 1.32h30.48c4.1 0 7.72-2.99 11.54-6.16 4.32-3.57 9.21-7.62 15.57-7.62 0.72 0 1.45 0.01 2.18 0.01 5.7 0.06 11.59 0.12 14.58-3.44 2.51-2.99 3.03-8.62 1.52-16.73-0.83-4.48-1.94-8.85-3.31-13.01-0.3-0.92 0.2-1.91 1.12-2.21s1.91 0.2 2.21 1.12c1.42 4.31 2.57 8.84 3.43 13.47 1.73 9.32 0.98 15.73-2.29 19.62-4.05 4.82-11.09 4.75-17.29 4.69-0.72-0.01-1.44-0.01-2.14-0.01-5.1 0-9.1 3.31-13.34 6.82-4.13 3.42-8.41 6.96-13.77 6.96h-30.33c-0.35 0-0.81 0.02-1.35 0.02z"/>
<path class="st1" d="m1018.3 943.61c-5 0-9.51-0.69-12.64-2.33-0.53-0.28-0.88-0.8-0.93-1.39-2.88-31.72-15.7-86.01-24.18-121.93-3.24-13.71-5.79-24.53-6.9-30.34-2-10.43 0.07-20.38 5.98-28.76 8.76-12.42 25.79-20.9 49.25-24.52 44.92-6.94 75-7.78 75.29-7.79h0.05c0.95 0 1.72 0.75 1.75 1.7 0.03 0.97-0.74 1.77-1.7 1.79-0.3 0.01-30.17 0.85-74.85 7.75-22.5 3.48-38.73 11.46-46.92 23.08-5.35 7.59-7.22 16.61-5.4 26.08 1.1 5.74 3.65 16.53 6.87 30.19 8.42 35.65 21.09 89.33 24.17 121.42 8.95 3.77 29.53 0.01 37.67-4.56-2.19-9.72-2.05-25.63-1.9-43.93 0.3-35.8 0.67-80.35-16.13-101.71-0.6-0.76-0.47-1.86 0.29-2.46s1.86-0.47 2.46 0.29c17.57 22.33 17.19 67.56 16.88 103.91-0.16 18.87-0.3 35.17 2.09 44.29 0.19 0.72-0.1 1.49-0.72 1.9-5.89 3.92-19.37 7.32-30.48 7.32z"/>
<path class="st1" d="m760.7 971.99c-0.57 0-1.12-0.27-1.46-0.78-1.75-2.63-2.09-5.4-0.99-8.02 2.09-4.97 9.29-8.76 20.81-10.96 22.07-4.2 47.45-13.63 54.41-25.2 0.5-0.83 1.57-1.1 2.4-0.6s1.1 1.57 0.6 2.4c-8.03 13.36-35.59 22.81-56.75 26.84-13.73 2.62-17.32 6.68-18.24 8.88-0.63 1.51-0.4 3.1 0.68 4.73 0.54 0.8 0.32 1.89-0.49 2.43-0.3 0.19-0.64 0.28-0.97 0.28z"/>
<path class="st1" d="m860.94 971.99c-0.1 0-0.19-0.01-0.29-0.02-0.95-0.16-1.6-1.06-1.44-2.02 0.03-0.19 3.19-19.42-0.93-28.23-0.41-0.88-0.03-1.92 0.84-2.33s1.92-0.03 2.33 0.84c4.58 9.79 1.35 29.46 1.21 30.29-0.14 0.87-0.88 1.47-1.72 1.47z"/>
<path class="st1" d="m865.24 943.92c-0.49 0-5.22-0.18-18.94-6.38-9.35-4.22-14.29-8.65-15.54-13.92-1.03-4.34 0.5-8.95 4.68-14.11 6.48-8 18.87-26.69 36.03-52.55 11.27-17 24.05-36.26 38.92-58.21 35.08-51.8 50.44-56.86 73.69-64.53 0.56-0.19 1.13-0.37 1.7-0.56-3.53-1.93-7.11-5.51-10.04-10.22-4.77-7.67-7.95-19.24-2.57-28.72 0.39-0.68 1.17-1.02 1.93-0.84 11.18 2.69 16.68 6.98 18.52 8.71 10.14-1.83 14.44-5.78 15.76-7.3-2.26-7.24 3.03-19.69 3.66-21.15 0.19-0.43 0.55-0.77 0.99-0.94 0.45-0.17 0.94-0.14 1.37 0.06 14.19 6.79 28.64 23.48 22.67 48.21-0.23 0.94-1.17 1.51-2.11 1.29-0.94-0.23-1.52-1.17-1.29-2.11 5.25-21.73-6.68-36.7-19.12-43.39-1.8 4.65-4.47 13.44-2.6 17.6 0.23 0.52 0.2 1.11-0.09 1.6-0.17 0.29-4.41 7.26-19.57 9.73-0.61 0.1-1.22-0.13-1.62-0.6-0.04-0.04-4.37-4.9-16.08-7.99-3.75 7.93-0.94 17.48 3.1 23.97 3.87 6.21 9.16 10.4 12.9 10.17 0.86-0.04 1.65 0.55 1.82 1.41s-0.32 1.71-1.14 2c-2.46 0.85-4.83 1.63-7.11 2.38-22.57 7.44-37.47 12.35-71.88 63.17-14.86 21.94-27.63 41.2-38.9 58.19-17.21 25.95-29.65 44.7-36.23 52.82-3.45 4.26-4.75 7.89-3.99 11.1 0.97 4.08 5.41 7.85 13.58 11.54 9.72 4.39 14.68 5.61 16.58 5.94 11.12-18.52 30.02-38.84 51.85-62.31 2.68-2.88 5.41-5.81 8.16-8.79 28.88-31.17 48.56-59.06 51.38-72.79 0.19-0.95 1.13-1.55 2.07-1.36 0.95 0.19 1.56 1.12 1.36 2.07-2.98 14.53-22.51 42.37-52.24 74.46-2.76 2.98-5.48 5.91-8.17 8.79-22.08 23.73-41.14 44.23-51.98 62.69-0.32 0.55-0.89 0.87-1.51 0.87z"/>
<path class="st1" d="m991.7 735.26c-0.76 0-1.46-0.5-1.68-1.27-0.26-0.93 0.28-1.9 1.21-2.16 1.18-0.33 2.44-0.68 3.75-1.03 18.41-4.95 48.34-11.37 48.64-11.44 0.94-0.2 1.88 0.4 2.08 1.34s-0.4 1.88-1.34 2.08c-0.3 0.06-30.13 6.47-48.46 11.4-1.29 0.35-2.53 0.69-3.7 1.02-0.18 0.04-0.34 0.06-0.5 0.06z"/>
<path class="st1" d="m963.68 765.18c-0.5 0-1-0.21-1.35-0.63-2.48-2.98-3.33-6.78-2.38-10.7 1.71-7.02 8.7-13.57 19.18-17.99 0.89-0.38 1.92 0.04 2.29 0.93 0.38 0.89-0.04 1.92-0.93 2.29-9.31 3.92-15.72 9.75-17.14 15.59-0.69 2.85-0.12 5.49 1.67 7.63 0.62 0.74 0.52 1.85-0.22 2.46-0.32 0.29-0.72 0.42-1.12 0.42z"/>
<path class="st1" d="m970.58 765.18c-0.44 0-0.89-0.17-1.23-0.5-3.13-3.08-3.55-6.02-3.35-7.94 0.3-2.92 2.14-5.07 3.63-6.03 0.81-0.52 1.89-0.29 2.42 0.52 0.52 0.81 0.29 1.89-0.52 2.42-0.9 0.58-1.89 1.88-2.05 3.45-0.17 1.69 0.61 3.4 2.33 5.09 0.69 0.68 0.7 1.79 0.02 2.47-0.35 0.35-0.8 0.52-1.25 0.52z"/>
<path class="st1" d="m978.86 765.18c-0.34 0-0.69-0.1-1-0.31-2.53-1.76-3.84-3.64-3.99-5.74-0.21-2.95 2.06-5.44 3.79-7.05 0.71-0.66 1.81-0.62 2.47 0.08 0.66 0.71 0.62 1.81-0.08 2.47-1.89 1.77-2.77 3.15-2.69 4.25 0.07 0.96 0.91 2.01 2.5 3.11 0.79 0.55 0.99 1.64 0.44 2.44-0.34 0.49-0.88 0.75-1.44 0.75z"/>
<path class="st1" d="m1052 776c-1.64 0-3.25-0.05-4.84-0.15-13.36-0.86-21.32-8.44-24.3-15.24-2.31-5.27-2-10.51 0.83-14.02 2.89-3.58 8.01-4.83 14.39-3.53 7.55 1.54 14.16 4.05 20 6.26 12.39 4.69 22.17 8.39 34.55 1.34 9.66-5.5 10.69-13.96 10.45-18.52-0.44-8.25-5.5-16.52-11.76-19.25-0.89-0.39-1.29-1.42-0.91-2.3s1.42-1.29 2.3-0.91c7.51 3.27 13.34 12.63 13.86 22.27 0.5 9.26-3.84 16.98-12.21 21.75-13.82 7.87-24.8 3.71-37.52-1.11-5.99-2.27-12.19-4.61-19.46-6.1-5.04-1.03-8.93-0.22-10.96 2.3-1.97 2.43-2.1 6.42-0.35 10.42 2.57 5.86 9.52 12.4 21.32 13.16 26.48 1.69 60.3-11.36 68.75-35.46 6.88-19.59 1.02-35.97-14.92-41.71-0.91-0.33-1.38-1.33-1.05-2.24s1.33-1.38 2.24-1.05c17.92 6.46 24.61 24.59 17.03 46.17-8.49 24.15-40.54 37.92-67.44 37.92z"/>
<path class="st1" d="m1045.1 710.12c-2.61 0-5.37-0.88-8.43-3.04-0.79-0.56-0.97-1.65-0.42-2.44s1.65-0.98 2.44-0.42c6.83 4.84 11.52 1.49 18.6-3.59 2.31-1.65 4.92-3.53 7.81-5.21 0.84-0.49 1.91-0.2 2.39 0.63 0.49 0.83 0.21 1.91-0.63 2.39-2.75 1.61-5.19 3.35-7.54 5.04-4.83 3.48-9.25 6.64-14.22 6.64z"/>
<g transform="translate(-20.314 -97.219)">
	<path class="st1" d="m1031.3 814.33c-2.71 1.91-4 2.51 1.53 3.06 3.07-4.03 2.71-4.5-1.53-3.06z"/>
	<path class="st1" d="m1032.8 819.14c-0.06 0-0.12 0-0.17-0.01-3.05-0.31-4.94-0.61-5.37-2.27-0.41-1.58 0.94-2.53 2.5-3.62l0.5-0.35c0.14-0.1 0.29-0.17 0.44-0.23 2.14-0.73 4.34-1.48 5.47 0.08 1.15 1.59-0.37 3.59-1.98 5.7-0.33 0.45-0.84 0.7-1.39 0.7z"/>


	<path class="st1" d="m1018.4 819.51c-2.11 0-4.18-0.79-5.8-2.26-0.72-0.65-0.77-1.76-0.12-2.47s1.76-0.77 2.47-0.12c1.27 1.16 3 1.61 4.61 1.21 1.53-0.38 2.73-1.45 3.28-2.95 0.33-0.91 1.34-1.37 2.25-1.04s1.37 1.34 1.04 2.25c-0.96 2.61-3.05 4.49-5.73 5.14-0.66 0.16-1.33 0.24-2 0.24z"/>


	<path class="st1" d="m1037.8 810.98c-1.19 0-2.58-0.28-4.2-1-0.88-0.39-1.28-1.43-0.89-2.31s1.43-1.28 2.31-0.89c2.24 1 3.93 0.92 5.03-0.24 1.2-1.26 1.33-3.29 1.07-3.8-0.44-0.86-0.09-1.92 0.77-2.35 0.86-0.44 1.92-0.09 2.35 0.77 0.97 1.91 0.54 5.5-1.65 7.8-0.84 0.88-2.39 2.02-4.79 2.02z"/>
</g>
<path class="st1" d="m465.17 785.44h-118.85c-0.97 0-1.75-0.78-1.75-1.75s0.78-1.75 1.75-1.75h118.84c0.97 0 1.75 0.78 1.75 1.75s-0.78 1.75-1.74 1.75z"/>
<path class="st1" d="m1444.1 785.44h-150.87c-0.97 0-1.75-0.78-1.75-1.75s0.78-1.75 1.75-1.75h150.87c0.97 0 1.75 0.78 1.75 1.75s-0.79 1.75-1.75 1.75z"/>
<path class="st1" d="m1116.9 509.96c-2.59 0-5.08-0.27-7.46-0.81-3.19-0.72-5.66-2.77-7.35-6.07-4.99-9.77-2-29.97 3.87-44.8-4.29-1.24-14.72-5.09-26.62-15.6-0.57-0.5-0.75-1.32-0.44-2.02s1.03-1.11 1.79-1.03c0.19 0.02 17.59 1.81 28.47-7.99-1.65-0.73-3.78-2.15-6.47-4.71-0.51-0.49-0.68-1.23-0.43-1.88 0.25-0.66 0.87-1.1 1.57-1.13 4.78-0.19 9.24-2.44 14.4-5.04 9.92-5.01 22.27-11.24 41.75-3.12 11.83 4.93 19.43 14.78 21.4 27.73 2.45 16.04-4.43 33.94-17.1 44.56-17.11 14.33-33.61 21.91-47.38 21.91zm-31.37-66.67c12.78 10 23.03 12.05 23.14 12.07 0.52 0.1 0.97 0.43 1.22 0.9s0.28 1.02 0.07 1.51c-5.92 13.9-9.43 34.57-4.75 43.73 1.21 2.37 2.85 3.76 5.01 4.25 13.96 3.17 32.36-4.07 51.82-20.38 11.77-9.86 18.16-26.48 15.89-41.35-1.78-11.7-8.63-20.59-19.29-25.03-17.99-7.5-29.06-1.91-38.83 3.01-3.99 2.01-7.81 3.94-11.83 4.87 2.65 1.97 3.89 1.96 4.1 1.94 0.7-0.31 1.52-0.13 2.03 0.45 0.56 0.65 0.57 1.62 0.01 2.28-8.3 9.83-21.36 11.59-28.59 11.75zm26.33-14.37v0 0zm0.01 0z"/>
<path class="st1" d="m1144.2 537.64c-0.51 0-1.01-0.22-1.36-0.64-4.9-6-1.18-18.44 3.12-32.85 4.19-14.02 8.94-29.92 3.17-36.1-0.33-0.35-0.5-0.82-0.47-1.3s0.25-0.92 0.62-1.23c4.67-3.92 4.7-7.96 4.5-9.52-0.22-1.65-0.96-3.01-2.02-3.79-4.35 1.75-24.66 9.32-43.67 6.6-0.96-0.14-1.62-1.02-1.49-1.98 0.14-0.96 1.02-1.62 1.98-1.49 20 2.86 42.4-6.6 42.62-6.69 0.46-0.2 0.98-0.19 1.43 0.02 2.48 1.16 4.2 3.72 4.62 6.86 0.53 4.02-1.08 8.14-4.46 11.51 5.48 8.1 0.93 23.34-3.48 38.11-3.68 12.32-7.49 25.07-3.76 29.63 0.61 0.75 0.5 1.85-0.25 2.46-0.32 0.27-0.71 0.4-1.1 0.4z"/>
<path class="st1" d="m1106.9 534.68c-0.39 0-0.78-0.13-1.1-0.39-0.75-0.61-0.87-1.71-0.26-2.46 0.09-0.11 8.75-10.9 13.33-24.34 0.31-0.91 1.3-1.41 2.22-1.09 0.92 0.31 1.4 1.31 1.09 2.22-4.79 14.05-13.56 24.96-13.93 25.42-0.33 0.42-0.84 0.64-1.35 0.64z"/>
<path class="st1" d="m1123.2 589.2c-0.11 0-0.21-0.01-0.32-0.03-0.62-0.11-1.12-0.55-1.33-1.14-0.07-0.2-6.92-19.54-12.42-25.78-2.46 0.17-11.68 1.54-22.92 12.65-0.52 0.52-1.31 0.65-1.97 0.34s-1.06-1-1-1.73c0.1-1.13 2.46-27.84 7.58-38.38 0.1-0.22 0.25-0.41 0.44-0.56 4.34-3.72 13.2-7 13.57-7.14 0.48-0.17 1.02-0.13 1.47 0.12s0.76 0.7 0.85 1.2c1.19 6.42 5.12 22.1 6.56 27.75 16.63-8.32 32.11-23.41 32.27-23.57 0.54-0.53 1.37-0.65 2.04-0.3 0.14 0.07 3.45 1.83 10.87 7.18 0.65 0.47 0.9 1.32 0.6 2.07-2.81 7.04-14.25 22.31-34.96 46.71-0.33 0.39-0.82 0.61-1.33 0.61zm-10.78-28.45c4.5 5.76 9.31 17.77 11.39 23.27 17.83-21.11 28.54-35.28 31.88-42.2-4.17-2.97-6.86-4.66-8.22-5.47-3.86 3.64-18.52 16.95-34.19 24.24-0.28 0.13-0.58 0.18-0.86 0.16zm-18.62-23.76c-3.53 7.61-5.72 24.19-6.61 32.25 12.66-10.9 22.33-10.52 22.77-10.5 0.27 0.01 0.52 0.09 0.75 0.22-0.78-3.07-4.87-19.12-6.6-27.49-2.68 1.1-7.52 3.26-10.31 5.52z"/>
<path class="st1" d="m1095.9 622.09c-0.7 0-1.33-0.41-1.61-1.05-11.67-26.92-4.95-52.3-4.66-53.37 0.25-0.93 1.21-1.48 2.15-1.23 0.93 0.25 1.48 1.22 1.23 2.15-0.06 0.24-6.01 22.79 2.9 47.09 4.81-10.74 14.69-26.52 23.49-33.45 0.76-0.6 1.86-0.47 2.46 0.29s0.47 1.86-0.29 2.46c-9.37 7.38-20.49 26.23-24.03 35.96-0.25 0.67-0.88 1.13-1.59 1.15h-0.05z"/>
<path class="st1" d="m1097.9 602.75c-0.09 0-0.18-0.01-0.27-0.02-0.64-0.1-1.18-0.55-1.39-1.16-3.46-10.16-2.48-30.39 0.8-38.66 0.36-0.9 1.37-1.34 2.27-0.98s1.34 1.37 0.98 2.27c-2.68 6.76-3.71 22.82-1.64 32.86 6.57-8.75 11.62-14.9 19.33-21.26 0.74-0.62 1.85-0.51 2.46 0.24 0.62 0.75 0.51 1.85-0.24 2.46-7.59 6.27-12.39 12.07-20.91 23.54-0.32 0.45-0.85 0.71-1.39 0.71z"/>
<path class="st1" d="m1054.5 706.48c-0.88 0-1.64-0.66-1.74-1.56-8.31-74.95 0.32-139.18 21.99-163.65 0.22-0.25 0.52-0.44 0.84-0.53 0.41-0.11 9.99-2.74 15.24-3.21 0.94-0.09 1.81 0.63 1.9 1.59 0.08 0.96-0.63 1.81-1.59 1.9-4.28 0.38-12.07 2.41-14.11 2.96-20.79 24.05-28.95 86.94-20.78 160.55 0.11 0.96-0.59 1.83-1.55 1.93-0.07 0.02-0.13 0.02-0.2 0.02z"/>
<path class="st1" d="m1165.8 551.27c-0.21 0-0.42-0.04-0.63-0.12l-10.22-3.97c-0.9-0.35-1.35-1.36-1-2.26s1.37-1.34 2.26-1l10.22 3.97c0.9 0.35 1.35 1.36 1 2.26-0.27 0.7-0.93 1.12-1.63 1.12z"/>
<path class="st1" d="m1171.9 659.19c-0.1 0-0.19-0.01-0.29-0.02-0.63-0.11-1.16-0.55-1.36-1.16-0.14-0.41-13.97-41.16-16.47-70.41-2.65-31.04 7.1-38.11 11.41-39.71 0.07-0.02 0.13-0.04 0.2-0.06 3.51-0.85 7.14 0.11 10.8 2.83 15.57 11.6 28.65 52.96 31.08 98.33 0.03 0.62-0.27 1.22-0.79 1.56s-1.19 0.38-1.74 0.1c-7.15-3.58-23.88-1.81-31.46 7.87-0.33 0.43-0.84 0.67-1.38 0.67zm-5.59-107.99c-5.69 2.21-11.02 12.83-9.04 36.1 2.08 24.38 12.2 57.01 15.35 66.73 8.37-8.12 22.57-10.03 31-7.56-3.05-48.43-17.36-83.96-29.52-93.02-2.75-2.04-5.37-2.8-7.79-2.25z"/>
<path class="st1" d="m1182.3 692.88c-0.76 0-1.47-0.5-1.68-1.28-0.04-0.16-4.5-16-10.32-33.62-0.3-0.92 0.2-1.91 1.11-2.21 0.92-0.3 1.91 0.2 2.21 1.11 5.84 17.69 10.32 33.61 10.36 33.76 0.26 0.93-0.28 1.9-1.21 2.16-0.15 0.06-0.31 0.08-0.47 0.08z"/>
<path class="st1" d="m1144.3 702.75c-9.91 0-21.23-5.22-30.5-9.5-5.89-2.72-11.45-5.29-14.42-5.35-12.14-0.29-28.45 5.5-31.21 8.48 2.18 0.05 7.27-1.12 11.15-1.99 8.19-1.84 17.48-3.92 23.05-2.5 0.94 0.24 1.5 1.19 1.26 2.13s-1.19 1.5-2.13 1.26c-4.75-1.22-13.99 0.86-21.41 2.52-8.68 1.95-12.94 2.82-14.86 1.21-0.64-0.53-0.98-1.3-0.94-2.15 0.26-6.68 23.45-12.47 34.55-12.47 0.21 0 0.42 0 0.62 0.01 3.7 0.08 9.04 2.55 15.81 5.67 9.85 4.55 22.11 10.21 31.71 9.02 5.36-0.66 10.94-2.61 16.35-4.5 11.05-3.86 22.48-7.86 32.81-1.21 0.81 0.52 1.05 1.61 0.53 2.42s-1.61 1.05-2.42 0.53c-8.9-5.72-19.04-2.18-29.76 1.57-5.58 1.95-11.35 3.96-17.08 4.67-1.02 0.12-2.06 0.18-3.11 0.18z"/>
<path class="st1" d="m1200.4 722.81c-13.25 0-30.29-2.84-46.76-5.6-13.57-2.27-26.39-4.41-34.54-4.41-0.97 0-1.75-0.78-1.75-1.75s0.78-1.75 1.75-1.75c8.44 0 21.4 2.17 35.12 4.46 15.57 2.6 33.22 5.55 46.18 5.55 2.71 0 4.83-1.04 6.47-3.18 10.82-14.09-2.9-66.08-3.04-66.61-0.25-0.93 0.3-1.89 1.24-2.14 0.93-0.26 1.89 0.3 2.14 1.24 0.59 2.21 14.3 54.19 2.43 69.64-2.31 3.02-5.42 4.55-9.24 4.55z"/>
<path class="st1" d="m1011.6 636.8c-3.59 0-6.52-1.34-8.38-3.89-5.15-7.03-2.07-21.89 9.15-44.17 11.46-22.75 31.66-50.13 46.41-70.12 7.7-10.43 14.97-20.29 15.49-22.37-0.49-5.24 1.32-10.98 4.83-15.38 1.66-2.07 3.64-2.81 5.56-3.52 2.8-1.04 5.98-2.21 9.66-8.3 0.28-0.47 0.77-0.78 1.31-0.83 0.55-0.06 1.08 0.14 1.46 0.54 1.79 1.9 2.53 4.27 2.21 7.04-0.92 8.05-10.73 16.93-13.42 18.73-0.8 0.54-1.89 0.32-2.43-0.49-0.54-0.8-0.32-1.89 0.49-2.43 2.99-1.99 11.17-10 11.89-16.21 0.09-0.77 0.05-1.48-0.11-2.12-3.69 5.08-7.07 6.33-9.84 7.36-1.74 0.64-2.99 1.11-4.04 2.42-2.99 3.74-4.51 8.59-4.07 12.98 0.22 2.19-2.87 6.63-16.17 24.66-14.68 19.89-34.78 47.13-46.1 69.61-13.88 27.55-11.88 37.22-9.45 40.53 1.91 2.6 5.19 2.68 7.61 2.29 9.58-1.55 33.72-18.61 37.87-21.59 1.84-15.5-7.72-19.03-8.14-19.17-0.91-0.32-1.4-1.31-1.08-2.22 0.31-0.91 1.29-1.4 2.21-1.09 0.13 0.04 13.03 4.59 10.39 23.71-0.07 0.47-0.32 0.89-0.7 1.17-1.17 0.85-28.72 20.83-39.98 22.65-0.92 0.14-1.79 0.21-2.63 0.21z"/>
<path class="st1" d="m1084.6 481h-0.03c-0.97-0.02-1.74-0.82-1.72-1.78 0.23-12.4 0.31-19.57 0.31-19.64 0.01-0.96 0.79-1.73 1.75-1.73h0.02c0.97 0.01 1.74 0.8 1.73 1.77 0 0.07-0.08 7.26-0.31 19.67-0.02 0.94-0.8 1.71-1.75 1.71z"/>
<path class="st1" d="m1083.5 518.38c-0.71 0-1.38-0.43-1.64-1.14-0.18-0.49-0.13-1.01 0.1-1.43 0.03-0.39 0.06-1.17 0.11-2.17 0.12-2.86 0.38-8.82 1.17-20.68 0.07-0.97 0.91-1.69 1.86-1.63 0.96 0.06 1.69 0.9 1.63 1.86-0.79 11.82-1.05 17.75-1.17 20.59-0.14 3.32-0.17 4.01-1.45 4.49-0.2 0.08-0.41 0.11-0.61 0.11z"/>
<path class="st1" d="m1084.9 461.34c-0.79 0-1.51-0.54-1.7-1.34-0.23-0.94 0.35-1.88 1.29-2.11l17.77-4.27c0.95-0.23 1.89 0.35 2.11 1.29 0.23 0.94-0.35 1.88-1.29 2.11l-17.77 4.27c-0.14 0.04-0.28 0.05-0.41 0.05z"/>
<path class="st1" d="m1084.9 518.38c-0.79 0-1.51-0.54-1.7-1.34-0.23-0.94 0.35-1.88 1.29-2.11l22.07-5.31v-1.41c0-0.97 0.78-1.75 1.75-1.75s1.75 0.78 1.75 1.75v2.79c0 0.81-0.55 1.51-1.34 1.7l-23.41 5.63c-0.14 0.04-0.28 0.05-0.41 0.05z"/>
<path class="st1" d="m1037.7 602.08c-0.35 0-0.71-0.11-1.02-0.33-0.78-0.57-0.96-1.66-0.4-2.44 11.39-15.81 21.41-38.98 29.46-57.59 6.54-15.13 12.19-28.2 16.92-33.65 0.63-0.73 1.74-0.81 2.47-0.17 0.73 0.63 0.81 1.74 0.17 2.47-4.37 5.04-9.92 17.87-16.35 32.74-8.12 18.77-18.21 42.13-29.83 58.25-0.35 0.47-0.88 0.72-1.42 0.72z"/>
<path class="st1" d="m1061.9 556.52c-0.38 0-0.77-0.12-1.09-0.38-0.76-0.6-0.88-1.7-0.28-2.46 1.64-2.06 10.07-12.36 15.26-12.98 0.95-0.12 1.83 0.57 1.94 1.53s-0.57 1.83-1.53 1.94c-2.77 0.33-9.23 7.03-12.93 11.68-0.34 0.44-0.85 0.67-1.37 0.67z"/>
<path class="st1" d="m1249.5 498c-33 0-80.63-0.03-83.65-0.03-0.97 0-1.75-0.79-1.75-1.75s0.78-1.75 1.75-1.75c1.12 0 112.31 0.07 114.84 0 0.99-0.03 1.77 0.73 1.8 1.7s-0.73 1.77-1.7 1.8c-0.88 0.02-14.1 0.03-31.29 0.03z"/>
<path class="st1" d="m1122.8 798.52h-87.85c-0.97 0-1.75-0.78-1.75-1.75s0.78-1.75 1.75-1.75h87.85c0.97 0 1.75 0.78 1.75 1.75s-0.79 1.75-1.75 1.75z"/>
<g transform="translate(-20.314 -97.219)">
	<path class="st2" d="m768.09 308.77h10.79v4.05h-10.79z"/>
	<path class="st2" d="m789.46 316.31v-15.42c0-5.15 2.86-8.15 8.02-8.15 5.2 0 7.97 3 7.97 8.15v2.73h-4.71v-2.95c0-2.38-1.19-3.57-3.13-3.57s-3.13 1.19-3.13 3.57v15.86c0 2.38 1.19 3.57 3.13 3.57s3.13-1.19 3.13-3.57v-3.88h4.71v3.66c0 5.15-2.77 8.15-7.97 8.15-5.16 0-8.02-3-8.02-8.15z"/>
	<path class="st2" d="m823.9 308.95v4.93h-10.62v3.3c0 2.11 1.01 3.13 3 3.13s3-1.01 3-3.17v-0.44h4.63v0.22c0 4.71-2.78 7.53-7.71 7.53-5.02 0-7.75-2.82-7.75-7.75v-7.75c0-4.98 2.73-7.75 7.75-7.75 4.97 0 7.7 2.77 7.7 7.75zm-4.71 1.28v-1.81c0-2.11-1.06-3.13-2.95-3.13s-2.95 1.01-2.95 3.13v1.81z"/>
	<path class="st2" d="m843.24 301.64v22.38h-4.4v-14.41l-6.26 14.41h-4.98v-22.38h4.45v14.4l6.3-14.4zm-13.48-8.46h3.04c0.18 1.67 1.15 2.2 2.64 2.2 1.5 0 2.55-0.53 2.77-2.2h2.95c-0.09 3.35-2.11 5.51-5.73 5.51s-5.54-2.16-5.67-5.51z"/>
	<path class="st2" d="m862 301.64v22.38h-4.85v-10.31c-1.01 1.54-2.6 2.38-4.67 2.38-3.61 0-5.77-2.25-5.77-6.96v-7.49h4.85v6.83c0 2.33 0.75 3.39 2.51 3.39 1.94 0 3.08-1.28 3.08-4.23v-5.99z"/>
	<path class="st2" d="m876.76 324.02c-0.18-0.26-0.35-1.54-0.4-3.3-0.84 2.33-2.73 3.74-5.51 3.74-3.39 0-5.55-2.2-5.55-5.77 0-3.44 1.5-5.64 6.04-7.22 3.92-1.37 4.49-1.85 4.49-3.22v-0.22c0-1.89-0.79-2.78-2.51-2.78-1.89 0-2.73 1.1-2.73 3v0.4h-4.49v-0.26c0-4.54 2.55-7.18 7.27-7.18 5.24 0 7.27 2.73 7.27 7.8v8.5c0 3.22 0.22 5.24 0.57 6.52h-4.45zm-0.92-7.93v-3.04c-0.48 0.48-1.41 0.92-3.04 1.59-1.94 0.79-2.69 1.85-2.69 3.3 0 1.59 0.79 2.47 2.42 2.47 1.94-0.01 3.31-1.37 3.31-4.32z"/>
	<path class="st2" d="m884.34 316.75v-7.84c0-4.93 2.73-7.71 7.67-7.71 4.98 0 7.44 3 7.44 7.67v0.92h-4.67v-1.28c0-1.98-0.84-3.08-2.78-3.08s-2.82 1.1-2.82 3.08v8.63c0 1.94 0.88 3.08 2.82 3.08s2.78-1.15 2.78-3.08v-1.76h4.67v1.37c0 4.71-2.42 7.71-7.44 7.71-4.94 0-7.67-2.78-7.67-7.71z"/>
	<path class="st2" d="m925.7 324.02h-4.85v-18.37h-5.55v18.37h-4.85v-22.38h15.24v22.38z"/>
	<path class="st2" d="m944.95 308.95v4.93h-10.62v3.3c0 2.11 1.01 3.13 3 3.13s3-1.01 3-3.17v-0.44h4.63v0.22c0 4.71-2.78 7.53-7.71 7.53-5.02 0-7.75-2.82-7.75-7.75v-7.75c0-4.98 2.73-7.75 7.75-7.75 4.96 0 7.7 2.77 7.7 7.75zm-4.72 1.28v-1.81c0-2.11-1.06-3.13-2.95-3.13s-2.95 1.01-2.95 3.13v1.81z"/>
	<path class="st2" d="m964.02 308.16v9.29c0 4.76-2.03 7-5.64 7-2.16 0-3.88-0.97-4.89-2.64v9.03h-4.85v-29.21h4.18l0.09 3.44c0.88-2.47 2.82-3.88 5.46-3.88 3.62 0.01 5.65 2.25 5.65 6.97zm-4.85 0.61c0-2.2-0.66-3.35-2.56-3.35-1.89 0-3.13 1.32-3.13 4.23v6.35c0 2.91 1.23 4.23 3.13 4.23 1.89 0 2.56-1.19 2.56-3.35z"/>
	<path class="st2" d="m982.87 308.95v4.93h-10.62v3.3c0 2.11 1.01 3.13 3 3.13s3-1.01 3-3.17v-0.44h4.62v0.22c0 4.71-2.78 7.53-7.71 7.53-5.02 0-7.75-2.82-7.75-7.75v-7.75c0-4.98 2.73-7.75 7.75-7.75 4.98 0 7.71 2.77 7.71 7.75zm-4.71 1.28v-1.81c0-2.11-1.06-3.13-2.95-3.13s-2.95 1.01-2.95 3.13v1.81z"/>
	<path class="st2" d="m985.56 318.02v-1.32h4.58v0.75c0 1.81 1.01 2.69 2.95 2.69s2.95-0.93 2.95-2.82v-0.31c0-1.98-1.19-2.73-3.66-2.73h-1.72v-3.79h1.89c2.2 0 3.35-0.62 3.35-2.38v-0.09c0-1.76-0.97-2.56-2.86-2.56-1.85 0-2.78 0.93-2.78 2.47v0.18h-4.54v-0.53c0-4.1 2.69-6.39 7.49-6.39 4.76 0 7.49 2.25 7.49 6.12v0.09c0 2.42-1.1 3.96-3.35 4.71v0.04c2.33 0.75 3.48 2.38 3.48 5.2v0.35c0 4.32-2.78 6.74-7.62 6.74s-7.65-2.23-7.65-6.42z"/>
	<path class="st2" d="m1004.4 301.64h8.37c4.63 0 7.22 1.67 7.22 5.73v0.26c0 2.38-0.92 3.96-2.86 4.71v0.09c2.29 0.71 3.44 2.42 3.44 5.07v0.22c0 4.14-2.56 6.3-7.4 6.3h-8.77zm7.8 9.07c1.94 0 2.95-0.66 2.95-2.64v-0.26c0-1.72-0.88-2.25-2.55-2.25h-3.35v5.15zm0.88 9.38c1.76 0 2.64-0.66 2.64-2.64v-0.26c0-1.67-0.84-2.56-3.26-2.56h-3.22v5.46z"/>
	<path class="st2" d="m1023.4 316.7v-7.75c0-4.98 2.78-7.75 7.67-7.75 4.93 0 7.71 2.77 7.71 7.75v7.75c0 4.93-2.78 7.75-7.71 7.75-4.89 0.01-7.67-2.81-7.67-7.75zm10.53 0.4v-8.55c0-1.89-0.88-3.13-2.86-3.13s-2.82 1.23-2.82 3.13v8.55c0 1.89 0.88 3.13 2.82 3.13 1.98 0 2.86-1.24 2.86-3.13z"/>
	<path class="st2" d="m1058.1 301.64v22.38h-4.85v-9.74h-5.82v9.74h-4.85v-22.38h4.85v8.63h5.82v-8.63z"/>
	<path class="st2" d="m1087 308.95v7.75c0 4.93-2.73 7.75-7.67 7.75-4.89 0-7.67-2.82-7.67-7.75v-2.38h-4.45v9.69h-4.85v-22.42h4.85v8.72h4.45v-1.37c0-4.98 2.78-7.75 7.67-7.75 4.94 0.01 7.67 2.78 7.67 7.76zm-4.8-0.4c0-1.89-0.88-3.13-2.86-3.13s-2.82 1.23-2.82 3.13v8.55c0 1.89 0.88 3.13 2.82 3.13 1.98 0 2.86-1.23 2.86-3.13z"/>
	<path class="st2" d="m1113.6 324.02h-4.85v-18.37h-5.55v18.37h-4.85v-22.38h15.24v22.38z"/>
	<path class="st2" d="m1117.4 316.7v-7.75c0-4.98 2.78-7.75 7.67-7.75 4.93 0 7.71 2.77 7.71 7.75v7.75c0 4.93-2.78 7.75-7.71 7.75-4.9 0.01-7.67-2.81-7.67-7.75zm10.52 0.4v-8.55c0-1.89-0.88-3.13-2.86-3.13s-2.82 1.23-2.82 3.13v8.55c0 1.89 0.88 3.13 2.82 3.13 1.98 0 2.86-1.24 2.86-3.13z"/>
	<path class="st2" d="m768.93 345.69h8.37c4.63 0 7.22 1.67 7.22 5.73v0.26c0 2.38-0.92 3.96-2.86 4.71v0.09c2.29 0.71 3.44 2.42 3.44 5.07v0.22c0 4.14-2.56 6.3-7.4 6.3h-8.77zm7.8 9.07c1.94 0 2.95-0.66 2.95-2.64v-0.26c0-1.72-0.88-2.25-2.56-2.25h-3.35v5.15zm0.88 9.38c1.76 0 2.64-0.66 2.64-2.64v-0.26c0-1.67-0.84-2.56-3.26-2.56h-3.22v5.46z"/>
	<path class="st2" d="m804.13 345.69v22.38h-4.41v-14.41l-6.26 14.41h-4.98v-22.38h4.45v14.4l6.3-14.4z"/>
	<path class="st2" d="m827.96 363.97v8.24h-4.8v-4.14h-11.19v4.14h-4.85v-8.24h2.82c0.66-0.62 0.93-1.5 1.01-3.08l0.79-15.2h13.79v18.28zm-7.27 0v-14.27h-4.36l-0.57 10.84c-0.09 1.63-0.4 2.69-1.32 3.44h6.25z"/>
	<path class="st2" d="m845.88 353v4.93h-10.62v3.3c0 2.11 1.01 3.13 3 3.13s3-1.01 3-3.17v-0.44h4.63v0.22c0 4.71-2.78 7.53-7.71 7.53-5.02 0-7.75-2.82-7.75-7.75v-7.75c0-4.98 2.73-7.75 7.75-7.75 4.97-0.01 7.7 2.77 7.7 7.75zm-4.71 1.28v-1.81c0-2.11-1.06-3.13-2.95-3.13s-2.95 1.01-2.95 3.13v1.81z"/>
	<path class="st2" d="m849.05 360.75v-7.75c0-4.98 2.77-7.75 7.66-7.75 4.93 0 7.71 2.77 7.71 7.75v7.75c0 4.93-2.77 7.75-7.71 7.75-4.88 0-7.66-2.82-7.66-7.75zm10.53 0.4v-8.55c0-1.89-0.88-3.13-2.86-3.13s-2.82 1.23-2.82 3.13v8.55c0 1.89 0.88 3.13 2.82 3.13 1.98-0.01 2.86-1.24 2.86-3.13z"/>
	<path class="st2" d="m867.68 360.79v-7.84c0-4.93 2.73-7.71 7.67-7.71 4.98 0 7.45 3 7.45 7.67v0.92h-4.67v-1.28c0-1.98-0.84-3.08-2.78-3.08s-2.82 1.1-2.82 3.08v8.63c0 1.94 0.88 3.08 2.82 3.08s2.78-1.15 2.78-3.08v-1.76h4.67v1.37c0 4.71-2.42 7.71-7.45 7.71-4.93 0-7.67-2.77-7.67-7.71z"/>
	<path class="st2" d="m886.27 345.69h8.37c4.63 0 7.22 1.67 7.22 5.73v0.26c0 2.38-0.92 3.96-2.86 4.71v0.09c2.29 0.71 3.44 2.42 3.44 5.07v0.22c0 4.14-2.56 6.3-7.4 6.3h-8.77zm7.8 9.07c1.94 0 2.95-0.66 2.95-2.64v-0.26c0-1.72-0.88-2.25-2.55-2.25h-3.35v5.15zm0.88 9.38c1.76 0 2.64-0.66 2.64-2.64v-0.26c0-1.67-0.84-2.56-3.26-2.56h-3.22v5.46z"/>
	<path class="st2" d="m905.52 365.11v-2.2c0-3.48 0.92-5.15 3.35-5.68v-0.04c-2.25-0.75-3.3-2.42-3.3-5.29v-0.09c0-4.27 2.29-6.12 7.58-6.12h8.33v22.38h-4.85v-8.55h-2.77c-2.64 0-3.52 0.84-3.52 3.08v2.42c0 1.76-0.18 2.25-0.48 3.04h-4.89c0.55-1.19 0.55-1.89 0.55-2.95zm11.1-9.69v-5.64h-3.17c-2.12 0-3.08 0.84-3.08 2.73v0.13c0 1.89 1.15 2.78 3.57 2.78z"/>
	<path class="st2" d="m924.81 362.07v-1.32h4.58v0.75c0 1.81 1.01 2.69 2.95 2.69s2.95-0.93 2.95-2.82v-0.31c0-1.98-1.19-2.73-3.66-2.73h-1.72v-3.79h1.89c2.2 0 3.35-0.62 3.35-2.38v-0.09c0-1.76-0.97-2.56-2.86-2.56-1.85 0-2.78 0.92-2.78 2.47v0.18h-4.54v-0.53c0-4.1 2.69-6.39 7.49-6.39 4.76 0 7.49 2.25 7.49 6.12v0.09c0 2.42-1.1 3.96-3.35 4.71v0.04c2.33 0.75 3.48 2.38 3.48 5.2v0.35c0 4.32-2.78 6.74-7.62 6.74s-7.65-2.23-7.65-6.42z"/>
	<path class="st2" d="m959.26 345.69v22.38h-4.41v-14.41l-6.25 14.41h-4.98v-22.38h4.45v14.4l6.3-14.4z"/>
	<path class="st2" d="m965.56 368.06h-1.76v-5.29h5.02v4.76l-2.95 5.64h-2.29z"/>
	<path class="st2" d="m1003.3 345.69v22.38h-4.67v-17.14l-4.93 17.14h-3.57l-4.89-17.14v17.14h-4.32v-22.38h6.74l4.41 15.37 4.41-15.37z"/>
	<path class="st2" d="m1023.1 345.69v22.38h-4.85v-9.74h-5.81v9.74h-4.85v-22.38h4.85v8.63h5.81v-8.63z"/>
	<path class="st2" d="m1042.3 353v4.93h-10.62v3.3c0 2.11 1.01 3.13 3 3.13s3-1.01 3-3.17v-0.44h4.62v0.22c0 4.71-2.78 7.53-7.71 7.53-5.02 0-7.75-2.82-7.75-7.75v-7.75c0-4.98 2.73-7.75 7.75-7.75 4.98-0.01 7.71 2.77 7.71 7.75zm-4.71 1.28v-1.81c0-2.11-1.06-3.13-2.95-3.13s-2.95 1.01-2.95 3.13v1.81z"/>
	<path class="st2" d="m1069.2 345.69v22.38h-4.41v-14.41l-6.25 14.41h-4.98v-22.38h4.45v14.4l6.3-14.4z"/>
	<path class="st2" d="m1089 345.69v22.38h-4.85v-9.74h-5.82v9.74h-4.85v-22.38h4.85v8.63h5.82v-8.63z"/>
	<path class="st2" d="m1097.7 349.69h-5.68v-4.01h16.21v4.01h-5.73v18.37h-4.8z"/>
	<path class="st2" d="m1126.2 353v4.93h-10.62v3.3c0 2.11 1.01 3.13 3 3.13s3-1.01 3-3.17v-0.44h4.62v0.22c0 4.71-2.78 7.53-7.71 7.53-5.02 0-7.75-2.82-7.75-7.75v-7.75c0-4.98 2.73-7.75 7.75-7.75 4.97-0.01 7.71 2.77 7.71 7.75zm-4.72 1.28v-1.81c0-2.11-1.06-3.13-2.95-3.13s-2.95 1.01-2.95 3.13v1.81z"/>
	<path class="st2" d="m1145.2 352.2v9.29c0 4.76-2.03 7-5.64 7-2.16 0-3.88-0.97-4.89-2.64v9.03h-4.85v-29.21h4.18l0.09 3.44c0.88-2.47 2.82-3.88 5.46-3.88 3.62 0.01 5.65 2.26 5.65 6.97zm-4.85 0.62c0-2.2-0.66-3.35-2.55-3.35s-3.13 1.32-3.13 4.23v6.34c0 2.91 1.23 4.23 3.13 4.23s2.55-1.19 2.55-3.35z"/>
	<path class="st2" d="m1164.6 345.69v22.38h-4.85v-9.74h-5.81v9.74h-4.85v-22.38h4.85v8.63h5.81v-8.63z"/>
	<path class="st2" d="m1183.9 353v4.93h-10.62v3.3c0 2.11 1.01 3.13 3 3.13s3-1.01 3-3.17v-0.44h4.62v0.22c0 4.71-2.78 7.53-7.71 7.53-5.02 0-7.75-2.82-7.75-7.75v-7.75c0-4.98 2.73-7.75 7.75-7.75 4.98-0.01 7.71 2.77 7.71 7.75zm-4.71 1.28v-1.81c0-2.11-1.06-3.13-2.95-3.13s-2.95 1.01-2.95 3.13v1.81z"/>
	<path class="st2" d="m1192 349.69h-5.68v-4.01h16.21v4.01h-5.73v18.37h-4.8z"/>
	<path class="st2" d="m784.17 412.11h-4.85v-18.37h-5.55v18.37h-4.85v-22.38h15.24v22.38z"/>
	<path class="st2" d="m787.96 404.8v-7.75c0-4.98 2.78-7.75 7.67-7.75 4.93 0 7.71 2.77 7.71 7.75v7.75c0 4.93-2.77 7.75-7.71 7.75-4.9 0-7.67-2.82-7.67-7.75zm10.53 0.4v-8.55c0-1.89-0.88-3.13-2.86-3.13s-2.82 1.23-2.82 3.13v8.55c0 1.89 0.88 3.13 2.82 3.13 1.98-0.01 2.86-1.24 2.86-3.13z"/>
	<path class="st2" d="m826.59 408.02v8.24h-4.8v-4.14h-11.19v4.14h-4.85v-8.24h2.82c0.66-0.62 0.93-1.5 1.01-3.08l0.79-15.2h13.79v18.28zm-7.27 0v-14.27h-4.36l-0.57 10.84c-0.09 1.63-0.4 2.69-1.32 3.44h6.25z"/>
	<path class="st2" d="m836.85 402.38-2.42 3.35v6.39h-4.85v-22.38h4.85v9.6l6.3-9.6h5.37l-5.95 8.33 6.26 14.05h-5.33z"/>
	<path class="st2" d="m847.86 411.98v-4.14c0.48 0.13 0.84 0.18 1.45 0.18 1.5 0 2.2-0.75 2.33-2.82l0.84-15.46h13.79v22.38h-4.85v-18.24h-4.36l-0.66 11.94c-0.22 4.05-1.98 6.48-6.43 6.48-0.74-0.01-1.8-0.14-2.11-0.32z"/>
	<path class="st2" d="m895.22 397.05v7.75c0 4.93-2.73 7.75-7.67 7.75-4.89 0-7.67-2.82-7.67-7.75v-2.38h-4.45v9.69h-4.85v-22.42h4.85v8.72h4.45v-1.37c0-4.98 2.78-7.75 7.67-7.75 4.94 0 7.67 2.78 7.67 7.76zm-4.8-0.4c0-1.89-0.88-3.13-2.86-3.13s-2.82 1.23-2.82 3.13v8.55c0 1.89 0.88 3.13 2.82 3.13 1.98 0 2.86-1.23 2.86-3.13z"/>
	<path class="st2" d="m913.45 389.73v22.38h-4.85v-10.31c-1.01 1.54-2.6 2.38-4.67 2.38-3.61 0-5.77-2.25-5.77-6.96v-7.49h4.85v6.83c0 2.33 0.75 3.39 2.51 3.39 1.94 0 3.08-1.28 3.08-4.23v-5.99z"/>
	<path class="st2" d="m933.41 389.73v22.38h-4.41v-14.41l-6.25 14.41h-4.98v-22.38h4.45v14.4l6.3-14.4z"/>
	<path class="st2" d="m936.4 411.98v-4.14c0.49 0.13 0.84 0.18 1.45 0.18 1.5 0 2.2-0.75 2.33-2.82l0.84-15.46h13.79v22.38h-4.85v-18.24h-4.36l-0.66 11.94c-0.22 4.05-1.98 6.48-6.43 6.48-0.74-0.01-1.8-0.14-2.11-0.32z"/>
	<path class="st2" d="m974.77 389.73v22.38h-4.41v-14.41l-6.25 14.41h-4.98v-22.38h4.45v14.4l6.3-14.4z"/>
	<path class="st2" d="m979.61 393.96v-12.69h4.98v12.69l-0.62 9.91h-3.74zm0 13.22h4.98v4.93h-4.98z"/>
</g>
</svg>
