<?xml version="1.0" encoding="UTF-8"?>
<svg width="1870" height="1070" version="1.1" viewBox="0 0 1870 1070" xml:space="preserve" xmlns="http://www.w3.org/2000/svg" xmlns:cc="http://creativecommons.org/ns#" xmlns:dc="http://purl.org/dc/elements/1.1/" xmlns:rdf="http://www.w3.org/1999/02/22-rdf-syntax-ns#"><metadata><rdf:RDF><cc:Work rdf:about=""><dc:format>image/svg+xml</dc:format><dc:type rdf:resource="http://purl.org/dc/dcmitype/StillImage"/><dc:title/></cc:Work></rdf:RDF></metadata>
<style type="text/css">
	.st0{fill:#39D82F;}
	.st1{fill:#1A1A1A;}
	.st2{fill:#279813;}
	.st3{fill:url(#SVGID_1_);}
	.st4{fill:url(#SVGID_2_);}
	.st5{fill:url(#SVGID_3_);}
	.st6{fill:url(#SVGID_4_);}
	.st7{fill:#23222D;}
	.st8{fill:#FFFFFF;}
</style>
<g transform="translate(-326.64 -314.83)">
	
		<path class="st0" d="m1860.3 1346.3h-1252c-0.97 0-1.75-0.78-1.75-1.75s0.78-1.75 1.75-1.75h1252c0.97 0 1.75 0.78 1.75 1.75s-0.78 1.75-1.75 1.75z"/>
	
	
		<path class="st0" d="m827.34 1272.6h-3.01c-0.97 0-1.75-0.78-1.75-1.75s0.78-1.75 1.75-1.75h3.01c0.97 0 1.75 0.78 1.75 1.75s-0.78 1.75-1.75 1.75zm-15.01 0h-12c-0.97 0-1.75-0.78-1.75-1.75s0.78-1.75 1.75-1.75h12c0.97 0 1.75 0.78 1.75 1.75s-0.78 1.75-1.75 1.75zm-24 0h-12c-0.97 0-1.75-0.78-1.75-1.75s0.78-1.75 1.75-1.75h12c0.97 0 1.75 0.78 1.75 1.75s-0.78 1.75-1.75 1.75zm-24 0h-12c-0.97 0-1.75-0.78-1.75-1.75s0.78-1.75 1.75-1.75h12c0.97 0 1.75 0.78 1.75 1.75s-0.78 1.75-1.75 1.75zm-24 0h-12c-0.97 0-1.75-0.78-1.75-1.75s0.78-1.75 1.75-1.75h12c0.97 0 1.75 0.78 1.75 1.75s-0.78 1.75-1.75 1.75zm-24 0h-12c-0.97 0-1.75-0.78-1.75-1.75s0.78-1.75 1.75-1.75h12c0.97 0 1.75 0.78 1.75 1.75s-0.78 1.75-1.75 1.75zm-24 0h-12c-0.97 0-1.75-0.78-1.75-1.75s0.78-1.75 1.75-1.75h12c0.97 0 1.75 0.78 1.75 1.75s-0.78 1.75-1.75 1.75zm-24 0h-12c-0.97 0-1.75-0.78-1.75-1.75s0.78-1.75 1.75-1.75h12c0.97 0 1.75 0.78 1.75 1.75s-0.78 1.75-1.75 1.75zm-24 0h-12c-0.97 0-1.75-0.78-1.75-1.75s0.78-1.75 1.75-1.75h12c0.97 0 1.75 0.78 1.75 1.75s-0.78 1.75-1.75 1.75zm-24 0h-12c-0.97 0-1.75-0.78-1.75-1.75s0.78-1.75 1.75-1.75h12c0.97 0 1.75 0.78 1.75 1.75s-0.78 1.75-1.75 1.75z"/>
	
	
		<path class="st0" d="m817.66 1235.7h-209.33c-0.97 0-1.75-0.78-1.75-1.75s0.78-1.75 1.75-1.75h209.32c0.97 0 1.75 0.78 1.75 1.75s-0.78 1.75-1.74 1.75z"/>
	
	
		<path class="st0" d="m916.15 1272.4h-32.79c-0.97 0-1.75-0.78-1.75-1.75s0.78-1.75 1.75-1.75h32.79c0.97 0 1.75 0.78 1.75 1.75s-0.78 1.75-1.75 1.75z"/>
	
	
		<path class="st0" d="m910.55 1309.5h-55.36c-0.97 0-1.75-0.78-1.75-1.75s0.78-1.75 1.75-1.75h55.36c0.97 0 1.75 0.78 1.75 1.75s-0.79 1.75-1.75 1.75z"/>
	
	
		<path class="st0" d="m1858.4 1309.5h-12c-0.97 0-1.75-0.78-1.75-1.75s0.78-1.75 1.75-1.75h12c0.97 0 1.75 0.78 1.75 1.75s-0.78 1.75-1.75 1.75zm-24 0h-12c-0.97 0-1.75-0.78-1.75-1.75s0.78-1.75 1.75-1.75h12c0.97 0 1.75 0.78 1.75 1.75s-0.78 1.75-1.75 1.75zm-24 0h-12c-0.97 0-1.75-0.78-1.75-1.75s0.78-1.75 1.75-1.75h12c0.97 0 1.75 0.78 1.75 1.75s-0.78 1.75-1.75 1.75zm-24 0h-12c-0.97 0-1.75-0.78-1.75-1.75s0.78-1.75 1.75-1.75h12c0.97 0 1.75 0.78 1.75 1.75s-0.78 1.75-1.75 1.75z"/>
	
	
		<path class="st0" d="m840 1309.5h-231.67c-0.97 0-1.75-0.78-1.75-1.75s0.78-1.75 1.75-1.75h231.67c0.97 0 1.75 0.78 1.75 1.75s-0.78 1.75-1.75 1.75z"/>
	
	
		<path class="st0" d="m1070 1235.7h-10.81c-0.97 0-1.75-0.78-1.75-1.75s0.78-1.75 1.75-1.75h10.81c0.97 0 1.75 0.78 1.75 1.75s-0.78 1.75-1.75 1.75zm-22.81 0h-12c-0.97 0-1.75-0.78-1.75-1.75s0.78-1.75 1.75-1.75h12c0.97 0 1.75 0.78 1.75 1.75s-0.79 1.75-1.75 1.75zm-24 0h-12c-0.97 0-1.75-0.78-1.75-1.75s0.78-1.75 1.75-1.75h12c0.97 0 1.75 0.78 1.75 1.75s-0.79 1.75-1.75 1.75zm-24 0h-12c-0.97 0-1.75-0.78-1.75-1.75s0.78-1.75 1.75-1.75h12c0.97 0 1.75 0.78 1.75 1.75s-0.79 1.75-1.75 1.75zm-24 0h-12c-0.97 0-1.75-0.78-1.75-1.75s0.78-1.75 1.75-1.75h12c0.97 0 1.75 0.78 1.75 1.75s-0.79 1.75-1.75 1.75zm-24 0h-12c-0.97 0-1.75-0.78-1.75-1.75s0.78-1.75 1.75-1.75h12c0.97 0 1.75 0.78 1.75 1.75s-0.79 1.75-1.75 1.75z"/>
	
	
		<path class="st0" d="m1094.9 1309.5h-12c-0.97 0-1.75-0.78-1.75-1.75s0.78-1.75 1.75-1.75h12c0.97 0 1.75 0.78 1.75 1.75s-0.78 1.75-1.75 1.75zm-24 0h-12c-0.97 0-1.75-0.78-1.75-1.75s0.78-1.75 1.75-1.75h12c0.97 0 1.75 0.78 1.75 1.75s-0.78 1.75-1.75 1.75zm-24 0h-12c-0.97 0-1.75-0.78-1.75-1.75s0.78-1.75 1.75-1.75h12c0.97 0 1.75 0.78 1.75 1.75s-0.78 1.75-1.75 1.75zm-24 0h-12c-0.97 0-1.75-0.78-1.75-1.75s0.78-1.75 1.75-1.75h12c0.97 0 1.75 0.78 1.75 1.75s-0.78 1.75-1.75 1.75zm-24 0h-12c-0.97 0-1.75-0.78-1.75-1.75s0.78-1.75 1.75-1.75h12c0.97 0 1.75 0.78 1.75 1.75s-0.78 1.75-1.75 1.75zm-24 0h-12c-0.97 0-1.75-0.78-1.75-1.75s0.78-1.75 1.75-1.75h12c0.97 0 1.75 0.78 1.75 1.75s-0.78 1.75-1.75 1.75z"/>
	
	
		<path class="st0" d="m1097.8 1272.6h-160.62c-0.97 0-1.75-0.78-1.75-1.75s0.78-1.75 1.75-1.75h160.62c0.97 0 1.75 0.78 1.75 1.75s-0.79 1.75-1.75 1.75z"/>
	
	
		<path class="st0" d="m1097.8 1198.9h-143.82c-0.97 0-1.75-0.78-1.75-1.75s0.78-1.75 1.75-1.75h143.82c0.97 0 1.75 0.78 1.75 1.75s-0.79 1.75-1.75 1.75z"/>
	
	
		
			<path class="st1" d="m2135.4 1383.2h-83.9c-0.97 0-1.75-0.78-1.75-1.75s0.78-1.75 1.75-1.75h83.9c1.36 0 2.59-0.7 3.28-1.88s0.7-2.59 0.03-3.78l-106.5-189.21c-1.29-2.28-1.26-5 0.06-7.26s3.68-3.61 6.3-3.61h23.18c1.36 0 2.59-0.7 3.27-1.88 0.69-1.18 0.7-2.59 0.03-3.77l-0.72-1.28-53.18-94.48c-1.29-2.28-1.26-5 0.06-7.26s3.68-3.61 6.3-3.61h9.25c1.36 0 2.59-0.7 3.27-1.88 0.69-1.18 0.7-2.59 0.03-3.78l-35.83-63.66c-0.68-1.21-1.92-1.93-3.3-1.93-1.39 0-2.62 0.72-3.31 1.93l-35.83 63.66c-0.67 1.19-0.66 2.6 0.03 3.77 0.69 1.18 1.91 1.88 3.28 1.88h9.24c2.62 0 4.97 1.35 6.3 3.61 1.32 2.26 1.34 4.98 0.06 7.26l-18.32 32.54c-0.47 0.84-1.54 1.14-2.38 0.67s-1.14-1.54-0.67-2.38l18.32-32.54c0.67-1.19 0.66-2.6-0.03-3.78s-1.91-1.88-3.28-1.88h-9.24c-2.62 0-4.97-1.35-6.3-3.61s-1.34-4.97-0.06-7.26l35.83-63.66c1.31-2.33 3.69-3.72 6.36-3.72s5.05 1.39 6.36 3.72l35.83 63.66c1.29 2.28 1.26 5-0.06 7.26s-3.68 3.61-6.3 3.61h-9.25c-1.36 0-2.59 0.7-3.28 1.88s-0.7 2.59-0.03 3.78l53.9 95.75c1.28 2.28 1.26 5-0.06 7.26s-3.68 3.61-6.3 3.61h-23.18c-1.36 0-2.59 0.7-3.28 1.88s-0.7 2.59-0.03 3.78l106.5 189.21c1.29 2.28 1.26 5-0.06 7.26s-3.67 3.62-6.29 3.62z"/>
		
		
			<path class="st1" d="m1905.9 1295.9c-0.97 0-1.75-0.78-1.75-1.75s0.78-1.75 1.75-1.75c34.57 0 59.36-4.55 83.77-27.83 0.03-0.03 0.06-0.06 0.09-0.08 2.49-2.38 4.93-4.92 7.33-7.6 13.94-16.81 17.26-37.61 8.4-52.94-6.35-11-18.4-18.21-33.08-19.78-0.61-0.07-1.14-0.44-1.4-0.99s-0.21-1.2 0.12-1.71c2.07-3.14 3.98-6.49 5.69-9.96 13.54-27.65 10.84-56.87-6.03-65.13-11.34-5.56-26.73-0.38-40.17 13.52-0.49 0.5-1.22 0.67-1.87 0.42s-1.1-0.85-1.13-1.55c-0.29-5.83-1.22-11.79-2.76-17.7-3.83-14.72-11-27.57-20.17-36.17-8.77-8.22-18.31-11.52-26.87-9.29-6.74 1.75-12.37 6.8-16.27 14.59-0.43 0.87-1.49 1.21-2.35 0.78s-1.21-1.48-0.78-2.35c4.37-8.72 10.77-14.4 18.52-16.41 9.77-2.55 20.47 1.05 30.14 10.12 9.65 9.04 17.16 22.48 21.16 37.84 1.26 4.86 2.13 9.76 2.59 14.59 13.89-12.97 29.54-17.4 41.5-11.54 18.6 9.11 22.02 40.43 7.63 69.81-1.35 2.75-2.83 5.44-4.42 8.01 14.55 2.27 26.46 9.87 32.97 21.14 9.59 16.61 6.15 38.98-8.78 56.98-2.53 2.83-5.07 5.47-7.6 7.88l-0.07 0.07c-25.25 24.07-50.71 28.78-86.16 28.78z"/>
		
		
			<path class="st1" d="m1905.9 1295.9c-14.91 0-30.83-0.62-46.2-5.16-0.93-0.27-1.46-1.25-1.18-2.17 0.27-0.93 1.25-1.46 2.17-1.18 14.95 4.41 30.56 5.01 45.21 5.01 0.97 0 1.75 0.78 1.75 1.75s-0.78 1.75-1.75 1.75z"/>
		
		
			<path class="st1" d="m1990.9 1267.6c-0.47 0-0.94-0.19-1.29-0.56-0.65-0.7-0.61-1.79 0.08-2.45 2.46-2.35 4.94-4.92 7.37-7.63 0.63-0.71 1.72-0.78 2.45-0.16 0.72 0.62 0.81 1.71 0.21 2.44-2.33 2.8-4.9 5.47-7.64 7.92-0.35 0.29-0.77 0.44-1.18 0.44z"/>
		
		
			<path class="st1" d="m1905.9 1383.2c-0.97 0-1.75-0.78-1.75-1.75v-87.29c0-0.97 0.78-1.75 1.75-1.75s1.75 0.78 1.75 1.75v87.29c0 0.97-0.78 1.75-1.75 1.75z"/>
		
		
			<path class="st1" d="m2051.5 1383.2h-95.86c-0.48 0-0.93-0.19-1.26-0.54s-0.5-0.81-0.49-1.28c0.4-9.68 2.81-20.42 6.99-31.05 11.04-28.06 30.36-45.83 44-40.48 4.55 1.79 7.92 5.96 9.85 12.13 21.22-19.01 46.05-24.9 58.57-13.58 8.74 7.91 10.07 22.68 3.54 39.53-0.35 0.9-1.37 1.35-2.26 1-0.9-0.35-1.35-1.36-1-2.26 5.98-15.44 5-28.77-2.62-35.67-11.57-10.46-35.63-3.79-55.96 15.51-0.46 0.43-1.12 0.59-1.72 0.4s-1.06-0.68-1.2-1.3c-1.01-4.58-3.3-10.47-8.47-12.5-11.42-4.48-29.49 13.15-39.46 38.5-3.78 9.61-6.06 19.28-6.66 28.09h94.02c0.97 0 1.75 0.78 1.75 1.75s-0.8 1.75-1.76 1.75z"/>
		
		
			<path class="st1" d="m1905.9 1295.9c-0.97 0-1.75-0.78-1.75-1.75v-180.6c0-0.97 0.78-1.75 1.75-1.75s1.75 0.78 1.75 1.75v180.6c0 0.97-0.78 1.75-1.75 1.75z"/>
		
		
			<path class="st1" d="m1905.9 1295.9c-0.45 0-0.9-0.17-1.24-0.51-0.68-0.68-0.68-1.79 0-2.47l69.23-69.23c0.68-0.68 1.79-0.68 2.47 0s0.68 1.79 0 2.47l-69.23 69.23c-0.33 0.34-0.78 0.51-1.23 0.51z"/>
		
		
			<path class="st1" d="m1905.9 1246.6c-0.45 0-0.9-0.17-1.24-0.51l-37.02-37.02c-0.68-0.68-0.68-1.79 0-2.47s1.79-0.68 2.47 0l37.02 37.02c0.68 0.68 0.68 1.79 0 2.47-0.33 0.34-0.78 0.51-1.23 0.51z"/>
		
		
			<path class="st1" d="m1990.9 1102.1c-0.97 0-1.75-0.78-1.75-1.75v-111.63c0-0.97 0.78-1.75 1.75-1.75s1.75 0.78 1.75 1.75v111.63c0 0.97-0.79 1.75-1.75 1.75z"/>
		
		
			<path class="st1" d="m2135.4 1383.2c-0.97 0-1.75-0.78-1.75-1.75s0.78-1.75 1.75-1.75c19.54 0 38.98-14.32 49.57-28.52 7.92-10.61 11.17-21.05 8.91-28.65-3.42-11.52-16.55-19.66-35.13-21.79-0.65-0.07-1.21-0.51-1.44-1.12s-0.1-1.31 0.34-1.79c22.55-24.89 29.7-53.37 16.99-67.73-9.57-10.81-28.91-11.62-50.48-2.1-0.58 0.26-1.26 0.18-1.77-0.21s-0.76-1.02-0.67-1.65c3.28-22.2-2.55-40.32-14.17-44.08-7.01-2.27-15.36 0.75-23.5 8.49-8.42 8.01-15.51 20.02-19.97 33.82-0.78 2.41-1.47 4.86-2.06 7.28-0.23 0.94-1.17 1.51-2.11 1.29-0.94-0.23-1.52-1.17-1.29-2.11 0.61-2.51 1.32-5.04 2.13-7.54 4.64-14.35 12.06-26.88 20.89-35.28 9.11-8.67 18.7-11.97 26.98-9.29 12.92 4.18 19.57 22.01 16.96 44.86 21.88-8.84 41.5-7.31 51.67 4.19 13.47 15.23 7.18 44.28-14.84 69.93 18.53 2.87 31.14 11.45 34.81 23.83 2.57 8.67-0.88 20.23-9.46 31.74-11.1 14.9-31.61 29.93-52.36 29.93z"/>
		
		
			<path class="st1" d="m2103.8 1310.3c-0.74 0-1.42-0.47-1.66-1.2-0.3-0.92 0.2-1.91 1.11-2.21l43.47-14.34c0.92-0.3 1.91 0.2 2.21 1.11 0.3 0.92-0.2 1.91-1.11 2.21l-43.47 14.34c-0.18 0.06-0.37 0.09-0.55 0.09z"/>
		
		
			<path class="st1" d="m2103.8 1310.3c-0.05 0-0.11 0-0.17-0.01-0.96-0.09-1.67-0.94-1.58-1.91l5.34-56.88c0.09-0.96 0.94-1.68 1.91-1.58 0.96 0.09 1.67 0.94 1.58 1.91l-5.34 56.88c-0.08 0.91-0.84 1.59-1.74 1.59z"/>
		
		
			<path class="st1" d="m1928.6 1383.2h-68.45c-0.97 0-1.75-0.78-1.75-1.75s0.78-1.75 1.75-1.75h68.45c0.97 0 1.75 0.78 1.75 1.75s-0.78 1.75-1.75 1.75z"/>
		
	
	
		
			<path class="st0" d="m1790.1 1092c-0.73 0-1.42-0.46-1.66-1.2-2.64-7.98-1.57-13.8 3.19-17.3 5.3-3.89 11.15-5.45 16.31-6.84 8.22-2.2 13.65-3.65 13.38-12.65-0.28-9.2-4.92-12.52-9.41-15.73-1.99-1.43-3.91-2.8-5.3-4.6-0.74 2.03-1.35 4.12-1.94 6.18-2.07 7.14-4.2 14.52-11.95 14.64-1.9 0.06-3.14-0.54-3.76-1.69-1.22-2.28 0.86-5.29 4.01-9.85 3.79-5.49 8.99-13.01 7.1-18.47-2.33-6.74-5.98-11.43-8.51-14.09-0.88 8.42-7.11 17.03-11.69 18.37-2.08 0.61-3.93-0.21-4.81-2.13-1.46-3.2 1.06-6.96 3.99-11.3 4.28-6.36 6.82-10.77 3.18-13.95-4.19-3.66-8.2-4.04-12.08-4.42-2.1-0.2-4.25-0.41-6.22-1.21 0.83 9.38-0.92 16.09-4.88 18.27-2.14 1.18-4.58 0.81-6.69-1.01-3.23-2.79-1.29-5.58 0-7.42 1.69-2.43 3.29-4.72 0.01-9.34-3.07-4.31-9.61-2.4-16.54-0.38-5.27 1.54-10.69 3.12-14.91 1.8-1.15 7.62-4.29 12.3-6.85 16.13-2.26 3.38-3.89 5.82-3.52 9.09 0.17 1.49 0.69 1.87 0.87 1.99 1.19 0.86 4.09 0.23 6.64-0.32 3.3-0.71 6.71-1.44 9.22 0.02 3.13 1.81 4.26 6.66 2.53 10.81-0.84 2.01-4.43 8.35-15.49 5.35-10.78-2.92-13.87-8.95-14.72-12.69-3.92 3.15-2.78 6.83-0.52 12.09 0.54 1.27 1.06 2.46 1.4 3.62 1.13 3.79-1.41 6.13-3.44 8.01-1.92 1.77-3.58 3.3-3.45 5.96 0.01 0.14 0.03 0.2 0.03 0.2 0.83 0.62 5.46-0.59 8.53-1.39 7.22-1.88 16.21-4.22 21.1 0.62 2.65 2.62 2.55 6.07-0.27 9.22-5.28 5.89-19.72 10.43-28.51 6.14-0.25 4.75 2.15 9.61 6.53 12.88 0.77 0.58 0.93 1.67 0.36 2.45s-1.67 0.93-2.45 0.36c-6.28-4.69-9.21-12.15-7.45-19.01 0.15-0.58 0.58-1.04 1.15-1.23 0.56-0.19 1.19-0.07 1.65 0.3 6.55 5.3 21.28 1.18 26.12-4.22 2.28-2.55 0.97-3.85 0.41-4.4-3.47-3.44-11.39-1.38-17.76 0.28-5.39 1.4-9.29 2.42-11.51 0.78-0.61-0.45-1.35-1.3-1.42-2.81-0.21-4.29 2.44-6.74 4.57-8.7 2.16-1.99 2.93-2.89 2.46-4.44-0.29-0.96-0.76-2.07-1.26-3.24-2.17-5.08-5.46-12.76 4.36-18.03 0.58-0.31 1.28-0.27 1.81 0.1 0.54 0.37 0.83 1 0.75 1.65-0.03 0.33-0.71 8.55 12.46 12.12 5.69 1.54 9.82 0.33 11.35-3.32 1.1-2.64 0.34-5.63-1.06-6.44-1.35-0.78-4.21-0.17-6.73 0.38-3.43 0.74-6.97 1.5-9.42-0.26-1.3-0.93-2.07-2.42-2.3-4.44-0.52-4.55 1.72-7.89 4.09-11.43 2.75-4.11 5.86-8.76 6.57-16.99 0.05-0.63 0.44-1.18 1.02-1.44 0.57-0.26 1.25-0.19 1.76 0.18 3.04 2.21 8.79 0.54 14.35-1.09 7.43-2.17 15.86-4.63 20.38 1.71 4.72 6.62 1.77 10.85 0.01 13.37-1.42 2.04-1.34 2.11-0.58 2.77 0.98 0.84 1.89 1.04 2.71 0.59 1.87-1.03 4.53-6.09 2.65-18.54-0.12-0.76 0.28-1.51 0.98-1.84s1.53-0.17 2.04 0.4c1.8 1.96 4.3 2.21 7.46 2.51 4.02 0.39 9.02 0.87 14.05 5.27 6.23 5.45 1.14 13.01-2.58 18.54-1.94 2.88-4.36 6.47-3.71 7.89 0.14 0.3 0.17 0.37 0.64 0.23 3.54-1.04 10.28-10.79 9.15-18.78-0.1-0.7 0.23-1.38 0.83-1.75 0.6-0.36 1.36-0.33 1.93 0.09 0.34 0.25 8.36 6.2 12.57 18.37 2.47 7.13-3.31 15.5-7.53 21.6-1.43 2.07-3.32 4.81-3.68 6.03 0.12 0.01 0.29 0.02 0.49 0.02 4.91-0.08 6.48-4.66 8.64-12.12 0.98-3.4 2-6.91 3.62-10.21 0.33-0.67 1.04-1.06 1.78-0.97s1.34 0.63 1.5 1.36c0.6 2.69 2.87 4.31 5.74 6.37 4.7 3.36 10.54 7.54 10.87 18.47 0.36 11.77-7.57 13.89-15.97 16.14-4.86 1.3-10.37 2.78-15.15 6.28-3.45 2.53-4.08 6.9-1.94 13.38 0.3 0.92-0.19 1.91-1.11 2.21-0.2 0.06-0.39 0.09-0.57 0.09z"/>
		
		
			<path class="st0" d="m1730.7 1098.4c-0.71 0-1.37-0.43-1.64-1.13-0.34-0.9 0.11-1.91 1.01-2.26 7.27-2.76 11.76-7.33 12.09-9.44 0.06-0.39-0.05-0.48-0.17-0.58-4.19-3.34-10.31-2.17-21.8 4.18-0.84 0.47-1.91 0.16-2.38-0.69s-0.16-1.91 0.69-2.38c10.81-5.97 19.32-8.92 25.67-3.86 1.18 0.94 1.69 2.31 1.45 3.86-0.64 4.08-6.79 9.31-14.31 12.17-0.2 0.09-0.41 0.13-0.61 0.13z"/>
		
		
			<path class="st0" d="m1744.8 1130.1c-4.16 0-7.85-0.84-10.95-2.5-0.85-0.46-1.17-1.51-0.72-2.37 0.46-0.85 1.51-1.17 2.37-0.72 2.63 1.4 5.67 2.09 9.3 2.09 14.92 0 17.54-4.94 20.32-10.17 0.89-1.68 1.82-3.42 3.14-5 2.19-2.63 4.38-3.95 6.69-4.04 3.34-0.17 5.72 2.32 7.48 4.11l0.24 0.25c0.68 0.69 0.67 1.8-0.02 2.47s-1.8 0.67-2.47-0.02l-0.25-0.25c-1.44-1.47-3.08-3.16-4.84-3.07-1.25 0.05-2.64 0.99-4.15 2.79-1.09 1.3-1.89 2.8-2.73 4.4-2.99 5.64-6.39 12.03-23.41 12.03z"/>
		
		
			<path class="st0" d="m1838.3 1164.8c-1.91 0-3.67-0.83-5.08-1.5-1.21-0.57-2.35-1.11-3.36-1.16-1.02-0.07-1.78 0.34-2.73 0.85-1.38 0.73-3.26 1.73-5.88 0.57-4.86-2.16-5.49-8.4-6.29-16.3-0.38-3.79-0.82-8.09-1.78-12.47-0.35-1.6-0.76-2.22-0.94-2.42-0.37 0.23-1.33 1.17-2.28 3.74-1.7 4.59-3.1 14.49 2.39 22.53 0.38 0.55 0.41 1.27 0.08 1.85s-0.95 0.93-1.63 0.88c-15.72-0.94-27.2-12-30.71-29.6-3.97-19.93 3.4-45.66 25.18-56.26 8.97-4.37 21.33-5.96 21.85-6.03 0.48-0.05 0.96 0.08 1.33 0.39s0.6 0.75 0.63 1.24c0.32 4.86-4 10.38-8.19 15.71-3.04 3.88-6.49 8.28-6.41 10.75 0.01 0.18 0 0.43 1.04 0.43 4.86-0.04 16.98-7.87 17.18-19.54 0.09-5.15 1.43-8.77 4.11-11.09 4.24-3.67 10.6-2.85 15.71-2.19 1.36 0.17 2.64 0.34 3.73 0.4 0.7 0.04 1.31 0.49 1.55 1.16 0.24 0.66 0.06 1.4-0.46 1.88-4.34 4-7.06 10.14-7.2 13.77-0.03 0.93 0.13 1.4 0.22 1.53 0.01 0 0.04 0 0.08-0.01 1.44-0.14 4.83-6.02 6.86-9.53 0.48-0.83 0.97-1.68 1.46-2.51s1.56-1.11 2.4-0.62c0.83 0.49 1.11 1.56 0.62 2.4-0.48 0.82-0.96 1.65-1.44 2.48-3.92 6.78-6.47 10.96-9.55 11.26-1.62 0.16-2.99-0.63-3.65-2.12-1.63-3.65 0.93-11.09 5.36-16.56-0.14-0.02-0.28-0.04-0.42-0.05-4.65-0.6-9.92-1.28-12.98 1.36-1.85 1.6-2.83 4.46-2.9 8.5-0.23 13.4-13.54 22.92-20.65 22.98-2.68-0.01-4.49-1.47-4.57-3.82-0.13-3.74 3.25-8.05 7.15-13.03 2.98-3.8 6.29-8.03 7.21-11.37-3.92 0.65-12.27 2.31-18.55 5.37-19.97 9.72-26.89 34.27-23.28 52.43 2.92 14.64 11.82 24.28 24.13 26.41-4.52-9.34-2.8-20.61 0.61-25.86 1.72-2.66 3.45-2.96 4.6-2.76 1.8 0.33 3.05 2.06 3.73 5.17 1 4.58 1.45 8.98 1.84 12.87 0.68 6.77 1.22 12.11 4.23 13.45 1 0.44 1.51 0.23 2.82-0.47 1.14-0.6 2.56-1.35 4.54-1.25 1.7 0.09 3.21 0.8 4.67 1.49 2.62 1.23 4.21 1.99 6.22-0.23-7.56-7.63-6.51-20.63-4.11-26.24 1.44-3.36 3.16-3.91 4.35-3.76 2.8 0.33 3.19 3.69 3.67 7.94 0.57 5 1.28 11.22 5.48 13.21 5.63 2.67 6.25 1.85 8.59-1.18 0.59-0.77 1.69-0.91 2.45-0.32 0.77 0.59 0.91 1.69 0.32 2.45-3.46 4.49-5.92 5.5-12.86 2.21-5.95-2.82-6.82-10.42-7.46-15.98-0.17-1.49-0.39-3.4-0.69-4.42-0.7 1.06-1.75 3.67-2.07 7.68-0.27 3.4-0.24 11.84 5.81 16.86 0.7 0.58 0.84 1.59 0.33 2.34-2.13 3.15-4.36 4.11-6.41 4.11z"/>
		
		
			<path class="st0" d="m1808.8 1202.7c-0.86 0-1.62-0.64-1.73-1.52-1.92-14.52-4.27-28.64-6.97-41.98-0.19-0.95 0.42-1.87 1.37-2.06 0.96-0.19 1.87 0.42 2.06 1.37 2.72 13.42 5.08 27.62 7.02 42.22 0.13 0.96-0.55 1.84-1.51 1.96-0.08 0-0.16 0.01-0.24 0.01z"/>
		
		
			<path class="st0" d="m1785.6 1100.6c-0.72 0-1.4-0.45-1.65-1.17-11.61-33.06-26.41-59.92-43.98-79.82-0.64-0.72-0.57-1.83 0.15-2.47s1.83-0.57 2.47 0.15c17.88 20.24 32.91 47.49 44.66 80.98 0.32 0.91-0.16 1.91-1.07 2.23-0.19 0.07-0.38 0.1-0.58 0.1z"/>
		
		
			<path class="st0" d="m1802.6 1202.7c-0.54 0-1.06-0.25-1.41-0.71-21.61-29.18-28.44-52.17-20.29-68.34 11.14-22.12 47.34-25.42 67.92-25.42 0.97 0 1.75 0.78 1.75 1.75s-0.78 1.75-1.75 1.75c-19.78 0-54.5 3.05-64.79 23.49-7.5 14.88-0.78 36.65 19.98 64.68 0.58 0.78 0.41 1.87-0.37 2.45-0.31 0.24-0.67 0.35-1.04 0.35z"/>
		
	
	
		
			<path class="st1" d="m493.62 1321.5c-20.06 0-37.02-6.92-49.05-20-13.17-14.33-19.32-35.37-17.31-59.24 3.97-47.05 36.83-113.43 65.03-145.92 0.66-0.77 1.98-0.77 2.64 0 20.85 24.01 43.07 65.04 55.31 102.08 0.3 0.92-0.19 1.91-1.11 2.21s-1.91-0.2-2.21-1.11c-11.85-35.86-33.12-75.45-53.31-99.34-27.54 32.59-59.02 96.75-62.87 142.38-1.93 22.88 3.89 42.97 16.4 56.58 11.35 12.34 27.41 18.87 46.47 18.87 5.68 0 11.17-0.59 16.33-1.76 0.94-0.21 1.88 0.38 2.09 1.32s-0.38 1.88-1.32 2.09c-5.4 1.22-11.15 1.84-17.09 1.84z"/>
		
		
			<path class="st1" d="m556.22 1383.2c-0.37 0-0.74-0.12-1.05-0.35-7.12-5.39-13.9-11.71-20.15-18.77-13.78-15.58-23.5-33.13-27.36-49.41-3.96-16.67-1.33-30.09 7.4-37.81 6.97-6.17 17.36-8.02 29.53-5.36-15.64-33.23-15.97-64.81-0.4-72.82 8.95-4.61 21.27-0.67 34.19 10.8-1.02-28.36 8.27-50.92 21.94-52.2 2.96-0.28 5.95 0.43 8.88 2.09 0.84 0.48 1.13 1.55 0.66 2.39-0.48 0.84-1.55 1.13-2.39 0.66-2.29-1.31-4.59-1.86-6.82-1.65-12.25 1.14-20.56 24.84-18.54 52.83 0.05 0.72-0.35 1.41-1.01 1.71-0.66 0.31-1.44 0.17-1.96-0.33-12.74-12.44-25.21-17.37-33.35-13.18-14.13 7.27-12.52 39.36 3.58 71.54 0.31 0.62 0.23 1.37-0.22 1.9s-1.16 0.76-1.83 0.57c-12.57-3.59-23.21-2.28-29.95 3.68-16.24 14.37-7.15 51.28 20.27 82.29 6.1 6.89 12.7 13.05 19.64 18.3 0.77 0.58 0.92 1.68 0.34 2.45-0.34 0.43-0.87 0.67-1.4 0.67z"/>
		
		
			<path class="st1" d="m493.62 1383.2c-0.97 0-1.75-0.78-1.75-1.75v-249.43c0-0.97 0.78-1.75 1.75-1.75s1.75 0.78 1.75 1.75v249.43c0 0.97-0.79 1.75-1.75 1.75z"/>
		
		
			<path class="st1" d="m608.33 1383.2h-157.27c-0.97 0-1.75-0.78-1.75-1.75s0.78-1.75 1.75-1.75h157.27c0.97 0 1.75 0.78 1.75 1.75s-0.78 1.75-1.75 1.75z"/>
		
		
			<path class="st1" d="m493.62 1251.4c-0.45 0-0.9-0.17-1.24-0.51l-42.65-42.65c-0.68-0.68-0.68-1.79 0-2.47s1.79-0.68 2.47 0l42.65 42.65c0.68 0.68 0.68 1.79 0 2.47-0.34 0.34-0.79 0.51-1.23 0.51z"/>
		
		
			<path class="st1" d="m493.62 1208.8c-0.45 0-0.9-0.17-1.24-0.51-0.68-0.68-0.68-1.79 0-2.47l32.45-32.45c0.68-0.68 1.79-0.68 2.47 0s0.68 1.79 0 2.47l-32.45 32.45c-0.34 0.34-0.79 0.51-1.23 0.51z"/>
		
		
			<path class="st1" d="m424.62 1383.2c-9.49 0-19.21-1.22-28.87-3.64-20.44-5.1-38.42-14.96-50.63-27.75-12.41-13.01-17.41-27.51-14.08-40.85 5.09-20.43 28.61-33.56 59.49-33.79-2.37-1.47-4.72-3.02-7.03-4.64-42.65-29.9-61.79-76.41-42.67-103.7 13.93-19.89 45.4-24.74 79.16-12.51-0.51-1.21-1.01-2.44-1.49-3.7-9.05-23.44-11.01-48.03-5.52-69.24 5.55-21.42 18.02-36.85 35.12-43.45 16.02-6.18 34.31-3.89 51.79 6.43 0.88-20.95 7.48-40.45 18.65-54.99 11.49-14.97 26.44-22.94 42.07-22.43 21.01 0.68 39.93 17.04 49.38 42.68 0.33 0.91-0.13 1.91-1.04 2.25-0.9 0.34-1.91-0.13-2.25-1.04-8.95-24.28-26.65-39.75-46.21-40.39-14.48-0.46-28.4 7.01-39.18 21.06-10.91 14.22-17.29 33.43-17.96 54.08-0.02 0.63-0.04 1.25-0.04 1.88-0.01 0.63-0.36 1.22-0.92 1.52s-1.24 0.28-1.77-0.07c-17.3-11.06-35.5-13.8-51.25-7.72-16.02 6.18-27.73 20.77-32.99 41.06-5.31 20.5-3.4 44.33 5.39 67.09 1 2.57 2.04 5.04 3.11 7.35 0.3 0.65 0.17 1.42-0.32 1.94s-1.25 0.68-1.92 0.42c-33.69-13.46-65.41-9.53-78.93 9.77-18.01 25.7 0.75 70.03 41.81 98.82 4.09 2.86 8.31 5.51 12.55 7.88 0.71 0.4 1.05 1.23 0.83 2.01-0.23 0.78-0.95 1.3-1.77 1.26-31.94-1.67-57.71 11.08-62.67 30.99-3.03 12.13 1.66 25.48 13.21 37.59 11.75 12.32 29.14 21.83 48.94 26.77 9.39 2.34 18.82 3.53 28.03 3.53 0.97 0 1.75 0.78 1.75 1.75s-0.81 1.78-1.77 1.78z"/>
		
		
			<path class="st1" d="m608.33 1383.2c-0.45 0-0.9-0.17-1.24-0.51l-69.71-69.71c-0.68-0.68-0.68-1.79 0-2.47s1.79-0.68 2.47 0l69.71 69.71c0.68 0.68 0.68 1.79 0 2.47-0.33 0.34-0.78 0.51-1.23 0.51z"/>
		
	
	
		
			<path class="st2" d="m667.79 978.18h-5.63c-0.64 0-1.23-0.35-1.54-0.92-11.83-21.85-8.88-70.3-0.2-83.01 0.41-0.6 1.15-0.88 1.85-0.71 0.71 0.17 1.23 0.76 1.33 1.48 0.19 1.44 0.41 3.08 0.65 4.9 2.51 18.91 7.19 54.1 5.29 76.66-0.08 0.9-0.84 1.6-1.75 1.6zm-4.57-3.5h2.95c1.51-21.89-2.82-54.94-5.28-73.45-5.95 16.41-7.06 54.79 2.33 73.45z"/>
		
		
			<path class="st2" d="m652.68 978.18c-0.43 0-0.85-0.15-1.19-0.47-13.35-12.39-12.05-35.04-9.43-53.38 0.11-0.78 0.73-1.39 1.51-1.49s1.53 0.33 1.84 1.05c2.5 5.88 7.45 15.86 10.09 17.59 0.81 0.53 1.03 1.61 0.5 2.42s-1.61 1.03-2.42 0.5c-2.82-1.85-6.43-8.54-8.84-13.53-1.84 16.17-1.65 34.25 9.13 44.26 0.71 0.66 0.75 1.76 0.09 2.47-0.34 0.39-0.81 0.58-1.28 0.58z"/>
		
		
			<path class="st2" d="m674.9 978.18c-0.34 0-0.68-0.1-0.98-0.3-0.8-0.54-1.01-1.63-0.47-2.43 9.26-13.69 5.41-35.08 2.31-52.26-0.9-4.98-1.76-9.77-2.24-14.01-2.2 3.84-5.08 9.98-6.09 17.13-0.13 0.96-1.01 1.62-1.98 1.49-0.96-0.13-1.62-1.02-1.49-1.98 1.83-13.06 9.23-22.65 9.55-23.06 0.46-0.58 1.23-0.82 1.93-0.58s1.18 0.89 1.19 1.63c0.08 5.03 1.29 11.7 2.56 18.76 3.21 17.81 7.2 39.97-2.86 54.85-0.31 0.49-0.87 0.76-1.43 0.76z"/>
		
		
			<path class="st2" d="m681.03 978.18c-0.33 0-0.67-0.09-0.97-0.29-0.8-0.54-1.02-1.62-0.49-2.43 8.41-12.61 13.9-25.54 13.24-46.67-3.06 3.56-7.89 10.16-10.28 18.48-0.27 0.93-1.24 1.47-2.17 1.2s-1.46-1.24-1.2-2.17c3.93-13.63 13.6-22.63 14.01-23.01 0.5-0.46 1.21-0.59 1.83-0.33s1.05 0.84 1.09 1.51c1.6 24.58-4.29 38.94-13.62 52.94-0.32 0.5-0.88 0.77-1.44 0.77z"/>
		
	
	
		<path class="st1" d="m785.12 1235.7h-176.79c-0.97 0-1.75-0.78-1.75-1.75v-213.71c0-0.97 0.78-1.75 1.75-1.75h176.79c0.97 0 1.75 0.78 1.75 1.75v213.71c0 0.97-0.78 1.75-1.75 1.75zm-175.04-3.5h173.29v-210.21h-173.29z"/>
	
	
		
			<path class="st1" d="m683.99 1012.7h-31.22c-0.77 0-1.45-0.5-1.67-1.24l-10.63-34.52c-0.16-0.53-0.07-1.11 0.26-1.55 0.33-0.45 0.85-0.71 1.41-0.71h52.48c0.56 0 1.08 0.26 1.41 0.71s0.43 1.02 0.26 1.55l-10.63 34.52c-0.22 0.74-0.9 1.24-1.67 1.24zm-29.93-3.5h28.64l9.55-31.02h-47.74z"/>
		
	
	
		<path class="st1" d="m698.9 1052.6h-61.04c-0.97 0-1.75-0.78-1.75-1.75v-8.74c0-0.97 0.78-1.75 1.75-1.75h61.04c0.97 0 1.75 0.78 1.75 1.75v8.74c0 0.97-0.78 1.75-1.75 1.75zm-59.29-3.5h57.54v-5.24h-57.54z"/>
	
	
		<path class="st1" d="m775.34 1080.7h-167.01c-0.97 0-1.75-0.78-1.75-1.75s0.78-1.75 1.75-1.75h165.26v-45.36c0-0.97 0.78-1.75 1.75-1.75s1.75 0.78 1.75 1.75v47.11c0 0.97-0.78 1.75-1.75 1.75z"/>
	
	
		<path class="st1" d="m698.9 1111.2h-61.04c-0.97 0-1.75-0.78-1.75-1.75v-8.74c0-0.97 0.78-1.75 1.75-1.75h61.04c0.97 0 1.75 0.78 1.75 1.75v8.74c0 0.96-0.78 1.75-1.75 1.75zm-59.29-3.5h57.54v-5.24h-57.54z"/>
	
	
		<path class="st1" d="m775.34 1139.4h-167.01c-0.97 0-1.75-0.78-1.75-1.75s0.78-1.75 1.75-1.75h165.26v-45.36c0-0.97 0.78-1.75 1.75-1.75s1.75 0.78 1.75 1.75v47.11c0 0.96-0.78 1.75-1.75 1.75z"/>
	
	
		<path class="st1" d="m698.9 1169.9h-61.04c-0.97 0-1.75-0.78-1.75-1.75v-8.74c0-0.97 0.78-1.75 1.75-1.75h61.04c0.97 0 1.75 0.78 1.75 1.75v8.74c0 0.97-0.78 1.75-1.75 1.75zm-59.29-3.5h57.54v-5.24h-57.54z"/>
	
	
		<path class="st1" d="m775.34 1198h-167.01c-0.97 0-1.75-0.78-1.75-1.75s0.78-1.75 1.75-1.75h165.26v-45.36c0-0.97 0.78-1.75 1.75-1.75s1.75 0.78 1.75 1.75v47.11c0 0.97-0.78 1.75-1.75 1.75z"/>
	
	
		<path class="st1" d="m642.14 1022c-0.56 0-1.11-0.27-1.45-0.77l-6.35-9.33c-0.36-0.54-0.4-1.23-0.1-1.8s0.9-0.93 1.55-0.93h32.44c0.97 0 1.75 0.78 1.75 1.75s-0.78 1.75-1.75 1.75h-29.13l4.49 6.6c0.54 0.8 0.34 1.89-0.46 2.43-0.3 0.2-0.65 0.3-0.99 0.3z"/>
	
	
		<path class="st1" d="m694.31 1022c-0.34 0-0.68-0.1-0.98-0.3-0.8-0.54-1.01-1.63-0.46-2.43l4.49-6.6h-29.13c-0.97 0-1.75-0.78-1.75-1.75s0.78-1.75 1.75-1.75h32.44c0.65 0 1.24 0.36 1.55 0.93s0.26 1.27-0.1 1.8l-6.35 9.33c-0.35 0.5-0.9 0.77-1.46 0.77z"/>
	
	
		
			<path class="st2" d="m1767.3 406.14c-0.97 0-1.75-0.78-1.75-1.75 0-21.55-17.54-39.09-39.09-39.09-0.97 0-1.75-0.78-1.75-1.75s0.78-1.75 1.75-1.75c23.48 0 42.59 19.1 42.59 42.59 0 0.97-0.78 1.75-1.75 1.75z"/>
		
		
			<path class="st2" d="m1790 406.14c-0.97 0-1.75-0.78-1.75-1.75 0-34.06-27.71-61.77-61.78-61.77-0.97 0-1.75-0.78-1.75-1.75s0.78-1.75 1.75-1.75c35.99 0 65.28 29.28 65.28 65.27 0 0.97-0.78 1.75-1.75 1.75z"/>
		
		
			<path class="st2" d="m1812.7 406.14c-0.97 0-1.75-0.78-1.75-1.75 0-46.57-37.89-84.46-84.46-84.46-0.97 0-1.75-0.78-1.75-1.75s0.78-1.75 1.75-1.75c48.5 0 87.96 39.46 87.96 87.96 0 0.97-0.79 1.75-1.75 1.75z"/>
		
	
	
		
			<path class="st2" d="m1601.3 574.47c-23.48 0-42.59-19.1-42.59-42.59 0-0.97 0.78-1.75 1.75-1.75s1.75 0.78 1.75 1.75c0 21.55 17.54 39.09 39.09 39.09 0.97 0 1.75 0.78 1.75 1.75s-0.78 1.75-1.75 1.75z"/>
		
		
			<path class="st2" d="m1601.3 597.16c-35.99 0-65.28-29.28-65.28-65.27 0-0.97 0.78-1.75 1.75-1.75s1.75 0.78 1.75 1.75c0 34.06 27.71 61.77 61.78 61.77 0.97 0 1.75 0.78 1.75 1.75s-0.78 1.75-1.75 1.75z"/>
		
		
			<path class="st2" d="m1601.3 619.85c-48.5 0-87.96-39.46-87.96-87.96 0-0.97 0.78-1.75 1.75-1.75s1.75 0.78 1.75 1.75c0 46.57 37.89 84.46 84.46 84.46 0.97 0 1.75 0.78 1.75 1.75s-0.78 1.75-1.75 1.75z"/>
		
	
	
		<path class="st1" d="m686.36 640.02h-339.76c-0.9 0-1.65-0.68-1.74-1.58s0.52-1.71 1.4-1.89c19.53-3.84 50.46-25.87 77.76-45.31 17.68-12.59 34.38-24.49 46.32-30.31 0.41-0.21 0.84-0.41 1.27-0.6 7.46-3.41 14.95-3.97 21.66-1.64 4.6 1.61 8.58 4.44 11.86 8.44 4.38-11.12 10.22-22.07 17.38-32.58 14.78-21.7 33.44-38.88 52.55-48.38 19.44-9.67 37.07-10.27 49.65-1.7 14.67 9.99 20.17 31.4 15.03 57.75 33.31-19.69 65.83-21.65 81.75-4.63 8.13 8.71 11.21 21.36 8.92 36.58l-0.02 0.13c-0.01 0.09-0.02 0.18-0.04 0.27-0.97 6.94-1.41 12.78-1.35 17.79 0.01 0.97-0.76 1.76-1.73 1.77-0.97-0.01-1.76-0.76-1.77-1.73-0.06-5.18 0.4-11.2 1.4-18.38l0.06-0.4c2.12-14.1-0.65-25.74-8.02-33.64-15.29-16.36-47.77-13.41-80.82 7.33-0.6 0.38-1.37 0.35-1.95-0.06s-0.85-1.13-0.69-1.82c6.19-26.71 1.43-48.42-12.73-58.07-24.06-16.38-67.72 5.67-97.34 49.16-7.65 11.23-13.75 22.95-18.13 34.83-0.23 0.62-0.78 1.06-1.44 1.13-0.65 0.08-1.3-0.22-1.66-0.77-3.18-4.77-7.23-8.04-12.05-9.72-5.84-2.03-12.44-1.51-19.07 1.52-0.38 0.17-0.77 0.35-1.15 0.55-11.71 5.7-28.29 17.52-45.85 30.02-22.94 16.34-48.42 34.49-68.01 42.43h328.31c0.97 0 1.75 0.78 1.75 1.75s-0.79 1.76-1.75 1.76z"/>
	
	
		<path class="st1" d="m509.48 614.76c-2.12 0-4.03-0.91-5.61-2.69-6-6.75-5.96-24.77 0.1-41.9 0.21-0.59 0.72-1.03 1.34-1.14s1.25 0.12 1.65 0.61c10.03 12.14 13.53 29.77 10.51 38.61-1.5 4.39-4.21 5.85-6.23 6.31-0.59 0.14-1.18 0.2-1.76 0.2zm-3.24-40.31c-4.98 16.14-3.9 30.64 0.24 35.3 1.15 1.29 2.46 1.75 4 1.4 1.66-0.38 2.9-1.73 3.69-4.03 2.46-7.2-0.27-21.76-7.93-32.67z"/>
	
	
		
			<path class="st1" d="m1518 451h-338.77c-0.9 0-1.65-0.68-1.74-1.58s0.52-1.71 1.4-1.89c15.61-3.07 40.41-20.73 62.3-36.32 14.21-10.12 27.63-19.68 37.23-24.36 0.33-0.17 0.68-0.33 1.03-0.49 6.07-2.77 12.17-3.23 17.65-1.33 3.58 1.25 6.7 3.41 9.3 6.44 3.5-8.77 8.13-17.4 13.78-25.69 24.76-36.36 61.79-54.44 82.54-40.3 11.76 8.01 16.26 25.02 12.35 45.97 26.66-15.54 52.62-16.95 65.41-3.27 6.6 7.07 9.11 17.33 7.25 29.65-0.02 0.18-0.03 0.25-0.05 0.33-3.61 25.86-0.11 38.47 30.9 49.44 0.8 0.28 1.29 1.11 1.14 1.95-0.14 0.84-0.87 1.45-1.72 1.45zm-327.87-3.5h318.69c-25.02-11.16-27.99-25.6-24.6-49.89l1.75 0.09-1.74-0.22 0.03-0.19c1.69-11.21-0.51-20.46-6.35-26.72-12.16-13.01-38.06-10.62-64.46 5.94-0.6 0.38-1.37 0.35-1.95-0.06s-0.85-1.13-0.69-1.82c4.94-21.3 1.17-38.6-10.08-46.26-19.16-13.05-54 4.62-77.67 39.38-6.12 8.99-11.01 18.38-14.52 27.89-0.23 0.62-0.78 1.06-1.44 1.13-0.66 0.08-1.3-0.22-1.66-0.77-2.51-3.76-5.71-6.34-9.5-7.67-4.6-1.6-9.81-1.19-15.05 1.21-0.3 0.14-0.61 0.28-0.91 0.43-9.38 4.57-22.68 14.05-36.77 24.08-17.81 12.7-37.53 26.75-53.08 33.45z"/>
		
		
			<path class="st1" d="m1383.7 421.51c-1.66 0-3.27-0.45-4.81-1.36-2.52-1.49-3.89-3.74-3.96-6.52-0.28-11.99 24.56-32.17 36.64-40.06 0.6-0.39 1.39-0.38 1.97 0.04 0.59 0.42 0.86 1.15 0.68 1.85-3.97 15.83-14.79 40.31-26.42 45.17-1.39 0.59-2.76 0.88-4.1 0.88zm25.86-42.34c-14.26 10.09-31.32 26.07-31.13 34.37 0.04 1.57 0.75 2.71 2.23 3.59 1.8 1.06 3.69 1.15 5.8 0.27 9-3.76 18.53-23.24 23.1-38.23z"/>
		
	
	
		
			<path class="st1" d="m2101.6 608.17h-372.89c-0.82 0-1.53-0.57-1.71-1.38-0.17-0.8 0.23-1.62 0.98-1.96 21.07-9.66 42.73-31.82 61.84-51.37 14.99-15.33 29.15-29.81 41.38-36.79 18.29-12.77 37.31-15.1 50.89-6.22 5.65 3.68 10.02 9.18 12.77 16.02 4.1-6.03 8.92-11.74 14.37-17 29.53-28.54 69.11-35.67 88.23-15.89 11.15 11.53 13.35 30.05 6.11 50.09 15.15-5.01 29.16-2.84 37.21 5.97 0.3 0.35 0.58 0.67 0.85 0.99 2.46 2.85 4.95 5.85 7.35 8.74 13.5 16.26 27.47 33.08 53.36 45.48 0.74 0.35 1.13 1.17 0.95 1.97-0.16 0.79-0.87 1.35-1.69 1.35zm-365.65-3.5h358.4c-22.49-12.3-35.46-27.92-48.04-43.07-2.5-3.02-4.87-5.87-7.33-8.71-0.27-0.32-0.53-0.62-0.79-0.92-7.66-8.38-21.83-9.81-36.98-3.7-0.65 0.26-1.4 0.11-1.9-0.39s-0.64-1.25-0.37-1.9c8.33-20.09 6.85-38.77-3.98-49.96-17.78-18.39-55.13-11.23-83.28 15.97-6.14 5.93-11.45 12.44-15.79 19.33-0.37 0.58-1.03 0.89-1.71 0.8s-1.24-0.57-1.44-1.22c-2.34-7.64-6.68-13.69-12.54-17.52-12.36-8.08-29.95-5.75-47.04 6.21-0.04 0.03-0.09 0.06-0.14 0.09-11.82 6.71-25.84 21.05-40.68 36.23-17.4 17.79-36.88 37.71-56.39 48.76z"/>
		
		
			<path class="st1" d="m1886.4 581.9c-0.97 0-1.95-0.25-2.88-0.75-1.74-0.93-2.97-2.71-3.67-5.29-2.71-10.06 2.87-30 12.99-46.4 0.37-0.6 1.06-0.92 1.76-0.81s1.26 0.62 1.43 1.31c5.92 23.88 1.75 44.76-5.51 50.4-1.32 1.03-2.72 1.54-4.12 1.54zm7.19-46.81c-8.95 16.05-12.35 32.49-10.36 39.86 0.3 1.11 0.88 2.54 1.94 3.11 0.66 0.35 1.71 0.69 3.19-0.46 5.24-4.07 9.6-20.78 5.23-42.51z"/>
		
	
	
		<path class="st1" d="m1662.9 542.86c-23.38 0-46.77-1.39-69.99-4.18-0.8-0.1-1.43-0.73-1.53-1.53-5.57-46.44-5.57-93.53 0-139.97 0.1-0.8 0.73-1.43 1.53-1.53 46.44-5.57 93.53-5.57 139.97 0 0.8 0.1 1.43 0.73 1.53 1.53 5.57 46.44 5.57 93.53 0 139.97-0.1 0.8-0.73 1.43-1.53 1.53-23.21 2.79-46.6 4.18-69.98 4.18zm-68.2-7.49c45.26 5.32 91.14 5.32 136.41 0 5.32-45.26 5.32-91.14 0-136.4-45.26-5.32-91.14-5.32-136.41 0-5.32 45.26-5.32 91.14 0 136.4z"/>
	
	
		<path class="st1" d="m1662.9 514.39c-14.41 0-28.81-0.86-43.12-2.58-0.8-0.1-1.43-0.73-1.53-1.53-3.43-28.61-3.43-57.62 0-86.23 0.1-0.8 0.73-1.43 1.53-1.53 28.61-3.43 57.62-3.43 86.23 0 0.8 0.1 1.43 0.73 1.53 1.53 3.43 28.61 3.43 57.62 0 86.23-0.1 0.8-0.73 1.43-1.53 1.53-14.3 1.72-28.7 2.58-43.11 2.58zm-41.33-5.89c27.43 3.18 55.23 3.18 82.66 0 3.18-27.43 3.18-55.23 0-82.66-27.43-3.18-55.23-3.18-82.66 0-3.19 27.43-3.19 55.23 0 82.66z"/>
	
	
		<path class="st1" d="m1662.9 503.13c-10.86 0-21.71-0.65-32.49-1.94-0.96-0.11-1.64-0.99-1.53-1.95s0.99-1.65 1.95-1.53c20.83 2.5 41.94 2.55 62.79 0.16 2.39-20.84 2.34-41.96-0.16-62.79-0.12-0.96 0.57-1.83 1.53-1.95 0.97-0.12 1.83 0.57 1.95 1.53 2.59 21.56 2.59 43.43 0 64.99-0.1 0.8-0.73 1.43-1.53 1.53-10.8 1.31-21.65 1.95-32.51 1.95z"/>
	
	
		<path class="st1" d="m1657.6 676.17c-0.97 0-1.75-0.78-1.75-1.75v-133.29c0-0.97 0.78-1.75 1.75-1.75s1.75 0.78 1.75 1.75v133.29c0 0.97-0.78 1.75-1.75 1.75z"/>
	
	
		<path class="st1" d="m1670.1 683.17c-0.97 0-1.75-0.78-1.75-1.75v-140.29c0-0.97 0.78-1.75 1.75-1.75s1.75 0.78 1.75 1.75v140.29c0 0.97-0.79 1.75-1.75 1.75z"/>
	
	
		<path class="st1" d="m1981.6 786.39h-121.28c-0.19 0-0.37-0.03-0.55-0.09l-966.85-318.37-283.25 317.88c-0.33 0.37-0.81 0.59-1.31 0.59h-52.4c-0.69 0-1.31-0.4-1.6-1.03-0.28-0.63-0.17-1.37 0.29-1.88l323.41-362.96c0.46-0.52 1.19-0.72 1.85-0.5l1102.2 362.96c0.82 0.27 1.32 1.09 1.18 1.94-0.12 0.84-0.85 1.46-1.71 1.46zm-121-3.5h110.08l-1090.8-359.18-320.05 359.18h47.71l283.49-318.15c0.46-0.52 1.19-0.72 1.85-0.5z"/>
	
	
		<path class="st1" d="m1686.4 728.68h-514.9c-0.97 0-1.75-0.78-1.75-1.75s0.78-1.75 1.75-1.75h514.9c0.97 0 1.75 0.78 1.75 1.75s-0.78 1.75-1.75 1.75z"/>
	
	
		<path class="st1" d="m798.12 728.68h-138.36c-0.97 0-1.75-0.78-1.75-1.75s0.78-1.75 1.75-1.75h138.37c0.97 0 1.75 0.78 1.75 1.75s-0.79 1.75-1.76 1.75z"/>
	
	
		
			
				<path class="st2" d="m892.37 702.45c-0.45 0-0.9-0.17-1.24-0.51-10.78-10.78-16.72-25.12-16.72-40.36 0-15.25 5.94-29.58 16.72-40.36 0.68-0.68 1.79-0.68 2.47 0s0.68 1.79 0 2.47c-10.12 10.12-15.69 23.58-15.69 37.89s5.57 27.77 15.69 37.89c0.68 0.68 0.68 1.79 0 2.47-0.33 0.34-0.78 0.51-1.23 0.51z"/>
			
			
				<path class="st2" d="m870.63 724.18c-0.45 0-0.9-0.17-1.24-0.51-34.24-34.24-34.24-89.96 0-124.2 0.68-0.68 1.79-0.68 2.47 0s0.68 1.79 0 2.47c-32.88 32.88-32.88 86.37 0 119.25 0.68 0.68 0.68 1.79 0 2.47-0.33 0.35-0.78 0.52-1.23 0.52z"/>
			
			
				<path class="st2" d="m848.9 745.92c-0.45 0-0.9-0.17-1.24-0.51-22.39-22.39-34.73-52.17-34.73-83.84s12.33-61.44 34.73-83.84c0.68-0.68 1.79-0.68 2.47 0s0.68 1.79 0 2.47c-21.73 21.73-33.7 50.63-33.7 81.36s11.97 59.63 33.7 81.36c0.68 0.68 0.68 1.79 0 2.47-0.34 0.36-0.78 0.53-1.23 0.53z"/>
			
		
		
			
				<path class="st2" d="m1078.3 702.45c-0.45 0-0.9-0.17-1.24-0.51-0.68-0.68-0.68-1.79 0-2.47 10.12-10.12 15.69-23.58 15.69-37.89s-5.57-27.77-15.69-37.89c-0.68-0.68-0.68-1.79 0-2.47s1.79-0.68 2.47 0c10.78 10.78 16.72 25.12 16.72 40.36 0 15.25-5.94 29.58-16.72 40.36-0.33 0.34-0.78 0.51-1.23 0.51z"/>
			
			
				<path class="st2" d="m1100.1 724.18c-0.45 0-0.9-0.17-1.24-0.51-0.68-0.68-0.68-1.79 0-2.47 32.88-32.88 32.88-86.37 0-119.25-0.68-0.68-0.68-1.79 0-2.47s1.79-0.68 2.47 0c34.24 34.24 34.24 89.96 0 124.2-0.33 0.33-0.78 0.5-1.23 0.5z"/>
			
			
				<path class="st2" d="m1121.8 745.92c-0.45 0-0.9-0.17-1.24-0.51-0.68-0.68-0.68-1.79 0-2.47 21.73-21.73 33.7-50.63 33.7-81.36s-11.97-59.63-33.7-81.36c-0.68-0.68-0.68-1.79 0-2.47s1.79-0.68 2.47 0c22.39 22.39 34.73 52.17 34.73 83.84s-12.33 61.44-34.73 83.84c-0.34 0.32-0.78 0.49-1.23 0.49z"/>
			
		
		
			<path class="st1" d="m1055.1 763.51h-138.44c-0.97 0-1.75-0.78-1.75-1.75v-200.38c0-0.97 0.78-1.75 1.75-1.75h138.44c0.97 0 1.75 0.78 1.75 1.75v200.38c0 0.97-0.78 1.75-1.75 1.75zm-136.69-3.5h134.94v-196.88h-134.94z"/>
		
		
			<path class="st1" d="m1055.1 648.34h-138.44c-0.97 0-1.75-0.78-1.75-1.75s0.78-1.75 1.75-1.75h138.44c0.97 0 1.75 0.78 1.75 1.75s-0.78 1.75-1.75 1.75z"/>
		
		
			<path class="st1" d="m936.46 763.51c-0.97 0-1.75-0.78-1.75-1.75v-47.82c0-0.97 0.78-1.75 1.75-1.75s1.75 0.78 1.75 1.75v47.82c0 0.97-0.79 1.75-1.75 1.75z"/>
		
		
			<path class="st1" d="m956.23 763.51c-0.97 0-1.75-0.78-1.75-1.75v-47.82c0-0.97 0.78-1.75 1.75-1.75s1.75 0.78 1.75 1.75v47.82c0 0.97-0.78 1.75-1.75 1.75z"/>
		
		
			<path class="st1" d="m976.01 763.51c-0.97 0-1.75-0.78-1.75-1.75v-47.82c0-0.97 0.78-1.75 1.75-1.75s1.75 0.78 1.75 1.75v47.82c0 0.97-0.78 1.75-1.75 1.75z"/>
		
		
			<path class="st1" d="m995.79 763.51c-0.97 0-1.75-0.78-1.75-1.75v-47.82c0-0.97 0.78-1.75 1.75-1.75s1.75 0.78 1.75 1.75v47.82c0 0.97-0.78 1.75-1.75 1.75z"/>
		
		
			<path class="st1" d="m968.78 599.93c-0.97 0-1.75-0.78-1.75-1.75v-18.26c0-0.97 0.78-1.75 1.75-1.75s1.75 0.78 1.75 1.75v18.26c0 0.96-0.79 1.75-1.75 1.75z"/>
		
		
			<path class="st1" d="m979.83 599.93c-0.97 0-1.75-0.78-1.75-1.75v-18.26c0-0.97 0.78-1.75 1.75-1.75s1.75 0.78 1.75 1.75v18.26c0 0.96-0.79 1.75-1.75 1.75z"/>
		
		
			<path class="st1" d="m957.85 619.3h-18.26c-0.97 0-1.75-0.78-1.75-1.75s0.78-1.75 1.75-1.75h18.26c0.97 0 1.75 0.78 1.75 1.75s-0.79 1.75-1.75 1.75z"/>
		
		
			<path class="st1" d="m957.85 608.25h-18.26c-0.97 0-1.75-0.78-1.75-1.75s0.78-1.75 1.75-1.75h18.26c0.97 0 1.75 0.78 1.75 1.75s-0.79 1.75-1.75 1.75z"/>
		
		
			<path class="st1" d="m990.88 599.93c-0.97 0-1.75-0.78-1.75-1.75v-18.26c0-0.97 0.78-1.75 1.75-1.75s1.75 0.78 1.75 1.75v18.26c0 0.96-0.78 1.75-1.75 1.75z"/>
		
		
			<path class="st1" d="m1001.9 599.93c-0.97 0-1.75-0.78-1.75-1.75v-18.26c0-0.97 0.78-1.75 1.75-1.75s1.75 0.78 1.75 1.75v18.26c0 0.96-0.78 1.75-1.75 1.75z"/>
		
		
			
				<path class="st1" d="m968.78 619.58c-0.97 0-1.75-0.78-1.75-1.75v-1.3c0-0.97 0.78-1.75 1.75-1.75s1.75 0.78 1.75 1.75v1.3c0 0.97-0.79 1.75-1.75 1.75z"/>
			
			
				<path class="st1" d="m979.83 619.58c-0.97 0-1.75-0.78-1.75-1.75v-1.3c0-0.97 0.78-1.75 1.75-1.75s1.75 0.78 1.75 1.75v1.3c0 0.97-0.79 1.75-1.75 1.75z"/>
			
			
				<path class="st1" d="m990.88 619.58c-0.97 0-1.75-0.78-1.75-1.75v-1.3c0-0.97 0.78-1.75 1.75-1.75s1.75 0.78 1.75 1.75v1.3c0 0.97-0.78 1.75-1.75 1.75z"/>
			
			
				<path class="st1" d="m1001.9 619.58c-0.97 0-1.75-0.78-1.75-1.75v-1.3c0-0.97 0.78-1.75 1.75-1.75s1.75 0.78 1.75 1.75v1.3c0 0.97-0.78 1.75-1.75 1.75z"/>
			
		
		
			<path class="st1" d="m1015.6 763.51c-0.97 0-1.75-0.78-1.75-1.75v-47.82c0-0.97 0.78-1.75 1.75-1.75s1.75 0.78 1.75 1.75v47.82c0 0.97-0.79 1.75-1.75 1.75z"/>
		
		
			<path class="st1" d="m1035.3 763.51c-0.97 0-1.75-0.78-1.75-1.75v-47.82c0-0.97 0.78-1.75 1.75-1.75s1.75 0.78 1.75 1.75v47.82c0 0.97-0.78 1.75-1.75 1.75z"/>
		
		
			<path class="st1" d="m1012.9 627.62h-55.01c-0.97 0-1.75-0.78-1.75-1.75v-27.69c0-0.97 0.78-1.75 1.75-1.75h55.01c0.97 0 1.75 0.78 1.75 1.75v27.69c0 0.96-0.78 1.75-1.75 1.75zm-53.26-3.5h51.51v-24.19h-51.51z"/>
		
		
			
				<linearGradient id="SVGID_1_" x1="1088.1" x2="1127.3" y1="525.5" y2="525.5" gradientTransform="matrix(1 0 0 -1 -153.35 1223.8)" gradientUnits="userSpaceOnUse">
				<stop stop-color="#39D82F" offset="0"/>
				<stop stop-color="#279813" offset="1"/>
			</linearGradient>
			<path class="st3" d="m973.52 693.77v9.15h-8.25c-0.01-4.72 3.56-8.67 8.25-9.15z" fill="url(#SVGID_1_)"/>
			
				<linearGradient id="SVGID_2_" x1="1088.1" x2="1127.3" y1="531.4" y2="531.4" gradientTransform="matrix(1 0 0 -1 -153.35 1223.8)" gradientUnits="userSpaceOnUse">
				<stop stop-color="#39D82F" offset="0"/>
				<stop stop-color="#279813" offset="1"/>
			</linearGradient>
			<path class="st4" d="m953.48 702.92h5.81c0-8.01 6.23-14.63 14.22-15.13v-5.83c-11.13 0.49-20.03 9.7-20.03 20.96z" fill="url(#SVGID_2_)"/>
			
				<linearGradient id="SVGID_3_" x1="1088.1" x2="1127.3" y1="537.28" y2="537.28" gradientTransform="matrix(1 0 0 -1 -153.35 1223.8)" gradientUnits="userSpaceOnUse">
				<stop stop-color="#39D82F" offset="0"/>
				<stop stop-color="#279813" offset="1"/>
			</linearGradient>
			<path class="st5" d="m951.31 679.77c-6.16 6.13-9.61 14.46-9.59 23.15h5.81c0-14.5 11.49-26.39 25.98-26.9v-5.82c-8.35 0.21-16.3 3.64-22.2 9.57z" fill="url(#SVGID_3_)"/>
			
				<linearGradient id="SVGID_4_" x1="1088.1" x2="1127.3" y1="543.12" y2="543.12" gradientTransform="matrix(1 0 0 -1 -153.35 1223.8)" gradientUnits="userSpaceOnUse">
				<stop stop-color="#39D82F" offset="0"/>
				<stop stop-color="#279813" offset="1"/>
			</linearGradient>
			<path class="st6" d="m957.18 662.01c-16.44 6.94-27.12 23.06-27.11 40.9h5.81c0-20.99 16.77-38.07 37.64-38.56v-5.82c-5.62 0.11-11.17 1.29-16.34 3.48z" fill="url(#SVGID_4_)"/>
			<path class="st7" d="m987.15 673.12c-2.55 0-4.59-0.73-6.12-2.19l1.88-2.66c1.15 1.19 2.75 1.85 4.4 1.82 0.61 0 1.08-0.11 1.44-0.32s0.53-0.48 0.53-0.82c0-0.29-0.19-0.53-0.58-0.71-0.46-0.21-0.94-0.35-1.44-0.41-0.64-0.1-1.27-0.25-1.89-0.44-0.64-0.19-1.27-0.42-1.88-0.7-0.59-0.28-1.09-0.73-1.44-1.29-0.4-0.64-0.6-1.38-0.58-2.13 0-1.21 0.49-2.25 1.48-3.1s2.33-1.28 4.02-1.28c2.25 0 4.11 0.64 5.6 1.92l-1.94 2.54c-1.13-0.94-2.56-1.45-4.03-1.43-0.99 0-1.49 0.33-1.49 0.99 0 0.26 0.19 0.49 0.58 0.67 0.46 0.21 0.95 0.35 1.45 0.42 0.63 0.11 1.26 0.26 1.87 0.44 0.64 0.19 1.27 0.43 1.87 0.71 0.59 0.29 1.09 0.73 1.44 1.28 0.4 0.62 0.6 1.34 0.58 2.07 0 1.41-0.5 2.53-1.51 3.36-1.01 0.84-2.43 1.26-4.24 1.26z"/>
			<path class="st7" d="m1010.8 672.87h-3.16v-6.08c0-0.89-0.44-1.34-1.32-1.34-0.72 0-1.32 0.32-1.8 0.97v6.45h-3.18v-6.08c0-0.89-0.44-1.34-1.32-1.34-0.66 0-1.25 0.32-1.78 0.97v6.45h-3.18v-9.98h3.18v1.22c0.26-0.34 0.7-0.67 1.3-0.99 0.61-0.32 1.29-0.48 1.98-0.48 1.47 0 2.42 0.59 2.83 1.78 0.36-0.52 0.85-0.95 1.41-1.25 0.62-0.35 1.32-0.53 2.04-0.53 0.95 0 1.69 0.25 2.21 0.76s0.79 1.25 0.79 2.24z"/>
			<path class="st7" d="m1022.4 672.87h-3.18v-0.99c-0.36 0.4-0.81 0.71-1.31 0.9-0.57 0.23-1.18 0.35-1.79 0.34-0.86 0-1.7-0.3-2.36-0.85-0.71-0.57-1.07-1.38-1.06-2.43 0-1.1 0.34-1.91 1.03-2.43s1.54-0.79 2.4-0.77c1.45 0 2.48 0.39 3.1 1.16v-1.2c0.01-0.42-0.19-0.82-0.54-1.05-0.36-0.26-0.85-0.39-1.49-0.39-1.04-0.01-2.05 0.37-2.83 1.05l-1.13-2.01c1.21-1.03 2.72-1.55 4.52-1.55 0.59-0.01 1.17 0.06 1.75 0.2 0.52 0.13 1.02 0.34 1.47 0.63 0.46 0.31 0.83 0.74 1.05 1.24 0.27 0.6 0.4 1.26 0.38 1.92zm-4.96-1.84c0.85 0 1.44-0.24 1.78-0.72v-0.89c-0.34-0.47-0.94-0.7-1.78-0.7-0.4-0.02-0.8 0.09-1.14 0.3-0.47 0.32-0.6 0.97-0.27 1.44 0.07 0.11 0.17 0.2 0.27 0.27 0.35 0.21 0.74 0.32 1.14 0.3z"/>
			<path class="st7" d="m1027.9 672.87h-3.18v-9.98h3.18v1.22c0.38-0.44 0.86-0.8 1.39-1.05 0.54-0.28 1.13-0.43 1.74-0.43v3.06c-0.26-0.06-0.52-0.08-0.79-0.08-0.46 0-0.92 0.09-1.35 0.26-0.38 0.12-0.72 0.34-0.98 0.65v6.35z"/>
			<path class="st7" d="m1037.5 673.12c-1.02 0-1.79-0.25-2.32-0.74-0.53-0.5-0.8-1.23-0.8-2.19v-4.53h-1.65v-2.77h1.65v-2.73h3.16v2.73h2.03v2.77h-2.03v3.64c-0.01 0.27 0.07 0.53 0.24 0.73 0.16 0.19 0.4 0.29 0.65 0.28 0.4 0 0.67-0.08 0.8-0.25l0.62 2.4c-0.47 0.44-1.25 0.66-2.35 0.66z"/>
			<path class="st7" d="m987.15 692.31c-2.55 0-4.59-0.73-6.12-2.19l1.88-2.67c1.15 1.19 2.75 1.85 4.4 1.82 0.61 0 1.08-0.11 1.44-0.32s0.53-0.48 0.53-0.82c0-0.29-0.19-0.53-0.58-0.71-0.46-0.21-0.94-0.35-1.44-0.41-0.64-0.1-1.27-0.25-1.89-0.43-0.64-0.19-1.27-0.43-1.88-0.71-0.59-0.28-1.09-0.73-1.44-1.29-0.4-0.64-0.6-1.38-0.58-2.13 0-1.21 0.49-2.25 1.48-3.1s2.33-1.28 4.02-1.28c2.25 0 4.11 0.64 5.6 1.92l-1.94 2.54c-1.13-0.94-2.56-1.45-4.03-1.43-0.99 0-1.49 0.33-1.49 0.99 0 0.26 0.19 0.49 0.58 0.67 0.46 0.21 0.95 0.35 1.45 0.42 0.63 0.11 1.26 0.26 1.87 0.44 0.64 0.19 1.27 0.43 1.87 0.71 0.59 0.29 1.09 0.73 1.44 1.28 0.4 0.62 0.6 1.34 0.58 2.08 0 1.4-0.5 2.52-1.51 3.36-1.01 0.85-2.43 1.26-4.24 1.26z"/>
			<path class="st7" d="m997.76 680.65c-0.71 0.71-1.86 0.72-2.57 0.01l-0.01-0.01c-0.35-0.34-0.54-0.81-0.53-1.3 0-1 0.81-1.82 1.82-1.82 1 0 1.82 0.81 1.82 1.82 0.01 0.49-0.18 0.96-0.53 1.3zm0.3 11.41h-3.18v-9.98h3.18z"/>
			<path class="st7" d="m1004.9 696.11c-1.74 0-3.21-0.5-4.42-1.49l1.39-2.27c0.71 0.77 1.73 1.16 3.04 1.16 0.63 0.01 1.24-0.17 1.76-0.52s0.78-0.94 0.77-1.78v-0.76c-0.83 0.96-1.81 1.44-2.96 1.44-1.28 0-2.33-0.44-3.16-1.31s-1.24-2.12-1.24-3.73c0-1.6 0.41-2.84 1.23-3.71s1.88-1.31 3.17-1.31c1.16-0.02 2.25 0.51 2.96 1.43v-1.18h3.17v9.09c0.01 0.71-0.11 1.42-0.36 2.08-0.2 0.54-0.51 1.02-0.92 1.43-0.39 0.37-0.85 0.66-1.34 0.87-0.49 0.22-1 0.37-1.53 0.45-0.52 0.07-1.04 0.11-1.56 0.11zm0.64-7.03c0.37-0.01 0.73-0.09 1.06-0.25 0.33-0.14 0.62-0.36 0.84-0.64v-2.66c-0.22-0.28-0.51-0.5-0.84-0.64-0.33-0.16-0.7-0.24-1.06-0.25-0.58-0.02-1.15 0.18-1.58 0.58-0.41 0.39-0.61 0.93-0.61 1.63s0.2 1.25 0.61 1.65c0.43 0.4 1 0.61 1.58 0.58z"/>
			<path class="st7" d="m1023.3 692.06h-3.18v-5.76c0-1.1-0.54-1.65-1.63-1.65-0.77-0.01-1.49 0.35-1.95 0.96v6.45h-3.18v-9.98h3.18v1.23c0.84-0.98 1.99-1.47 3.45-1.47 1.1 0 1.93 0.29 2.48 0.86s0.83 1.34 0.83 2.31z"/>
			<path class="st7" d="m1034.7 692.06h-3.18v-0.99c-0.36 0.4-0.81 0.71-1.31 0.9-0.57 0.23-1.17 0.35-1.79 0.34-0.87 0-1.7-0.3-2.37-0.86-0.71-0.57-1.07-1.38-1.06-2.43 0-1.1 0.34-1.91 1.03-2.43s1.54-0.79 2.4-0.78c1.45 0 2.48 0.39 3.1 1.16v-1.2c0.01-0.42-0.19-0.82-0.54-1.05-0.36-0.26-0.85-0.39-1.49-0.39-1.04-0.01-2.05 0.37-2.83 1.05l-1.14-2c1.21-1.03 2.72-1.55 4.52-1.55 0.59-0.01 1.17 0.06 1.74 0.2 0.52 0.13 1.02 0.34 1.47 0.63 0.46 0.31 0.83 0.74 1.05 1.24 0.27 0.6 0.4 1.26 0.38 1.92v6.24zm-4.96-1.84c0.85 0 1.45-0.24 1.78-0.72v-0.89c-0.35-0.47-0.94-0.7-1.78-0.7-0.4-0.01-0.8 0.09-1.14 0.3-0.47 0.32-0.6 0.97-0.28 1.44 0.07 0.11 0.17 0.2 0.28 0.27 0.35 0.21 0.74 0.32 1.14 0.3z"/>
			<path class="st7" d="m1040.6 692.06h-3.18v-13.78h3.18z"/>
			<path class="st7" d="m985.15 698.38-1.92 4.28c-0.11 0.3-0.3 0.56-0.54 0.76-0.21 0.15-0.47 0.23-0.73 0.23-0.18 0-0.35-0.03-0.52-0.09-0.16-0.06-0.3-0.14-0.41-0.26l0.24-0.39c0.18 0.19 0.44 0.29 0.7 0.29 0.16 0 0.32-0.05 0.45-0.15 0.15-0.13 0.27-0.3 0.35-0.49l0.17-0.37-1.71-3.82h0.54l1.44 3.25 1.44-3.25h0.5z"/>
			<path class="st7" d="m986.43 702c-0.29-0.16-0.54-0.4-0.7-0.69-0.17-0.31-0.26-0.66-0.25-1.01-0.01-0.35 0.08-0.7 0.25-1 0.16-0.29 0.41-0.53 0.7-0.69 0.31-0.17 0.66-0.26 1.02-0.25 0.31 0 0.61 0.06 0.88 0.19 0.25 0.12 0.47 0.32 0.61 0.56l-0.39 0.26c-0.12-0.18-0.28-0.33-0.48-0.43s-0.42-0.15-0.64-0.14c-0.26 0-0.52 0.06-0.75 0.19-0.22 0.12-0.4 0.31-0.52 0.53-0.25 0.49-0.25 1.07 0 1.56 0.12 0.22 0.3 0.4 0.52 0.52 0.23 0.13 0.49 0.19 0.75 0.19 0.22 0 0.44-0.04 0.64-0.14 0.2-0.09 0.36-0.24 0.48-0.42l0.39 0.26c-0.15 0.24-0.36 0.44-0.62 0.56-0.28 0.13-0.58 0.2-0.88 0.19-0.34 0.01-0.69-0.08-1.01-0.24z"/>
			<path class="st7" d="m989.94 698.38h0.52v3.04l2.56-3.04h0.46v3.83h-0.52v-3.04l-2.55 3.04h-0.47z"/>
			<path class="st7" d="m998.08 698.38v3.83h-0.52v-3.37h-1.83l-0.05 0.95c-0.01 0.62-0.1 1.24-0.28 1.83-0.15 0.43-0.4 0.64-0.78 0.64-0.13 0-0.25-0.02-0.37-0.06l0.04-0.44c0.06 0.02 0.12 0.02 0.18 0.03 0.19 0.01 0.37-0.1 0.45-0.28 0.11-0.21 0.18-0.44 0.2-0.68 0.04-0.27 0.06-0.63 0.09-1.08l0.07-1.37z"/>
			<path class="st7" d="m1002.9 700.45h-3.2c0.02 0.37 0.18 0.71 0.46 0.96 0.29 0.25 0.66 0.38 1.05 0.37 0.22 0 0.45-0.04 0.65-0.13s0.37-0.21 0.52-0.38l0.29 0.33c-0.17 0.21-0.39 0.37-0.64 0.47-0.27 0.11-0.55 0.16-0.84 0.16-0.36 0.01-0.72-0.08-1.04-0.25-0.3-0.16-0.54-0.4-0.71-0.7-0.17-0.31-0.26-0.65-0.26-1-0.01-0.35 0.08-0.7 0.24-1 0.15-0.29 0.39-0.53 0.67-0.69 0.29-0.17 0.62-0.25 0.96-0.25 0.34-0.01 0.67 0.08 0.96 0.25 0.28 0.16 0.51 0.4 0.66 0.69 0.16 0.31 0.25 0.66 0.24 1.01zm-2.78-1.3c-0.25 0.24-0.4 0.57-0.43 0.92h2.72c-0.02-0.35-0.17-0.68-0.43-0.92-0.52-0.47-1.32-0.47-1.86 0z"/>
			<path class="st7" d="m1004 698.38h0.52v1.69h2.4v-1.69h0.52v3.83h-0.51v-1.69h-2.4v1.69h-0.52z"/>
			<path class="st7" d="m1009 698.38h0.52v3.04l2.56-3.04h0.46v3.83h-0.52v-3.04l-2.55 3.04h-0.47z"/>
			<path class="st7" d="m1017.3 700.45h-3.2c0.02 0.37 0.18 0.72 0.46 0.96 0.29 0.25 0.66 0.38 1.05 0.37 0.22 0 0.45-0.04 0.65-0.13 0.2-0.08 0.38-0.21 0.52-0.38l0.29 0.33c-0.17 0.21-0.39 0.37-0.64 0.47-0.27 0.11-0.55 0.16-0.84 0.16-0.36 0.01-0.72-0.08-1.04-0.25-0.3-0.16-0.54-0.4-0.71-0.7-0.17-0.31-0.26-0.65-0.25-1-0.01-0.35 0.08-0.7 0.24-1 0.15-0.29 0.39-0.53 0.67-0.69 0.29-0.17 0.62-0.25 0.96-0.25 0.33-0.01 0.66 0.08 0.95 0.25 0.28 0.16 0.51 0.4 0.66 0.69 0.16 0.31 0.25 0.66 0.24 1.01zm-2.77-1.3c-0.25 0.24-0.4 0.57-0.43 0.92h2.72c-0.02-0.35-0.17-0.68-0.43-0.92-0.53-0.47-1.33-0.47-1.86 0z"/>
			<path class="st7" d="m1021 702c-0.29-0.16-0.54-0.4-0.7-0.69-0.17-0.31-0.26-0.66-0.25-1.01-0.01-0.35 0.08-0.7 0.25-1 0.17-0.29 0.41-0.53 0.7-0.69 0.31-0.17 0.66-0.25 1.01-0.25 0.31-0.01 0.61 0.06 0.88 0.19 0.25 0.12 0.47 0.32 0.61 0.56l-0.39 0.26c-0.12-0.18-0.28-0.33-0.48-0.43s-0.42-0.15-0.64-0.14c-0.26 0-0.52 0.06-0.75 0.19-0.22 0.12-0.4 0.31-0.52 0.53-0.25 0.49-0.25 1.07 0 1.56 0.12 0.22 0.3 0.4 0.52 0.52 0.23 0.13 0.49 0.19 0.75 0.19 0.22 0 0.44-0.04 0.64-0.14 0.2-0.09 0.36-0.24 0.48-0.42l0.39 0.26c-0.15 0.24-0.36 0.44-0.62 0.56-0.28 0.13-0.58 0.2-0.88 0.19-0.34 0.01-0.69-0.08-1-0.24z"/>
			<path class="st7" d="m1027.7 701.17c0.01 0.3-0.13 0.59-0.37 0.77-0.25 0.18-0.62 0.27-1.11 0.27h-1.74v-3.83h1.69c0.36-0.02 0.72 0.07 1.03 0.25 0.24 0.16 0.38 0.44 0.37 0.73 0 0.19-0.06 0.38-0.17 0.53-0.12 0.15-0.29 0.27-0.48 0.33 0.52 0.13 0.78 0.44 0.78 0.95zm-2.72-1.09h1.15c0.24 0.02 0.48-0.04 0.68-0.17 0.16-0.11 0.24-0.29 0.24-0.48 0.01-0.19-0.08-0.37-0.24-0.48-0.21-0.12-0.44-0.17-0.68-0.16h-1.15zm1.96 1.56c0.17-0.11 0.26-0.3 0.25-0.5 0.01-0.2-0.07-0.39-0.23-0.51-0.22-0.12-0.46-0.18-0.71-0.16h-1.27v1.33h1.22c0.26 0.02 0.52-0.04 0.74-0.16z"/>
			<path class="st7" d="m1031.8 698.38v3.83h-0.48v-1.27h-1.34l-0.89 1.27h-0.56l0.96-1.34c-0.27-0.06-0.51-0.21-0.68-0.42-0.17-0.22-0.25-0.48-0.24-0.76-0.02-0.38 0.14-0.74 0.44-0.97 0.35-0.24 0.77-0.36 1.19-0.33zm-1.63 2.17h1.16v-1.72h-1.12c-0.75 0-1.12 0.29-1.12 0.87s0.36 0.86 1.08 0.85z"/>
			<path class="st7" d="m1035.7 700.54c0.15 0.15 0.23 0.36 0.22 0.57 0 0.22-0.08 0.43-0.23 0.6-0.17 0.18-0.38 0.32-0.62 0.4-0.28 0.1-0.57 0.14-0.87 0.14-0.28 0-0.55-0.04-0.82-0.12-0.25-0.07-0.49-0.19-0.7-0.35l0.18-0.39c0.18 0.14 0.39 0.24 0.61 0.31 0.23 0.07 0.47 0.11 0.71 0.11 0.3 0.01 0.6-0.06 0.87-0.2 0.21-0.1 0.34-0.31 0.34-0.54 0-0.2-0.1-0.38-0.28-0.48-0.23-0.13-0.49-0.18-0.76-0.17h-0.65v-0.38h0.62c0.24 0.01 0.48-0.04 0.69-0.16 0.16-0.09 0.26-0.26 0.26-0.44 0-0.2-0.11-0.39-0.3-0.48-0.24-0.13-0.5-0.19-0.77-0.17-0.43 0-0.85 0.11-1.22 0.31l-0.14-0.4c0.44-0.23 0.92-0.35 1.42-0.36 0.27 0 0.54 0.04 0.79 0.13 0.21 0.07 0.4 0.19 0.55 0.36 0.13 0.15 0.2 0.34 0.2 0.54 0 0.19-0.07 0.38-0.2 0.52-0.15 0.16-0.33 0.27-0.54 0.33 0.24 0.04 0.47 0.15 0.64 0.32z"/>
			<path class="st7" d="m1037.1 698.38h0.52v3.04l2.56-3.04h0.46v3.83h-0.52v-3.04l-2.55 3.04h-0.47z"/>
		
	
	
		<path class="st1" d="m608.33 1383.2c-0.97 0-1.75-0.78-1.75-1.75v-596.81c0-0.97 0.78-1.75 1.75-1.75s1.75 0.78 1.75 1.75v596.81c0 0.97-0.78 1.75-1.75 1.75z"/>
	
	
		<path class="st1" d="m1348.6 838.61c-0.97 0-1.75-0.78-1.75-1.75 0-4.42-3.6-8.02-8.03-8.02h-342c-4.42 0-8.02 3.6-8.02 8.02 0 0.97-0.78 1.75-1.75 1.75s-1.75-0.78-1.75-1.75v-33.96c0-6.36 5.17-11.53 11.52-11.53h342c6.36 0 11.53 5.17 11.53 11.53v33.96c0 0.97-0.78 1.75-1.75 1.75zm-351.78-13.27h342c3.12 0 5.95 1.24 8.03 3.26v-25.7c0-4.43-3.6-8.03-8.03-8.03h-342c-4.42 0-8.02 3.6-8.02 8.03v25.7c2.08-2.02 4.91-3.26 8.02-3.26z"/>
	
	
		<path class="st2" d="m1303.9 963.34h-307.15c-5.4 0-9.77-4.37-9.77-9.77l-0.05-48.08-35.17 8.48 35.22-32.69v-44.42c0-5.4 4.37-9.77 9.77-9.77h342c5.4 0 9.78 4.37 9.78 9.77v7.9"/>
		<path class="st2" d="m1303.9 965.09h-307.15c-6.35 0-11.52-5.17-11.52-11.52l-0.05-45.86-33.01 7.96c-0.77 0.19-1.58-0.17-1.95-0.87-0.38-0.7-0.23-1.57 0.35-2.11l34.66-32.17v-43.66c0-6.35 5.17-11.52 11.52-11.52h342c6.36 0 11.53 5.17 11.53 11.52v7.9c0 0.97-0.78 1.75-1.75 1.75s-1.75-0.78-1.75-1.75v-7.9c0-4.42-3.6-8.02-8.03-8.02h-342c-4.42 0-8.02 3.6-8.02 8.02v44.42c0 0.49-0.2 0.95-0.56 1.28l-30.32 28.14 28.66-6.91c0.52-0.13 1.07 0 1.49 0.33s0.67 0.84 0.67 1.37l0.05 48.08c0 4.42 3.6 8.02 8.02 8.02h307.14c0.97 0 1.75 0.78 1.75 1.75s-0.77 1.75-1.73 1.75z"/>
	
	
		
			<rect class="st1" x="1207" y="815" width="6" height="6.39"/>
		
		
			<rect class="st1" x="1217.5" y="811.26" width="6" height="10.12"/>
		
		
			<rect class="st1" x="1228" y="807.52" width="6" height="13.86"/>
		
		
			<rect class="st1" x="1238.6" y="803.79" width="6" height="17.6"/>
		
		
			<rect class="st1" x="1249.1" y="800.05" width="6" height="21.33"/>
		
	
	
		<path class="st1" d="m1318.9 820.55h-41.49c-0.97 0-1.75-0.78-1.75-1.75v-17.12c0-0.97 0.78-1.75 1.75-1.75h41.49c0.97 0 1.75 0.78 1.75 1.75v2.53h3.98c0.97 0 1.75 0.78 1.75 1.75v8.56c0 0.97-0.78 1.75-1.75 1.75h-3.98v2.53c0 0.97-0.78 1.75-1.75 1.75zm-39.74-3.5h37.99v-2.53c0-0.97 0.78-1.75 1.75-1.75h3.98v-5.06h-3.98c-0.97 0-1.75-0.78-1.75-1.75v-2.53h-37.99z"/>
	
	
		<rect class="st1" x="1283.5" y="807.52" width="20.4" height="5.44"/>
		<path class="st1" d="m1303.9 814.71h-20.4c-0.97 0-1.75-0.78-1.75-1.75v-5.44c0-0.97 0.78-1.75 1.75-1.75h20.4c0.97 0 1.75 0.78 1.75 1.75v5.44c0 0.96-0.79 1.75-1.75 1.75zm-18.66-3.5h16.9v-1.94h-16.9z"/>
	
	
		
			<circle class="st1" cx="1008.8" cy="810.05" r="4.13"/>
			<path class="st1" d="m1008.8 815.93c-3.24 0-5.88-2.64-5.88-5.88s2.64-5.88 5.88-5.88 5.88 2.64 5.88 5.88-2.64 5.88-5.88 5.88zm0-8.27c-1.31 0-2.38 1.07-2.38 2.38s1.07 2.38 2.38 2.38 2.38-1.07 2.38-2.38-1.07-2.38-2.38-2.38z"/>
		
		
			<circle class="st1" cx="1029.7" cy="810.05" r="4.13"/>
			<path class="st1" d="m1029.7 815.93c-3.24 0-5.88-2.64-5.88-5.88s2.64-5.88 5.88-5.88 5.88 2.64 5.88 5.88c0.01 3.24-2.63 5.88-5.88 5.88zm0-8.27c-1.31 0-2.38 1.07-2.38 2.38s1.07 2.38 2.38 2.38 2.38-1.07 2.38-2.38-1.06-2.38-2.38-2.38z"/>
		
		
			<circle class="st1" cx="1050.6" cy="810.05" r="4.13"/>
			<path class="st1" d="m1050.6 815.93c-3.24 0-5.88-2.64-5.88-5.88s2.64-5.88 5.88-5.88 5.88 2.64 5.88 5.88-2.64 5.88-5.88 5.88zm0-8.27c-1.31 0-2.38 1.07-2.38 2.38s1.07 2.38 2.38 2.38 2.38-1.07 2.38-2.38-1.07-2.38-2.38-2.38z"/>
		
	
	
		<path class="st8" d="m1028.8 869.27h11.76v4.42h-11.76z"/>
		<path class="st8" d="m1075.7 881.03v9.36h-5.47v-4.51h-13.78v4.51h-5.42v-9.36h3.12c0.82-0.86 1.1-2.02 1.2-3.94l1.01-24.82h16.47v28.75h2.87zm-8.35 0v-23.91h-5.86l-0.67 19.68c-0.05 1.78-0.53 3.07-1.49 4.22h8.02z"/>
		<path class="st8" d="m1090.3 885.88c-0.19-0.29-0.38-1.68-0.43-3.6-0.91 2.54-2.98 4.08-6 4.08-3.7 0-6.05-2.4-6.05-6.29 0-3.74 1.63-6.14 6.58-7.87 4.27-1.49 4.9-2.02 4.9-3.5v-0.24c0-2.06-0.86-3.02-2.74-3.02-2.06 0-2.98 1.2-2.98 3.26v0.43h-4.9v-0.29c0-4.95 2.78-7.83 7.92-7.83 5.71 0 7.92 2.98 7.92 8.5v9.26c0 3.5 0.24 5.71 0.62 7.1h-4.84zm-1.01-8.64v-3.31c-0.53 0.53-1.54 1.01-3.31 1.73-2.11 0.86-2.93 2.02-2.93 3.6 0 1.73 0.86 2.69 2.64 2.69 2.11-0.01 3.6-1.5 3.6-4.71z"/>
		<path class="st8" d="m1101.3 885.88h-1.92v-5.76h5.47v5.18l-3.22 6.14h-2.5z"/>
		<path class="st8" d="m1117.4 877.91v-8.45c0-5.42 3.02-8.45 8.35-8.45 5.38 0 8.4 3.02 8.4 8.45v8.45c0 5.38-3.02 8.45-8.4 8.45-5.33 0-8.35-3.08-8.35-8.45zm11.47 0.43v-9.31c0-2.06-0.96-3.41-3.12-3.41s-3.07 1.34-3.07 3.41v9.31c0 2.06 0.96 3.41 3.07 3.41 2.16 0 3.12-1.35 3.12-3.41z"/>
		<path class="st8" d="m1143.1 865.86h-6.19v-4.37h17.67v4.37h-6.24v20.02h-5.23v-20.02z"/>
		<path class="st8" d="m1154.2 885.73v-4.51c0.53 0.14 0.91 0.19 1.58 0.19 1.63 0 2.4-0.82 2.54-3.07l0.91-16.85h15.03v24.39h-5.28v-19.88h-4.75l-0.72 13.01c-0.24 4.42-2.16 7.06-7.01 7.06-0.81 0-1.97-0.15-2.3-0.34z"/>
		<path class="st8" d="m1196 861.49v24.39h-4.8v-15.7l-6.82 15.7h-5.42v-24.39h4.85v15.7l6.86-15.7z"/>
		<path class="st8" d="m1216.4 861.49v24.39h-5.28v-11.23c-1.1 1.68-2.83 2.59-5.09 2.59-3.94 0-6.29-2.45-6.29-7.58v-8.16h5.28v7.44c0 2.54 0.82 3.7 2.74 3.7 2.11 0 3.36-1.39 3.36-4.61v-6.53h5.28z"/>
		<path class="st8" d="m1238 861.49v24.39h-5.28v-10.61h-6.34v10.61h-5.28v-24.39h5.28v9.41h6.34v-9.41z"/>
		<path class="st8" d="m1242.2 877.91v-8.45c0-5.42 3.02-8.45 8.35-8.45 5.38 0 8.4 3.02 8.4 8.45v8.45c0 5.38-3.02 8.45-8.4 8.45-5.33 0-8.35-3.08-8.35-8.45zm11.47 0.43v-9.31c0-2.06-0.96-3.41-3.12-3.41s-3.07 1.34-3.07 3.41v9.31c0 2.06 0.96 3.41 3.07 3.41 2.16 0 3.12-1.35 3.12-3.41z"/>
		<path class="st8" d="m1040.7 909.86h-6.19v-4.37h17.67v4.37h-6.24v20.02h-5.23v-20.02z"/>
		<path class="st8" d="m1071.7 913.46v5.38h-11.57v3.6c0 2.3 1.1 3.41 3.26 3.41s3.26-1.1 3.26-3.46v-0.48h5.04v0.24c0 5.14-3.02 8.21-8.4 8.21-5.47 0-8.45-3.07-8.45-8.45v-8.45c0-5.42 2.98-8.45 8.45-8.45 5.43 0 8.41 3.02 8.41 8.45zm-5.14 1.39v-1.97c0-2.3-1.15-3.41-3.22-3.41-2.06 0-3.22 1.1-3.22 3.41v1.97z"/>
		<path class="st8" d="m1092.2 913.99v7.92c0 5.38-2.98 8.45-8.4 8.45-5.38 0-8.35-3.07-8.35-8.45v-12.67c0-7.68 4.46-9.31 9.36-11.04 1.87-0.72 3.74-1.39 5.52-2.4v5.14c-1.49 0.86-3.07 1.34-4.51 1.78-2.83 0.86-5.14 1.58-5.14 4.99v1.54c1.1-1.82 2.93-2.88 5.33-2.88 3.94-0.02 6.19 2.43 6.19 7.62zm-5.28 0.57c0-2.45-0.82-3.65-2.83-3.65-2.06 0-3.41 1.44-3.41 4.61v6.82c0 2.16 1.01 3.41 3.12 3.41s3.12-1.25 3.12-3.41z"/>
		<path class="st8" d="m1096 926.66v-2.4c0-3.79 1.01-5.62 3.65-6.19v-0.05c-2.45-0.82-3.6-2.64-3.6-5.76v-0.1c0-4.66 2.5-6.67 8.26-6.67h9.07v24.39h-5.28v-9.31h-3.02c-2.88 0-3.84 0.91-3.84 3.36v2.64c0 1.92-0.19 2.45-0.53 3.31h-5.33c0.62-1.3 0.62-2.07 0.62-3.22zm12.1-10.56v-6.14h-3.46c-2.3 0-3.36 0.91-3.36 2.98v0.14c0 2.06 1.25 3.02 3.89 3.02z"/>
		<path class="st8" d="m1125.8 921.96v-8.54c0-5.38 2.98-8.4 8.35-8.4 5.42 0 8.11 3.26 8.11 8.35v1.01h-5.09v-1.39c0-2.16-0.91-3.36-3.02-3.36s-3.07 1.2-3.07 3.36v9.41c0 2.11 0.96 3.36 3.07 3.36s3.02-1.25 3.02-3.36v-1.92h5.09v1.49c0 5.14-2.64 8.4-8.11 8.4-5.37-0.01-8.35-3.04-8.35-8.41z"/>
		<path class="st8" d="m1144.6 929.73v-4.51c0.53 0.14 0.91 0.19 1.58 0.19 1.63 0 2.4-0.82 2.54-3.07l0.91-16.85h15.03v24.39h-5.28v-19.88h-4.75l-0.72 13.01c-0.24 4.42-2.16 7.06-7.01 7.06-0.81 0-1.97-0.15-2.3-0.34z"/>
		<path class="st8" d="m1169.3 905.49h5.28v8.35h3.6c5.71 0 8.54 2.74 8.54 7.97s-2.78 8.06-8.54 8.06h-8.88zm8.79 19.87c2.11 0 3.36-0.86 3.36-3.55 0-2.3-0.96-3.5-3.36-3.5h-3.5v7.06h3.5zm12.1-19.87h5.28v24.39h-5.28z"/>
		<path class="st8" d="m1200.2 905.49h5.28v20.02h5.62v-20.02h5.28v20.02h5.57v-20.02h5.28v24.39h-27.03z"/>
		<path class="st8" d="m1248.6 905.49-6.38 26.45c-1.06 4.13-3.17 5.86-7.3 5.86-1.2 0-2.26-0.14-3.17-0.58v-4.46c0.77 0.29 1.54 0.43 2.45 0.43 1.68 0 2.45-0.58 2.98-2.21l0.1-0.43-6.77-25.06h5.38l4.13 16.95 3.55-16.95z"/>
		<path class="st8" d="m1252.3 910.1v-13.83h5.42v13.83l-0.67 10.8h-4.08zm0 14.4h5.42v5.38h-5.42z"/>
	
	
		<path class="st8" d="m1665.5 854.54v33.96c0-5.4-4.38-9.77-9.78-9.77h-342c-5.4 0-9.77 4.37-9.77 9.77v-33.96c0-5.4 4.37-9.78 9.77-9.78h342c5.4 0 9.78 4.38 9.78 9.78z"/>
		<path class="st1" d="m1665.5 890.25c-0.97 0-1.75-0.78-1.75-1.75 0-4.42-3.6-8.02-8.03-8.02h-342c-4.42 0-8.02 3.6-8.02 8.02 0 0.97-0.78 1.75-1.75 1.75s-1.75-0.78-1.75-1.75v-33.96c0-6.36 5.17-11.53 11.52-11.53h342c6.36 0 11.53 5.17 11.53 11.53v33.96c0 0.97-0.78 1.75-1.75 1.75zm-351.78-13.27h342c3.12 0 5.95 1.24 8.03 3.26v-25.7c0-4.43-3.6-8.03-8.03-8.03h-342c-4.42 0-8.02 3.6-8.02 8.03v25.7c2.08-2.02 4.91-3.26 8.02-3.26z"/>
	
	
		<path class="st1" d="m1665.5 888.5v116.71c0 5.4-4.38 9.77-9.78 9.77h-82.62l13.33 34.99-54.67-34.99h-218.04c-5.4 0-9.77-4.37-9.77-9.77v-116.71c0-5.4 4.37-9.77 9.77-9.77h342c5.4 0 9.78 4.37 9.78 9.77z"/>
		<path class="st1" d="m1586.4 1051.7c-0.33 0-0.65-0.09-0.94-0.28l-54.24-34.71h-217.53c-6.35 0-11.52-5.17-11.52-11.52v-116.71c0-6.35 5.17-11.52 11.52-11.52h342c6.36 0 11.53 5.17 11.53 11.52v116.71c0 6.35-5.17 11.52-11.53 11.52h-80.08l12.43 32.62c0.27 0.71 0.05 1.5-0.53 1.98-0.32 0.26-0.71 0.39-1.11 0.39zm-272.71-171.24c-4.42 0-8.02 3.6-8.02 8.02v116.71c0 4.42 3.6 8.02 8.02 8.02h218.04c0.33 0 0.66 0.1 0.94 0.28l50.2 32.13-11.44-30.03c-0.2-0.54-0.13-1.14 0.19-1.62 0.33-0.47 0.87-0.76 1.44-0.76h82.62c4.43 0 8.03-3.6 8.03-8.02v-116.71c0-4.42-3.6-8.02-8.03-8.02z"/>
	
	
		
			<rect class="st1" x="1524" y="866.64" width="6" height="6.39"/>
		
		
			<rect class="st1" x="1534.5" y="862.9" width="6" height="10.12"/>
		
		
			<rect class="st1" x="1545" y="859.17" width="6" height="13.86"/>
		
		
			<rect class="st1" x="1555.5" y="855.43" width="6" height="17.6"/>
		
		
			<rect class="st1" x="1566" y="851.69" width="6" height="21.33"/>
		
	
	
		<path class="st1" d="m1635.9 872.2h-41.49c-0.97 0-1.75-0.78-1.75-1.75v-17.12c0-0.97 0.78-1.75 1.75-1.75h41.49c0.97 0 1.75 0.78 1.75 1.75v2.53h3.98c0.97 0 1.75 0.78 1.75 1.75v8.57c0 0.97-0.78 1.75-1.75 1.75h-3.98v2.53c0 0.95-0.79 1.74-1.75 1.74zm-39.74-3.5h37.99v-2.53c0-0.97 0.78-1.75 1.75-1.75h3.98v-5.07h-3.98c-0.97 0-1.75-0.78-1.75-1.75v-2.53h-37.99z"/>
	
	
		<rect class="st1" x="1600.5" y="859.17" width="20.4" height="5.44"/>
		<path class="st1" d="m1620.9 866.35h-20.4c-0.97 0-1.75-0.78-1.75-1.75v-5.43c0-0.97 0.78-1.75 1.75-1.75h20.4c0.97 0 1.75 0.78 1.75 1.75v5.43c0 0.97-0.78 1.75-1.75 1.75zm-18.65-3.5h16.9v-1.93h-16.9z"/>
	
	
		
			<circle class="st1" cx="1325.8" cy="861.69" r="4.13"/>
			<path class="st1" d="m1325.8 867.57c-3.24 0-5.88-2.64-5.88-5.88s2.64-5.88 5.88-5.88 5.88 2.64 5.88 5.88-2.64 5.88-5.88 5.88zm0-8.26c-1.31 0-2.38 1.07-2.38 2.38s1.07 2.38 2.38 2.38 2.38-1.07 2.38-2.38-1.07-2.38-2.38-2.38z"/>
		
		
			<circle class="st1" cx="1346.7" cy="861.69" r="4.13"/>
			<path class="st1" d="m1346.7 867.57c-3.24 0-5.88-2.64-5.88-5.88s2.64-5.88 5.88-5.88 5.88 2.64 5.88 5.88-2.64 5.88-5.88 5.88zm0-8.26c-1.31 0-2.38 1.07-2.38 2.38s1.07 2.38 2.38 2.38 2.38-1.07 2.38-2.38-1.07-2.38-2.38-2.38z"/>
		
		
			<circle class="st1" cx="1367.5" cy="861.69" r="4.13"/>
			<path class="st1" d="m1367.5 867.57c-3.24 0-5.88-2.64-5.88-5.88s2.64-5.88 5.88-5.88 5.88 2.64 5.88 5.88c0.01 3.24-2.63 5.88-5.88 5.88zm0-8.26c-1.31 0-2.38 1.07-2.38 2.38s1.07 2.38 2.38 2.38 2.38-1.07 2.38-2.38-1.06-2.38-2.38-2.38z"/>
		
	
	
		<path class="st8" d="m1382.2 920.91h11.76v4.42h-11.76z"/>
		<path class="st8" d="m1424.4 903.92-7.25 27.89c-1.15 4.42-3.46 6.19-8.02 6.19-1.2 0-2.35-0.14-3.31-0.53v-4.7c0.82 0.29 1.73 0.38 2.5 0.38 2.11 0 2.98-0.62 3.46-2.06l0.24-0.86-7.58-26.31h5.66l4.75 18.15 4.32-18.15z"/>
		<path class="st8" d="m1443.4 920.24v10.13c0 5.18-2.21 7.63-6.14 7.63-2.35 0-4.22-1.06-5.33-2.88v9.84h-5.28v-31.83h4.56l0.1 3.74c0.96-2.69 3.07-4.22 5.95-4.22 3.93 0 6.14 2.45 6.14 7.59zm-5.28 0.67c0-2.4-0.72-3.65-2.78-3.65s-3.41 1.44-3.41 4.61v6.91c0 3.17 1.34 4.61 3.41 4.61 2.06 0 2.78-1.3 2.78-3.65z"/>
		<path class="st8" d="m1459 937.52c-0.19-0.29-0.38-1.68-0.43-3.6-0.91 2.54-2.98 4.08-6 4.08-3.7 0-6.05-2.4-6.05-6.29 0-3.74 1.63-6.14 6.58-7.87 4.27-1.49 4.9-2.02 4.9-3.5v-0.24c0-2.06-0.86-3.02-2.74-3.02-2.06 0-2.98 1.2-2.98 3.26v0.43h-4.9v-0.29c0-4.95 2.78-7.83 7.92-7.83 5.71 0 7.92 2.98 7.92 8.5v9.26c0 3.5 0.24 5.71 0.62 7.1h-4.84zm-1.01-8.64v-3.31c-0.53 0.53-1.54 1.01-3.31 1.73-2.11 0.86-2.93 2.02-2.93 3.6 0 1.73 0.86 2.69 2.64 2.69 2.11-0.01 3.6-1.5 3.6-4.71z"/>
		<path class="st8" d="m1468.5 917.74v-13.83h5.42v13.83l-0.67 10.8h-4.08zm0 14.4h5.42v5.38h-5.42z"/>
		<path class="st8" d="m1495.8 922.16-2.88 4.75v10.61h-5.47v-33.6h5.47v14.79l8.3-14.79h5.57l-7.3 12.48 7.39 21.12h-5.76z"/>
		<path class="st8" d="m1521.4 937.52c-0.19-0.29-0.38-1.68-0.43-3.6-0.91 2.54-2.98 4.08-6 4.08-3.7 0-6.05-2.4-6.05-6.29 0-3.74 1.63-6.14 6.58-7.87 4.27-1.49 4.9-2.02 4.9-3.5v-0.24c0-2.06-0.86-3.02-2.74-3.02-2.06 0-2.98 1.2-2.98 3.26v0.43h-4.9v-0.29c0-4.95 2.78-7.83 7.92-7.83 5.71 0 7.92 2.98 7.92 8.5v9.26c0 3.5 0.24 5.71 0.62 7.1h-4.84zm-1.01-8.64v-3.31c-0.53 0.53-1.54 1.01-3.31 1.73-2.11 0.86-2.93 2.02-2.93 3.6 0 1.73 0.86 2.69 2.64 2.69 2.11-0.01 3.6-1.5 3.6-4.71z"/>
		<path class="st8" d="m1547.3 913.13v24.39h-4.8v-15.7l-6.82 15.7h-5.42v-24.39h4.85v15.7l6.86-15.7zm-14.69-9.21h3.31c0.19 1.82 1.25 2.4 2.88 2.4s2.78-0.58 3.02-2.4h3.22c-0.1 3.65-2.3 6-6.24 6s-6.05-2.36-6.19-6z"/>
		<path class="st8" d="m1561 937.52h-0.91c-5.71 0-8.69-2.98-8.69-8.3v-7.78c0-5.33 3.02-8.3 8.69-8.3h0.91v-9.22h5.23v9.22h0.86c5.76 0 8.74 2.98 8.74 8.3v7.78c0 5.33-2.98 8.3-8.74 8.3h-0.86v7.44h-5.23zm0-4.37v-15.65h-0.91c-1.82 0-3.46 0.62-3.46 3.5v8.59c0 2.26 0.86 3.55 3.46 3.55h0.91zm6.09 0c1.92 0 3.46-0.67 3.46-3.55v-8.59c0-2.11-0.77-3.5-3.46-3.5h-0.86v15.65h0.86z"/>
		<path class="st8" d="m1580.4 917.74v-13.83h5.42v13.83l-0.67 10.8h-4.08zm0 14.4h5.42v5.38h-5.42z"/>
		<path class="st8" d="m1386.6 947.92h8.93c6 0 8.78 2.59 8.78 8.02v1.01c0 3.5-1.3 5.66-3.98 6.67v0.14c3.17 0.96 4.56 3.5 4.56 7.44v1.73c0 5.76-2.93 8.59-8.88 8.59h-9.41zm8.21 13.77c2.69 0 4.03-1.1 4.03-3.89v-1.25c0-2.69-1.01-3.79-3.5-3.79h-3.26v8.93zm1.2 14.98c2.35 0 3.41-1.06 3.41-3.79v-1.87c0-3.36-1.15-4.46-4.32-4.46h-3.02v10.13h3.93z"/>
		<path class="st8" d="m1408.1 973.6v-8.54c0-5.38 2.98-8.4 8.35-8.4 5.42 0 8.11 3.26 8.11 8.35v1.01h-5.09v-1.39c0-2.16-0.91-3.36-3.02-3.36s-3.07 1.2-3.07 3.36v9.41c0 2.11 0.96 3.36 3.07 3.36s3.02-1.25 3.02-3.36v-1.92h5.09v1.49c0 5.14-2.64 8.4-8.11 8.4-5.37-0.01-8.35-3.03-8.35-8.41z"/>
		<path class="st8" d="m1444.6 965.1v5.38h-11.57v3.6c0 2.3 1.1 3.41 3.26 3.41s3.26-1.1 3.26-3.46v-0.48h5.04v0.24c0 5.14-3.02 8.21-8.4 8.21-5.47 0-8.45-3.07-8.45-8.45v-8.45c0-5.42 2.98-8.45 8.45-8.45 5.43 0 8.41 3.03 8.41 8.45zm-5.14 1.39v-1.97c0-2.3-1.15-3.41-3.22-3.41s-3.22 1.1-3.22 3.41v1.97z"/>
		<path class="st8" d="m1455.4 981.38v-4.51c0.53 0.14 0.91 0.19 1.58 0.19 1.63 0 2.4-0.82 2.54-3.07l0.91-16.85h15.03v24.39h-5.28v-19.87h-4.75l-0.72 13.01c-0.24 4.42-2.16 7.06-7.01 7.06-0.81-0.02-1.97-0.16-2.3-0.35z"/>
		<path class="st8" d="m1496.4 965.1v5.38h-11.57v3.6c0 2.3 1.1 3.41 3.26 3.41s3.26-1.1 3.26-3.46v-0.48h5.04v0.24c0 5.14-3.02 8.21-8.4 8.21-5.47 0-8.45-3.07-8.45-8.45v-8.45c0-5.42 2.98-8.45 8.45-8.45 5.43 0 8.41 3.03 8.41 8.45zm-5.14 1.39v-1.97c0-2.3-1.15-3.41-3.22-3.41-2.06 0-3.22 1.1-3.22 3.41v1.97z"/>
		<path class="st8" d="m1505.2 961.5h-6.19v-4.37h17.67v4.37h-6.24v20.02h-5.23v-20.02z"/>
		<path class="st8" d="m1531.2 981.52c-0.19-0.29-0.38-1.68-0.43-3.6-0.91 2.54-2.98 4.08-6 4.08-3.7 0-6.05-2.4-6.05-6.29 0-3.74 1.63-6.14 6.58-7.87 4.27-1.49 4.9-2.02 4.9-3.5v-0.24c0-2.06-0.86-3.02-2.74-3.02-2.06 0-2.98 1.2-2.98 3.26v0.43h-4.9v-0.29c0-4.95 2.78-7.83 7.92-7.83 5.71 0 7.92 2.98 7.92 8.5v9.26c0 3.5 0.24 5.71 0.62 7.1h-4.84zm-1.01-8.64v-3.31c-0.53 0.53-1.54 1.01-3.31 1.73-2.11 0.86-2.93 2.02-2.93 3.6 0 1.73 0.86 2.69 2.64 2.69 2.11-0.01 3.6-1.5 3.6-4.71z"/>
		<path class="st8" d="m1556.3 965.1v5.38h-11.57v3.6c0 2.3 1.1 3.41 3.26 3.41s3.26-1.1 3.26-3.46v-0.48h5.04v0.24c0 5.14-3.02 8.21-8.4 8.21-5.47 0-8.45-3.07-8.45-8.45v-8.45c0-5.42 2.98-8.45 8.45-8.45 5.44 0 8.41 3.03 8.41 8.45zm-5.13 1.39v-1.97c0-2.3-1.15-3.41-3.22-3.41s-3.22 1.1-3.22 3.41v1.97z"/>
		<path class="st8" d="m1565.1 961.5h-6.19v-4.37h17.67v4.37h-6.24v20.02h-5.23v-20.02z"/>
		<path class="st8" d="m1580.4 961.74v-13.83h5.42v13.83l-0.67 10.8h-4.08zm0 14.4h5.42v5.38h-5.42z"/>
	
	
		
			<path class="st1" d="m1769 927.75c-38.05 0-69.01-30.96-69.01-69.01s30.96-69.01 69.01-69.01 69.01 30.96 69.01 69.01-30.96 69.01-69.01 69.01zm0-134.51c-36.12 0-65.51 29.39-65.51 65.51s29.39 65.51 65.51 65.51 65.51-29.39 65.51-65.51-29.39-65.51-65.51-65.51z"/>
		
		
			<path class="st1" d="m1769 916.66c-31.93 0-57.91-25.98-57.91-57.91s25.98-57.91 57.91-57.91 57.91 25.98 57.91 57.91-25.98 57.91-57.91 57.91zm0-112.32c-30 0-54.41 24.41-54.41 54.41s24.41 54.41 54.41 54.41 54.41-24.41 54.41-54.41c0-30.01-24.41-54.41-54.41-54.41z"/>
		
		
			<path class="st1" d="m1769 860.5c-0.44 0-0.88-0.16-1.22-0.49-0.69-0.67-0.71-1.78-0.04-2.47l22.16-22.84c0.67-0.69 1.78-0.71 2.47-0.04s0.71 1.78 0.04 2.47l-22.16 22.84c-0.34 0.35-0.79 0.53-1.25 0.53z"/>
		
		
			<path class="st1" d="m1769 860.5c-0.97 0-1.75-0.78-1.75-1.75v-45.67c0-0.97 0.78-1.75 1.75-1.75s1.75 0.78 1.75 1.75v45.67c0 0.96-0.78 1.75-1.75 1.75z"/>
		
		
			<path class="st1" d="m1720 860.5h-7.21c-0.97 0-1.75-0.78-1.75-1.75s0.78-1.75 1.75-1.75h7.21c0.97 0 1.75 0.78 1.75 1.75s-0.79 1.75-1.75 1.75z"/>
		
		
			<path class="st1" d="m1825.2 860.5h-7.21c-0.97 0-1.75-0.78-1.75-1.75s0.78-1.75 1.75-1.75h7.21c0.97 0 1.75 0.78 1.75 1.75s-0.78 1.75-1.75 1.75z"/>
		
		
			<path class="st1" d="m1769 916.66c-0.97 0-1.75-0.78-1.75-1.75v-7.21c0-0.97 0.78-1.75 1.75-1.75s1.75 0.78 1.75 1.75v7.21c0 0.96-0.78 1.75-1.75 1.75z"/>
		
	
	
		<path class="st1" d="m1860.3 1383.2c-0.97 0-1.75-0.78-1.75-1.75v-596.81c0-0.97 0.78-1.75 1.75-1.75s1.75 0.78 1.75 1.75v596.81c0 0.97-0.78 1.75-1.75 1.75z"/>
	
	
		<path class="st1" d="m1833.1 1285.1h-39.56c-0.97 0-1.75-0.78-1.75-1.75s0.78-1.75 1.75-1.75h38.32c8.57-24.86 8.51-69.6 8.4-78.87h-56.95c-0.97 0-1.75-0.78-1.75-1.75s0.78-1.75 1.75-1.75h58.67c0.95 0 1.73 0.76 1.75 1.71 0.06 2.23 1.22 55.02-8.99 83.01-0.25 0.69-0.9 1.15-1.64 1.15z"/>
	
	
		<path class="st1" d="m1860.3 1383.2h-1252c-0.97 0-1.75-0.78-1.75-1.75s0.78-1.75 1.75-1.75h1252c0.97 0 1.75 0.78 1.75 1.75s-0.78 1.75-1.75 1.75z"/>
	
	
		<path class="st1" d="m920.22 921.7c-5.41 0-11.14-1.36-14.64-2.58-0.91-0.32-1.4-1.31-1.08-2.23 0.32-0.91 1.31-1.39 2.23-1.08 7.85 2.73 18.25 3.66 22.08 0.01 4.95-4.71 0.65-33.48-13.73-50.22-1.15 0.18-1.95 0.54-2.39 1.08-0.93 1.12-0.69 3.44-0.44 5.9 0.43 4.13 0.96 9.27-3.77 12.48-4.19 2.85-7.65 2.42-9.93 2.15-0.82-0.1-1.75-0.21-1.99-0.02-0.16 0.13-0.68 0.78-0.94 3.84-0.08 0.96-0.92 1.68-1.89 1.6-0.96-0.08-1.68-0.93-1.6-1.89 0.28-3.36 0.94-5.23 2.22-6.27 1.39-1.13 3.03-0.93 4.62-0.74 2.08 0.25 4.43 0.54 7.54-1.57 2.79-1.89 2.71-4.88 2.25-9.22-0.32-3.07-0.65-6.25 1.23-8.5 1.19-1.43 3.04-2.22 5.66-2.42 0.55-0.04 1.08 0.17 1.44 0.58 14.74 16.51 21.45 48.79 14.12 55.77-2.6 2.47-6.69 3.33-10.99 3.33z"/>
	
	
		<path class="st1" d="m864.23 1008c-0.73 0-1.41-0.46-1.66-1.18-1.37-4.02-5.77-9.07-10.43-14.42-8.08-9.28-17.23-19.8-17.81-31.69-0.88-18.16 9.95-28.91 18.65-37.54l1.41-1.41c4.22-4.22 2.37-9.46 0.22-15.52-1.69-4.75-3.43-9.67-2.48-14.72 1.6-8.49 8.25-13.25 13.59-17.08 2.04-1.46 3.96-2.84 5.23-4.18 1.69-1.78 1.95-4.54 2.25-7.72 0.41-4.32 0.92-9.7 5.49-14.27 6.39-6.39 16.02-2.78 22.39-0.4 1.74 0.65 3.37 1.26 4.27 1.38 1.07 0.13 2.79-1.35 4.43-2.79 3.07-2.69 6.9-6.02 12.1-4.57 5.73 1.6 7.53 7 8.99 11.33 0.7 2.09 1.36 4.07 2.32 5.27 0.85 1.07 2.1 1.82 3.55 2.68 3.38 2.02 7.59 4.53 8.05 12.53 0.35 6.19-3.16 11.19-6.26 15.6-2.5 3.55-4.86 6.91-4.97 10.38-0.03 0.95-0.81 1.7-1.75 1.7h-0.05c-0.97-0.03-1.73-0.84-1.7-1.8 0.14-4.51 2.92-8.46 5.6-12.28 2.91-4.14 5.91-8.41 5.63-13.39-0.35-6.14-3.13-7.8-6.35-9.72-1.6-0.96-3.25-1.94-4.5-3.51-1.33-1.68-2.09-3.94-2.89-6.33-1.37-4.1-2.67-7.97-6.61-9.07-3.38-0.95-6.17 1.48-8.85 3.83-2.34 2.05-4.55 3.98-7.2 3.62-1.29-0.17-2.94-0.79-5.03-1.57-5.86-2.19-13.89-5.2-18.69-0.4-3.68 3.68-4.08 7.97-4.48 12.12-0.35 3.67-0.68 7.14-3.19 9.8-1.5 1.58-3.55 3.05-5.73 4.62-5.09 3.64-10.85 7.77-12.19 14.88-0.78 4.13 0.8 8.59 2.34 12.91 2.33 6.57 4.75 13.37-1.04 19.16l-1.42 1.42c-8.21 8.15-18.43 18.29-17.62 34.89 0.52 10.68 9.25 20.71 16.95 29.56 5.1 5.86 9.51 10.92 11.1 15.59 0.31 0.91-0.17 1.91-1.09 2.22-0.19 0.04-0.38 0.07-0.57 0.07z"/>
	
	
		<path class="st1" d="m908.18 932.95c-0.66 0-1.29-0.38-1.59-1.02-0.41-0.88-0.02-1.92 0.85-2.32l1.97-0.91-16.4-35.5-15.89 7.34 8.96 19.41c0.41 0.88 0.02 1.92-0.85 2.32-0.88 0.4-1.92 0.02-2.32-0.86l-9.7-20.99c-0.41-0.88-0.02-1.92 0.85-2.32l19.07-8.81c0.42-0.2 0.9-0.21 1.34-0.05s0.79 0.49 0.98 0.91l17.86 38.68c0.19 0.42 0.21 0.9 0.05 1.34s-0.49 0.79-0.91 0.98l-3.55 1.64c-0.22 0.11-0.47 0.16-0.72 0.16z"/>
	
	
		<path class="st1" d="m911.98 951.4c-5.21 0-10.05-2.87-12.68-7.52-0.47-0.84-0.18-1.91 0.67-2.38 0.84-0.48 1.91-0.18 2.38 0.67 2 3.55 5.86 5.84 9.8 5.74 3.63-0.06 6.75-1.96 8.89-5.37-3.82-4.66-4.05-12.64-4.28-20.39l-0.07-2.16c-0.03-0.97 0.72-1.78 1.69-1.81 0.98-0.05 1.78 0.72 1.81 1.69l0.07 2.17c0.22 7.63 0.45 15.52 4.13 18.96 0.57 0.54 0.72 1.39 0.36 2.09-2.71 5.2-7.28 8.23-12.54 8.31h-0.23z"/>
	
	
		<path class="st1" d="m893.12 1048.6c-3.6 0-13.33-2.81-25.73-28.85-11.67-24.5-14.61-58.03-5.95-67.7 6.01-6.71 15.06-7.71 21.66-8.45 1.76-0.2 3.35-0.37 4.64-0.63-0.34-1.75-1.63-3.92-2.89-6.04-1.51-2.55-3.08-5.19-3.53-7.86-0.48-2.81 0.58-6.06 1.6-9.21 1.05-3.22 2.13-6.54 1.31-8.69-0.17-0.45-0.15-0.96 0.06-1.39 0.21-0.44 0.6-0.76 1.06-0.9 1.62-0.49 3.33 0 4.83 1.39 2.55 2.37 4.52 7.58 3.32 12.96-0.77 3.44 0.54 7.29 2.18 9.57 0.91 1.26 1.62 1.67 1.86 1.74 2.62-1.22 9.78-4.88 9.85-4.92 0.86-0.44 1.9-0.1 2.35 0.75 2.41 4.61-3.81 10.99-7.86 14.03-2.82 2.11-1.21 12.12 0.08 20.17 0.2 1.27 0.41 2.54 0.6 3.79 2.25 14.74 3.45 31.27 3.58 49.14 0.1 14.36-5.54 25.29-9.35 29.12-1.33 1.33-2.52 1.98-3.67 1.98zm-5.63-102.03c-1.21 0.2-2.54 0.34-4 0.5-6.38 0.71-14.31 1.59-19.44 7.31-6.88 7.68-5.2 39.28 6.5 63.86 12.17 25.56 20.94 26.85 22.57 26.85 2.01-0.48 9.62-11.48 9.51-27.57-0.12-17.7-1.31-34.06-3.54-48.64-0.19-1.25-0.39-2.51-0.6-3.77-1.66-10.36-3.23-20.14 1.28-23.53 3.26-2.44 5.83-5.45 6.69-7.58-2.42 1.22-5.93 2.99-7.58 3.75-0.73 0.34-2.25 0.67-4.17-0.88-3.2-2.58-5.88-8.83-4.64-14.42 0.83-3.75-0.37-7.64-2.06-9.42-0.02 2.52-0.9 5.24-1.77 7.9-0.89 2.74-1.81 5.58-1.48 7.53 0.35 2.04 1.75 4.39 3.1 6.67 1.82 3.07 3.7 6.24 3.43 9.3 0 0.06-0.01 0.12-0.02 0.17-0.09 0.7-0.21 1.57-0.35 2.64-1.49 10.95-5.46 40.05-4.79 65.47 0.03 0.97-0.74 1.77-1.7 1.79h-0.05c-0.95 0-1.72-0.75-1.75-1.7-0.67-25.7 3.32-55 4.83-66.03 0.01-0.06 0.02-0.13 0.03-0.2z"/>
	
	
		<path class="st1" d="m884.37 1003.3c-0.97 0-1.75-0.78-1.75-1.75-0.01-10.55-10.85-43.13-17.65-46.77-0.69-0.37-0.99-0.23-1.24-0.07-0.8 0.54-1.89 0.32-2.43-0.49-0.54-0.8-0.32-1.89 0.49-2.43 1.45-0.96 3.16-1 4.83-0.11 9.11 4.87 19.49 40.25 19.5 49.85 0 0.98-0.78 1.76-1.75 1.77z"/>
	
	
		<path class="st1" d="m964.18 1130.1c-1.41 0-2.66-0.52-3.39-1.8-0.48-0.84-0.19-1.91 0.65-2.39s1.91-0.19 2.39 0.65c0.2 0.12 0.82 0.04 1.53-0.19-0.61-4.01 0.12-7.93 0.89-12.06 1.18-6.34 2.4-12.9-0.85-21.05-4.03-10.12-6.07-26.66-7.86-41.25-1.09-8.86-2.12-17.23-3.45-23-1.81-7.83-1.89-19.23-1.99-31.31-0.09-12.06-0.19-24.52-2.02-34.06-3.03-15.78-11.01-21.66-26.66-19.66-0.96 0.11-1.83-0.56-1.96-1.51s0.56-1.83 1.51-1.96c10.99-1.4 26.1-0.6 30.54 22.48 1.89 9.85 1.99 22.48 2.08 34.69 0.09 11.88 0.18 23.09 1.9 30.55 1.37 5.95 2.41 14.41 3.52 23.36 1.77 14.38 3.78 30.68 7.64 40.38 3.62 9.09 2.25 16.47 1.04 22.98-0.82 4.44-1.54 8.28-0.64 12.08 0.18 0.77-0.18 1.57-0.87 1.94-1.28 0.7-2.71 1.13-4 1.13z"/>
	
	
		<path class="st1" d="m966.75 1155.6c-0.74 0-1.43-0.47-1.67-1.22-5.24-16.43-4.91-26.63-4.6-36.5 0.23-7.16 0.45-13.92-1.38-22.94-2.09-10.32-6.5-24.95-10.77-39.1-4.77-15.81-9.27-30.75-10.14-38.38-1.03-9.02 1.43-16.17 3.61-22.47 1.38-4 2.68-7.78 2.99-11.64 0.54-6.73-3.46-16.37-7.69-26.59-1.92-4.62-3.9-9.41-5.47-14.01-0.31-0.91 0.17-1.91 1.09-2.22s1.91 0.17 2.22 1.09c1.54 4.5 3.5 9.23 5.4 13.81 4.4 10.61 8.55 20.64 7.94 28.21-0.34 4.3-1.71 8.29-3.17 12.5-2.15 6.25-4.38 12.71-3.44 20.94 0.84 7.32 5.3 22.11 10.02 37.77 4.29 14.23 8.72 28.94 10.85 39.41 1.91 9.42 1.67 16.71 1.45 23.75-0.31 9.57-0.63 19.47 4.43 35.32 0.29 0.92-0.21 1.91-1.13 2.2-0.18 0.04-0.36 0.07-0.54 0.07z"/>
	
	
		<path class="st1" d="m939.66 1176c-0.69 0-1.35-0.42-1.62-1.1-0.36-0.9 0.08-1.92 0.97-2.28 0.17-0.07 16.8-6.79 23.31-12.72 1.39-1.27 3.61-3.76 2.79-6.15-0.53-1.53-3.2-5.21-16.55-6.22-9-0.69-16.12 3.69-24.35 8.74-8.98 5.51-19.15 11.76-34.44 13.47-14.05 1.57-29.8-4.01-35.15-9.99-2.36-2.63-2.47-4.91-2.14-6.36 0.22-0.99 0.46-2.03 0.71-3.12 2.74-11.99 6.89-30.11 7.84-56.41 1.05-29.02 4.24-40.6 16.26-59.01 0.53-0.81 1.61-1.04 2.42-0.51s1.04 1.61 0.51 2.42c-11.73 17.96-14.66 28.66-15.69 57.22-0.96 26.63-5.15 44.95-7.93 57.07-0.25 1.09-0.49 2.12-0.71 3.11-0.26 1.17 0.58 2.41 1.33 3.25 4.78 5.34 19.56 10.25 32.16 8.84 14.52-1.62 24.34-7.65 33-12.98 8.75-5.38 16.31-10.02 26.45-9.25 14.12 1.07 18.45 5.25 19.6 8.57 1.09 3.17-0.23 6.68-3.74 9.87-6.97 6.36-23.65 13.1-24.36 13.39-0.23 0.11-0.45 0.15-0.67 0.15z"/>
	
	
		<path class="st1" d="m879.05 1346.4h-50.07c-0.79 0-1.48-0.52-1.69-1.28-0.17-0.62-1.46-6.44 6.42-19.17 4.49-7.25 5.91-26.33 7.28-44.79 0.9-12.13 1.76-23.59 3.45-31.97 3.51-17.32 8.93-29.04 12.89-37.61 1.42-3.06 2.64-5.71 3.48-7.99 3.21-8.72 4.41-16.85 5.92-27.15 0.49-3.32 0.99-6.76 1.61-10.56 0.16-0.95 1.06-1.6 2.01-1.45 0.95 0.16 1.6 1.05 1.45 2.01-0.61 3.77-1.12 7.19-1.6 10.5-1.54 10.5-2.76 18.79-6.1 27.85-0.89 2.41-2.14 5.11-3.59 8.24-3.89 8.4-9.21 19.91-12.64 36.83-1.65 8.16-2.5 19.51-3.39 31.53-1.41 18.88-2.86 38.4-7.8 46.37-5 8.08-5.94 12.95-6.05 15.11h42.92c-1.93-0.78-4.26-1.61-6.23-2.31-9.22-3.27-18.76-6.66-18.76-11.94 0-8 11.94-46.8 22.12-66.58 10.57-20.53 24.63-55.56 30.72-72.96 6.07-17.35 7.4-27.24 7.41-27.33 0.12-0.96 1-1.63 1.96-1.51s1.63 1 1.51 1.96c-0.05 0.41-1.37 10.29-7.58 28.04-6.12 17.49-20.27 52.74-30.91 73.41-10.37 20.14-21.73 58.2-21.73 64.98 0 2.81 10.69 6.61 16.43 8.65 8.23 2.92 12.76 4.53 12.29 7.62-0.13 0.87-0.87 1.5-1.73 1.5z"/>
	
	
		<path class="st1" d="m966.75 1346.4h-47.11c-0.89 0-1.64-0.67-1.74-1.56-0.61-5.52 0.27-8.42 1.3-11.78 1.05-3.45 2.25-7.37 2.25-15.67 0-9.95-3.95-30.45-7.77-50.28-2.5-12.97-4.86-25.23-6.14-34.52-1.45-10.57-1.05-16.29-0.66-21.82 0.5-7.12 0.98-13.84-2.32-30.66-0.19-0.95 0.43-1.87 1.38-2.05 0.95-0.19 1.87 0.43 2.05 1.38 3.39 17.27 2.88 24.54 2.38 31.58-0.38 5.35-0.77 10.88 0.63 21.09 1.27 9.2 3.62 21.41 6.11 34.33 3.85 19.99 7.83 40.65 7.83 50.94 0 8.83-1.33 13.19-2.4 16.7-0.87 2.86-1.53 5.02-1.3 8.81h42.32c-1.41-0.92-3.66-1.84-5.86-2.74-5.32-2.17-11.94-4.87-16.32-10.42-6.07-7.69-7.69-34.11-4.82-78.53 2.18-33.65 2.32-83.26-0.93-103.49-0.15-0.95 0.5-1.85 1.45-2.01s1.85 0.49 2.01 1.45c3.29 20.46 3.16 70.43 0.97 104.27-2.74 42.3-1.29 69.34 4.07 76.14 3.81 4.83 9.96 7.33 14.9 9.35 5.09 2.08 9.48 3.87 9.48 7.73-0.01 0.98-0.79 1.76-1.76 1.76z"/>
	
	
		<path class="st0" d="m850.19 1198.6h-12c-0.97 0-1.75-0.78-1.75-1.75s0.78-1.75 1.75-1.75h12c0.97 0 1.75 0.78 1.75 1.75s-0.78 1.75-1.75 1.75zm-24 0h-12c-0.97 0-1.75-0.78-1.75-1.75s0.78-1.75 1.75-1.75h12c0.97 0 1.75 0.78 1.75 1.75s-0.78 1.75-1.75 1.75zm-24 0h-12c-0.97 0-1.75-0.78-1.75-1.75s0.78-1.75 1.75-1.75h12c0.97 0 1.75 0.78 1.75 1.75s-0.78 1.75-1.75 1.75z"/>
	
	
		<path class="st1" d="m1220.3 1079.4c-0.5 0-1-0.22-1.35-0.64-0.62-0.75-0.51-1.85 0.23-2.46 0.4-0.33 0.8-0.69 1.17-1.07 2.55-2.55 4.17-5.86 4.65-9.38-5.17 2.71-11.64 1.86-15.98-2.48s-5.18-10.81-2.48-15.98c-3.53 0.48-6.83 2.09-9.38 4.65-3.39 3.39-5.19 7.66-5.06 12.02 0.13 4.49 2.3 8.74 6.28 12.28 0.72 0.64 0.79 1.75 0.14 2.47-0.64 0.72-1.75 0.79-2.47 0.14-4.72-4.2-7.3-9.32-7.46-14.79-0.15-5.33 2.01-10.51 6.09-14.59 4.06-4.06 9.69-6.16 15.43-5.78 0.67 0.05 1.26 0.48 1.51 1.1 0.25 0.63 0.11 1.34-0.35 1.84-3.78 4.04-3.68 10.26 0.22 14.17 3.91 3.91 10.13 4.01 14.17 0.22 0.49-0.46 1.21-0.6 1.84-0.35s1.06 0.83 1.1 1.51c0.39 5.74-1.72 11.37-5.78 15.43-0.45 0.45-0.93 0.89-1.42 1.29-0.31 0.27-0.71 0.4-1.1 0.4z"/>
	
	
		<path class="st1" d="m1202.8 1065.8c-0.14 0-0.29-0.03-0.43-0.1-0.5-0.24-0.71-0.83-0.48-1.33 0.45-0.96-0.81-2.88-3.18-4-0.5-0.24-0.71-0.83-0.48-1.33 0.24-0.5 0.83-0.71 1.33-0.48 3.34 1.57 5.16 4.5 4.14 6.66-0.16 0.37-0.52 0.58-0.9 0.58z"/>
	
	
		<path class="st1" d="m1212.9 1074.3c-0.38 0-0.73-0.21-0.9-0.57-0.55-1.18-1.36-2.18-2.21-2.77-0.69-0.47-1.34-0.63-1.79-0.42-0.5 0.24-1.1 0.02-1.33-0.48-0.24-0.5-0.02-1.1 0.48-1.33 1.12-0.53 2.46-0.32 3.77 0.58 1.15 0.79 2.17 2.06 2.88 3.56 0.24 0.5 0.02 1.1-0.48 1.33-0.13 0.07-0.28 0.1-0.42 0.1z"/>
	
	<path class="st1" d="m1201 1071.4c1.09-1.09 4.15 1.6 4.91 0.57s0-1.98-1.75-3.73-2.69-2.5-3.73-1.75c-1.04 0.76 1.65 3.82 0.57 4.91z"/>
	
		<path class="st1" d="m1109.4 1153.8c-4.68 0-9.28-2.1-13.34-6.18-9.63-9.66-15.28-30.09-7.44-50.43 12.85-33.34 41.05-33.34 50.31-33.34 5.92 0 13.5 2 21.52 4.13 11.59 3.07 24.72 6.54 30.1 2.31 0.76-0.59 1.86-0.46 2.46 0.3s0.46 1.86-0.3 2.46c-6.75 5.3-20.18 1.75-33.15-1.68-7.79-2.06-15.15-4.01-20.62-4.01-15.05 0-36.3 3.22-47.05 31.1-7.23 18.75-1.97 38.05 6.65 46.7 4.74 4.76 10.26 6.27 15.54 4.26 1.94-0.74 3.12-1.77 3.61-3.14 1.44-4.04-2.72-11.32-6.75-18.37-3.36-5.87-6.82-11.94-8.06-17.48-1.46-6.56-0.35-11.96 3.12-15.21 2.99-2.8 7.48-3.6 12.3-2.19 8.78 2.57 10.85 17.89 12.36 29.07 0.26 1.94 0.51 3.77 0.77 5.33 1.49 9.04 7.68 14.74 11.32 14.77-0.42-0.52-1.07-1.17-1.7-1.68-0.62-0.5-0.83-1.34-0.51-2.07s1.09-1.14 1.86-1.03c1.06 0.16 1.74 0.13 2.14 0.07-0.1-0.08-0.24-0.18-0.4-0.27-0.54-0.32-0.87-0.89-0.87-1.52s0.34-1.2 0.88-1.51c1.28-0.73 1.52-1.34 1.51-1.46-0.03-0.04-0.25-0.18-0.68-0.17-0.87 0.05-2.18-0.19-3.55-1.5-2.75-2.63-4.26-8.28-4.26-15.92 0-0.97 0.78-1.75 1.75-1.75s1.75 0.78 1.75 1.75c0 9.59 2.44 12.67 3.18 13.39 0.36 0.34 0.72 0.53 0.98 0.53 2.02-0.1 3.71 1 4.2 2.7 0.17 0.58 0.46 2.31-1.29 4.07 0.62 0.91 0.81 1.93 0.47 2.88-0.19 0.55-0.74 1.51-2.23 2 0.57 0.92 0.87 1.92 0.57 2.87-0.27 0.86-1.05 1.91-3.3 2.08-5.78 0.44-13.55-7.05-15.3-17.68-0.26-1.61-0.52-3.46-0.78-5.43-1.3-9.66-3.28-24.25-9.87-26.18-3.66-1.07-6.83-0.58-8.93 1.38-2.53 2.37-3.27 6.59-2.09 11.89 1.12 5.03 4.45 10.86 7.68 16.5 4.63 8.09 8.99 15.73 7.01 21.28-0.84 2.36-2.75 4.12-5.66 5.23-1.96 0.78-3.94 1.15-5.91 1.15z"/>
	
	
		<path class="st1" d="m1240.8 1087.8c-0.55 0-1-0.45-1-1 0-0.7-0.27-3.03-3.82-3.56-0.55-0.08-0.92-0.59-0.84-1.14s0.59-0.92 1.14-0.84c4.07 0.61 5.52 3.37 5.52 5.54 0 0.55-0.45 1-1 1z"/>
	
	
		<path class="st1" d="m1104.7 1148c-4.83 0-9.4-1.97-12.8-5.58-0.66-0.7-0.63-1.81 0.08-2.47 0.7-0.66 1.81-0.63 2.47 0.08 3.2 3.4 7.68 4.99 12.28 4.34 4.36-0.61 8.1-3.16 9.99-6.81 0.44-0.86 1.5-1.19 2.36-0.75s1.19 1.5 0.75 2.36c-2.41 4.66-7.13 7.91-12.61 8.67-0.85 0.1-1.69 0.16-2.52 0.16z"/>
	
	
		<path class="st1" d="m1103.8 1140.1c-4.19 0-10.42-1.49-16.6-8.46-0.64-0.72-0.58-1.83 0.15-2.47 0.72-0.64 1.83-0.58 2.47 0.15 5.33 6 10.53 7.28 13.99 7.28h0.12c3.97-0.03 7.77-1.81 10.41-4.89 0.63-0.73 1.73-0.82 2.47-0.19s0.82 1.74 0.19 2.47c-3.3 3.84-8.05 6.07-13.03 6.11h-0.17z"/>
	
	
		<path class="st1" d="m1104.5 1132c-3.05 0-6.08-0.71-8.97-2.15-5.4-2.68-9.74-7.66-10.56-12.12-0.17-0.95 0.46-1.86 1.41-2.04s1.86 0.46 2.04 1.41c0.52 2.83 3.73 7.16 8.67 9.61 3.44 1.71 8.87 3.07 15.17-0.14 0.86-0.44 1.92-0.1 2.35 0.77 0.44 0.86 0.1 1.92-0.77 2.35-3.01 1.54-6.18 2.31-9.34 2.31z"/>
	
	
		<path class="st1" d="m1131.8 1087.3c-0.79 0-1.51-0.54-1.7-1.34-1.18-4.93-4.4-8.92-8.84-10.96-3.88-1.79-8.2-1.83-11.56-0.12-0.86 0.44-1.92 0.1-2.35-0.76-0.44-0.86-0.1-1.92 0.76-2.35 4.3-2.19 9.77-2.17 14.61 0.06 5.41 2.49 9.34 7.35 10.78 13.33 0.23 0.94-0.35 1.88-1.29 2.11-0.14 0.02-0.28 0.03-0.41 0.03z"/>
	
	
		<path class="st1" d="m1142.4 1087.3c-0.74 0-1.42-0.47-1.66-1.2-3.1-9.45-10.92-18.04-21.39-15.92-0.95 0.2-1.87-0.42-2.06-1.37s0.42-1.87 1.37-2.06c12.58-2.55 21.82 7.33 25.41 18.26 0.3 0.92-0.2 1.91-1.12 2.21-0.18 0.05-0.36 0.08-0.55 0.08z"/>
	
	
		<path class="st1" d="m1150.7 1082.1c-0.73 0-1.41-0.46-1.66-1.19-1.9-5.6-8.9-14.06-19.61-12.93-0.96 0.11-1.82-0.59-1.92-1.56-0.1-0.96 0.6-1.82 1.56-1.92 12.75-1.34 21.05 8.66 23.3 15.29 0.31 0.92-0.18 1.91-1.1 2.22-0.2 0.06-0.39 0.09-0.57 0.09z"/>
	
	
		<path class="st2" d="m1733.4 1157.5c-0.97 0-1.75-0.78-1.75-1.75v-49.06c0-10-8.13-18.13-18.13-18.13h-51.17c-0.97 0-1.75-0.78-1.75-1.75s0.78-1.75 1.75-1.75h51.17c11.93 0 21.63 9.71 21.63 21.63v49.06c0 0.97-0.79 1.75-1.75 1.75z"/>
	
	
		<path class="st2" d="m1549.5 1088.5h-299.81c-0.97 0-1.75-0.78-1.75-1.75s0.78-1.75 1.75-1.75h299.81c0.97 0 1.75 0.78 1.75 1.75s-0.78 1.75-1.75 1.75z"/>
	
	
		<path class="st2" d="m1138.9 1157.4c-0.97 0-1.75-0.78-1.75-1.75v-12c0-0.97 0.78-1.75 1.75-1.75s1.75 0.78 1.75 1.75v12c0 0.96-0.79 1.75-1.75 1.75z"/>
	
	
		
			<path class="st2" d="m1180 1346.4h-82.17c-0.97 0-1.75-0.78-1.75-1.75v-147.89c0-23.62 19.22-42.83 42.84-42.83s42.84 19.21 42.84 42.83v147.89c-0.01 0.97-0.79 1.75-1.76 1.75zm-80.42-3.5h78.67v-146.14c0-21.69-17.65-39.33-39.34-39.33s-39.34 17.64-39.34 39.33v146.14z"/>
		
		
			<path class="st2" d="m1156.4 1346.3h-35.04c-0.97 0-1.75-0.78-1.75-1.75v-147.78c0-0.97 0.78-1.75 1.75-1.75s1.75 0.78 1.75 1.75c0 8.69 7.07 15.76 15.77 15.76 8.69 0 15.77-7.07 15.77-15.76 0-0.97 0.78-1.75 1.75-1.75s1.75 0.78 1.75 1.75v147.78c0 0.96-0.78 1.75-1.75 1.75zm-33.28-3.5h31.54v-134.97c-3.49 4.96-9.26 8.2-15.77 8.2s-12.28-3.25-15.77-8.2z"/>
		
		
			<path class="st2" d="m1138.9 1216.1c-10.62 0-19.27-8.64-19.27-19.26s8.64-19.26 19.27-19.26c10.62 0 19.27 8.64 19.27 19.26s-8.64 19.26-19.27 19.26zm0-35.02c-8.7 0-15.77 7.07-15.77 15.76s7.07 15.76 15.77 15.76c8.69 0 15.77-7.07 15.77-15.76s-7.07-15.76-15.77-15.76z"/>
		
	
	
		
			<path class="st2" d="m1774.4 1346.4h-82.17c-0.97 0-1.75-0.78-1.75-1.75v-147.89c0-23.62 19.22-42.83 42.84-42.83s42.84 19.21 42.84 42.83v147.89c-0.01 0.97-0.79 1.75-1.76 1.75zm-80.42-3.5h78.67v-146.14c0-21.69-17.65-39.33-39.34-39.33s-39.34 17.64-39.34 39.33v146.14z"/>
		
		
			<path class="st2" d="m1750.9 1346.3h-35.04c-0.97 0-1.75-0.78-1.75-1.75v-147.78c0-0.97 0.78-1.75 1.75-1.75s1.75 0.78 1.75 1.75c0 8.69 7.07 15.76 15.77 15.76s15.77-7.07 15.77-15.76c0-0.97 0.78-1.75 1.75-1.75s1.75 0.78 1.75 1.75v147.78c0 0.96-0.79 1.75-1.75 1.75zm-33.29-3.5h31.54v-134.97c-3.49 4.96-9.26 8.2-15.77 8.2s-12.28-3.25-15.77-8.2z"/>
		
		
			<path class="st2" d="m1733.4 1216.1c-10.62 0-19.27-8.64-19.27-19.26s8.64-19.26 19.27-19.26 19.27 8.64 19.27 19.26-8.65 19.26-19.27 19.26zm0-35.02c-8.69 0-15.77 7.07-15.77 15.76s7.07 15.76 15.77 15.76 15.77-7.07 15.77-15.76-7.08-15.76-15.77-15.76z"/>
		
	
	
		<path class="st2" d="m1188 1137.6c-0.45 0-0.9-0.17-1.24-0.51l-42.4-42.4c-0.68-0.68-0.68-1.79 0-2.47s1.79-0.68 2.47 0l42.4 42.4c0.68 0.68 0.68 1.79 0 2.47-0.33 0.34-0.78 0.51-1.23 0.51z"/>
	
	
		<path class="st2" d="m1199.6 1137.6c-0.45 0-0.9-0.17-1.24-0.51-0.68-0.68-0.68-1.79 0-2.47l49.1-49.1c0.68-0.68 1.79-0.68 2.47 0s0.68 1.79 0 2.47l-49.1 49.1c-0.33 0.34-0.78 0.51-1.23 0.51z"/>
	
	
		<path class="st2" d="m1167.8 1169.4c-0.45 0-0.9-0.17-1.24-0.51-0.68-0.68-0.68-1.79 0-2.47l20.19-20.19c0.68-0.68 1.79-0.68 2.47 0s0.68 1.79 0 2.47l-20.19 20.19c-0.34 0.34-0.79 0.51-1.23 0.51z"/>
	
	
		<path class="st2" d="m1221.9 1171.5c-0.45 0-0.9-0.17-1.24-0.51l-22.34-22.34c-0.68-0.68-0.68-1.79 0-2.47s1.79-0.68 2.47 0l22.34 22.34c0.68 0.68 0.68 1.79 0 2.47-0.33 0.34-0.78 0.51-1.23 0.51z"/>
	
	
		<path class="st2" d="m1193.8 1151.1c-5.23 0-9.48-4.25-9.48-9.48s4.25-9.48 9.48-9.48c5.22 0 9.48 4.25 9.48 9.48s-4.25 9.48-9.48 9.48zm0-15.45c-3.29 0-5.98 2.68-5.98 5.98s2.68 5.98 5.98 5.98 5.98-2.68 5.98-5.98-2.68-5.98-5.98-5.98z"/>
	
	
		<path class="st2" d="m1320.8 1137.6c-0.45 0-0.9-0.17-1.24-0.51-0.68-0.68-0.68-1.79 0-2.47l49.1-49.1c0.68-0.68 1.79-0.68 2.47 0s0.68 1.79 0 2.47l-49.1 49.1c-0.34 0.34-0.78 0.51-1.23 0.51z"/>
	
	
		<path class="st2" d="m1309.2 1137.6c-0.45 0-0.9-0.17-1.24-0.51l-49.1-49.1c-0.68-0.68-0.68-1.79 0-2.47s1.79-0.68 2.47 0l49.1 49.1c0.68 0.68 0.68 1.79 0 2.47-0.34 0.34-0.78 0.51-1.23 0.51z"/>
	
	
		<path class="st2" d="m1348.8 1177.2c-0.45 0-0.9-0.17-1.24-0.51l-28.04-28.04c-0.68-0.68-0.68-1.79 0-2.47s1.79-0.68 2.47 0l28.04 28.04c0.68 0.68 0.68 1.79 0 2.47-0.33 0.34-0.78 0.51-1.23 0.51z"/>
	
	
		<path class="st2" d="m1268.9 1189.4c-0.45 0-0.9-0.17-1.24-0.51-0.68-0.68-0.68-1.79 0-2.47l40.26-40.26c0.68-0.68 1.79-0.68 2.47 0s0.68 1.79 0 2.47l-40.26 40.26c-0.33 0.34-0.78 0.51-1.23 0.51z"/>
	
	
		<path class="st2" d="m1315 1151.1c-5.22 0-9.48-4.25-9.48-9.48s4.25-9.48 9.48-9.48 9.48 4.25 9.48 9.48-4.26 9.48-9.48 9.48zm0-15.45c-3.29 0-5.98 2.68-5.98 5.98s2.68 5.98 5.98 5.98 5.98-2.68 5.98-5.98-2.69-5.98-5.98-5.98z"/>
	
	
		<path class="st2" d="m1441.9 1137.6c-0.45 0-0.9-0.17-1.24-0.51-0.68-0.68-0.68-1.79 0-2.47l49.1-49.1c0.68-0.68 1.79-0.68 2.47 0s0.68 1.79 0 2.47l-49.1 49.1c-0.33 0.34-0.78 0.51-1.23 0.51z"/>
	
	
		<path class="st2" d="m1430.4 1137.6c-0.45 0-0.9-0.17-1.24-0.51l-49.1-49.1c-0.68-0.68-0.68-1.79 0-2.47s1.79-0.68 2.47 0l49.1 49.1c0.68 0.68 0.68 1.79 0 2.47-0.33 0.34-0.78 0.51-1.23 0.51z"/>
	
	
		<path class="st2" d="m1464.9 1172.2c-0.45 0-0.9-0.17-1.24-0.51l-23.01-23.01c-0.68-0.68-0.68-1.79 0-2.47s1.79-0.68 2.47 0l23.01 23.01c0.68 0.68 0.68 1.79 0 2.47-0.33 0.33-0.78 0.51-1.23 0.51z"/>
	
	
		<path class="st2" d="m1436.1 1151.1c-5.22 0-9.48-4.25-9.48-9.48s4.25-9.48 9.48-9.48 9.48 4.25 9.48 9.48-4.25 9.48-9.48 9.48zm0-15.45c-3.29 0-5.98 2.68-5.98 5.98s2.68 5.98 5.98 5.98 5.98-2.68 5.98-5.98-2.68-5.98-5.98-5.98z"/>
	
	
		<path class="st2" d="m1551.5 1137.6c-0.45 0-0.9-0.17-1.24-0.51l-49.1-49.1c-0.68-0.68-0.68-1.79 0-2.47s1.79-0.68 2.47 0l49.1 49.1c0.68 0.68 0.68 1.79 0 2.47-0.34 0.34-0.79 0.51-1.23 0.51z"/>
	
	
		<path class="st2" d="m1502.4 1198.3c-0.45 0-0.9-0.17-1.24-0.51-0.68-0.68-0.68-1.79 0-2.47l49.1-49.1c0.68-0.68 1.79-0.68 2.47 0s0.68 1.79 0 2.47l-49.1 49.1c-0.34 0.34-0.79 0.51-1.23 0.51z"/>
	
	
		<path class="st2" d="m1557.3 1151.1c-5.22 0-9.48-4.25-9.48-9.48s4.25-9.48 9.48-9.48 9.48 4.25 9.48 9.48-4.26 9.48-9.48 9.48zm0-15.45c-3.29 0-5.98 2.68-5.98 5.98s2.68 5.98 5.98 5.98 5.98-2.68 5.98-5.98-2.69-5.98-5.98-5.98z"/>
	
	
		<path class="st2" d="m1692.3 1334.8h-512.28c-0.97 0-1.75-0.78-1.75-1.75s0.78-1.75 1.75-1.75h512.28c0.97 0 1.75 0.78 1.75 1.75s-0.78 1.75-1.75 1.75z"/>
	
	
		<path class="st2" d="m1692.3 1256.6h-156.14c-0.97 0-1.75-0.78-1.75-1.75s0.78-1.75 1.75-1.75h156.14c0.97 0 1.75 0.78 1.75 1.75s-0.78 1.75-1.75 1.75z"/>
	
	
		<path class="st2" d="m1503.1 1256.6h-323.11c-0.97 0-1.75-0.78-1.75-1.75s0.78-1.75 1.75-1.75h323.11c0.97 0 1.75 0.78 1.75 1.75s-0.78 1.75-1.75 1.75z"/>
	
	
		<path class="st2" d="m1436.1 1256.6c-0.97 0-1.75-0.78-1.75-1.75 0-6.08-4.94-11.02-11.02-11.02h-62.62c-0.97 0-1.75-0.78-1.75-1.75s0.78-1.75 1.75-1.75h62.62c8.01 0 14.52 6.51 14.52 14.52 0 0.97-0.78 1.75-1.75 1.75z"/>
	
	
		<path class="st2" d="m1230.9 1243.9h-50.9c-0.97 0-1.75-0.78-1.75-1.75s0.78-1.75 1.75-1.75h50.9c0.97 0 1.75 0.78 1.75 1.75s-0.79 1.75-1.75 1.75z"/>
	
	
		<path class="st2" d="m1436.1 1256.6c-0.97 0-1.75-0.78-1.75-1.75 0-4.42 1.98-8.54 5.42-11.31 0.76-0.61 1.86-0.49 2.46 0.27 0.61 0.75 0.49 1.85-0.27 2.46-2.62 2.1-4.12 5.23-4.12 8.59 0.01 0.96-0.77 1.74-1.74 1.74z"/>
	
	
		<path class="st2" d="m1589.2 1256.6h-1.32c-0.97 0-1.75-0.78-1.75-1.75 0-0.85 0.61-1.56 1.42-1.72 0.85-7.2 6.99-12.8 14.42-12.8h90.34c0.97 0 1.75 0.78 1.75 1.75s-0.78 1.75-1.75 1.75h-90.34c-6.08 0-11.02 4.94-11.02 11.02 0 0.97-0.78 1.75-1.75 1.75z"/>
	
	
		<path class="st2" d="m1436.1 1334.8c-0.97 0-1.75-0.78-1.75-1.75v-78.2c0-0.97 0.78-1.75 1.75-1.75s1.75 0.78 1.75 1.75v78.2c0 0.96-0.78 1.75-1.75 1.75z"/>
	
	
		<path class="st2" d="m1588.8 1334.8c-0.97 0-1.75-0.78-1.75-1.75v-78.2c0-0.97 0.78-1.75 1.75-1.75s1.75 0.78 1.75 1.75v78.2c0 0.96-0.79 1.75-1.75 1.75z"/>
	
	
		<path class="st2" d="m1284.4 1334.8c-0.97 0-1.75-0.78-1.75-1.75v-78.2c0-0.97 0.78-1.75 1.75-1.75s1.75 0.78 1.75 1.75v78.2c0 0.96-0.78 1.75-1.75 1.75z"/>
	
	
		<path class="st2" d="m1598 1184.1c-0.45 0-0.9-0.17-1.24-0.51l-15.48-15.48c-0.68-0.68-0.68-1.79 0-2.47s1.79-0.68 2.47 0l15.48 15.48c0.68 0.68 0.68 1.79 0 2.47-0.34 0.34-0.78 0.51-1.23 0.51z"/>
	
	
		
			<path class="st1" d="m1663.7 1144c-0.49 0-0.97-0.2-1.32-0.6-0.21-0.25-5.22-6.09-2.35-11.26 0.47-0.84 1.53-1.15 2.38-0.68s1.15 1.53 0.68 2.38c-1.65 2.98 1.9 7.23 1.94 7.27 0.63 0.73 0.55 1.84-0.18 2.47-0.33 0.28-0.74 0.42-1.15 0.42z"/>
		
		
			<path class="st1" d="m1663.7 1169.6c-9.55 0-17.86-1.58-20.47-7.03-5-10.45 9.8-25.45 23.55-36.47-0.58-2.08-0.89-4.46-0.83-7.21 0.29-12.94 6.86-18.5 12.4-19.34 2.14-0.32 4.14 0.02 5.66 0.88 1.64-4.46 5.17-6.6 8.11-7.08 3.76-0.61 7.19 1.11 8.72 4.38 2.17 4.64 2.5 9.48 2.42 12.6 5.18-2.29 11.47-2.84 15.42 0.87 1.59 1.5 2.42 3.92 2.29 6.65-0.16 3.19-1.55 6.46-3.94 9.44 1.81 0.23 3.58 0.99 5.15 2.26 3.97 3.22 6.7 9.96 3.84 17.77-6.26 17.07-23.48 18.75-32.73 19.65-1.69 0.16-3.76 0.42-6.15 0.71-7.02 0.86-15.65 1.92-23.44 1.92zm4.41-40.08c-16.64 13.52-24.74 25.24-21.72 31.54 1.8 3.77 8.53 4.97 16.42 5.02 3.48-0.18 5.41-1.28 6.98-6.96 0.13-0.47 0.45-0.86 0.88-1.08s0.93-0.26 1.39-0.1c3.64 1.28 6.1 0.38 6.93-1.09 0.68-1.2 0.18-2.7-1.29-3.91-0.57-0.47-0.78-1.24-0.54-1.93s0.89-1.16 1.62-1.17c7.86-0.13 11.4-1.97 12.04-3.51 0.44-1.05-0.48-2.25-1.06-2.87-0.81-0.85-3.04-1.64-5.41-2.48-5.35-1.89-12.65-4.47-16.24-11.46zm4.53 32.22c-0.57 1.65-1.22 3-2.01 4.09 5.82-0.37 11.61-1.08 16.07-1.62 2.41-0.29 4.5-0.55 6.23-0.72 11.75-1.14 24.71-3.52 29.79-17.37 2.27-6.19 0.25-11.41-2.75-13.85-2.34-1.89-5.1-2.09-7.56-0.54-0.79 0.5-1.83 0.29-2.37-0.48-0.53-0.77-0.37-1.82 0.37-2.39 6.1-4.69 6.97-9.39 7.06-11.19 0.08-1.68-0.36-3.15-1.19-3.93-3.2-3.01-9.65-1.68-14.1 1.1-0.58 0.37-1.33 0.35-1.9-0.03s-0.87-1.07-0.75-1.75c0.01-0.07 1.19-7.35-1.86-13.85-1.04-2.21-3.26-2.69-4.99-2.42-2.51 0.41-5.41 2.57-5.99 7.43-0.1 0.81-0.75 1.45-1.56 1.53-0.83 0.08-1.58-0.41-1.84-1.19-0.41-1.22-2.31-1.9-4.42-1.58-4.39 0.66-9.18 5.2-9.42 15.96-0.06 2.75 0.3 5.06 0.98 7.02 0.04 0.09 0.07 0.17 0.09 0.26 2.58 7.04 9.33 9.43 15 11.44 3.02 1.07 5.4 1.91 6.79 3.37 2.03 2.14 2.65 4.49 1.75 6.63-0.92 2.2-3.76 4.79-11.82 5.49 0.8 1.77 0.76 3.69-0.2 5.4-1.39 2.46-4.75 4.22-9.4 3.19z"/>
		
		
			<path class="st1" d="m1644.8 1178.3c-0.71 0-1.38-0.44-1.64-1.15-0.33-0.91 0.14-1.91 1.04-2.24-0.01 0 2.77-1.34 6.27-8.62 0.42-0.87 1.46-1.23 2.34-0.82 0.87 0.42 1.24 1.46 0.82 2.34-4.1 8.53-7.57 10.15-8.22 10.39-0.2 0.07-0.41 0.1-0.61 0.1z"/>
		
		
			<path class="st1" d="m1576.5 1122.4c-0.74 0-1.42-0.47-1.66-1.21l-8.75-26.89c-0.25-0.78 0.07-1.63 0.77-2.05l18.12-10.79c0.46-0.27 1.01-0.32 1.51-0.13s0.88 0.59 1.05 1.1l6.6 20.28c0.3 0.92-0.2 1.91-1.12 2.21-0.93 0.3-1.91-0.21-2.21-1.12l-5.92-18.2-15.04 8.95 8.32 25.56c0.3 0.92-0.2 1.91-1.12 2.21-0.19 0.05-0.37 0.08-0.55 0.08z"/>
		
		
			<path class="st1" d="m1583.1 1142.7c-0.21 0-0.42-0.04-0.62-0.11-0.5-0.19-0.88-0.59-1.05-1.1l-2.83-8.69c-0.3-0.92 0.2-1.91 1.12-2.21 0.93-0.3 1.91 0.21 2.21 1.12l2.15 6.61 15.04-8.95-0.91-2.8c-0.3-0.92 0.2-1.91 1.12-2.21s1.91 0.21 2.21 1.12l1.34 4.13c0.25 0.78-0.07 1.63-0.77 2.04l-18.12 10.79c-0.26 0.17-0.57 0.26-0.89 0.26z"/>
		
		
			<path class="st1" d="m1596.5 1128.6c-0.65 0-1.27-0.12-1.86-0.37-2.85-1.18-4.06-4.94-5.46-9.29-2.23-6.92-1.68-12.27 1.61-15.9 1.4-1.54 2.83-2.17 4.26-1.85 2.25 0.49 3.83 3.03 5.81 9.36 4.01 12.78-0.1 16.5-0.58 16.89-0.09 0.07-0.19 0.13-0.29 0.19-1.27 0.64-2.43 0.97-3.49 0.97zm-3.12-23.2c-2.39 2.63-2.68 6.83-0.87 12.47 1.04 3.23 2.11 6.57 3.47 7.13 0.49 0.21 1.23 0.08 2.18-0.38 0.36-0.49 2.3-3.68-0.64-13.03-1.94-6.17-3.01-6.9-3.23-6.99 0.01 0.02-0.3 0.13-0.91 0.8z"/>
		
		
			<path class="st1" d="m1561.3 1244.1c-8.67 0-12.23-2.54-13.64-4.25-2.3-2.8-2.35-13.2-0.12-25.29 2.09-11.29 7.01-29.05 18.63-49.59 1.05-1.86 2.38-3.99 3.78-6.25 2.79-4.48 7.96-12.8 7.45-14.72-4.05-4.97-7.69-11.22-4.22-19.92 0.51-1.29 0.97-2.42 1.39-3.45 1.51-3.75 2.42-6.01 3.25-8.63 0.34-1.08 1.3-1.83 2.44-1.9 1.13-0.07 2.19 0.56 2.67 1.6 4.22 9.18 1.89 13.83 0.19 17.23-0.65 1.31-1.17 2.34-1.17 3.34 0 0.97-0.78 1.75-1.75 1.75s-1.75-0.78-1.75-1.75c0-1.83 0.78-3.39 1.54-4.9 1.41-2.82 2.99-5.98 0.53-12.4-0.71 2.02-1.53 4.05-2.7 6.97-0.41 1.02-0.87 2.16-1.38 3.44-2.64 6.63-0.42 11.38 3.73 16.47 2.38 2.91-1.2 9.01-7.23 18.72-1.38 2.23-2.69 4.33-3.71 6.13-20.95 37.04-21.26 68-18.86 70.93 1.21 1.47 9.1 8.14 45.85-4.76 24.53-8.61 46.06-24.15 52.35-37.8 1.79-3.89 2.15-7.3 1.05-10.14-1.42-3.67-3.46-5.96-6.24-7.02-4.51-1.72-11.27-0.21-20.66 4.61-9.69 4.97-23.89 16.06-34.26 24.16-9.67 7.55-12.93 10.01-14.51 10.24-0.77 0.11-1.5-0.16-2.03-0.72-1.94-2.11-0.69-9.3 4.04-29.85 0.49-2.11 0.95-4.13 1.37-5.98 3.22-14.35 7.15-26.96 8.96-32.14 0.91-2.6 2.54-4.53 4.12-6.39 2.14-2.52 4.15-4.9 4.32-8.94 0.04-0.96 0.83-1.76 1.82-1.68 0.97 0.04 1.72 0.85 1.68 1.82-0.21 5.24-2.84 8.33-5.15 11.06-1.44 1.69-2.79 3.29-3.49 5.28-1.79 5.11-5.67 17.55-8.85 31.75-0.42 1.86-0.88 3.89-1.37 6-1.89 8.2-4.91 21.33-4.88 25.72 2.3-1.49 7.12-5.26 11.82-8.92 10.48-8.18 24.83-19.39 34.82-24.51 10.46-5.37 17.93-6.89 23.5-4.77 3.71 1.41 6.49 4.45 8.26 9.03 1.45 3.76 1.07 8.09-1.13 12.87-6.65 14.44-29.01 30.74-54.37 39.63-17.19 6.01-28.57 7.92-36.09 7.92z"/>
		
		
			<path class="st1" d="m1512 1271.5c-0.21 0-0.43-0.01-0.64-0.04-1.25-0.18-2.36-0.9-3.28-2.14-5.83-7.84-10.71-21.57-6.96-36.58 3.25-12.99 13.51-27.97 17.99-30.13 1.1-0.53 1.93-0.38 2.43-0.15l0.42 0.2c2.12 1.01 6.54 3.11 29.07 2.23 1-0.02 1.78 0.72 1.82 1.68 0.04 0.97-0.71 1.78-1.68 1.82-23.33 0.91-28.12-1.34-30.69-2.55-2.75 1.44-12.73 14.82-15.96 27.76-3.46 13.83 1.03 26.44 6.38 33.64 0.52 0.7 0.85 0.74 0.96 0.76 1.21 0.18 3.74-1.76 6.69-3.99 8.21-6.22 21.94-16.62 49.01-19.24 48.77-4.73 71.46-11.9 85.69-44.08 9.45-21.36 19.28-34.06 27.67-35.75 0.95-0.19 1.87 0.42 2.06 1.37s-0.42 1.87-1.37 2.06c-2.64 0.53-12.25 4.54-25.17 33.74-14.95 33.79-38.35 41.28-88.56 46.15-26.08 2.53-39.32 12.56-47.23 18.55-3.68 2.77-6.22 4.69-8.65 4.69z"/>
		
		
			<path class="st1" d="m1574 1205.3c-0.76 0-1.46-0.5-1.68-1.27-0.26-0.93 0.28-1.9 1.21-2.16 11.29-3.2 21.14-8.79 30.68-14.19 9.31-5.27 18.1-10.25 27.73-12.86 0.93-0.25 1.89 0.3 2.15 1.23 0.25 0.93-0.3 1.89-1.23 2.15-9.21 2.49-17.81 7.36-26.92 12.52-9.71 5.5-19.75 11.19-31.45 14.51-0.17 0.05-0.33 0.07-0.49 0.07z"/>
		
		
			<path class="st1" d="m1502.4 1256.9h-36.67c-30.49 0-49.92-40.8-60.36-62.72-2.62-5.51-4.9-10.28-6.17-11.75-2.9 0.95-10.55 16.02-15.64 26.05-10.69 21.08-17.01 32.88-22.5 30.58-1.93-0.81-4.94-1.95-8.43-3.26-18.45-6.95-26.27-10.35-27-13.44-0.19-0.81 0.03-1.62 0.6-2.23 3.8-4.08 9.83-11.8 16.82-20.73 1.73-2.21 3.51-4.49 5.31-6.78 11.52-14.65 19.32-27.45 25.59-37.74 9.26-15.2 14.85-24.37 23.56-24.37 13.45 0 28.38 16.25 52.94 48.24 22.39 29.17 45.92 32.55 61.67 32.55 0.97 0 1.75 0.78 1.75 1.75s-0.78 1.75-1.75 1.75c-16.49 0-41.11-3.52-64.45-33.92-23.33-30.4-38.24-46.87-50.17-46.87-6.75 0-11.95 8.54-20.57 22.69-6.32 10.37-14.18 23.27-25.83 38.09-1.8 2.29-3.58 4.56-5.31 6.77-6.68 8.54-12.5 15.98-16.41 20.3 2.89 2.54 17.31 7.97 24.47 10.67 3.52 1.33 6.57 2.47 8.56 3.31 0.02 0.02 1.77 0.21 6.92-8.21 3.44-5.62 7.33-13.3 11.1-20.73 8.85-17.45 14.07-27.35 18.42-27.97 1.06-0.15 2.06 0.21 2.82 1.02 1.63 1.74 3.71 6.11 6.86 12.72 10.11 21.22 28.92 60.72 57.2 60.72h36.67c0.97 0 1.75 0.78 1.75 1.75s-0.78 1.76-1.75 1.76z"/>
		
		
			<path class="st1" d="m1358.9 1256.6h-56.44c-0.42 0-0.82-0.15-1.13-0.42-2.46-2.09-3.64-4.85-3.24-7.56 0.36-2.39 1.91-4.45 4.05-5.36 0.6-0.26 1.77-0.65 3.54-1.23 7.18-2.38 26.24-8.72 29.62-15.19 0.45-0.86 1.5-1.19 2.36-0.74s1.19 1.5 0.74 2.36c-3.55 6.81-17.97 12.36-31.62 16.89-1.57 0.52-2.8 0.93-3.27 1.13-1.02 0.44-1.79 1.48-1.97 2.67-0.2 1.35 0.36 2.73 1.59 3.95h55.01c1.89-2.67 0.38-11.04-1.42-16.48-0.3-0.92 0.2-1.91 1.11-2.21 0.92-0.31 1.91 0.2 2.21 1.11 0.89 2.69 5.08 16.34-0.01 20.67-0.31 0.27-0.72 0.41-1.13 0.41z"/>
		
		
			<path class="st1" d="m1261.5 1256.6h-30.59c-0.97 0-1.75-0.78-1.75-1.75v-58.18c0-0.42 0.15-0.82 0.42-1.13 2.01-2.37 4.62-3.45 7.34-3.04 2.57 0.39 4.86 2.1 5.83 4.37 0.26 0.6 0.65 1.77 1.24 3.54 2.39 7.18 8.72 26.24 15.19 29.61 0.86 0.45 1.19 1.5 0.74 2.36s-1.51 1.19-2.36 0.74c-6.81-3.55-12.36-17.97-16.89-31.61-0.52-1.57-0.93-2.81-1.13-3.27-0.49-1.14-1.78-2.08-3.13-2.29-1.33-0.2-2.61 0.28-3.73 1.39v55.74h28.84c0.97 0 1.75 0.78 1.75 1.75s-0.8 1.77-1.77 1.77z"/>
		
		
			<path class="st1" d="m1301.9 1256.6h-40.44c-0.61 0-1.17-0.31-1.49-0.83s-0.35-1.16-0.07-1.7c0.09-0.18 2.25-4.71-0.04-10.06-5.21-12.16-2.12-18.41 1.59-22.91 0.56-0.68 1.53-0.84 2.27-0.37 11.59 7.21 29.08 10.08 51.96 8.53l0.34-0.02c8.64-0.58 19.67-2.09 19.78-2.11 0.95-0.14 1.84 0.54 1.97 1.5s-0.54 1.84-1.5 1.97c-0.11 0.02-11.26 1.54-20.03 2.13l-0.34 0.02c-22.78 1.54-40.5-1.23-52.7-8.25-2.12 2.85-4.54 7.87-0.14 18.13 1.81 4.23 1.43 8.08 0.83 10.47h38c0.97 0 1.75 0.78 1.75 1.75s-0.78 1.75-1.74 1.75z"/>
		
		
			<path class="st1" d="m1373.7 1225.2c-0.81 0-1.54-0.57-1.71-1.39-0.2-0.95 0.41-1.87 1.35-2.07 20.43-4.29 44-8.42 44.23-8.46 0.96-0.17 1.86 0.47 2.03 1.42s-0.47 1.86-1.42 2.03c-0.24 0.04-23.75 4.16-44.12 8.44-0.12 0.02-0.24 0.03-0.36 0.03z"/>
		
		
			<path class="st1" d="m1590.5 1119.1c-0.38 0-0.77-0.12-1.09-0.38-0.75-0.6-0.88-1.7-0.28-2.46 3-3.76 6.25-8.87 6.27-10.56 0.01-0.96 0.79-1.73 1.75-1.73h0.02c0.97 0.01 1.74 0.8 1.73 1.77-0.04 3.76-5.87 11.25-7.04 12.71-0.33 0.42-0.84 0.65-1.36 0.65z"/>
		
		
			<path class="st1" d="m1593 1125.9c-0.45 0-0.9-0.17-1.25-0.52-0.68-0.69-0.67-1.8 0.02-2.47l0.27-0.26c5.95-5.7 6.12-8.57 5.92-9.53-0.2-0.95 0.4-1.87 1.35-2.07 0.94-0.21 1.87 0.4 2.07 1.35 0.73 3.44-1.53 7.63-6.92 12.79l-0.23 0.22c-0.34 0.32-0.79 0.49-1.23 0.49z"/>
		
		
			<path class="st1" d="m1622.2 1137.4c-1.66 0-2.74-0.67-3.34-1.22-1.82-1.65-2.18-4.62-0.96-7.94 2.31-6.29 10.03-13.71 24.41-15.54 3.49-7.25 5.85-15.62 6.06-24.02 0.07-2.8 0.08-5.58 0.05-8.33-0.71 0.44-1.43 0.86-2.15 1.28-12.09 6.96-31.96 14.6-57.93 11.48-0.96-0.12-1.64-0.99-1.53-1.95s0.98-1.65 1.95-1.53c23.74 2.86 44.54-3.66 59.59-13.43-0.11-4.65-0.3-9.15-0.48-13.35-0.83-19.46-1.48-34.84 6.8-41.29 7.99-6.23 13.46-4.14 16.01-2.34 6.86 4.83 9.03 18.29 4.95 30.64-3.29 9.96-11.98 20.21-23.74 28.24 0.06 3.49 0.07 7.07-0.02 10.67-0.2 8.25-2.3 16.38-5.5 23.58 0.29-0.01 0.58-0.03 0.87-0.04 7.94-0.27 15.06 0.86 21.16 3.36 0.89 0.37 1.32 1.39 0.96 2.28-0.37 0.89-1.39 1.32-2.28 0.96-5.64-2.31-12.28-3.36-19.72-3.1-0.94 0.03-1.85 0.09-2.73 0.17-5.01 9.69-11.93 17.24-18.49 20.4-1.58 0.75-2.88 1.02-3.94 1.02zm18.08-20.84c-11.99 2.25-17.61 8.82-19.1 12.88-0.78 2.14-0.55 3.62 0.03 4.15 0.57 0.52 1.84 0.38 3.4-0.37 5.39-2.59 11.16-8.72 15.67-16.66zm24.57-95.68c-2.87 0-5.79 1.7-8.03 3.45-6.86 5.35-6.24 19.93-5.45 38.38 0.15 3.53 0.31 7.27 0.42 11.13 10.58-7.66 17.81-16.88 20.52-25.08 3.5-10.6 1.84-22.82-3.64-26.68-1.23-0.85-2.52-1.2-3.82-1.2z"/>
		
		
			<path class="st1" d="m1619.4 1225.9c-0.14 0-0.29-0.02-0.44-0.06-0.94-0.24-1.5-1.19-1.26-2.13 1.3-5.06-1.33-12.25-6.4-17.48-4.59-4.74-10.18-6.79-15.34-5.64-0.93 0.21-1.88-0.38-2.09-1.33-0.21-0.94 0.38-1.88 1.33-2.09 6.37-1.42 13.16 0.99 18.62 6.62 5.96 6.16 8.89 14.51 7.27 20.79-0.2 0.8-0.92 1.32-1.69 1.32z"/>
		
	
	
		<path class="st1" d="m1138.9 1117c-0.97 0-1.75-0.78-1.75-1.75v-8.53c0-11.93 9.71-21.63 21.63-21.63h88.75c-1.88-4.09-10.46-5.6-18.54-5.6h-38.7c-0.97 0-1.75-0.78-1.75-1.75s0.78-1.75 1.75-1.75h38.7c6.74 0 22.42 1.06 22.42 10.85 0 0.97-0.78 1.75-1.75 1.75h-90.88c-10 0-18.13 8.13-18.13 18.13v8.53c0 0.97-0.79 1.75-1.75 1.75z"/>
	
</g>
</svg>
