<?xml version="1.0" encoding="utf-8"?>
<!-- Generator: Adobe Illustrator 25.2.0, SVG Export Plug-In . SVG Version: 6.00 Build 0)  -->
<svg version="1.1" id="Layer_1" xmlns="http://www.w3.org/2000/svg" xmlns:xlink="http://www.w3.org/1999/xlink" x="0px" y="0px"
	 viewBox="0 0 1700 1200" style="enable-background:new 0 0 1700 1200;" xml:space="preserve">
<style type="text/css">
	.st0{fill:#279813;}
	.st1{fill:#1A1A1A;}
	.st2{fill:#FFFFFF;}
	.st3{fill:url(#SVGID_1_);}
	.st4{fill:url(#SVGID_2_);}
	.st5{fill:url(#SVGID_3_);}
	.st6{fill:url(#SVGID_4_);}
	.st7{fill:#23222D;}
</style>
<g>
	<path class="st0" d="M726.86,494.1c-0.45,0-0.9-0.17-1.24-0.51c-0.68-0.68-0.68-1.79,0-2.47c15.41-15.41,15.41-40.49,0-55.9
		c-0.68-0.68-0.68-1.79,0-2.47c0.68-0.68,1.79-0.68,2.47,0c16.78,16.78,16.78,44.08,0,60.85
		C727.75,493.93,727.31,494.1,726.86,494.1z"/>
</g>
<g>
	<path class="st0" d="M743.07,510.31c-0.45,0-0.9-0.17-1.24-0.51c-0.68-0.68-0.68-1.79,0-2.47c24.35-24.35,24.35-63.98,0-88.34
		c-0.68-0.68-0.68-1.79,0-2.47c0.68-0.68,1.79-0.68,2.47,0c25.72,25.72,25.72,67.57,0,93.29
		C743.97,510.14,743.52,510.31,743.07,510.31z"/>
</g>
<g>
	<path class="st0" d="M759.29,526.53c-0.45,0-0.9-0.17-1.24-0.51c-0.68-0.68-0.68-1.79,0-2.47c16.13-16.13,25.01-37.57,25.01-60.38
		s-8.88-44.25-25.01-60.38c-0.68-0.68-0.68-1.79,0-2.47c0.68-0.68,1.79-0.68,2.47,0c16.79,16.79,26.04,39.11,26.04,62.86
		s-9.25,46.07-26.04,62.86C760.19,526.36,759.74,526.53,759.29,526.53z"/>
</g>
<path class="st0" d="M144.98,1108.14H47.87c-2.93,0-5.57-1.51-7.05-4.04c-1.48-2.53-1.51-5.57-0.07-8.13l123.27-218.99
	c0.82-1.46,0.81-3.2-0.04-4.64c-0.85-1.45-2.35-2.31-4.03-2.31h-26.83c-2.93,0-5.57-1.51-7.05-4.04s-1.51-5.57-0.07-8.13
	l62.38-110.83c0.82-1.46,0.81-3.2-0.04-4.64c-0.85-1.45-2.35-2.31-4.03-2.31h-10.7c-2.93,0-5.57-1.51-7.05-4.04
	c-1.48-2.53-1.51-5.57-0.07-8.13l41.48-73.68c1.47-2.61,4.13-4.16,7.12-4.16c2.99,0,5.65,1.55,7.12,4.16l41.47,73.69
	c1.44,2.56,1.41,5.59-0.07,8.13c-1.48,2.53-4.12,4.04-7.05,4.04h-10.7c-1.68,0-3.18,0.86-4.03,2.31c-0.85,1.45-0.86,3.18-0.04,4.64
	l21.2,37.66c0.47,0.84,0.18,1.91-0.67,2.38c-0.84,0.47-1.91,0.18-2.38-0.67l-21.2-37.66c-1.44-2.56-1.41-5.59,0.07-8.13
	c1.48-2.53,4.12-4.04,7.05-4.04h10.7c1.68,0,3.18-0.86,4.03-2.31c0.85-1.45,0.86-3.18,0.04-4.64l-41.47-73.69
	c-0.84-1.49-2.36-2.38-4.07-2.38c-1.71,0-3.23,0.89-4.07,2.38l-41.48,73.68c-0.82,1.46-0.81,3.2,0.04,4.64
	c0.85,1.45,2.35,2.31,4.03,2.31h10.7c2.93,0,5.57,1.51,7.05,4.04c1.48,2.53,1.51,5.57,0.07,8.13l-62.38,110.83
	c-0.82,1.46-0.81,3.2,0.04,4.64c0.85,1.45,2.35,2.31,4.03,2.31h26.83c2.93,0,5.57,1.51,7.05,4.04c1.48,2.53,1.51,5.57,0.07,8.13
	L43.8,1097.69c-0.82,1.46-0.81,3.2,0.04,4.64c0.85,1.45,2.35,2.31,4.03,2.31h97.11c0.97,0,1.75,0.78,1.75,1.75
	S145.95,1108.14,144.98,1108.14z"/>
<path class="st0" d="M215.1,759.14c-0.97,0-1.75-0.78-1.75-1.75V651.8c0-0.97,0.78-1.75,1.75-1.75s1.75,0.78,1.75,1.75v105.59
	C216.85,758.36,216.07,759.14,215.1,759.14z"/>
<path class="st0" d="M232.15,718.26c-0.61,0-1.21-0.32-1.53-0.89l-17.05-30.29c-0.47-0.84-0.18-1.91,0.67-2.38
	c0.84-0.47,1.91-0.18,2.38,0.67l17.05,30.29c0.47,0.84,0.18,1.91-0.67,2.38C232.73,718.19,232.44,718.26,232.15,718.26z"/>
<path class="st0" d="M229.45,672.4c-0.23,0-0.46-0.04-0.68-0.14c-0.89-0.38-1.3-1.41-0.92-2.3c5.36-12.59,19.64-21.37,39.44-24.34
	c-25.65-29.67-33.07-63.36-17.5-80.95c11.76-13.29,34.54-14.98,59.93-4.6c-3.15-26.53,4.47-47.27,19.39-52.09
	c11.76-3.8,26,3.15,38.1,18.59c0.6,0.76,0.46,1.86-0.3,2.46c-0.76,0.6-1.86,0.46-2.46-0.3c-11.15-14.24-23.96-20.75-34.26-17.42
	c-13.58,4.39-20.4,25.49-16.59,51.32c0.09,0.63-0.16,1.26-0.67,1.65c-0.51,0.38-1.19,0.46-1.77,0.21
	c-25.08-11.06-47.59-10.1-58.74,2.51c-14.8,16.72-6.53,49.85,19.67,78.76c0.44,0.49,0.57,1.18,0.34,1.79s-0.79,1.05-1.44,1.12
	c-20.21,2.31-34.76,10.58-39.91,22.67C230.78,672,230.13,672.4,229.45,672.4z"/>
<path class="st1" d="M1608.14,1108.48H274.64c-0.97,0-1.75-0.78-1.75-1.75s0.78-1.75,1.75-1.75h1333.5c0.97,0,1.75,0.78,1.75,1.75
	S1609.11,1108.48,1608.14,1108.48z"/>
<path class="st1" d="M313.51,1007.11c-40.96,0-70.38-5.44-99.53-33.23c-0.04-0.04-0.08-0.08-0.12-0.11
	c-2.89-2.76-5.83-5.8-8.71-9.03c-17.25-20.79-21.23-46.55-10.18-65.68c7.54-13.08,21.43-21.87,38.37-24.4
	c-1.91-3.07-3.69-6.28-5.32-9.6c-16.59-33.87-12.69-69.96,8.7-80.44c13.85-6.79,32.04-1.53,48.13,13.7
	c0.51-5.77,1.53-11.61,3.04-17.41c4.61-17.72,13.28-33.23,24.41-43.67c11.12-10.43,23.42-14.57,34.63-11.65
	c8.89,2.31,16.24,8.83,21.25,18.85c0.43,0.86,0.08,1.92-0.78,2.35c-0.87,0.43-1.92,0.08-2.35-0.78
	c-4.55-9.09-11.12-14.98-19.01-17.03c-10-2.61-21.14,1.23-31.35,10.82c-10.65,9.99-18.97,24.9-23.42,41.99
	c-1.78,6.87-2.86,13.78-3.2,20.54c-0.04,0.7-0.48,1.31-1.13,1.55c-0.65,0.25-1.39,0.08-1.87-0.42
	c-15.65-16.17-33.58-22.19-46.81-15.7c-19.66,9.63-22.84,43.61-7.1,75.75c1.98,4.03,4.2,7.92,6.6,11.55
	c0.34,0.51,0.38,1.16,0.12,1.71c-0.26,0.55-0.79,0.93-1.4,0.99c-17.07,1.83-31.1,10.22-38.49,23.03
	c-10.31,17.85-6.46,42.04,9.8,61.65c2.77,3.1,5.64,6.07,8.48,8.79c0.03,0.02,0.05,0.05,0.08,0.07
	c28.32,27.01,57.06,32.29,97.14,32.29c0.97,0,1.75,0.78,1.75,1.75S314.48,1007.11,313.51,1007.11z"/>
<path class="st0" d="M313.51,1007.11c-0.97,0-1.75-0.78-1.75-1.75s0.78-1.75,1.75-1.75c16.97,0,35.07-0.7,52.4-5.81
	c0.93-0.28,1.9,0.26,2.17,1.18c0.27,0.93-0.26,1.9-1.18,2.17C349.14,1006.39,330.75,1007.11,313.51,1007.11z"/>
<path class="st1" d="M215.1,974.28c-0.42,0-0.83-0.15-1.17-0.44c-3.17-2.83-6.14-5.91-8.82-9.14c-0.61-0.73-0.52-1.82,0.21-2.44
	c0.72-0.62,1.81-0.55,2.45,0.16c2.82,3.15,5.69,6.13,8.54,8.85c0.69,0.66,0.73,1.75,0.08,2.45
	C216.04,974.09,215.57,974.28,215.1,974.28z"/>
<path class="st1" d="M313.51,1108.14c-0.97,0-1.75-0.78-1.75-1.75v-101.03c0-0.97,0.78-1.75,1.75-1.75s1.75,0.78,1.75,1.75v101.03
	C315.26,1107.36,314.48,1108.14,313.51,1108.14z"/>
<path class="st0" d="M255.94,1108.14H144.98c-0.97,0-1.75-0.78-1.75-1.75s0.78-1.75,1.75-1.75h109.11
	c-0.65-10.31-3.32-21.64-7.74-32.89c-11.6-29.49-32.68-49.97-46.03-44.72c-6.1,2.4-8.79,9.3-9.98,14.67
	c-0.14,0.62-0.59,1.11-1.2,1.3c-0.6,0.18-1.26,0.03-1.72-0.4c-23.64-22.44-51.65-30.16-65.15-17.95
	c-8.91,8.06-10.08,23.61-3.11,41.59c0.27,0.69,0.07,1.47-0.49,1.96c-0.56,0.49-1.36,0.56-2.01,0.2
	c-11.37-6.48-20.75-7.07-25.73-1.64c-4.39,4.8-4.15,13.54,0.56,20.33c0.55,0.79,0.35,1.88-0.44,2.44c-0.79,0.55-1.88,0.35-2.44-0.44
	c-5.71-8.23-5.82-18.62-0.26-24.68c2.7-2.95,10.4-8.55,26.03-1.14c-5.73-17.6-3.75-32.8,5.54-41.2
	c14.45-13.06,43.21-6.13,67.74,16.01c2.18-7.28,6.07-12.19,11.36-14.28c15.64-6.15,37.85,14.37,50.57,46.69
	c4.83,12.28,7.62,24.68,8.08,35.85c0.02,0.48-0.16,0.94-0.49,1.28C256.87,1107.94,256.41,1108.14,255.94,1108.14z"/>
<path class="st1" d="M313.51,1007.11c-0.97,0-1.75-0.78-1.75-1.75V796.33c0-0.97,0.78-1.75,1.75-1.75s1.75,0.78,1.75,1.75v209.02
	C315.26,1006.32,314.48,1007.11,313.51,1007.11z"/>
<path class="st1" d="M313.51,1007.11c-0.45,0-0.9-0.17-1.24-0.51l-80.13-80.13c-0.68-0.68-0.68-1.79,0-2.47s1.79-0.68,2.47,0
	l80.13,80.13c0.68,0.68,0.68,1.79,0,2.47C314.41,1006.94,313.96,1007.11,313.51,1007.11z"/>
<path class="st1" d="M313.51,949.98c-0.45,0-0.9-0.17-1.24-0.51c-0.68-0.68-0.68-1.79,0-2.47l26.65-26.65
	c0.68-0.68,1.79-0.68,2.47,0s0.68,1.79,0,2.47l-26.65,26.65C314.41,949.8,313.96,949.98,313.51,949.98z"/>
<path class="st1" d="M313.51,886.57c-0.27,0-0.54-0.06-0.79-0.19c-0.86-0.44-1.2-1.49-0.76-2.35l52.9-103.82
	c0.44-0.86,1.49-1.2,2.35-0.76c0.86,0.44,1.2,1.49,0.76,2.35l-52.9,103.82C314.76,886.22,314.15,886.57,313.51,886.57z"/>
<g>
	<path class="st0" d="M366.63,681.67c-0.44,0-0.89-0.17-1.23-0.51l-66.45-65.76c-0.69-0.68-0.69-1.79-0.01-2.47
		c0.68-0.69,1.79-0.69,2.47-0.01l66.45,65.76c0.69,0.68,0.69,1.79,0.01,2.47C367.54,681.5,367.08,681.67,366.63,681.67z"/>
</g>
<g>
	<path class="st0" d="M366.64,681.67c-0.02,0-0.05,0-0.07,0l-52.94-2.16c-0.97-0.04-1.72-0.85-1.68-1.82s0.86-1.72,1.82-1.68
		l52.94,2.16c0.97,0.04,1.72,0.85,1.68,1.82C368.34,680.94,367.57,681.67,366.64,681.67z"/>
</g>
<g>
	<path class="st0" d="M328.37,643.81c-0.07,0-0.14,0-0.21-0.01l-17.85-2.18c-0.96-0.12-1.64-0.99-1.53-1.95
		c0.12-0.96,0.99-1.64,1.95-1.53l17.85,2.18c0.96,0.12,1.64,0.99,1.53,1.95C330,643.16,329.24,643.81,328.37,643.81z"/>
</g>
<g>
	<path class="st0" d="M366.63,681.67c-0.7,0-1.36-0.42-1.63-1.11l-24.01-61.61c-0.35-0.9,0.09-1.92,1-2.27
		c0.9-0.35,1.92,0.09,2.27,1l24.01,61.61c0.35,0.9-0.09,1.92-1,2.27C367.06,681.63,366.85,681.67,366.63,681.67z"/>
</g>
<path class="st0" d="M202.1,1089.81c-0.08,0-0.16,0-0.25,0c-2.65-0.1-5.06-1.4-7.16-3.86c-7.18-8.43-9.64-29.84-7.8-44.84
	c0.08-0.67,0.54-1.23,1.19-1.45c0.64-0.21,1.35-0.04,1.82,0.45c17.07,17.84,22.13,36.7,18.23,45.4
	C206.89,1088.26,204.7,1089.81,202.1,1089.81z M190.01,1045.4c-0.95,13.91,1.55,31.47,7.35,38.28c1.45,1.71,2.97,2.57,4.63,2.63
	c0.47,0.02,1.91,0.07,2.95-2.24C207.72,1077.87,204.74,1062.13,190.01,1045.4z"/>
<path class="st1" d="M281.1,913.53c-11.21,0-30.37-10.96-46.28-36.57c-0.33-0.53-0.35-1.18-0.07-1.73c0.29-0.55,0.84-0.91,1.46-0.94
	c26.66-1.47,49.17,19.1,52.54,30.78c1.36,4.73-0.93,6.6-1.99,7.18C285.25,913.1,283.34,913.53,281.1,913.53z M239.46,877.72
	c18.18,27.73,38.86,35.23,45.61,31.47c0.92-0.51,0.6-2.2,0.32-3.15C282.94,897.55,264.09,877.99,239.46,877.72z"/>
<g>
	<path class="st0" d="M1531.82,1108.47h-65.19c-0.97,0-1.75-0.78-1.75-1.75V777.75c0-0.23,0.05-0.46,0.13-0.67
		c14.57-35.03,32.24-54.61,46.07-51.09c19,4.81,22.95,51.74,9,106.83c-2.03,8-4.35,15.83-6.93,23.33
		c13.74-8.02,27.15-9.58,38.18-4.31c24.29,11.61,28.58,53.44,9.56,93.25c-3.28,6.87-7.08,13.34-11.34,19.31
		c24.36-5.83,45.36-1.39,56.82,12.23c21.1,25.08,4.75,73.7-36.46,108.38c-11.74,9.88-24.33,17.74-37.41,23.34
		C1532.29,1108.43,1532.05,1108.47,1531.82,1108.47z M1468.38,1104.97h63.08c12.65-5.46,24.83-13.08,36.21-22.66l0,0
		c39.73-33.44,55.9-79.84,36.04-103.45c-11.3-13.44-33.01-17.11-58.07-9.83c-0.73,0.21-1.51-0.07-1.94-0.7
		c-0.43-0.63-0.4-1.46,0.07-2.06c5.35-6.85,10.05-14.49,13.97-22.72c18.18-38.07,14.63-77.81-7.91-88.58
		c-11.01-5.26-24.87-2.85-39.03,6.78c-0.63,0.43-1.46,0.4-2.06-0.07s-0.83-1.27-0.57-1.98c3.22-8.82,6.09-18.16,8.52-27.76
		c13.02-51.42,10.06-98.39-6.47-102.58c-11.63-2.95-28.43,16.62-41.84,48.72V1104.97z"/>
</g>
<g>
	<path class="st0" d="M1494.3,1010.38c-0.81,0-1.56-0.09-2.24-0.29c-1.92-0.54-4.31-2.07-4.76-6.29
		c-1.53-14.17,28.74-27.08,57.22-38.08c0.73-0.28,1.56-0.04,2.03,0.59c0.47,0.63,0.46,1.49-0.02,2.12
		C1527.94,992.5,1505.44,1010.38,1494.3,1010.38z M1539.73,971.34c-18.73,7.36-50.19,20.75-48.96,32.09
		c0.27,2.46,1.4,3.06,2.23,3.29C1500.07,1008.73,1520.4,994.81,1539.73,971.34z"/>
</g>
<path class="st1" d="M622.11,239.81H513.15c-2.75,0-4.98-2.24-4.98-4.98V183.8c0-2.75,2.24-4.98,4.98-4.98h108.95
	c2.75,0,4.98,2.24,4.98,4.98v51.02C627.09,237.58,624.86,239.81,622.11,239.81z M513.15,182.32c-0.82,0-1.48,0.67-1.48,1.48v51.02
	c0,0.82,0.67,1.48,1.48,1.48h108.95c0.82,0,1.48-0.67,1.48-1.48V183.8c0-0.82-0.67-1.48-1.48-1.48H513.15z"/>
<path class="st1" d="M524.97,379.74c-0.97,0-1.75-0.78-1.75-1.75V238.06c0-0.97,0.78-1.75,1.75-1.75s1.75,0.78,1.75,1.75v139.93
	C526.72,378.96,525.94,379.74,524.97,379.74z"/>
<path class="st1" d="M610.29,349.81c-0.97,0-1.75-0.78-1.75-1.75v-110c0-0.97,0.78-1.75,1.75-1.75s1.75,0.78,1.75,1.75v110
	C612.04,349.03,611.26,349.81,610.29,349.81z"/>
<g>
	<path class="st2" d="M1257.95,234.21v46.12c0-7.33-5.95-13.27-13.28-13.27H734.19c-7.33,0-13.27,5.94-13.27,13.27v-46.12
		c0-7.33,5.94-13.28,13.27-13.28h510.48C1252,220.92,1257.95,226.87,1257.95,234.21z"/>
	<path class="st1" d="M1257.95,282.08c-0.97,0-1.75-0.78-1.75-1.75c0-6.35-5.17-11.52-11.53-11.52H734.19
		c-6.35,0-11.52,5.17-11.52,11.52c0,0.97-0.78,1.75-1.75,1.75s-1.75-0.78-1.75-1.75v-46.12c0-8.29,6.74-15.03,15.02-15.03h510.48
		c8.29,0,15.03,6.74,15.03,15.03v46.12C1259.7,281.3,1258.92,282.08,1257.95,282.08z M734.19,265.31h510.48
		c4.63,0,8.77,2.1,11.53,5.4v-36.5c0-6.36-5.17-11.53-11.53-11.53H734.19c-6.35,0-11.52,5.17-11.52,11.53v36.5
		C725.43,267.41,729.57,265.31,734.19,265.31z"/>
</g>
<path class="st2" d="M1257.95,280.33v153.36c0,7.33-5.95,13.27-13.28,13.27h-112.21l18.1,47.52l-74.25-47.52H734.19
	c-7.33,0-13.27-5.94-13.27-13.27V280.33c0-7.33,5.94-13.27,13.27-13.27h510.48C1252,267.06,1257.95,273,1257.95,280.33z"/>
<path class="st1" d="M1150.56,496.23c-0.33,0-0.65-0.09-0.94-0.28l-73.82-47.25h-341.6c-8.28,0-15.02-6.74-15.02-15.02V280.33
	c0-8.28,6.74-15.02,15.02-15.02h510.48c8.29,0,15.03,6.74,15.03,15.02v153.36c0,8.28-6.74,15.02-15.03,15.02h-109.67l17.2,45.15
	c0.27,0.71,0.05,1.5-0.53,1.98C1151.34,496.1,1150.95,496.23,1150.56,496.23z"/>
<path class="st0" d="M734.19,268.81c-6.35,0-11.52,5.17-11.52,11.52v153.36c0,6.35,5.17,11.52,11.52,11.52h342.11
	c0.33,0,0.66,0.1,0.94,0.28l69.79,44.66l-16.22-42.57c-0.2-0.54-0.13-1.14,0.19-1.62c0.33-0.47,0.87-0.76,1.44-0.76h112.21
	c6.36,0,11.53-5.17,11.53-11.52V280.33c0-6.35-5.17-11.52-11.53-11.52H734.19z"/>
<g>
	<g>
		<line class="st1" x1="1069.76" y1="259.31" x2="1069.76" y2="250.64"/>
		<rect x="1066.76" y="250.64" class="st1" width="6" height="8.68"/>
	</g>
	<g>
		<line class="st1" x1="1084.05" y1="259.31" x2="1084.05" y2="245.56"/>
		<rect x="1081.05" y="245.56" class="st1" width="6" height="13.75"/>
	</g>
	<g>
		<line class="st1" x1="1098.33" y1="259.31" x2="1098.33" y2="240.49"/>
		<rect x="1095.33" y="240.49" class="st1" width="6" height="18.83"/>
	</g>
	<g>
		<line class="st1" x1="1112.62" y1="259.31" x2="1112.62" y2="235.41"/>
		<rect x="1109.62" y="235.41" class="st1" width="6" height="23.9"/>
	</g>
	<g>
		<line class="st1" x1="1126.91" y1="259.31" x2="1126.91" y2="230.34"/>
		<rect x="1123.91" y="230.34" class="st1" width="6" height="28.97"/>
	</g>
</g>
<g>
	<path class="st1" d="M1217.65,257.56h-56.35c-0.97,0-1.75-0.78-1.75-1.75v-23.25c0-0.97,0.78-1.75,1.75-1.75h56.35
		c0.97,0,1.75,0.78,1.75,1.75v4.06h6.04c0.97,0,1.75,0.78,1.75,1.75V250c0,0.97-0.78,1.75-1.75,1.75h-6.04v4.06
		C1219.4,256.77,1218.62,257.56,1217.65,257.56z M1163.05,254.06h52.85V250c0-0.97,0.78-1.75,1.75-1.75h6.04v-8.13h-6.04
		c-0.97,0-1.75-0.78-1.75-1.75v-4.06h-52.85V254.06z"/>
</g>
<rect x="1169.61" y="240.49" class="st1" width="27.71" height="7.38"/>
<g>
	<g>
		<circle class="st1" cx="750.56" cy="243.91" r="5.61"/>
		<path class="st1" d="M750.56,251.28c-4.06,0-7.36-3.3-7.36-7.36c0-4.06,3.3-7.36,7.36-7.36c4.06,0,7.36,3.3,7.36,7.36
			C757.92,247.97,754.62,251.28,750.56,251.28z M750.56,240.05c-2.13,0-3.86,1.73-3.86,3.86s1.73,3.86,3.86,3.86
			s3.86-1.73,3.86-3.86S752.69,240.05,750.56,240.05z"/>
	</g>
	<g>
		<circle class="st1" cx="778.91" cy="243.91" r="5.61"/>
		<path class="st1" d="M778.91,251.28c-4.06,0-7.36-3.3-7.36-7.36c0-4.06,3.3-7.36,7.36-7.36s7.36,3.3,7.36,7.36
			C786.27,247.97,782.97,251.28,778.91,251.28z M778.91,240.05c-2.13,0-3.86,1.73-3.86,3.86s1.73,3.86,3.86,3.86
			s3.86-1.73,3.86-3.86S781.04,240.05,778.91,240.05z"/>
	</g>
	<g>
		<circle class="st1" cx="807.26" cy="243.91" r="5.61"/>
		<path class="st1" d="M807.26,251.28c-4.06,0-7.36-3.3-7.36-7.36c0-4.06,3.3-7.36,7.36-7.36s7.36,3.3,7.36,7.36
			C814.62,247.97,811.32,251.28,807.26,251.28z M807.26,240.05c-2.13,0-3.86,1.73-3.86,3.86s1.73,3.86,3.86,3.86
			s3.86-1.73,3.86-3.86S809.39,240.05,807.26,240.05z"/>
	</g>
</g>
<g>
	<g>
		<path class="st0" d="M1684,309.9h-219.56c-0.87,0-1.61-0.64-1.73-1.5c-0.12-0.86,0.4-1.68,1.23-1.93
			c14.04-4.15,19.22-14.59,24.7-25.65c3.22-6.48,6.54-13.18,11.79-18.26c9.68-9.37,22.4-9.79,31.18-6.16
			c0.06-0.48,0.12-0.95,0.2-1.43c1.38-9.04,5.15-17.19,10.61-22.94c5.62-5.92,12.36-8.63,18.99-7.61
			c11.91,1.82,20.05,15.62,19.62,31.96c13.56-14.84,32.64-19.9,44.37-11.04c7.52,5.68,10.63,15.83,8.58,27.57
			c5.83-1.93,11.6-2,16.23-0.15c8.74,2.4,14.29,10.78,19.65,18.89c4.6,6.95,8.94,13.51,14.52,14.77c0.87,0.2,1.45,1.02,1.35,1.9
			C1685.64,309.23,1684.89,309.9,1684,309.9z M1472.95,306.4h204.09c-3.71-3.14-6.85-7.88-10.1-12.8
			c-5.03-7.6-10.23-15.45-17.75-17.47c-0.07-0.02-0.14-0.04-0.21-0.07c-4.58-1.87-10.66-1.41-16.68,1.26
			c-0.61,0.27-1.32,0.17-1.84-0.26s-0.73-1.11-0.57-1.76c2.91-11.68,0.43-21.83-6.62-27.15c-11.22-8.48-30.49-1.94-42.96,14.56
			c-0.45,0.68-1.36,1.01-2.12,0.71c-0.76-0.29-1.26-1.03-1.14-1.84c2.45-16.83-4.81-31.95-16.19-33.69
			c-5.46-0.84-11.11,1.49-15.92,6.56c-4.97,5.24-8.41,12.72-9.69,21.07c-0.19,1.22-0.33,2.45-0.4,3.66c-0.04,0.6-0.38,1.13-0.9,1.42
			c-0.52,0.29-1.16,0.29-1.68,0c-7.64-4.16-20.1-4.53-29.42,4.48c-4.81,4.66-7.86,10.8-11.09,17.3
			C1487.28,291.43,1482.67,300.73,1472.95,306.4z"/>
	</g>
</g>
<g>
	<path class="st0" d="M1546.03,287.31c-1.37,0-2.83-0.4-4.28-1.21c-5.42-3-10.99-11.69-10.38-27.1c0.02-0.57,0.33-1.1,0.81-1.41
		c0.49-0.31,1.09-0.36,1.62-0.13c7.12,3.01,18.27,13.35,19.08,21.48c0.31,3.08-0.86,5.62-3.38,7.34
		C1548.48,286.96,1547.3,287.31,1546.03,287.31z M1534.83,261.9c0.16,12.1,4.62,18.92,8.62,21.14c1.61,0.89,3.09,1.01,4.08,0.34
		c1.45-0.99,2.05-2.29,1.87-4.1C1548.82,273.48,1540.95,265.52,1534.83,261.9z"/>
</g>
<g>
	<g>
		<path class="st0" d="M202.64,327.52H23.63c-0.85,0-1.58-0.61-1.72-1.45c-0.15-0.84,0.33-1.66,1.13-1.95
			c10.16-3.68,20.85-15.95,30.29-26.78c7.03-8.07,13.67-15.69,19.74-19.6c8.63-6.37,20.2-7.08,29.48-2.17
			c-3.52-17.38,0.27-31.96,10.44-39.5c12.93-9.58,34.04-5.61,53.1,9.79c10-26.28,30.37-41.99,49.12-37.56
			c16.38,3.87,27.38,22.81,27.55,46.76c1.05-0.9,2.15-1.78,3.28-2.62c8.03-5.95,17.13-9.49,25.64-9.95
			c8.77-0.47,15.89,2.35,20.05,7.96c1.44,1.96,2.47,4.19,3.06,6.63c0.15,0.62-0.05,1.27-0.52,1.7
			c-8.78,8.08-15.52,19.79-18.98,32.99c-0.88,3.31-1.54,6.69-1.95,10.04c-0.07,0.57-0.41,1.06-0.91,1.33
			c-0.5,0.27-1.1,0.28-1.61,0.02c-17.7-8.95-35.69-8.18-45.84,1.97c-2.67,2.41-5.15,4.89-7.87,7.86c-1.27,1.38-2.47,2.74-3.64,4.06
			c-3.12,3.52-6.06,6.85-9.67,10.03C203.48,327.36,203.07,327.52,202.64,327.52z M30.93,324.02h171.04
			c3.23-2.92,5.98-6.02,8.88-9.29c1.19-1.34,2.4-2.71,3.68-4.1c2.79-3.06,5.35-5.61,8.04-8.03c10.75-10.75,29.27-12.11,47.64-3.62
			c0.42-2.71,1-5.42,1.71-8.09c3.52-13.44,10.33-25.45,19.21-33.94c-0.5-1.61-1.24-3.09-2.21-4.4c-3.43-4.63-9.49-6.96-17.04-6.55
			c-7.83,0.42-16.26,3.71-23.74,9.26c-2.14,1.59-4.14,3.31-5.95,5.12c-0.51,0.51-1.28,0.66-1.94,0.37
			c-0.66-0.29-1.08-0.96-1.04-1.68c1.07-24.18-9.12-43.66-24.78-47.36c-17.24-4.07-36.96,12.13-45.87,37.67
			c-0.19,0.55-0.64,0.96-1.2,1.11c-0.56,0.15-1.15,0.02-1.59-0.36c-18.29-15.63-38.65-20.15-50.68-11.24
			c-9.8,7.27-12.85,22.23-8.16,40.02c0.19,0.72-0.1,1.48-0.72,1.9c-0.62,0.42-1.44,0.39-2.03-0.06c-8.52-6.46-20.47-6.52-29.06-0.16
			c-0.03,0.02-0.06,0.05-0.1,0.07c-5.67,3.63-12.16,11.09-19.04,18.98C47.86,308.94,39.54,318.49,30.93,324.02z"/>
	</g>
	<g>
		<path class="st0" d="M181.82,296.62c-1.31,0-2.65-0.31-3.95-0.96c-10.08-5.04-18.35-21.97-12.7-47.24
			c0.13-0.59,0.56-1.07,1.14-1.27c0.57-0.2,1.21-0.08,1.68,0.3c25.95,21.27,25.59,38.19,21.28,44.83
			C187.45,295.09,184.71,296.62,181.82,296.62z M168.01,252.02c-4.06,21.84,2.9,36.23,11.43,40.5c2.57,1.28,5.21,0.46,6.9-2.15
			C189.65,285.26,189.85,270.85,168.01,252.02z"/>
	</g>
</g>
<g>
	<path class="st0" d="M493.22,345.12H165.07c-0.88,0-1.62-0.65-1.74-1.53c-0.11-0.87,0.44-1.69,1.29-1.92
		c21.79-5.72,30.86-11.92,36.86-17.23c3.45-3.04,6.32-6.29,9.37-9.73c1.19-1.34,2.4-2.71,3.68-4.1c2.79-3.06,5.35-5.61,8.04-8.03
		c10.75-10.75,29.27-12.11,47.64-3.62c0.42-2.71,1-5.42,1.71-8.09c3.63-13.83,10.73-26.15,19.99-34.67
		c10.54-9.7,23-13.57,34.18-10.63c16.62,4.37,27.62,23.17,27.54,46.39c16.86-12.86,36.26-14.88,48.16-4.66
		c5.24,4.49,8.51,11.07,9.39,18.79c7.04-5.02,15.68-0.8,23.4,4.24c3.94,2.57,8.08,5.69,12.47,8.99
		c13.89,10.45,29.64,22.3,46.19,22.3c0.97,0,1.75,0.78,1.75,1.75S494.19,345.12,493.22,345.12z M177.1,341.62h299.09
		c-11.19-4.41-21.65-12.28-31.26-19.5c-4.34-3.26-8.44-6.35-12.28-8.85c-10.79-7.05-17.07-7.7-21.66-2.25
		c-0.47,0.56-1.24,0.77-1.93,0.52c-0.69-0.25-1.15-0.89-1.16-1.62c-0.11-8.45-3.02-15.34-8.4-19.95
		c-11.09-9.52-30.69-6.54-46.61,7.09c-0.53,0.46-1.29,0.55-1.91,0.24c-0.63-0.31-1.01-0.97-0.97-1.67
		c1.29-23.29-8.91-42.48-24.82-46.67c-10-2.63-21.27,0.94-30.92,9.82c-8.78,8.08-15.52,19.79-18.98,32.99
		c-0.88,3.31-1.54,6.69-1.95,10.04c-0.07,0.57-0.41,1.06-0.91,1.33c-0.5,0.27-1.1,0.28-1.61,0.02c-17.7-8.95-35.69-8.18-45.84,1.97
		c-2.67,2.41-5.15,4.89-7.87,7.86c-1.27,1.38-2.47,2.74-3.64,4.06c-3.12,3.52-6.06,6.85-9.67,10.03
		C196.96,333.13,188.65,337.71,177.1,341.62z"/>
</g>
<g>
	<path class="st0" d="M1437.45,159.4c-0.97,0-1.75-0.78-1.75-1.75c0-13.97-11.36-25.33-25.33-25.33c-0.97,0-1.75-0.78-1.75-1.75
		s0.78-1.75,1.75-1.75c15.9,0,28.83,12.93,28.83,28.83C1439.2,158.62,1438.41,159.4,1437.45,159.4z"/>
</g>
<g>
	<path class="st0" d="M1452.49,159.4c-0.97,0-1.75-0.78-1.75-1.75c0-22.26-18.11-40.38-40.38-40.38c-0.97,0-1.75-0.78-1.75-1.75
		s0.78-1.75,1.75-1.75c24.19,0,43.88,19.68,43.88,43.88C1454.24,158.62,1453.46,159.4,1452.49,159.4z"/>
</g>
<g>
	<path class="st0" d="M1467.54,159.4c-0.97,0-1.75-0.78-1.75-1.75c0-30.56-24.86-55.42-55.42-55.42c-0.97,0-1.75-0.78-1.75-1.75
		s0.78-1.75,1.75-1.75c32.49,0,58.92,26.43,58.92,58.92C1469.29,158.62,1468.5,159.4,1467.54,159.4z"/>
</g>
<path class="st1" d="M1368.21,250.07c-15.53,0-31.06-0.93-46.48-2.78c-0.8-0.1-1.43-0.73-1.53-1.53c-3.7-30.84-3.7-62.12,0-92.96
	c0.1-0.8,0.73-1.43,1.53-1.53c30.84-3.7,62.12-3.7,92.96,0c0.8,0.1,1.43,0.73,1.53,1.53c3.7,30.84,3.7,62.12,0,92.96
	c-0.1,0.8-0.73,1.43-1.53,1.53C1399.27,249.15,1383.74,250.07,1368.21,250.07z M1323.51,243.98c29.67,3.45,59.73,3.45,89.39,0
	c3.45-29.67,3.45-59.73,0-89.4c-29.67-3.45-59.72-3.45-89.39,0C1320.06,184.26,1320.06,214.32,1323.51,243.98z M1414.48,245.56
	L1414.48,245.56L1414.48,245.56z"/>
<path class="st1" d="M1368.21,231.19c-9.58,0-19.15-0.57-28.66-1.71c-0.8-0.1-1.43-0.73-1.53-1.53c-2.28-19.02-2.28-38.31,0-57.33
	c0.1-0.8,0.73-1.43,1.53-1.53c19.02-2.28,38.3-2.28,57.32,0c0.8,0.1,1.43,0.73,1.53,1.53c2.28,19.02,2.28,38.31,0,57.33
	c-0.1,0.8-0.73,1.43-1.53,1.53C1387.36,230.62,1377.79,231.19,1368.21,231.19z M1396.66,227.74L1396.66,227.74L1396.66,227.74z
	 M1341.33,226.16c17.84,2.04,35.91,2.04,53.75,0c2.04-17.84,2.04-35.91,0-53.75c-17.84-2.03-35.91-2.03-53.75,0
	C1339.3,190.25,1339.3,208.32,1341.33,226.16z"/>
<path class="st1" d="M1368.21,223.73c-7.22,0-14.45-0.43-21.62-1.29c-0.96-0.11-1.64-0.99-1.53-1.95s0.97-1.65,1.95-1.53
	c13.61,1.63,27.41,1.69,41.03,0.16c1.53-13.62,1.47-27.42-0.16-41.03c-0.12-0.96,0.57-1.83,1.53-1.95c0.97-0.12,1.83,0.57,1.95,1.53
	c1.72,14.34,1.72,28.89,0,43.24c-0.1,0.8-0.73,1.43-1.53,1.53C1382.66,223.29,1375.43,223.73,1368.21,223.73z M1389.62,220.7
	L1389.62,220.7L1389.62,220.7z"/>
<path class="st1" d="M1364.72,338.23c-0.97,0-1.75-0.78-1.75-1.75v-88.14c0-0.97,0.78-1.75,1.75-1.75s1.75,0.78,1.75,1.75v88.14
	C1366.47,337.44,1365.69,338.23,1364.72,338.23z"/>
<path class="st1" d="M1372.98,345.63c-0.97,0-1.75-0.78-1.75-1.75v-95.55c0-0.97,0.78-1.75,1.75-1.75s1.75,0.78,1.75,1.75v95.55
	C1374.73,344.85,1373.95,345.63,1372.98,345.63z"/>
<path class="st1" d="M1207.38,219.89l-48.88-43.83c-0.47-0.43-1.15-0.56-1.75-0.35l-131.65,46.18h10.57l121.26-42.54l45.2,40.54
	H1207.38z"/>
<path class="st1" d="M1232.1,219.89h5.24l-74.29-66.62c-0.48-0.43-1.15-0.56-1.75-0.35l-196.62,68.97h10.57l186.22-65.32
	L1232.1,219.89z"/>
<path class="st1" d="M1497.75,453.42l-239.86-215.11v4.7l234.12,209.96h-24.71l-209.41-187.8v4.7l207.57,186.15
	c0.32,0.29,0.74,0.45,1.17,0.45h29.96c0.73,0,1.38-0.45,1.63-1.12C1498.48,454.68,1498.29,453.91,1497.75,453.42z"/>
<path class="st1" d="M720.33,328.8l-354,124.18h-49.85l403.84-141.66v-3.71l-414.7,145.47c-0.81,0.28-1.29,1.1-1.15,1.95
	c0.14,0.84,0.87,1.46,1.73,1.46h60.42c0.2,0,0.39-0.03,0.58-0.1l353.12-123.87V328.8z"/>
<path class="st1" d="M366.63,1108.48c-0.97,0-1.75-0.78-1.75-1.75v-652c0-0.97,0.78-1.75,1.75-1.75s1.75,0.78,1.75,1.75v652
	C368.38,1107.69,367.6,1108.48,366.63,1108.48z"/>
<path class="st1" d="M1466.63,1108.48c-0.97,0-1.75-0.78-1.75-1.75v-652c0-0.97,0.78-1.75,1.75-1.75s1.75,0.78,1.75,1.75v652
	C1468.38,1107.69,1467.6,1108.48,1466.63,1108.48z"/>
<path class="st1" d="M585.48,358.44c-0.97,0-1.75-0.78-1.75-1.75V238.06c0-0.97,0.78-1.75,1.75-1.75s1.75,0.78,1.75,1.75v118.63
	C587.23,357.66,586.44,358.44,585.48,358.44z"/>
<path class="st1" d="M598.36,239.81c-0.97,0-1.75-0.78-1.75-1.75v-57.49c0-0.97,0.78-1.75,1.75-1.75s1.75,0.78,1.75,1.75v57.49
	C600.11,239.03,599.33,239.81,598.36,239.81z"/>
<g>
	<path class="st0" d="M588.12,494.1c-0.45,0-0.9-0.17-1.24-0.51c-16.78-16.78-16.78-44.08,0-60.85c0.68-0.68,1.79-0.68,2.47,0
		c0.68,0.68,0.68,1.79,0,2.47c-15.41,15.41-15.41,40.49,0,55.9c0.68,0.68,0.68,1.79,0,2.47C589.02,493.93,588.57,494.1,588.12,494.1
		z"/>
</g>
<g>
	<path class="st0" d="M571.91,510.31c-0.45,0-0.9-0.17-1.24-0.51c-25.72-25.72-25.72-67.57,0-93.29c0.68-0.68,1.79-0.68,2.47,0
		c0.68,0.68,0.68,1.79,0,2.47c-11.8,11.8-18.29,27.48-18.29,44.17s6.5,32.37,18.29,44.17c0.68,0.68,0.68,1.79,0,2.47
		C572.8,510.14,572.36,510.31,571.91,510.31z"/>
</g>
<g>
	<path class="st0" d="M555.69,526.53c-0.45,0-0.9-0.17-1.24-0.51c-34.66-34.66-34.66-91.06,0-125.72c0.68-0.68,1.79-0.68,2.47,0
		c0.68,0.68,0.68,1.79,0,2.47c-33.3,33.3-33.3,87.47,0,120.77c0.68,0.68,0.68,1.79,0,2.47
		C556.59,526.36,556.14,526.53,555.69,526.53z"/>
</g>
<path class="st1" d="M709.54,539.65H606.26c-0.97,0-1.75-0.78-1.75-1.75V388.41c0-0.97,0.78-1.75,1.75-1.75h103.28
	c0.97,0,1.75,0.78,1.75,1.75V537.9C711.29,538.87,710.51,539.65,709.54,539.65z M608.01,536.15h99.78V390.16h-99.78V536.15z"/>
<path class="st1" d="M709.54,453.73H606.26c-0.97,0-1.75-0.78-1.75-1.75s0.78-1.75,1.75-1.75h103.28c0.97,0,1.75,0.78,1.75,1.75
	S710.51,453.73,709.54,453.73z"/>
<path class="st1" d="M621.01,539.65c-0.97,0-1.75-0.78-1.75-1.75v-35.67c0-0.97,0.78-1.75,1.75-1.75s1.75,0.78,1.75,1.75v35.67
	C622.76,538.87,621.98,539.65,621.01,539.65z"/>
<path class="st1" d="M635.77,539.65c-0.97,0-1.75-0.78-1.75-1.75v-35.67c0-0.97,0.78-1.75,1.75-1.75s1.75,0.78,1.75,1.75v35.67
	C637.52,538.87,636.73,539.65,635.77,539.65z"/>
<path class="st1" d="M650.52,539.65c-0.97,0-1.75-0.78-1.75-1.75v-35.67c0-0.97,0.78-1.75,1.75-1.75s1.75,0.78,1.75,1.75v35.67
	C652.27,538.87,651.49,539.65,650.52,539.65z"/>
<path class="st1" d="M665.28,539.65c-0.97,0-1.75-0.78-1.75-1.75v-35.67c0-0.97,0.78-1.75,1.75-1.75s1.75,0.78,1.75,1.75v35.67
	C667.03,538.87,666.24,539.65,665.28,539.65z"/>
<path class="st1" d="M645.13,417.62c-0.97,0-1.75-0.78-1.75-1.75v-13.62c0-0.97,0.78-1.75,1.75-1.75s1.75,0.78,1.75,1.75v13.62
	C646.88,416.83,646.09,417.62,645.13,417.62z"/>
<path class="st1" d="M653.37,417.62c-0.97,0-1.75-0.78-1.75-1.75v-13.62c0-0.97,0.78-1.75,1.75-1.75s1.75,0.78,1.75,1.75v13.62
	C655.12,416.83,654.34,417.62,653.37,417.62z"/>
<path class="st1" d="M636.97,432.07h-13.62c-0.97,0-1.75-0.78-1.75-1.75s0.78-1.75,1.75-1.75h13.62c0.97,0,1.75,0.78,1.75,1.75
	S637.94,432.07,636.97,432.07z"/>
<path class="st1" d="M636.97,423.82h-13.62c-0.97,0-1.75-0.78-1.75-1.75s0.78-1.75,1.75-1.75h13.62c0.97,0,1.75,0.78,1.75,1.75
	S637.94,423.82,636.97,423.82z"/>
<path class="st1" d="M661.61,417.62c-0.97,0-1.75-0.78-1.75-1.75v-13.62c0-0.97,0.78-1.75,1.75-1.75s1.75,0.78,1.75,1.75v13.62
	C663.36,416.83,662.58,417.62,661.61,417.62z"/>
<path class="st1" d="M669.86,417.62c-0.97,0-1.75-0.78-1.75-1.75v-13.62c0-0.97,0.78-1.75,1.75-1.75s1.75,0.78,1.75,1.75v13.62
	C671.61,416.83,670.82,417.62,669.86,417.62z"/>
<g>
	<path class="st1" d="M645.13,432.28c-0.97,0-1.75-0.78-1.75-1.75v-0.97c0-0.97,0.78-1.75,1.75-1.75s1.75,0.78,1.75,1.75v0.97
		C646.88,431.49,646.09,432.28,645.13,432.28z"/>
</g>
<g>
	<path class="st1" d="M653.37,432.28c-0.97,0-1.75-0.78-1.75-1.75v-0.97c0-0.97,0.78-1.75,1.75-1.75s1.75,0.78,1.75,1.75v0.97
		C655.12,431.49,654.34,432.28,653.37,432.28z"/>
</g>
<g>
	<path class="st1" d="M661.61,432.28c-0.97,0-1.75-0.78-1.75-1.75v-0.97c0-0.97,0.78-1.75,1.75-1.75s1.75,0.78,1.75,1.75v0.97
		C663.36,431.49,662.58,432.28,661.61,432.28z"/>
</g>
<g>
	<path class="st1" d="M669.86,432.28c-0.97,0-1.75-0.78-1.75-1.75v-0.97c0-0.97,0.78-1.75,1.75-1.75s1.75,0.78,1.75,1.75v0.97
		C671.61,431.49,670.83,432.28,669.86,432.28z"/>
</g>
<path class="st1" d="M680.03,539.65c-0.97,0-1.75-0.78-1.75-1.75v-35.67c0-0.97,0.78-1.75,1.75-1.75s1.75,0.78,1.75,1.75v35.67
	C681.78,538.87,681,539.65,680.03,539.65z"/>
<path class="st1" d="M694.79,539.65c-0.97,0-1.75-0.78-1.75-1.75v-35.67c0-0.97,0.78-1.75,1.75-1.75s1.75,0.78,1.75,1.75v35.67
	C696.54,538.87,695.75,539.65,694.79,539.65z"/>
<path class="st1" d="M678.01,438.27h-41.04c-0.97,0-1.75-0.78-1.75-1.75v-20.66c0-0.97,0.78-1.75,1.75-1.75h41.04
	c0.97,0,1.75,0.78,1.75,1.75v20.66C679.76,437.49,678.98,438.27,678.01,438.27z M638.72,434.77h37.54v-17.16h-37.54V434.77z"/>
<linearGradient id="SVGID_1_" gradientUnits="userSpaceOnUse" x1="773.0974" y1="333.2495" x2="802.3614" y2="333.2495" gradientTransform="matrix(1 0 0 -1 -153.35 823.84)">
	<stop  offset="0" style="stop-color:#39D82F"/>
	<stop  offset="1" style="stop-color:#279813"/>
</linearGradient>
<path class="st3" d="M648.66,487.18V494h-6.16C642.5,490.49,645.16,487.54,648.66,487.18z"/>
<linearGradient id="SVGID_2_" gradientUnits="userSpaceOnUse" x1="773.0974" y1="337.6547" x2="802.3614" y2="337.6547" gradientTransform="matrix(1 0 0 -1 -153.35 823.84)">
	<stop  offset="0" style="stop-color:#39D82F"/>
	<stop  offset="1" style="stop-color:#279813"/>
</linearGradient>
<path class="st4" d="M633.71,494h4.33c0-5.97,4.65-10.92,10.61-11.29v-4.35C640.36,478.74,633.71,485.61,633.71,494z"/>
<linearGradient id="SVGID_3_" gradientUnits="userSpaceOnUse" x1="773.0974" y1="342.0415" x2="802.3614" y2="342.0415" gradientTransform="matrix(1 0 0 -1 -153.35 823.84)">
	<stop  offset="0" style="stop-color:#39D82F"/>
	<stop  offset="1" style="stop-color:#279813"/>
</linearGradient>
<path class="st5" d="M632.1,476.73c-4.59,4.57-7.17,10.79-7.15,17.27h4.34c0-10.82,8.57-19.69,19.38-20.07v-4.34
	C642.43,469.75,636.49,472.31,632.1,476.73z"/>
<linearGradient id="SVGID_4_" gradientUnits="userSpaceOnUse" x1="773.0974" y1="346.3924" x2="802.3614" y2="346.3924" gradientTransform="matrix(1 0 0 -1 -153.35 823.84)">
	<stop  offset="0" style="stop-color:#39D82F"/>
	<stop  offset="1" style="stop-color:#279813"/>
</linearGradient>
<path class="st6" d="M636.47,463.49c-12.27,5.18-20.24,17.2-20.23,30.51h4.34c0-15.66,12.51-28.4,28.08-28.77v-4.34
	C644.47,460.97,640.33,461.85,636.47,463.49z"/>
<path class="st7" d="M658.83,471.77c-1.9,0-3.42-0.54-4.56-1.63l1.4-1.99c0.86,0.89,2.05,1.38,3.28,1.36c0.45,0,0.81-0.08,1.07-0.24
	s0.39-0.36,0.39-0.61c0-0.22-0.14-0.39-0.43-0.53c-0.34-0.15-0.7-0.26-1.07-0.31c-0.48-0.08-0.95-0.19-1.41-0.33
	c-0.48-0.14-0.95-0.31-1.4-0.52c-0.44-0.21-0.82-0.55-1.07-0.96c-0.3-0.48-0.45-1.03-0.43-1.59c0-0.9,0.37-1.68,1.1-2.31
	c0.74-0.64,1.73-0.96,3-0.95c1.68,0,3.07,0.48,4.18,1.43l-1.45,1.9c-0.84-0.7-1.91-1.08-3.01-1.06c-0.74,0-1.11,0.25-1.11,0.74
	c0,0.2,0.14,0.36,0.43,0.5c0.34,0.15,0.71,0.26,1.08,0.32c0.47,0.08,0.94,0.19,1.4,0.33c0.48,0.14,0.94,0.32,1.4,0.53
	c0.44,0.21,0.81,0.54,1.07,0.95c0.3,0.46,0.45,1,0.43,1.54c0,1.05-0.38,1.89-1.13,2.51C661.24,471.46,660.19,471.77,658.83,471.77z"
	/>
<path class="st7" d="M676.48,471.59h-2.36v-4.54c0-0.67-0.33-1-0.99-1c-0.53,0-0.98,0.24-1.34,0.72v4.81h-2.37v-4.54
	c0-0.67-0.33-1-0.99-1c-0.49,0-0.93,0.24-1.33,0.72v4.81h-2.37v-7.44h2.37v0.91c0.2-0.26,0.52-0.5,0.97-0.74
	c0.46-0.24,0.96-0.36,1.48-0.36c1.1,0,1.8,0.44,2.11,1.33c0.27-0.39,0.63-0.71,1.06-0.93c0.46-0.26,0.99-0.4,1.52-0.39
	c0.71,0,1.26,0.19,1.65,0.56c0.39,0.38,0.59,0.93,0.59,1.67V471.59z"/>
<path class="st7" d="M685.12,471.59h-2.38v-0.74c-0.27,0.3-0.6,0.53-0.98,0.67c-0.43,0.17-0.88,0.26-1.34,0.25
	c-0.64,0-1.27-0.22-1.76-0.64c-0.53-0.43-0.79-1.03-0.79-1.81c0-0.82,0.26-1.43,0.77-1.81c0.52-0.39,1.15-0.59,1.79-0.58
	c1.08,0,1.85,0.29,2.31,0.86v-0.89c0.01-0.31-0.14-0.61-0.4-0.79c-0.27-0.19-0.64-0.29-1.11-0.29c-0.78-0.01-1.53,0.27-2.11,0.79
	l-0.85-1.5c0.9-0.77,2.03-1.16,3.38-1.16c0.44,0,0.88,0.05,1.3,0.15c0.39,0.09,0.76,0.25,1.09,0.47c0.34,0.23,0.62,0.55,0.79,0.93
	c0.2,0.45,0.3,0.94,0.29,1.43L685.12,471.59z M681.42,470.22c0.64,0,1.07-0.18,1.32-0.54v-0.66c-0.26-0.35-0.7-0.52-1.32-0.52
	c-0.3-0.01-0.59,0.07-0.85,0.22c-0.35,0.24-0.45,0.72-0.21,1.07c0.05,0.08,0.12,0.15,0.21,0.21
	C680.82,470.15,681.12,470.23,681.42,470.22z"/>
<path class="st7" d="M689.22,471.59h-2.37v-7.45h2.37v0.91c0.29-0.33,0.64-0.6,1.03-0.79c0.4-0.21,0.84-0.32,1.3-0.32v2.28
	c-0.19-0.04-0.39-0.06-0.59-0.06c-0.35,0-0.69,0.07-1.01,0.19c-0.29,0.09-0.54,0.26-0.73,0.49V471.59z"/>
<path class="st7" d="M696.37,471.77c-0.76,0-1.34-0.18-1.73-0.56c-0.4-0.37-0.6-0.91-0.6-1.63v-3.38h-1.23v-2.07h1.23v-2.04h2.36
	v2.04h1.51v2.07h-1.51v2.71c-0.01,0.2,0.05,0.39,0.18,0.55c0.12,0.14,0.3,0.22,0.49,0.21c0.3,0,0.5-0.06,0.6-0.19l0.46,1.79
	C697.78,471.61,697.19,471.77,696.37,471.77z"/>
<path class="st7" d="M658.83,486.09c-1.9,0-3.42-0.54-4.56-1.63l1.4-1.99c0.86,0.89,2.05,1.38,3.28,1.36c0.45,0,0.81-0.08,1.07-0.24
	c0.27-0.16,0.39-0.36,0.39-0.61c0-0.22-0.14-0.39-0.43-0.53c-0.34-0.15-0.7-0.26-1.07-0.31c-0.48-0.08-0.95-0.18-1.41-0.32
	c-0.48-0.14-0.95-0.32-1.4-0.53c-0.44-0.21-0.82-0.55-1.07-0.96c-0.3-0.48-0.45-1.03-0.43-1.59c0-0.9,0.37-1.68,1.1-2.31
	s1.73-0.96,3-0.95c1.68,0,3.07,0.48,4.18,1.43l-1.45,1.9c-0.84-0.7-1.91-1.08-3.01-1.06c-0.74,0-1.11,0.25-1.11,0.74
	c0,0.2,0.14,0.36,0.43,0.5c0.34,0.16,0.71,0.26,1.08,0.32c0.47,0.08,0.94,0.19,1.4,0.33c0.48,0.14,0.94,0.32,1.4,0.53
	c0.44,0.21,0.81,0.54,1.07,0.95c0.3,0.46,0.45,1,0.43,1.55c0,1.05-0.38,1.88-1.13,2.51C661.24,485.78,660.19,486.09,658.83,486.09z"
	/>
<path class="st7" d="M666.75,477.4c-0.53,0.53-1.39,0.54-1.92,0.01c0,0,0,0-0.01-0.01c-0.26-0.26-0.4-0.61-0.39-0.97
	c0-0.75,0.61-1.36,1.36-1.36c0.75,0,1.36,0.61,1.36,1.36c0,0,0,0,0,0C667.15,476.79,667.01,477.14,666.75,477.4z M666.97,485.91
	h-2.37v-7.45h2.37V485.91z"/>
<path class="st7" d="M672.11,488.92c-1.29,0-2.39-0.37-3.3-1.11l1.03-1.7c0.53,0.58,1.29,0.86,2.27,0.86
	c0.47,0.01,0.92-0.13,1.31-0.38c0.39-0.26,0.58-0.7,0.58-1.33v-0.57c-0.62,0.72-1.35,1.07-2.2,1.07c-0.95,0-1.74-0.33-2.36-0.98
	c-0.62-0.65-0.93-1.58-0.93-2.78c0-1.19,0.31-2.12,0.92-2.77c0.61-0.65,1.4-0.98,2.37-0.98c0.86-0.02,1.68,0.38,2.2,1.06v-0.88h2.37
	v6.78c0.01,0.53-0.08,1.06-0.27,1.55c-0.15,0.4-0.38,0.76-0.69,1.06c-0.29,0.27-0.63,0.49-1,0.65c-0.36,0.16-0.75,0.28-1.14,0.34
	C672.88,488.89,672.49,488.92,672.11,488.92z M672.58,483.68c0.27,0,0.55-0.07,0.79-0.18c0.25-0.1,0.46-0.27,0.62-0.48v-1.98
	c-0.16-0.21-0.38-0.38-0.62-0.48c-0.25-0.12-0.52-0.18-0.79-0.18c-0.43-0.02-0.86,0.14-1.18,0.43c-0.3,0.29-0.45,0.69-0.45,1.22
	s0.15,0.94,0.45,1.23C671.72,483.55,672.15,483.7,672.58,483.68L672.58,483.68z"/>
<path class="st7" d="M685.83,485.91h-2.38v-4.3c0-0.82-0.41-1.23-1.22-1.23c-0.57,0-1.11,0.26-1.45,0.72v4.81h-2.37v-7.45h2.37v0.92
	c0.63-0.73,1.49-1.09,2.57-1.09c0.82,0,1.44,0.21,1.85,0.64c0.41,0.43,0.62,1,0.62,1.72L685.83,485.91z"/>
<path class="st7" d="M694.32,485.91h-2.37v-0.74c-0.27,0.3-0.6,0.53-0.98,0.67c-0.42,0.17-0.88,0.26-1.33,0.25
	c-0.65,0-1.27-0.23-1.77-0.64c-0.53-0.43-0.79-1.03-0.79-1.81c0-0.82,0.26-1.43,0.77-1.81c0.52-0.39,1.15-0.59,1.79-0.58
	c1.08,0,1.85,0.29,2.31,0.86v-0.9c0.01-0.31-0.14-0.61-0.4-0.79c-0.27-0.2-0.64-0.29-1.11-0.29c-0.78-0.01-1.53,0.27-2.11,0.79
	l-0.85-1.5c0.9-0.77,2.03-1.16,3.38-1.16c0.44,0,0.87,0.04,1.3,0.15c0.39,0.09,0.76,0.25,1.09,0.47c0.34,0.23,0.62,0.55,0.79,0.93
	c0.2,0.45,0.3,0.94,0.29,1.43V485.91z M690.62,484.53c0.64,0,1.08-0.18,1.33-0.54v-0.66c-0.26-0.35-0.7-0.52-1.33-0.52
	c-0.3-0.01-0.59,0.07-0.85,0.22c-0.35,0.24-0.45,0.72-0.21,1.07c0.05,0.08,0.12,0.15,0.21,0.21
	C690.03,484.47,690.32,484.55,690.62,484.53z"/>
<path class="st7" d="M698.73,485.91h-2.37v-10.28h2.37V485.91z"/>
<path class="st7" d="M657.34,490.62l-1.43,3.2c-0.08,0.22-0.22,0.42-0.4,0.57c-0.16,0.11-0.35,0.17-0.55,0.17
	c-0.13,0-0.26-0.02-0.39-0.07c-0.12-0.04-0.22-0.11-0.31-0.19l0.18-0.29c0.14,0.14,0.33,0.22,0.52,0.22c0.12,0,0.24-0.03,0.33-0.11
	c0.11-0.1,0.2-0.23,0.26-0.37l0.13-0.28l-1.28-2.85h0.4l1.07,2.43l1.07-2.43H657.34z"/>
<path class="st7" d="M658.3,493.32c-0.22-0.12-0.4-0.3-0.52-0.52c-0.13-0.23-0.19-0.49-0.19-0.75c0-0.26,0.06-0.52,0.19-0.75
	c0.12-0.22,0.3-0.4,0.52-0.52c0.23-0.13,0.5-0.19,0.76-0.19c0.23,0,0.45,0.05,0.66,0.14c0.19,0.09,0.35,0.24,0.46,0.42l-0.29,0.2
	c-0.09-0.14-0.21-0.25-0.36-0.32c-0.15-0.07-0.31-0.11-0.48-0.11c-0.19,0-0.39,0.04-0.56,0.14c-0.16,0.09-0.3,0.23-0.39,0.39
	c-0.18,0.37-0.18,0.8,0,1.17c0.09,0.16,0.22,0.3,0.39,0.39c0.17,0.09,0.36,0.14,0.56,0.14c0.16,0,0.33-0.03,0.48-0.1
	c0.15-0.07,0.27-0.18,0.36-0.32l0.29,0.2c-0.11,0.18-0.27,0.33-0.46,0.42c-0.21,0.1-0.43,0.15-0.66,0.14
	C658.79,493.51,658.53,493.44,658.3,493.32z"/>
<path class="st7" d="M660.92,490.62h0.39v2.27l1.91-2.27h0.34v2.86h-0.39v-2.27l-1.9,2.27h-0.35V490.62z"/>
<path class="st7" d="M666.99,490.62v2.86h-0.39v-2.51h-1.37l-0.04,0.71c-0.01,0.46-0.08,0.92-0.21,1.37
	c-0.11,0.32-0.3,0.48-0.58,0.48c-0.09,0-0.19-0.02-0.28-0.04l0.03-0.33c0.04,0.01,0.09,0.02,0.14,0.02c0.14,0,0.28-0.08,0.34-0.21
	c0.08-0.16,0.13-0.33,0.15-0.51c0.03-0.2,0.05-0.47,0.07-0.8l0.05-1.02L666.99,490.62z"/>
<path class="st7" d="M670.58,492.17h-2.39c0.01,0.28,0.14,0.53,0.34,0.72c0.22,0.19,0.5,0.29,0.78,0.27c0.17,0,0.33-0.03,0.49-0.09
	c0.15-0.06,0.28-0.16,0.39-0.28l0.22,0.25c-0.13,0.15-0.29,0.27-0.48,0.35c-0.2,0.08-0.41,0.12-0.63,0.12
	c-0.27,0-0.54-0.06-0.78-0.19c-0.22-0.12-0.4-0.3-0.53-0.52c-0.13-0.23-0.2-0.49-0.19-0.75c0-0.26,0.06-0.52,0.18-0.75
	c0.12-0.21,0.29-0.39,0.5-0.52c0.22-0.12,0.47-0.19,0.72-0.19c0.25,0,0.5,0.06,0.72,0.19c0.21,0.12,0.38,0.3,0.49,0.51
	c0.12,0.23,0.18,0.49,0.18,0.75L670.58,492.17z M668.51,491.19c-0.19,0.18-0.3,0.43-0.32,0.69h2.03c-0.02-0.26-0.13-0.51-0.32-0.69
	C669.5,490.84,668.91,490.84,668.51,491.19L668.51,491.19z"/>
<path class="st7" d="M671.44,490.62h0.39v1.26h1.79v-1.26H674v2.86h-0.38v-1.26h-1.79v1.26h-0.39L671.44,490.62z"/>
<path class="st7" d="M675.1,490.62h0.39v2.27l1.91-2.27h0.34v2.86h-0.39v-2.27l-1.9,2.27h-0.35L675.1,490.62z"/>
<path class="st7" d="M681.33,492.17h-2.39c0.01,0.28,0.14,0.53,0.34,0.72c0.22,0.19,0.5,0.29,0.78,0.27c0.17,0,0.33-0.03,0.49-0.09
	c0.15-0.06,0.28-0.16,0.39-0.28l0.22,0.25c-0.13,0.15-0.29,0.27-0.48,0.35c-0.2,0.08-0.41,0.12-0.63,0.12
	c-0.27,0-0.54-0.06-0.78-0.19c-0.22-0.12-0.4-0.3-0.53-0.52c-0.13-0.23-0.19-0.49-0.19-0.75c0-0.26,0.06-0.52,0.18-0.75
	c0.12-0.22,0.29-0.39,0.5-0.52c0.22-0.13,0.47-0.19,0.72-0.19c0.25,0,0.49,0.06,0.71,0.19c0.21,0.12,0.38,0.3,0.49,0.51
	c0.12,0.23,0.18,0.49,0.18,0.75L681.33,492.17z M679.26,491.19c-0.19,0.18-0.3,0.43-0.32,0.69h2.03c-0.02-0.26-0.13-0.51-0.32-0.69
	C680.26,490.84,679.66,490.84,679.26,491.19L679.26,491.19z"/>
<path class="st7" d="M684.05,493.32c-0.22-0.12-0.4-0.3-0.52-0.52c-0.13-0.23-0.19-0.49-0.19-0.75c0-0.26,0.06-0.52,0.19-0.75
	c0.12-0.22,0.3-0.4,0.52-0.52c0.23-0.13,0.49-0.19,0.76-0.19c0.23,0,0.45,0.05,0.66,0.14c0.19,0.09,0.35,0.24,0.46,0.42l-0.29,0.2
	c-0.09-0.14-0.21-0.25-0.36-0.32c-0.15-0.07-0.31-0.11-0.48-0.11c-0.19,0-0.39,0.05-0.56,0.14c-0.16,0.09-0.3,0.23-0.39,0.39
	c-0.18,0.37-0.18,0.8,0,1.17c0.09,0.16,0.22,0.3,0.39,0.39c0.17,0.09,0.36,0.14,0.56,0.14c0.16,0,0.33-0.03,0.48-0.1
	c0.15-0.07,0.27-0.18,0.36-0.32l0.29,0.2c-0.11,0.18-0.27,0.33-0.46,0.42c-0.21,0.1-0.43,0.15-0.66,0.14
	C684.54,493.51,684.28,493.44,684.05,493.32z"/>
<path class="st7" d="M689.07,492.7c0.01,0.23-0.09,0.44-0.28,0.58c-0.19,0.13-0.46,0.2-0.83,0.2h-1.3v-2.86h1.26
	c0.27-0.01,0.54,0.05,0.77,0.19c0.18,0.12,0.29,0.33,0.28,0.54c0,0.14-0.04,0.28-0.13,0.4c-0.09,0.11-0.22,0.2-0.36,0.25
	C688.88,492.09,689.07,492.32,689.07,492.7z M687.04,491.89h0.86c0.18,0.01,0.36-0.03,0.51-0.13c0.12-0.08,0.18-0.22,0.18-0.36
	c0.01-0.14-0.06-0.28-0.18-0.36c-0.15-0.09-0.33-0.13-0.51-0.12h-0.86V491.89z M688.5,493.05c0.12-0.08,0.19-0.23,0.18-0.37
	c0.01-0.15-0.05-0.29-0.17-0.38c-0.16-0.09-0.35-0.13-0.53-0.12h-0.95v0.99h0.91C688.14,493.18,688.33,493.14,688.5,493.05
	L688.5,493.05z"/>
<path class="st7" d="M692.16,490.62v2.86h-0.36v-0.94h-1l-0.66,0.94h-0.42l0.72-1c-0.2-0.05-0.38-0.16-0.51-0.32
	c-0.12-0.16-0.19-0.36-0.18-0.56c-0.02-0.28,0.1-0.55,0.33-0.73c0.26-0.18,0.57-0.27,0.89-0.25L692.16,490.62z M690.95,492.24h0.86
	v-1.28h-0.84c-0.56,0-0.84,0.22-0.84,0.65S690.41,492.25,690.95,492.24L690.95,492.24z"/>
<path class="st7" d="M695.06,492.23c0.11,0.11,0.17,0.27,0.17,0.42c0,0.16-0.06,0.32-0.17,0.45c-0.13,0.14-0.29,0.24-0.46,0.3
	c-0.21,0.07-0.43,0.11-0.65,0.11c-0.21,0-0.41-0.03-0.61-0.09c-0.19-0.05-0.37-0.14-0.52-0.26l0.13-0.29
	c0.14,0.1,0.29,0.18,0.46,0.23c0.17,0.05,0.35,0.08,0.53,0.08c0.23,0.01,0.45-0.04,0.65-0.15c0.15-0.08,0.25-0.23,0.25-0.4
	c0-0.15-0.08-0.29-0.21-0.36c-0.17-0.09-0.37-0.14-0.56-0.13h-0.49v-0.28h0.46c0.18,0.01,0.36-0.03,0.52-0.12
	c0.12-0.07,0.2-0.19,0.2-0.33c0-0.15-0.09-0.29-0.22-0.36c-0.18-0.09-0.37-0.14-0.57-0.13c-0.32,0-0.63,0.08-0.91,0.23l-0.11-0.3
	c0.33-0.17,0.69-0.26,1.06-0.27c0.2,0,0.4,0.03,0.59,0.1c0.16,0.05,0.3,0.14,0.41,0.27c0.1,0.11,0.15,0.25,0.15,0.4
	c0,0.14-0.05,0.28-0.15,0.39c-0.11,0.12-0.25,0.2-0.4,0.25C694.76,492.02,694.93,492.1,695.06,492.23z"/>
<path class="st7" d="M696.1,490.62h0.39v2.27l1.91-2.27h0.34v2.86h-0.39v-2.27l-1.9,2.27h-0.35L696.1,490.62z"/>
<path class="st1" d="M1311.09,858.84C1311.09,858.84,1311.09,858.84,1311.09,858.84c-0.98,0-1.75-0.79-1.75-1.76
	c0.2-38.16,1.3-63.87,6.56-90.4c6.03-30.39,12.6-50.75,17.88-67.12c6.8-21.08,11.72-36.3,11.72-59.92
	c0-24.52-19.95-44.47-44.47-44.47c-24.52,0-44.47,19.95-44.47,44.47v177.74c0,0.97-0.78,1.75-1.75,1.75s-1.75-0.78-1.75-1.75V639.65
	c0-26.45,21.52-47.97,47.97-47.97c26.45,0,47.97,21.52,47.97,47.97c0,24.16-4.99,39.61-11.89,60.99
	c-5.25,16.27-11.79,36.53-17.78,66.72c-5.2,26.25-6.29,51.79-6.49,89.74C1312.84,858.07,1312.05,858.84,1311.09,858.84z"/>
<path class="st1" d="M1296.57,828.57c-0.02,0-0.04,0-0.05,0c-0.97-0.03-1.73-0.83-1.7-1.8c0.75-25.73,2.6-43.98,6.37-63
	c6.2-31.26,12.92-52.08,18.32-68.8c6.62-20.51,10.99-34.06,10.99-55.31c0-16.25-13.22-29.47-29.47-29.47s-29.47,13.22-29.47,29.47
	v178.63c0,0.97-0.78,1.75-1.75,1.75s-1.75-0.78-1.75-1.75V639.65c0-18.18,14.79-32.97,32.97-32.97s32.97,14.79,32.97,32.97
	c0,21.8-4.44,35.56-11.16,56.38c-5.37,16.64-12.06,37.35-18.21,68.41c-3.73,18.81-5.55,36.9-6.3,62.42
	C1298.29,827.82,1297.51,828.57,1296.57,828.57z"/>
<path class="st1" d="M1301.03,672.63c-18.18,0-32.97-14.79-32.97-32.97c0-18.18,14.79-32.97,32.97-32.97
	c18.18,0,32.97,14.79,32.97,32.97C1334,657.84,1319.21,672.63,1301.03,672.63z M1301.03,610.19c-16.25,0-29.47,13.22-29.47,29.47
	s13.22,29.47,29.47,29.47s29.47-13.22,29.47-29.47S1317.28,610.19,1301.03,610.19z"/>
<path class="st1" d="M1220.74,1069.21h-15c-0.97,0-1.75-0.78-1.75-1.75V857.09c0-12.16-9.9-22.06-22.07-22.06
	c-12.16,0-22.06,9.9-22.06,22.06v210.37c0,0.97-0.78,1.75-1.75,1.75h-15c-0.97,0-1.75-0.78-1.75-1.75V857.09
	c0-22.37,18.2-40.56,40.56-40.56c22.37,0,40.57,18.2,40.57,40.56v210.37C1222.49,1068.43,1221.7,1069.21,1220.74,1069.21z
	 M1207.49,1065.71h11.5V857.09c0-20.44-16.63-37.06-37.07-37.06c-20.44,0-37.06,16.62-37.06,37.06v208.62h11.5V857.09
	c0-14.09,11.47-25.56,25.56-25.56c14.1,0,25.57,11.47,25.57,25.56V1065.71z"/>
<path class="st1" d="M1269.81,820.03h-87.89c-0.97,0-1.75-0.78-1.75-1.75s0.78-1.75,1.75-1.75h87.89c0.97,0,1.75,0.78,1.75,1.75
	S1270.78,820.03,1269.81,820.03z"/>
<path class="st1" d="M1311.11,1069.21h-90.37c-0.97,0-1.75-0.78-1.75-1.75s0.78-1.75,1.75-1.75h88.62V857.09
	c0-20.44-16.63-37.06-37.07-37.06h-2.48c-0.97,0-1.75-0.78-1.75-1.75s0.78-1.75,1.75-1.75h2.48c22.37,0,40.57,18.2,40.57,40.56
	v210.37C1312.86,1068.43,1312.07,1069.21,1311.11,1069.21z"/>
<path class="st1" d="M1181.92,882.66c-14.09,0-25.56-11.47-25.56-25.57c0-14.09,11.47-25.56,25.56-25.56
	c14.1,0,25.57,11.47,25.57,25.56C1207.49,871.19,1196.02,882.66,1181.92,882.66z M1181.92,835.03c-12.16,0-22.06,9.9-22.06,22.06
	c0,12.17,9.9,22.07,22.06,22.07c12.17,0,22.07-9.9,22.07-22.07C1203.99,844.93,1194.09,835.03,1181.92,835.03z"/>
<path class="st1" d="M1205.74,1069.21h-47.63c-0.97,0-1.75-0.78-1.75-1.75V857.09c0-0.97,0.78-1.75,1.75-1.75s1.75,0.78,1.75,1.75
	c0,12.17,9.9,22.07,22.06,22.07c12.17,0,22.07-9.9,22.07-22.07c0-0.97,0.78-1.75,1.75-1.75s1.75,0.78,1.75,1.75v210.37
	C1207.49,1068.43,1206.7,1069.21,1205.74,1069.21z M1159.86,1065.71h44.13V870c-4.44,7.57-12.67,12.67-22.07,12.67
	c-9.39,0-17.62-5.09-22.06-12.67V1065.71z"/>
<path class="st1" d="M1008.56,799.8c-0.97,0-1.75-0.78-1.75-1.75V639.65c0-26.45,21.52-47.97,47.97-47.97h41.58
	c0.97,0,1.75,0.78,1.75,1.75s-0.78,1.75-1.75,1.75h-41.58c-24.52,0-44.47,19.95-44.47,44.47v158.39
	C1010.31,799.01,1009.52,799.8,1008.56,799.8z"/>
<path class="st1" d="M896.86,951.44c-0.97,0-1.75-0.78-1.75-1.75v-92.59c0-22.37,18.2-40.56,40.56-40.56
	c18.97,0,35.22,12.88,39.51,31.33c0.22,0.94-0.37,1.88-1.31,2.1c-0.93,0.22-1.88-0.37-2.1-1.31c-3.92-16.85-18.77-28.62-36.11-28.62
	c-20.44,0-37.06,16.62-37.06,37.06v92.59C898.61,950.66,897.82,951.44,896.86,951.44z"/>
<path class="st1" d="M911.86,1069.21h-15c-0.97,0-1.75-0.78-1.75-1.75v-44.59c0-0.97,0.78-1.75,1.75-1.75s1.75,0.78,1.75,1.75v42.84
	h11.5v-60.96c0-0.97,0.78-1.75,1.75-1.75s1.75,0.78,1.75,1.75v62.71C913.61,1068.43,912.82,1069.21,911.86,1069.21z"/>
<path class="st1" d="M911.86,928.89c-0.97,0-1.75-0.78-1.75-1.75v-70.04c0-14.09,11.47-25.56,25.56-25.56
	c14.1,0,25.57,11.47,25.57,25.56c0,0.97-0.78,1.75-1.75,1.75s-1.75-0.78-1.75-1.75c0-12.16-9.9-22.06-22.07-22.06
	c-12.16,0-22.06,9.9-22.06,22.06v70.04C913.61,928.1,912.82,928.89,911.86,928.89z"/>
<path class="st1" d="M974.48,1069.21h-15c-0.97,0-1.75-0.78-1.75-1.75V952.44c0-0.97,0.78-1.75,1.75-1.75s1.75,0.78,1.75,1.75
	v113.27h11.5V934.75c0-0.97,0.78-1.75,1.75-1.75s1.75,0.78,1.75,1.75v132.71C976.23,1068.43,975.45,1069.21,974.48,1069.21z"/>
<path class="st1" d="M996.68,820.03h-61.01c-0.97,0-1.75-0.78-1.75-1.75s0.78-1.75,1.75-1.75h61.01c0.97,0,1.75,0.78,1.75,1.75
	S997.64,820.03,996.68,820.03z"/>
<path class="st1" d="M935.67,882.66c-14.09,0-25.56-11.47-25.56-25.57c0-14.09,11.47-25.56,25.56-25.56
	c14.1,0,25.57,11.47,25.57,25.56c0,1.3-0.1,2.61-0.29,3.89c-0.15,0.96-1.04,1.61-1.99,1.46c-0.96-0.15-1.61-1.04-1.46-1.99
	c0.17-1.1,0.25-2.24,0.25-3.36c0-12.16-9.9-22.06-22.07-22.06c-12.16,0-22.06,9.9-22.06,22.06c0,12.17,9.9,22.07,22.06,22.07
	c2.98,0,5.87-0.58,8.59-1.73c0.89-0.38,1.92,0.04,2.29,0.93s-0.04,1.92-0.93,2.29C942.46,881.99,939.12,882.66,935.67,882.66z"/>
<path class="st1" d="M911.86,928.89c-0.97,0-1.75-0.78-1.75-1.75v-70.04c0-0.97,0.78-1.75,1.75-1.75s1.75,0.78,1.75,1.75
	c0,12.17,9.9,22.07,22.06,22.07c2.95,0,5.81-0.57,8.5-1.7c0.89-0.37,1.92,0.05,2.29,0.94c0.37,0.89-0.05,1.92-0.94,2.29
	c-3.12,1.3-6.44,1.97-9.85,1.97c-9.39,0-17.62-5.09-22.06-12.67v57.14C913.61,928.1,912.82,928.89,911.86,928.89z"/>
<path class="st1" d="M959.48,1069.21h-47.63c-0.97,0-1.75-0.78-1.75-1.75v-62.71c0-0.97,0.78-1.75,1.75-1.75s1.75,0.78,1.75,1.75
	v60.96h44.13c-0.01-9.41-0.04-55.28-0.09-101.19c0-0.97,0.78-1.75,1.75-1.75c0,0,0,0,0,0c0.97,0,1.75,0.78,1.75,1.75
	c0.06,51.5,0.09,102.95,0.09,102.95c0,0.46-0.18,0.91-0.51,1.24C960.39,1069.03,959.95,1069.21,959.48,1069.21z"/>
<path class="st1" d="M1143.11,1060.92h-74.98c-0.97,0-1.75-0.78-1.75-1.75s0.78-1.75,1.75-1.75h74.98c0.97,0,1.75,0.78,1.75,1.75
	S1144.07,1060.92,1143.11,1060.92z"/>
<path class="st1" d="M1012.01,1060.92h-37.53c-0.97,0-1.75-0.78-1.75-1.75s0.78-1.75,1.75-1.75h37.53c0.97,0,1.75,0.78,1.75,1.75
	S1012.98,1060.92,1012.01,1060.92z"/>
<path class="st1" d="M911.86,1069.21H702.36c-0.97,0-1.75-0.78-1.75-1.75s0.78-1.75,1.75-1.75h209.49c0.97,0,1.75,0.78,1.75,1.75
	S912.82,1069.21,911.86,1069.21z"/>
<path class="st1" d="M1369.92,1069.21h-58.81c-0.97,0-1.75-0.78-1.75-1.75s0.78-1.75,1.75-1.75h58.81c0.97,0,1.75,0.78,1.75,1.75
	S1370.89,1069.21,1369.92,1069.21z"/>
<path class="st1" d="M517.3,539.01c-0.47,0-0.92-0.19-1.25-0.52c-4.83-4.89-7.38-10.67-7.38-16.72c0-6.04,2.55-11.82,7.38-16.72
	c0.66-0.67,1.83-0.67,2.49,0c4.83,4.89,7.38,10.67,7.38,16.72c0,6.04-2.55,11.82-7.38,16.72
	C518.22,538.82,517.77,539.01,517.3,539.01z M517.3,508.86c-3.36,3.91-5.12,8.34-5.12,12.91s1.77,9,5.12,12.91
	c3.36-3.91,5.12-8.34,5.12-12.91S520.66,512.77,517.3,508.86z"/>
<path class="st1" d="M495.61,608.18c-0.97,0-1.75-0.78-1.75-1.75v-69.17c0-0.97,0.78-1.75,1.75-1.75h21.69
	c0.97,0,1.75,0.78,1.75,1.75s-0.78,1.75-1.75,1.75h-19.94v67.42C497.36,607.4,496.58,608.18,495.61,608.18z"/>
<path class="st1" d="M538.99,566.89c-0.97,0-1.75-0.78-1.75-1.75v-26.13H517.3c-0.97,0-1.75-0.78-1.75-1.75s0.78-1.75,1.75-1.75
	h21.69c0.97,0,1.75,0.78,1.75,1.75v27.88C540.74,566.11,539.96,566.89,538.99,566.89z"/>
<path class="st1" d="M551.4,566.89c-0.54,0-1.05-0.25-1.38-0.67c-2.71-3.48-4.14-7.57-4.14-11.84c0-4.27,1.43-8.36,4.14-11.84
	c0.66-0.85,2.1-0.85,2.76,0c2.71,3.48,4.14,7.57,4.14,11.84c0,4.26-1.43,8.36-4.14,11.84C552.45,566.64,551.94,566.89,551.4,566.89z
	 M551.4,546.76c-1.33,2.35-2.02,4.95-2.02,7.62c0,2.67,0.69,5.26,2.02,7.62c1.33-2.35,2.02-4.95,2.02-7.62
	C553.42,551.71,552.73,549.12,551.4,546.76z"/>
<path class="st1" d="M531.73,608.18c-0.97,0-1.75-0.78-1.75-1.75v-41.29c0-0.97,0.78-1.75,1.75-1.75h19.67
	c0.97,0,1.75,0.78,1.75,1.75s-0.78,1.75-1.75,1.75h-17.92v39.54C533.48,607.4,532.7,608.18,531.73,608.18z"/>
<path class="st1" d="M571.07,608.18c-0.97,0-1.75-0.78-1.75-1.75v-39.54H551.4c-0.97,0-1.75-0.78-1.75-1.75s0.78-1.75,1.75-1.75
	h19.67c0.97,0,1.75,0.78,1.75,1.75v41.29C572.82,607.4,572.03,608.18,571.07,608.18z"/>
<g>
	<path class="st1" d="M702.77,608.18h-89.75c-0.97,0-1.75-0.78-1.75-1.75V551.2c0-0.97,0.78-1.75,1.75-1.75h89.75
		c0.97,0,1.75,0.78,1.75,1.75v55.23C704.52,607.4,703.74,608.18,702.77,608.18z M614.78,604.68h86.25v-51.73h-86.25V604.68z"/>
</g>
<g>
	<path class="st1" d="M692.77,598.18h-69.75c-0.97,0-1.75-0.78-1.75-1.75V561.2c0-0.97,0.78-1.75,1.75-1.75h69.75
		c0.97,0,1.75,0.78,1.75,1.75v35.23C694.52,597.4,693.74,598.18,692.77,598.18z M624.78,594.68h66.25v-31.73h-66.25V594.68z"/>
</g>
<g>
	<path class="st1" d="M623.03,562.95c-0.45,0-0.9-0.17-1.24-0.51l-10-10c-0.68-0.68-0.68-1.79,0-2.47s1.79-0.68,2.47,0l10,10
		c0.68,0.68,0.68,1.79,0,2.47C623.92,562.78,623.47,562.95,623.03,562.95z"/>
</g>
<g>
	<path class="st1" d="M692.77,562.95c-0.45,0-0.9-0.17-1.24-0.51c-0.68-0.68-0.68-1.79,0-2.47l10-10c0.68-0.68,1.79-0.68,2.47,0
		s0.68,1.79,0,2.47l-10,10C693.67,562.78,693.22,562.95,692.77,562.95z"/>
</g>
<g>
	<path class="st1" d="M702.77,608.18c-0.45,0-0.9-0.17-1.24-0.51l-10-10c-0.68-0.68-0.68-1.79,0-2.47s1.79-0.68,2.47,0l10,10
		c0.68,0.68,0.68,1.79,0,2.47C703.67,608.01,703.22,608.18,702.77,608.18z"/>
</g>
<g>
	<path class="st1" d="M613.03,608.18c-0.45,0-0.9-0.17-1.24-0.51c-0.68-0.68-0.68-1.79,0-2.47l10-10c0.68-0.68,1.79-0.68,2.47,0
		s0.68,1.79,0,2.47l-10,10C613.92,608.01,613.47,608.18,613.03,608.18z"/>
</g>
<g>
	<path class="st1" d="M995.88,563.56h-74.33c-0.97,0-1.75-0.78-1.75-1.75v-97.9c0-0.97,0.78-1.75,1.75-1.75h74.33
		c0.97,0,1.75,0.78,1.75,1.75v97.9C997.63,562.78,996.85,563.56,995.88,563.56z M923.3,560.06h70.83v-94.4H923.3V560.06z"/>
</g>
<g>
	<path class="st1" d="M985.88,553.56h-54.33c-0.97,0-1.75-0.78-1.75-1.75v-77.9c0-0.97,0.78-1.75,1.75-1.75h54.33
		c0.97,0,1.75,0.78,1.75,1.75v77.9C987.63,552.78,986.85,553.56,985.88,553.56z M933.3,550.06h50.83v-74.4H933.3V550.06z"/>
</g>
<g>
	<path class="st1" d="M931.55,475.66c-0.45,0-0.9-0.17-1.24-0.51l-10-10c-0.68-0.68-0.68-1.79,0-2.47c0.68-0.68,1.79-0.68,2.47,0
		l10,10c0.68,0.68,0.68,1.79,0,2.47C932.45,475.49,932,475.66,931.55,475.66z"/>
</g>
<g>
	<path class="st1" d="M985.88,475.66c-0.45,0-0.9-0.17-1.24-0.51c-0.68-0.68-0.68-1.79,0-2.47l10-10c0.68-0.68,1.79-0.68,2.47,0
		c0.68,0.68,0.68,1.79,0,2.47l-10,10C986.78,475.49,986.33,475.66,985.88,475.66z"/>
</g>
<g>
	<path class="st1" d="M995.88,563.56c-0.45,0-0.9-0.17-1.24-0.51l-10-10c-0.68-0.68-0.68-1.79,0-2.47s1.79-0.68,2.47,0l10,10
		c0.68,0.68,0.68,1.79,0,2.47C996.78,563.39,996.33,563.56,995.88,563.56z"/>
</g>
<g>
	<path class="st1" d="M921.55,563.56c-0.45,0-0.9-0.17-1.24-0.51c-0.68-0.68-0.68-1.79,0-2.47l10-10c0.68-0.68,1.79-0.68,2.47,0
		s0.68,1.79,0,2.47l-10,10C922.45,563.39,922,563.56,921.55,563.56z"/>
</g>
<path class="st1" d="M854.27,608.18h-33.29c-0.31,0-0.61-0.08-0.88-0.24c-10.74-6.23-17.41-17.81-17.41-30.22
	c0-0.61,0.01-1.21,0.04-1.8c0.74-18.33,12.97-28.92,20.28-35.25c2.16-1.87,5.12-4.43,5.16-5.32c0-4.96-3.71-15.3-3.75-15.4
	c-0.19-0.54-0.11-1.13,0.21-1.6c0.33-0.47,0.86-0.74,1.43-0.74h23.11c0.57,0,1.1,0.28,1.43,0.74c0.33,0.47,0.41,1.06,0.21,1.6
	c-0.04,0.1-3.75,10.45-3.75,15.41c0.04,0.88,3,3.44,5.16,5.32c7.31,6.33,19.54,16.92,20.28,35.27c0.03,0.57,0.04,1.17,0.04,1.78
	c0,12.41-6.67,23.99-17.41,30.22C854.88,608.1,854.58,608.18,854.27,608.18z M821.46,604.68h32.33
	c9.43-5.66,15.27-15.95,15.27-26.96c0-0.55-0.01-1.09-0.04-1.62c-0.68-16.86-11.75-26.45-19.08-32.79
	c-3.83-3.32-6.37-5.52-6.37-7.96c0-4.04,2-10.72,3.15-14.25h-18.22c1.16,3.53,3.15,10.21,3.15,14.25c0,2.45-2.53,4.64-6.37,7.96
	c-7.32,6.34-18.39,15.93-19.07,32.77c-0.03,0.55-0.04,1.09-0.04,1.64C806.19,588.74,812.03,599.02,821.46,604.68z"/>
<path class="st1" d="M914.36,608.18h-36.74c-0.97,0-1.75-0.78-1.75-1.75s0.78-1.75,1.75-1.75h34.27l-29.99-84.74
	c-0.13-0.36-0.13-0.75-0.02-1.12l5.19-16.12h-9.45c-0.97,0-1.75-0.78-1.75-1.75s0.78-1.75,1.75-1.75h11.85
	c0.56,0,1.08,0.27,1.41,0.72c0.33,0.45,0.42,1.03,0.25,1.57l-5.75,17.84l30.62,86.52c0.19,0.54,0.11,1.13-0.22,1.59
	C915.46,607.91,914.93,608.18,914.36,608.18z"/>
<path class="st1" d="M861.08,551.1c-0.19,0-0.39-0.03-0.58-0.1c-0.91-0.32-1.39-1.32-1.07-2.23l10.42-29.44l-5.75-17.84
	c-0.17-0.53-0.08-1.11,0.25-1.57c0.33-0.45,0.85-0.72,1.41-0.72h11.85c0.97,0,1.75,0.78,1.75,1.75s-0.78,1.75-1.75,1.75h-9.45
	l5.19,16.12c0.12,0.37,0.11,0.76-0.02,1.12l-10.62,30C862.48,550.65,861.8,551.1,861.08,551.1z"/>
<path class="st1" d="M468.61,628.03c-10.69,0-16.57-12.54-17.33-21.45c-0.04-0.49,0.12-0.97,0.46-1.33c0.33-0.36,0.8-0.57,1.29-0.57
	h555.52c0.97,0,1.75,0.78,1.75,1.75s-0.78,1.75-1.75,1.75H455.02c1.21,7.19,5.91,16.35,13.6,16.35c0.97,0,1.75,0.78,1.75,1.75
	S469.58,628.03,468.61,628.03z"/>
<path class="st1" d="M1008.56,628.03H468.61c-0.97,0-1.75-0.78-1.75-1.75s0.78-1.75,1.75-1.75h539.94c0.97,0,1.75,0.78,1.75,1.75
	S1009.52,628.03,1008.56,628.03z"/>
<path class="st1" d="M1008.56,638.26H485.48c-10.43,0-14.41-4.52-17.18-11.31c-0.36-0.89,0.07-1.92,0.96-2.28
	c0.89-0.36,1.92,0.07,2.28,0.96c2.41,5.92,5.35,9.13,13.94,9.13h523.08c0.97,0,1.75,0.78,1.75,1.75S1009.52,638.26,1008.56,638.26z"
	/>
<path class="st1" d="M1008.56,704.41H485.48c-10.43,0-14.41-4.52-17.18-11.31c-0.22-0.54-0.16-1.15,0.17-1.64s0.87-0.77,1.45-0.77
	h538.64c0.97,0,1.75,0.78,1.75,1.75s-0.78,1.75-1.75,1.75H472.64c2.28,4.38,5.5,6.72,12.83,6.72h523.08c0.97,0,1.75,0.78,1.75,1.75
	S1009.52,704.41,1008.56,704.41z"/>
<path class="st1" d="M896.86,946.87H469.92c-0.58,0-1.13-0.29-1.45-0.77s-0.39-1.1-0.17-1.64c2.77-6.79,6.75-11.31,17.18-11.31
	h411.38c0.97,0,1.75,0.78,1.75,1.75s-0.78,1.75-1.75,1.75H485.48c-7.34,0-10.55,2.34-12.83,6.72h424.21c0.97,0,1.75,0.78,1.75,1.75
	S897.82,946.87,896.86,946.87z"/>
<path class="st1" d="M485.48,694.19c-0.97,0-1.75-0.78-1.75-1.75v-55.93c0-0.97,0.78-1.75,1.75-1.75s1.75,0.78,1.75,1.75v55.93
	C487.23,693.4,486.44,694.19,485.48,694.19z"/>
<path class="st1" d="M485.48,934.11c-0.97,0-1.75-0.78-1.75-1.75v-229.7c0-0.97,0.78-1.75,1.75-1.75s1.75,0.78,1.75,1.75v229.7
	C487.23,933.32,486.44,934.11,485.48,934.11z"/>
<path class="st1" d="M469.92,1004.17c-0.97,0-1.75-0.78-1.75-1.75v-57.29c0-0.97,0.78-1.75,1.75-1.75s1.75,0.78,1.75,1.75v57.29
	C471.67,1003.38,470.89,1004.17,469.92,1004.17z"/>
<path class="st1" d="M835.85,1004.17H425.77c-0.97,0-1.75-0.78-1.75-1.75s0.78-1.75,1.75-1.75h410.07c0.97,0,1.75,0.78,1.75,1.75
	S836.81,1004.17,835.85,1004.17z"/>
<path class="st1" d="M572.14,936.65h-21.33c-0.97,0-1.75-0.78-1.75-1.75V702.66c0-0.97,0.78-1.75,1.75-1.75h21.33
	c0.97,0,1.75,0.78,1.75,1.75V934.9C573.89,935.87,573.11,936.65,572.14,936.65z M552.56,933.15h17.83V704.41h-17.83V933.15z"/>
<path class="st1" d="M1008.55,764.63c-0.33,0-0.67-0.09-0.97-0.29c-44.48-29.57-123.66-46.52-217.24-46.52
	c-93.58,0-172.76,16.96-217.24,46.52c-0.8,0.54-1.89,0.32-2.43-0.49c-0.54-0.8-0.32-1.89,0.49-2.43
	c63.97-42.52,174.59-47.11,219.18-47.11c44.59,0,155.21,4.59,219.18,47.11c0.8,0.53,1.02,1.62,0.49,2.43
	C1009.68,764.35,1009.12,764.63,1008.55,764.63z"/>
<path class="st1" d="M615.78,743.14c-0.97,0-1.75-0.78-1.75-1.75v-38.74c0-0.97,0.78-1.75,1.75-1.75s1.75,0.78,1.75,1.75v38.74
	C617.53,742.36,616.75,743.14,615.78,743.14z"/>
<path class="st1" d="M659.43,730.79c-0.97,0-1.75-0.78-1.75-1.75v-26.38c0-0.97,0.78-1.75,1.75-1.75s1.75,0.78,1.75,1.75v26.38
	C661.18,730.01,660.39,730.79,659.43,730.79z"/>
<path class="st1" d="M703.07,723.23c-0.97,0-1.75-0.78-1.75-1.75v-18.82c0-0.97,0.78-1.75,1.75-1.75s1.75,0.78,1.75,1.75v18.82
	C704.82,722.45,704.03,723.23,703.07,723.23z"/>
<path class="st1" d="M746.71,719.12c-0.97,0-1.75-0.78-1.75-1.75v-14.71c0-0.97,0.78-1.75,1.75-1.75s1.75,0.78,1.75,1.75v14.71
	C748.46,718.34,747.67,719.12,746.71,719.12z"/>
<path class="st1" d="M964.91,743.14c-0.97,0-1.75-0.78-1.75-1.75v-38.74c0-0.97,0.78-1.75,1.75-1.75s1.75,0.78,1.75,1.75v38.74
	C966.66,742.36,965.88,743.14,964.91,743.14z"/>
<path class="st1" d="M921.27,730.79c-0.97,0-1.75-0.78-1.75-1.75v-26.38c0-0.97,0.78-1.75,1.75-1.75s1.75,0.78,1.75,1.75v26.38
	C923.02,730.01,922.24,730.79,921.27,730.79z"/>
<path class="st1" d="M877.63,723.23c-0.97,0-1.75-0.78-1.75-1.75v-18.82c0-0.97,0.78-1.75,1.75-1.75s1.75,0.78,1.75,1.75v18.82
	C879.38,722.45,878.6,723.23,877.63,723.23z"/>
<path class="st1" d="M833.99,719.12c-0.97,0-1.75-0.78-1.75-1.75v-14.71c0-0.97,0.78-1.75,1.75-1.75s1.75,0.78,1.75,1.75v14.71
	C835.74,718.34,834.96,719.12,833.99,719.12z"/>
<path class="st1" d="M790.35,717.81c-0.97,0-1.75-0.78-1.75-1.75v-13.4c0-0.97,0.78-1.75,1.75-1.75s1.75,0.78,1.75,1.75v13.4
	C792.1,717.03,791.32,717.81,790.35,717.81z"/>
<g>
	<path class="st1" d="M796.02,936.5h-92.96c-0.97,0-1.75-0.78-1.75-1.75v-16.82c0-0.97,0.78-1.75,1.75-1.75h15.88
		c0.13,0,0.25,0.01,0.37,0.04l77.07,16.82c0.87,0.19,1.46,1.01,1.37,1.9S796.92,936.5,796.02,936.5z M704.82,933h74.98l-61.04-13.32
		h-13.94V933z"/>
</g>
<g>
	<path class="st1" d="M869.03,936.5h-31.1c-0.22,0-0.44-0.04-0.65-0.12l-42.39-16.82c-0.78-0.31-1.23-1.13-1.07-1.96
		c0.16-0.83,0.88-1.42,1.72-1.42h73.49c0.97,0,1.75,0.78,1.75,1.75v16.82C870.78,935.72,870,936.5,869.03,936.5z M838.26,933h29.02
		v-13.32H804.7L838.26,933z"/>
</g>
<g>
	<path class="st1" d="M800.45,936.5h-4.43c-0.12,0-0.25-0.01-0.37-0.04l-81.27-17.74c-0.47-0.1-0.87-0.39-1.12-0.8
		c-0.25-0.41-0.32-0.9-0.2-1.36l3.53-13.25c0.24-0.9,1.15-1.46,2.06-1.26l11.03,2.4c0.45,0.1,0.84,0.37,1.09,0.74l70.33,27.92
		c0.78,0.31,1.23,1.13,1.07,1.96C802.02,935.91,801.29,936.5,800.45,936.5z M716.91,915.7l68.39,14.93l-56.78-22.54
		c-0.24-0.1-0.46-0.24-0.63-0.43l-8.36-1.82L716.91,915.7z"/>
</g>
<g>
	<path class="st1" d="M837.93,936.5h-37.47c-0.22,0-0.44-0.04-0.65-0.12l-71.28-28.29c-0.45-0.18-0.8-0.53-0.98-0.98
		c-0.18-0.45-0.16-0.95,0.04-1.39l0.13-0.29c0.03-0.06,0.06-0.11,0.09-0.17l5.83-12.04c0.4-0.83,1.37-1.2,2.22-0.86l102.72,40.76
		c0.78,0.31,1.23,1.13,1.07,1.96C839.49,935.91,838.77,936.5,837.93,936.5z M800.79,933h27.99l-92.7-36.79l-4.51,9.31L800.79,933z"
		/>
</g>
<g>
	<path class="st1" d="M779.36,913.26c-0.22,0-0.44-0.04-0.65-0.12l-17.24-6.84c-0.72-0.29-1.16-1-1.1-1.77
		c0.06-0.77,0.62-1.4,1.38-1.56l74.31-15.81c0.92-0.19,1.82,0.37,2.06,1.27l3.92,15.07c0.13,0.49,0.04,1.01-0.25,1.42
		c-0.28,0.42-0.73,0.69-1.23,0.75l-60.98,7.58C779.5,913.25,779.43,913.26,779.36,913.26z M768.14,905.17l11.45,4.54l58.56-7.28
		l-2.99-11.52L768.14,905.17z"/>
</g>
<g>
	<path class="st1" d="M862.48,919.68h-66.94c-0.22,0-0.44-0.04-0.65-0.12l-16.18-6.42c-0.74-0.29-1.19-1.06-1.09-1.85
		c0.1-0.79,0.73-1.42,1.52-1.51l80.63-10.02c0.94-0.13,1.8,0.54,1.95,1.47l2.49,16.45c0.08,0.5-0.07,1.02-0.4,1.4
		C863.48,919.46,862.99,919.68,862.48,919.68z M795.88,916.18h64.57l-1.93-12.75l-72.16,8.97L795.88,916.18z"/>
</g>
<path class="st1" d="M749.55,901.93c-0.5,0-1-0.22-1.35-0.64c-9.03-10.93-2.65-23.21,4.73-37.43c7.3-14.06,15.57-29.99,13.04-49.81
	c-0.09-0.74,0.29-1.46,0.95-1.79c0.66-0.33,1.47-0.21,2,0.31c12.78,12.43,11.31,28.16,10.24,39.65c-0.64,6.88-1.19,12.81,1.45,15.49
	c2.26,2.29,5.43,0.23,7.12-1.21c5.64-4.8,9.79-15.01,6.4-19.64c-0.51-0.7-0.44-1.66,0.17-2.27c0.61-0.61,1.57-0.69,2.27-0.18
	c32.31,23.42,12.8,51.28,12.6,51.56c-0.57,0.79-1.66,0.96-2.44,0.4c-0.78-0.57-0.96-1.66-0.4-2.44c0.69-0.97,15.85-22.78-7.44-43.2
	c0.25,6.6-4.2,14.45-8.89,18.45c-4.38,3.73-8.83,4.1-11.88,1c-3.78-3.84-3.16-10.53-2.44-18.27c0.94-10.12,2.09-22.44-5.8-32.96
	c0.71,18.51-7.3,33.93-13.84,46.54c-7.09,13.65-12.69,24.44-5.14,33.59c0.62,0.75,0.51,1.85-0.24,2.46
	C750.33,901.8,749.94,901.93,749.55,901.93z"/>
<path class="st1" d="M714.75,918.77c-0.26,0-0.53-0.06-0.78-0.18c-14.08-6.98-25.79-25.02-28.48-43.87
	c-2.6-18.21,3.22-34.92,16.39-47.05c0.63-0.58,1.6-0.62,2.28-0.08c0.68,0.54,0.86,1.49,0.43,2.24c-5.02,8.8-2.79,18.72,1.87,23.59
	c1.85,1.94,5.76,4.79,11.11,2.04c3.01-1.54,4.84-3.73,5.6-6.68c1.83-7.11-2.52-18.53-12.92-33.95c-7.53-11.16-9.25-25.1-4.51-36.37
	c4.37-10.36,13.79-17.35,26.53-19.67c0.64-0.12,1.3,0.13,1.7,0.65c0.4,0.52,0.48,1.21,0.2,1.81c-5.32,11.43-4.67,26.31,1.53,35.38
	c2.67,3.9,7.58,8.43,15.88,7.91c6.6-0.42,12.59-5.84,16.45-14.86c6.48-15.15,6.08-40.24-10.12-59.51c-0.51-0.61-0.55-1.49-0.09-2.14
	c0.46-0.65,1.3-0.91,2.04-0.63c54.2,20.28,51.77,57.34,45.5,77.62c-4.81,15.58-3.98,32.45,0.05,34.83c1.45,0.86,3.67-1.09,4.85-2.33
	c8.79-9.16,8.89-31.89,8.89-32.12c0-0.74,0.46-1.4,1.16-1.65c0.7-0.25,1.47-0.04,1.94,0.53c15.71,18.98,23.88,37.24,24.3,54.27
	c0.35,14.25-4.76,24.63-8.64,31.2c-0.49,0.83-1.56,1.11-2.4,0.62c-0.83-0.49-1.11-1.56-0.62-2.4c5.21-8.83,20.79-35.23-12.44-77.84
	c-0.52,7.58-2.47,22.3-9.68,29.81c-4.21,4.39-7.3,4.01-9.16,2.93c-6.6-3.89-6.3-23.73-1.62-38.88c5.67-18.35,7.94-51.32-37.57-70.97
	c13.3,19.57,13.12,43.24,6.79,58.03c-4.4,10.28-11.48,16.47-19.44,16.98c-7.76,0.5-14.5-2.85-19-9.43
	c-6.29-9.2-7.45-23.71-3.12-35.67c-12.53,3.24-18.18,10.84-20.73,16.88c-4.3,10.19-2.69,22.86,4.18,33.05
	c11.14,16.52,15.53,28.55,13.41,36.78c-1.01,3.93-3.5,6.93-7.39,8.92c-5.3,2.72-11,1.7-15.24-2.74c-4.07-4.26-6.62-11.73-5.33-19.47
	c-8.26,10.55-11.66,23.71-9.64,37.86c2.54,17.78,13.47,34.73,26.57,41.23c0.87,0.43,1.22,1.48,0.79,2.34
	C716.01,918.41,715.39,918.77,714.75,918.77z"/>
<path class="st1" d="M834.02,797.81c-0.01,0-0.02,0-0.03,0c-5.87-0.01-10.5-3.55-13.39-10.23c-6.3-14.56-3.12-42.7,10.41-57.16
	c0.55-0.59,1.42-0.72,2.13-0.33c0.7,0.39,1.05,1.21,0.84,1.98c-6.43,23.93-1.06,35.02,3.84,36.38c2.83,0.78,5.59-1.65,6.87-6.06
	c0.19-0.66,0.75-1.15,1.44-1.25c0.69-0.1,1.36,0.22,1.73,0.8c3.1,4.94,4.22,19.16-0.64,27.94
	C844.33,795.07,839.77,797.81,834.02,797.81z M828.74,739.37c-8.33,14.22-9.85,35.45-4.93,46.83c2.33,5.38,5.75,8.11,10.18,8.12
	c0.01,0,0.02,0,0.02,0c4.47,0,7.88-2.06,10.13-6.12c3.38-6.1,3.36-15.21,2.09-20.71c-2.28,3.61-5.77,5.33-9.35,4.33
	C830.06,769.92,825.17,759.04,828.74,739.37z"/>
<path class="st1" d="M857.65,867.94c-0.5,0-0.98-0.21-1.32-0.6c-0.48-0.56-0.57-1.36-0.2-2c0.06-0.12,6.54-11.99,0.01-23.24
	c-0.64-1.1-1.3-2.21-1.97-3.32c-6.92-11.53-14.77-24.59,0.27-39.62c0.61-0.61,1.56-0.68,2.26-0.18c0.69,0.5,0.92,1.42,0.55,2.18
	c-0.08,0.17-3.32,7.85,7.84,22.21c7.59,9.76,10.43,19.95,8.02,28.68c-1.97,7.12-7.37,12.87-14.82,15.77
	C858.07,867.9,857.86,867.94,857.65,867.94z M853.29,805.83c-8.06,11.25-2.25,20.94,3.87,31.13c0.68,1.13,1.35,2.25,2,3.37
	c4.95,8.53,3.55,17.12,1.91,22.18c4.3-2.72,7.37-6.72,8.66-11.4c2.11-7.65-0.52-16.74-7.41-25.6
	C855.58,816.85,853.61,810.22,853.29,805.83z M855.66,800.38L855.66,800.38L855.66,800.38z"/>
<path class="st1" d="M671.25,842.7c-0.47,0-0.94-0.19-1.28-0.55c-14.09-15.03-9.55-26.83-3.8-41.76c2.76-7.18,5.9-15.31,7.35-25.03
	c0.1-0.67,0.58-1.22,1.23-1.42c0.65-0.2,1.35,0,1.81,0.51c15.33,17.2,7.66,34.92,1.5,49.16c-2.93,6.78-5.47,12.64-5.07,17.19
	c0.07,0.74-0.35,1.45-1.03,1.75C671.74,842.65,671.49,842.7,671.25,842.7z M676.32,779.71c-1.67,8.4-4.41,15.54-6.88,21.93
	c-5.07,13.15-8.84,22.95,0.32,34.87c0.76-4.29,2.81-9.03,5.09-14.29C680.53,809.09,686.93,794.31,676.32,779.71z"/>
<path class="st1" d="M988.47,1084.96c-2.75,0-7.56-0.45-8.84-3.49c-1.4-3.31,2.5-6.87,3.78-8.03c3.57-3.26,9.61-6.33,16.6-9.89
	c12.73-6.48,28.58-14.54,29.92-25.48c0.12-0.96,1-1.64,1.95-1.52c0.96,0.12,1.64,0.99,1.52,1.95
	c-1.58,12.79-17.64,20.96-31.81,28.17c-6.48,3.3-12.6,6.41-15.82,9.35c-2.75,2.51-3.03,3.8-2.91,4.09c0.36,0.85,3.67,1.49,6.8,1.32
	l30.48,0c4.1,0,7.72-2.99,11.54-6.16c4.32-3.57,9.21-7.62,15.57-7.62c0.72,0,1.45,0.01,2.18,0.01c5.7,0.06,11.59,0.12,14.58-3.44
	c2.51-2.99,3.03-8.62,1.52-16.73c-0.83-4.48-1.94-8.85-3.31-13.01c-0.3-0.92,0.2-1.91,1.12-2.21c0.92-0.3,1.91,0.2,2.21,1.12
	c1.42,4.31,2.57,8.84,3.43,13.47c1.73,9.32,0.98,15.73-2.29,19.62c-4.05,4.82-11.09,4.75-17.29,4.69c-0.72-0.01-1.44-0.01-2.14-0.01
	c-5.1,0-9.1,3.31-13.34,6.82c-4.13,3.42-8.41,6.96-13.77,6.96h-30.33C989.47,1084.94,989.01,1084.96,988.47,1084.96z"/>
<path class="st1" d="M1038.64,1040.83c-5,0-9.51-0.69-12.64-2.33c-0.53-0.28-0.88-0.8-0.93-1.39
	c-2.88-31.72-15.7-86.01-24.18-121.93c-3.24-13.71-5.79-24.53-6.9-30.34c-2-10.43,0.07-20.38,5.98-28.76
	c8.76-12.42,25.79-20.9,49.25-24.52c44.92-6.94,75-7.78,75.29-7.79c0.01,0,0.03,0,0.05,0c0.95,0,1.72,0.75,1.75,1.7
	c0.03,0.97-0.74,1.77-1.7,1.79c-0.3,0.01-30.17,0.85-74.85,7.75c-22.5,3.48-38.73,11.46-46.92,23.08
	c-5.35,7.59-7.22,16.61-5.4,26.08c1.1,5.74,3.65,16.53,6.87,30.19c8.42,35.65,21.09,89.33,24.17,121.42
	c8.95,3.77,29.53,0.01,37.67-4.56c-2.19-9.72-2.05-25.63-1.9-43.93c0.3-35.8,0.67-80.35-16.13-101.71c-0.6-0.76-0.47-1.86,0.29-2.46
	c0.76-0.6,1.86-0.47,2.46,0.29c17.57,22.33,17.19,67.56,16.88,103.91c-0.16,18.87-0.3,35.17,2.09,44.29c0.19,0.72-0.1,1.49-0.72,1.9
	C1063.23,1037.43,1049.75,1040.83,1038.64,1040.83z"/>
<path class="st1" d="M781.01,1069.21c-0.57,0-1.12-0.27-1.46-0.78c-1.75-2.63-2.09-5.4-0.99-8.02c2.09-4.97,9.29-8.76,20.81-10.96
	c22.07-4.2,47.45-13.63,54.41-25.2c0.5-0.83,1.57-1.1,2.4-0.6c0.83,0.5,1.1,1.57,0.6,2.4c-8.03,13.36-35.59,22.81-56.75,26.84
	c-13.73,2.62-17.32,6.68-18.24,8.88c-0.63,1.51-0.4,3.1,0.68,4.73c0.54,0.8,0.32,1.89-0.49,2.43
	C781.68,1069.12,781.34,1069.21,781.01,1069.21z"/>
<path class="st1" d="M881.25,1069.21c-0.1,0-0.19-0.01-0.29-0.02c-0.95-0.16-1.6-1.06-1.44-2.02c0.03-0.19,3.19-19.42-0.93-28.23
	c-0.41-0.88-0.03-1.92,0.84-2.33c0.87-0.41,1.92-0.03,2.33,0.84c4.58,9.79,1.35,29.46,1.21,30.29
	C882.83,1068.61,882.09,1069.21,881.25,1069.21z"/>
<path class="st1" d="M885.55,1041.14c-0.49,0-5.22-0.18-18.94-6.38c-9.35-4.22-14.29-8.65-15.54-13.92
	c-1.03-4.34,0.5-8.95,4.68-14.11c6.48-8,18.87-26.69,36.03-52.55c11.27-17,24.05-36.26,38.92-58.21
	c35.08-51.8,50.44-56.86,73.69-64.53c0.56-0.19,1.13-0.37,1.7-0.56c-3.53-1.93-7.11-5.51-10.04-10.22
	c-4.77-7.67-7.95-19.24-2.57-28.72c0.39-0.68,1.17-1.02,1.93-0.84c11.18,2.69,16.68,6.98,18.52,8.71
	c10.14-1.83,14.44-5.78,15.76-7.3c-2.26-7.24,3.03-19.69,3.66-21.15c0.19-0.43,0.55-0.77,0.99-0.94c0.45-0.17,0.94-0.14,1.37,0.06
	c14.19,6.79,28.64,23.48,22.67,48.21c-0.23,0.94-1.17,1.51-2.11,1.29c-0.94-0.23-1.52-1.17-1.29-2.11
	c5.25-21.73-6.68-36.7-19.12-43.39c-1.8,4.65-4.47,13.44-2.6,17.6c0.23,0.52,0.2,1.11-0.09,1.6c-0.17,0.29-4.41,7.26-19.57,9.73
	c-0.61,0.1-1.22-0.13-1.62-0.6c-0.04-0.04-4.37-4.9-16.08-7.99c-3.75,7.93-0.94,17.48,3.1,23.97c3.87,6.21,9.16,10.4,12.9,10.17
	c0.86-0.04,1.65,0.55,1.82,1.41c0.17,0.86-0.32,1.71-1.14,2c-2.46,0.85-4.83,1.63-7.11,2.38c-22.57,7.44-37.47,12.35-71.88,63.17
	c-14.86,21.94-27.63,41.2-38.9,58.19c-17.21,25.95-29.65,44.7-36.23,52.82c-3.45,4.26-4.75,7.89-3.99,11.1
	c0.97,4.08,5.41,7.85,13.58,11.54c9.72,4.39,14.68,5.61,16.58,5.94c11.12-18.52,30.02-38.84,51.85-62.31
	c2.68-2.88,5.41-5.81,8.16-8.79c28.88-31.17,48.56-59.06,51.38-72.79c0.19-0.95,1.13-1.55,2.07-1.36c0.95,0.19,1.56,1.12,1.36,2.07
	c-2.98,14.53-22.51,42.37-52.24,74.46c-2.76,2.98-5.48,5.91-8.17,8.79c-22.08,23.73-41.14,44.23-51.98,62.69
	C886.74,1040.82,886.17,1041.14,885.55,1041.14z"/>
<path class="st1" d="M1012.01,832.48c-0.76,0-1.46-0.5-1.68-1.27c-0.26-0.93,0.28-1.9,1.21-2.16c1.18-0.33,2.44-0.68,3.75-1.03
	c18.41-4.95,48.34-11.37,48.64-11.44c0.94-0.2,1.88,0.4,2.08,1.34c0.2,0.94-0.4,1.88-1.34,2.08c-0.3,0.06-30.13,6.47-48.46,11.4
	c-1.29,0.35-2.53,0.69-3.7,1.02C1012.33,832.46,1012.17,832.48,1012.01,832.48z"/>
<path class="st1" d="M983.99,862.4c-0.5,0-1-0.21-1.35-0.63c-2.48-2.98-3.33-6.78-2.38-10.7c1.71-7.02,8.7-13.57,19.18-17.99
	c0.89-0.38,1.92,0.04,2.29,0.93c0.38,0.89-0.04,1.92-0.93,2.29c-9.31,3.92-15.72,9.75-17.14,15.59c-0.69,2.85-0.12,5.49,1.67,7.63
	c0.62,0.74,0.52,1.85-0.22,2.46C984.79,862.27,984.39,862.4,983.99,862.4z"/>
<path class="st1" d="M990.89,862.4c-0.44,0-0.89-0.17-1.23-0.5c-3.13-3.08-3.55-6.02-3.35-7.94c0.3-2.92,2.14-5.07,3.63-6.03
	c0.81-0.52,1.89-0.29,2.42,0.52c0.52,0.81,0.29,1.89-0.52,2.42c-0.9,0.58-1.89,1.88-2.05,3.45c-0.17,1.69,0.61,3.4,2.33,5.09
	c0.69,0.68,0.7,1.79,0.02,2.47C991.79,862.23,991.34,862.4,990.89,862.4z"/>
<path class="st1" d="M999.17,862.4c-0.34,0-0.69-0.1-1-0.31c-2.53-1.76-3.84-3.64-3.99-5.74c-0.21-2.95,2.06-5.44,3.79-7.05
	c0.71-0.66,1.81-0.62,2.47,0.08c0.66,0.71,0.62,1.81-0.08,2.47c-1.89,1.77-2.77,3.15-2.69,4.25c0.07,0.96,0.91,2.01,2.5,3.11
	c0.79,0.55,0.99,1.64,0.44,2.44C1000.27,862.14,999.73,862.4,999.17,862.4z"/>
<path class="st1" d="M1072.28,873.22c-1.64,0-3.25-0.05-4.84-0.15c-13.36-0.86-21.32-8.44-24.3-15.24c-2.31-5.27-2-10.51,0.83-14.02
	c2.89-3.58,8.01-4.83,14.39-3.53c7.55,1.54,14.16,4.05,20,6.26c12.39,4.69,22.17,8.39,34.55,1.34c9.66-5.5,10.69-13.96,10.45-18.52
	c-0.44-8.25-5.5-16.52-11.76-19.25c-0.89-0.39-1.29-1.42-0.91-2.3s1.42-1.29,2.3-0.91c7.51,3.27,13.34,12.63,13.86,22.27
	c0.5,9.26-3.84,16.98-12.21,21.75c-13.82,7.87-24.8,3.71-37.52-1.11c-5.99-2.27-12.19-4.61-19.46-6.1
	c-5.04-1.03-8.93-0.22-10.96,2.3c-1.97,2.43-2.1,6.42-0.35,10.42c2.57,5.86,9.52,12.4,21.32,13.16
	c26.48,1.69,60.3-11.36,68.75-35.46c6.88-19.59,1.02-35.97-14.92-41.71c-0.91-0.33-1.38-1.33-1.05-2.24
	c0.33-0.91,1.33-1.38,2.24-1.05c17.92,6.46,24.61,24.59,17.03,46.17C1131.23,859.45,1099.18,873.22,1072.28,873.22z"/>
<path class="st1" d="M1065.42,807.34c-2.61,0-5.37-0.88-8.43-3.04c-0.79-0.56-0.97-1.65-0.42-2.44s1.65-0.98,2.44-0.42
	c6.83,4.84,11.52,1.49,18.6-3.59c2.31-1.65,4.92-3.53,7.81-5.21c0.84-0.49,1.91-0.2,2.39,0.63c0.49,0.83,0.21,1.91-0.63,2.39
	c-2.75,1.61-5.19,3.35-7.54,5.04C1074.81,804.18,1070.39,807.34,1065.42,807.34z"/>
<g>
	<path class="st1" d="M1031.32,814.33c-2.71,1.91-4,2.51,1.53,3.06C1035.92,813.36,1035.56,812.89,1031.32,814.33z"/>
	<path class="st1" d="M1032.85,819.14c-0.06,0-0.12,0-0.17-0.01c-3.05-0.31-4.94-0.61-5.37-2.27c-0.41-1.58,0.94-2.53,2.5-3.62
		l0.5-0.35c0.14-0.1,0.29-0.17,0.44-0.23c2.14-0.73,4.34-1.48,5.47,0.08c1.15,1.59-0.37,3.59-1.98,5.7
		C1033.91,818.89,1033.4,819.14,1032.85,819.14z"/>
</g>
<g>
	<path class="st1" d="M1018.41,819.51c-2.11,0-4.18-0.79-5.8-2.26c-0.72-0.65-0.77-1.76-0.12-2.47c0.65-0.71,1.76-0.77,2.47-0.12
		c1.27,1.16,3,1.61,4.61,1.21c1.53-0.38,2.73-1.45,3.28-2.95c0.33-0.91,1.34-1.37,2.25-1.04c0.91,0.33,1.37,1.34,1.04,2.25
		c-0.96,2.61-3.05,4.49-5.73,5.14C1019.75,819.43,1019.08,819.51,1018.41,819.51z"/>
</g>
<g>
	<path class="st1" d="M1037.76,810.98c-1.19,0-2.58-0.28-4.2-1c-0.88-0.39-1.28-1.43-0.89-2.31c0.39-0.88,1.43-1.28,2.31-0.89
		c2.24,1,3.93,0.92,5.03-0.24c1.2-1.26,1.33-3.29,1.07-3.8c-0.44-0.86-0.09-1.92,0.77-2.35c0.86-0.44,1.92-0.09,2.35,0.77
		c0.97,1.91,0.54,5.5-1.65,7.8C1041.71,809.84,1040.16,810.98,1037.76,810.98z"/>
</g>
<path class="st1" d="M485.48,882.66H366.63c-0.97,0-1.75-0.78-1.75-1.75s0.78-1.75,1.75-1.75h118.84c0.97,0,1.75,0.78,1.75,1.75
	S486.44,882.66,485.48,882.66z"/>
<path class="st1" d="M1464.44,882.66h-150.87c-0.97,0-1.75-0.78-1.75-1.75s0.78-1.75,1.75-1.75h150.87c0.97,0,1.75,0.78,1.75,1.75
	S1465.4,882.66,1464.44,882.66z"/>
<path class="st1" d="M1137.21,607.18c-2.59,0-5.08-0.27-7.46-0.81c-3.19-0.72-5.66-2.77-7.35-6.07c-4.99-9.77-2-29.97,3.87-44.8
	c-4.29-1.24-14.72-5.09-26.62-15.6c-0.57-0.5-0.75-1.32-0.44-2.02c0.31-0.7,1.03-1.11,1.79-1.03c0.19,0.02,17.59,1.81,28.47-7.99
	c-1.65-0.73-3.78-2.15-6.47-4.71c-0.51-0.49-0.68-1.23-0.43-1.88c0.25-0.66,0.87-1.1,1.57-1.13c4.78-0.19,9.24-2.44,14.4-5.04
	c9.92-5.01,22.27-11.24,41.75-3.12c11.83,4.93,19.43,14.78,21.4,27.73c2.45,16.04-4.43,33.94-17.1,44.56
	C1167.48,599.6,1150.98,607.18,1137.21,607.18z M1105.84,540.51c12.78,10,23.03,12.05,23.14,12.07c0.52,0.1,0.97,0.43,1.22,0.9
	c0.25,0.47,0.28,1.02,0.07,1.51c-5.92,13.9-9.43,34.57-4.75,43.73c1.21,2.37,2.85,3.76,5.01,4.25c13.96,3.17,32.36-4.07,51.82-20.38
	c11.77-9.86,18.16-26.48,15.89-41.35c-1.78-11.7-8.63-20.59-19.29-25.03c-17.99-7.5-29.06-1.91-38.83,3.01
	c-3.99,2.01-7.81,3.94-11.83,4.87c2.65,1.97,3.89,1.96,4.1,1.94c0.7-0.31,1.52-0.13,2.03,0.45c0.56,0.65,0.57,1.62,0.01,2.28
	C1126.13,538.59,1113.07,540.35,1105.84,540.51z M1132.17,526.14C1132.17,526.14,1132.17,526.15,1132.17,526.14
	C1132.17,526.15,1132.17,526.14,1132.17,526.14z M1132.18,526.14C1132.18,526.14,1132.18,526.14,1132.18,526.14
	C1132.18,526.14,1132.18,526.14,1132.18,526.14z"/>
<path class="st1" d="M1164.51,634.86c-0.51,0-1.01-0.22-1.36-0.64c-4.9-6-1.18-18.44,3.12-32.85c4.19-14.02,8.94-29.92,3.17-36.1
	c-0.33-0.35-0.5-0.82-0.47-1.3c0.03-0.48,0.25-0.92,0.62-1.23c4.67-3.92,4.7-7.96,4.5-9.52c-0.22-1.65-0.96-3.01-2.02-3.79
	c-4.35,1.75-24.66,9.32-43.67,6.6c-0.96-0.14-1.62-1.02-1.49-1.98c0.14-0.96,1.02-1.62,1.98-1.49c20,2.86,42.4-6.6,42.62-6.69
	c0.46-0.2,0.98-0.19,1.43,0.02c2.48,1.16,4.2,3.72,4.62,6.86c0.53,4.02-1.08,8.14-4.46,11.51c5.48,8.1,0.93,23.34-3.48,38.11
	c-3.68,12.32-7.49,25.07-3.76,29.63c0.61,0.75,0.5,1.85-0.25,2.46C1165.29,634.73,1164.9,634.86,1164.51,634.86z"/>
<path class="st1" d="M1127.17,631.9c-0.39,0-0.78-0.13-1.1-0.39c-0.75-0.61-0.87-1.71-0.26-2.46c0.09-0.11,8.75-10.9,13.33-24.34
	c0.31-0.91,1.3-1.41,2.22-1.09c0.92,0.31,1.4,1.31,1.09,2.22c-4.79,14.05-13.56,24.96-13.93,25.42
	C1128.19,631.68,1127.68,631.9,1127.17,631.9z"/>
<path class="st1" d="M1143.47,686.42c-0.11,0-0.21-0.01-0.32-0.03c-0.62-0.11-1.12-0.55-1.33-1.14c-0.07-0.2-6.92-19.54-12.42-25.78
	c-2.46,0.17-11.68,1.54-22.92,12.65c-0.52,0.52-1.31,0.65-1.97,0.34c-0.66-0.31-1.06-1-1-1.73c0.1-1.13,2.46-27.84,7.58-38.38
	c0.1-0.22,0.25-0.41,0.44-0.56c4.34-3.72,13.2-7,13.57-7.14c0.48-0.17,1.02-0.13,1.47,0.12c0.45,0.25,0.76,0.7,0.85,1.2
	c1.19,6.42,5.12,22.1,6.56,27.75c16.63-8.32,32.11-23.41,32.27-23.57c0.54-0.53,1.37-0.65,2.04-0.3c0.14,0.07,3.45,1.83,10.87,7.18
	c0.65,0.47,0.9,1.32,0.6,2.07c-2.81,7.04-14.25,22.31-34.96,46.71C1144.47,686.2,1143.98,686.42,1143.47,686.42z M1132.69,657.97
	c4.5,5.76,9.31,17.77,11.39,23.27c17.83-21.11,28.54-35.28,31.88-42.2c-4.17-2.97-6.86-4.66-8.22-5.47
	c-3.86,3.64-18.52,16.95-34.19,24.24C1133.27,657.94,1132.97,657.99,1132.69,657.97z M1114.07,634.21
	c-3.53,7.61-5.72,24.19-6.61,32.25c12.66-10.9,22.33-10.52,22.77-10.5c0.27,0.01,0.52,0.09,0.75,0.22
	c-0.78-3.07-4.87-19.12-6.6-27.49C1121.7,629.79,1116.86,631.95,1114.07,634.21z"/>
<path class="st1" d="M1116.21,719.31c-0.7,0-1.33-0.41-1.61-1.05c-11.67-26.92-4.95-52.3-4.66-53.37c0.25-0.93,1.21-1.48,2.15-1.23
	c0.93,0.25,1.48,1.22,1.23,2.15c-0.06,0.24-6.01,22.79,2.9,47.09c4.81-10.74,14.69-26.52,23.49-33.45c0.76-0.6,1.86-0.47,2.46,0.29
	c0.6,0.76,0.47,1.86-0.29,2.46c-9.37,7.38-20.49,26.23-24.03,35.96c-0.25,0.67-0.88,1.13-1.59,1.15
	C1116.25,719.31,1116.23,719.31,1116.21,719.31z"/>
<path class="st1" d="M1118.24,699.97c-0.09,0-0.18-0.01-0.27-0.02c-0.64-0.1-1.18-0.55-1.39-1.16c-3.46-10.16-2.48-30.39,0.8-38.66
	c0.36-0.9,1.37-1.34,2.27-0.98c0.9,0.36,1.34,1.37,0.98,2.27c-2.68,6.76-3.71,22.82-1.64,32.86c6.57-8.75,11.62-14.9,19.33-21.26
	c0.74-0.62,1.85-0.51,2.46,0.24c0.62,0.75,0.51,1.85-0.24,2.46c-7.59,6.27-12.39,12.07-20.91,23.54
	C1119.31,699.71,1118.78,699.97,1118.24,699.97z"/>
<path class="st1" d="M1074.8,803.7c-0.88,0-1.64-0.66-1.74-1.56c-8.31-74.95,0.32-139.18,21.99-163.65
	c0.22-0.25,0.52-0.44,0.84-0.53c0.41-0.11,9.99-2.74,15.24-3.21c0.94-0.09,1.81,0.63,1.9,1.59c0.08,0.96-0.63,1.81-1.59,1.9
	c-4.28,0.38-12.07,2.41-14.11,2.96c-20.79,24.05-28.95,86.94-20.78,160.55c0.11,0.96-0.59,1.83-1.55,1.93
	C1074.93,803.7,1074.87,803.7,1074.8,803.7z"/>
<path class="st1" d="M1186.14,648.49c-0.21,0-0.42-0.04-0.63-0.12l-10.22-3.97c-0.9-0.35-1.35-1.36-1-2.26
	c0.35-0.9,1.37-1.34,2.26-1l10.22,3.97c0.9,0.35,1.35,1.36,1,2.26C1187.5,648.07,1186.84,648.49,1186.14,648.49z"/>
<path class="st1" d="M1192.24,756.41c-0.1,0-0.19-0.01-0.29-0.02c-0.63-0.11-1.16-0.55-1.36-1.16
	c-0.14-0.41-13.97-41.16-16.47-70.41c-2.65-31.04,7.1-38.11,11.41-39.71c0.07-0.02,0.13-0.04,0.2-0.06
	c3.51-0.85,7.14,0.11,10.8,2.83c15.57,11.6,28.65,52.96,31.08,98.33c0.03,0.62-0.27,1.22-0.79,1.56c-0.52,0.34-1.19,0.38-1.74,0.1
	c-7.15-3.58-23.88-1.81-31.46,7.87C1193.29,756.17,1192.78,756.41,1192.24,756.41z M1186.65,648.42
	c-5.69,2.21-11.02,12.83-9.04,36.1c2.08,24.38,12.2,57.01,15.35,66.73c8.37-8.12,22.57-10.03,31-7.56
	c-3.05-48.43-17.36-83.96-29.52-93.02C1191.69,648.63,1189.07,647.87,1186.65,648.42z"/>
<path class="st1" d="M1202.58,790.1c-0.76,0-1.47-0.5-1.68-1.28c-0.04-0.16-4.5-16-10.32-33.62c-0.3-0.92,0.2-1.91,1.11-2.21
	c0.92-0.3,1.91,0.2,2.21,1.11c5.84,17.69,10.32,33.61,10.36,33.76c0.26,0.93-0.28,1.9-1.21,2.16
	C1202.9,790.08,1202.74,790.1,1202.58,790.1z"/>
<path class="st1" d="M1164.58,799.97c-9.91,0-21.23-5.22-30.5-9.5c-5.89-2.72-11.45-5.29-14.42-5.35
	c-12.14-0.29-28.45,5.5-31.21,8.48c2.18,0.05,7.27-1.12,11.15-1.99c8.19-1.84,17.48-3.92,23.05-2.5c0.94,0.24,1.5,1.19,1.26,2.13
	c-0.24,0.94-1.19,1.5-2.13,1.26c-4.75-1.22-13.99,0.86-21.41,2.52c-8.68,1.95-12.94,2.82-14.86,1.21c-0.64-0.53-0.98-1.3-0.94-2.15
	c0.26-6.68,23.45-12.47,34.55-12.47c0.21,0,0.42,0,0.62,0.01c3.7,0.08,9.04,2.55,15.81,5.67c9.85,4.55,22.11,10.21,31.71,9.02
	c5.36-0.66,10.94-2.61,16.35-4.5c11.05-3.86,22.48-7.86,32.81-1.21c0.81,0.52,1.05,1.61,0.53,2.42c-0.52,0.81-1.61,1.05-2.42,0.53
	c-8.9-5.72-19.04-2.18-29.76,1.57c-5.58,1.95-11.35,3.96-17.08,4.67C1166.67,799.91,1165.63,799.97,1164.58,799.97z"/>
<path class="st1" d="M1220.74,820.03c-13.25,0-30.29-2.84-46.76-5.6c-13.57-2.27-26.39-4.41-34.54-4.41c-0.97,0-1.75-0.78-1.75-1.75
	s0.78-1.75,1.75-1.75c8.44,0,21.4,2.17,35.12,4.46c15.57,2.6,33.22,5.55,46.18,5.55c2.71,0,4.83-1.04,6.47-3.18
	c10.82-14.09-2.9-66.08-3.04-66.61c-0.25-0.93,0.3-1.89,1.24-2.14c0.93-0.26,1.89,0.3,2.14,1.24c0.59,2.21,14.3,54.19,2.43,69.64
	C1227.67,818.5,1224.56,820.03,1220.74,820.03z"/>
<path class="st1" d="M1031.94,734.02c-3.59,0-6.52-1.34-8.38-3.89c-5.15-7.03-2.07-21.89,9.15-44.17
	c11.46-22.75,31.66-50.13,46.41-70.12c7.7-10.43,14.97-20.29,15.49-22.37c-0.49-5.24,1.32-10.98,4.83-15.38
	c1.66-2.07,3.64-2.81,5.56-3.52c2.8-1.04,5.98-2.21,9.66-8.3c0.28-0.47,0.77-0.78,1.31-0.83c0.55-0.06,1.08,0.14,1.46,0.54
	c1.79,1.9,2.53,4.27,2.21,7.04c-0.92,8.05-10.73,16.93-13.42,18.73c-0.8,0.54-1.89,0.32-2.43-0.49c-0.54-0.8-0.32-1.89,0.49-2.43
	c2.99-1.99,11.17-10,11.89-16.21c0.09-0.77,0.05-1.48-0.11-2.12c-3.69,5.08-7.07,6.33-9.84,7.36c-1.74,0.64-2.99,1.11-4.04,2.42
	c-2.99,3.74-4.51,8.59-4.07,12.98c0.22,2.19-2.87,6.63-16.17,24.66c-14.68,19.89-34.78,47.13-46.1,69.61
	c-13.88,27.55-11.88,37.22-9.45,40.53c1.91,2.6,5.19,2.68,7.61,2.29c9.58-1.55,33.72-18.61,37.87-21.59
	c1.84-15.5-7.72-19.03-8.14-19.17c-0.91-0.32-1.4-1.31-1.08-2.22c0.31-0.91,1.29-1.4,2.21-1.09c0.13,0.04,13.03,4.59,10.39,23.71
	c-0.07,0.47-0.32,0.89-0.7,1.17c-1.17,0.85-28.72,20.83-39.98,22.65C1033.65,733.95,1032.78,734.02,1031.94,734.02z M1094.62,593.4
	L1094.62,593.4L1094.62,593.4z"/>
<path class="st1" d="M1104.94,578.22c-0.01,0-0.02,0-0.03,0c-0.97-0.02-1.74-0.82-1.72-1.78c0.23-12.4,0.31-19.57,0.31-19.64
	c0.01-0.96,0.79-1.73,1.75-1.73c0.01,0,0.01,0,0.02,0c0.97,0.01,1.74,0.8,1.73,1.77c0,0.07-0.08,7.26-0.31,19.67
	C1106.67,577.45,1105.89,578.22,1104.94,578.22z"/>
<path class="st1" d="M1103.77,615.6c-0.71,0-1.38-0.43-1.64-1.14c-0.18-0.49-0.13-1.01,0.1-1.43c0.03-0.39,0.06-1.17,0.11-2.17
	c0.12-2.86,0.38-8.82,1.17-20.68c0.07-0.97,0.91-1.69,1.86-1.63c0.96,0.06,1.69,0.9,1.63,1.86c-0.79,11.82-1.05,17.75-1.17,20.59
	c-0.14,3.32-0.17,4.01-1.45,4.49C1104.18,615.57,1103.97,615.6,1103.77,615.6z M1103.15,612.21L1103.15,612.21L1103.15,612.21z"/>
<path class="st1" d="M1105.25,558.56c-0.79,0-1.51-0.54-1.7-1.34c-0.23-0.94,0.35-1.88,1.29-2.11l17.77-4.27
	c0.95-0.23,1.89,0.35,2.11,1.29c0.23,0.94-0.35,1.88-1.29,2.11l-17.77,4.27C1105.52,558.55,1105.38,558.56,1105.25,558.56z"/>
<path class="st1" d="M1105.25,615.6c-0.79,0-1.51-0.54-1.7-1.34c-0.23-0.94,0.35-1.88,1.29-2.11l22.07-5.31v-1.41
	c0-0.97,0.78-1.75,1.75-1.75s1.75,0.78,1.75,1.75v2.79c0,0.81-0.55,1.51-1.34,1.7l-23.41,5.63
	C1105.52,615.59,1105.38,615.6,1105.25,615.6z"/>
<path class="st1" d="M1058.01,699.3c-0.35,0-0.71-0.11-1.02-0.33c-0.78-0.57-0.96-1.66-0.4-2.44
	c11.39-15.81,21.41-38.98,29.46-57.59c6.54-15.13,12.19-28.2,16.92-33.65c0.63-0.73,1.74-0.81,2.47-0.17
	c0.73,0.63,0.81,1.74,0.17,2.47c-4.37,5.04-9.92,17.87-16.35,32.74c-8.12,18.77-18.21,42.13-29.83,58.25
	C1059.08,699.05,1058.55,699.3,1058.01,699.3z"/>
<path class="st1" d="M1082.26,653.74c-0.38,0-0.77-0.12-1.09-0.38c-0.76-0.6-0.88-1.7-0.28-2.46c1.64-2.06,10.07-12.36,15.26-12.98
	c0.95-0.12,1.83,0.57,1.94,1.53c0.11,0.96-0.57,1.83-1.53,1.94c-2.77,0.33-9.23,7.03-12.93,11.68
	C1083.29,653.51,1082.78,653.74,1082.26,653.74z"/>
<path class="st1" d="M1269.78,595.22c-33,0-80.63-0.03-83.65-0.03c-0.97,0-1.75-0.79-1.75-1.75s0.78-1.75,1.75-1.75h0
	c1.12,0,112.31,0.07,114.84,0c0.99-0.03,1.77,0.73,1.8,1.7c0.03,0.97-0.73,1.77-1.7,1.8
	C1300.19,595.21,1286.97,595.22,1269.78,595.22z"/>
<path class="st1" d="M1143.11,895.74h-87.85c-0.97,0-1.75-0.78-1.75-1.75s0.78-1.75,1.75-1.75h87.85c0.97,0,1.75,0.78,1.75,1.75
	S1144.07,895.74,1143.11,895.74z"/>
<g>
	<path class="st2" d="M768.09,308.77h10.79v4.05h-10.79V308.77z"/>
	<path class="st2" d="M789.46,316.31v-15.42c0-5.15,2.86-8.15,8.02-8.15c5.2,0,7.97,3,7.97,8.15v2.73h-4.71v-2.95
		c0-2.38-1.19-3.57-3.13-3.57c-1.94,0-3.13,1.19-3.13,3.57v15.86c0,2.38,1.19,3.57,3.13,3.57c1.94,0,3.13-1.19,3.13-3.57v-3.88h4.71
		v3.66c0,5.15-2.77,8.15-7.97,8.15C792.32,324.46,789.46,321.46,789.46,316.31z"/>
	<path class="st2" d="M823.9,308.95v4.93h-10.62v3.3c0,2.11,1.01,3.13,3,3.13s3-1.01,3-3.17v-0.44h4.63v0.22
		c0,4.71-2.78,7.53-7.71,7.53c-5.02,0-7.75-2.82-7.75-7.75v-7.75c0-4.98,2.73-7.75,7.75-7.75
		C821.17,301.2,823.9,303.97,823.9,308.95z M819.19,310.23v-1.81c0-2.11-1.06-3.13-2.95-3.13c-1.89,0-2.95,1.01-2.95,3.13v1.81
		H819.19z"/>
	<path class="st2" d="M843.24,301.64v22.38h-4.4v-14.41l-6.26,14.41h-4.98v-22.38h4.45v14.4l6.3-14.4H843.24z M829.76,293.18h3.04
		c0.18,1.67,1.15,2.2,2.64,2.2c1.5,0,2.55-0.53,2.77-2.2h2.95c-0.09,3.35-2.11,5.51-5.73,5.51S829.89,296.53,829.76,293.18z"/>
	<path class="st2" d="M862,301.64v22.38h-4.85v-10.31c-1.01,1.54-2.6,2.38-4.67,2.38c-3.61,0-5.77-2.25-5.77-6.96v-7.49h4.85v6.83
		c0,2.33,0.75,3.39,2.51,3.39c1.94,0,3.08-1.28,3.08-4.23v-5.99H862z"/>
	<path class="st2" d="M876.76,324.02c-0.18-0.26-0.35-1.54-0.4-3.3c-0.84,2.33-2.73,3.74-5.51,3.74c-3.39,0-5.55-2.2-5.55-5.77
		c0-3.44,1.5-5.64,6.04-7.22c3.92-1.37,4.49-1.85,4.49-3.22v-0.22c0-1.89-0.79-2.78-2.51-2.78c-1.89,0-2.73,1.1-2.73,3v0.4h-4.49
		v-0.26c0-4.54,2.55-7.18,7.27-7.18c5.24,0,7.27,2.73,7.27,7.8v8.5c0,3.22,0.22,5.24,0.57,6.52H876.76z M875.84,316.09v-3.04
		c-0.48,0.48-1.41,0.92-3.04,1.59c-1.94,0.79-2.69,1.85-2.69,3.3c0,1.59,0.79,2.47,2.42,2.47
		C874.47,320.4,875.84,319.04,875.84,316.09z"/>
	<path class="st2" d="M884.34,316.75v-7.84c0-4.93,2.73-7.71,7.67-7.71c4.98,0,7.44,3,7.44,7.67v0.92h-4.67v-1.28
		c0-1.98-0.84-3.08-2.78-3.08s-2.82,1.1-2.82,3.08v8.63c0,1.94,0.88,3.08,2.82,3.08s2.78-1.15,2.78-3.08v-1.76h4.67v1.37
		c0,4.71-2.42,7.71-7.44,7.71C887.07,324.46,884.34,321.68,884.34,316.75z"/>
	<path class="st2" d="M925.7,324.02h-4.85v-18.37h-5.55v18.37h-4.85v-22.38h15.24V324.02z"/>
	<path class="st2" d="M944.95,308.95v4.93h-10.62v3.3c0,2.11,1.01,3.13,3,3.13s3-1.01,3-3.17v-0.44h4.63v0.22
		c0,4.71-2.78,7.53-7.71,7.53c-5.02,0-7.75-2.82-7.75-7.75v-7.75c0-4.98,2.73-7.75,7.75-7.75
		C942.21,301.2,944.95,303.97,944.95,308.95z M940.23,310.23v-1.81c0-2.11-1.06-3.13-2.95-3.13c-1.89,0-2.95,1.01-2.95,3.13v1.81
		H940.23z"/>
	<path class="st2" d="M964.02,308.16v9.29c0,4.76-2.03,7-5.64,7c-2.16,0-3.88-0.97-4.89-2.64v9.03h-4.85v-29.21h4.18l0.09,3.44
		c0.88-2.47,2.82-3.88,5.46-3.88C961.99,301.2,964.02,303.44,964.02,308.16z M959.17,308.77c0-2.2-0.66-3.35-2.56-3.35
		c-1.89,0-3.13,1.32-3.13,4.23V316c0,2.91,1.23,4.23,3.13,4.23c1.89,0,2.56-1.19,2.56-3.35V308.77z"/>
	<path class="st2" d="M982.87,308.95v4.93h-10.62v3.3c0,2.11,1.01,3.13,3,3.13s3-1.01,3-3.17v-0.44h4.62v0.22
		c0,4.71-2.78,7.53-7.71,7.53c-5.02,0-7.75-2.82-7.75-7.75v-7.75c0-4.98,2.73-7.75,7.75-7.75
		C980.14,301.2,982.87,303.97,982.87,308.95z M978.16,310.23v-1.81c0-2.11-1.06-3.13-2.95-3.13s-2.95,1.01-2.95,3.13v1.81H978.16z"
		/>
	<path class="st2" d="M985.56,318.02v-1.32h4.58v0.75c0,1.81,1.01,2.69,2.95,2.69s2.95-0.93,2.95-2.82v-0.31
		c0-1.98-1.19-2.73-3.66-2.73h-1.72v-3.79h1.89c2.2,0,3.35-0.62,3.35-2.38v-0.09c0-1.76-0.97-2.56-2.86-2.56
		c-1.85,0-2.78,0.93-2.78,2.47v0.18h-4.54v-0.53c0-4.1,2.69-6.39,7.49-6.39c4.76,0,7.49,2.25,7.49,6.12v0.09
		c0,2.42-1.1,3.96-3.35,4.71v0.04c2.33,0.75,3.48,2.38,3.48,5.2v0.35c0,4.32-2.78,6.74-7.62,6.74S985.56,322.21,985.56,318.02z"/>
	<path class="st2" d="M1004.36,301.64h8.37c4.63,0,7.22,1.67,7.22,5.73v0.26c0,2.38-0.92,3.96-2.86,4.71v0.09
		c2.29,0.71,3.44,2.42,3.44,5.07v0.22c0,4.14-2.56,6.3-7.4,6.3h-8.77V301.64z M1012.16,310.71c1.94,0,2.95-0.66,2.95-2.64v-0.26
		c0-1.72-0.88-2.25-2.55-2.25h-3.35v5.15H1012.16z M1013.04,320.09c1.76,0,2.64-0.66,2.64-2.64v-0.26c0-1.67-0.84-2.56-3.26-2.56
		h-3.22v5.46H1013.04z"/>
	<path class="st2" d="M1023.39,316.7v-7.75c0-4.98,2.78-7.75,7.67-7.75c4.93,0,7.71,2.77,7.71,7.75v7.75c0,4.93-2.78,7.75-7.71,7.75
		C1026.17,324.46,1023.39,321.64,1023.39,316.7z M1033.92,317.1v-8.55c0-1.89-0.88-3.13-2.86-3.13s-2.82,1.23-2.82,3.13v8.55
		c0,1.89,0.88,3.13,2.82,3.13C1033.04,320.23,1033.92,318.99,1033.92,317.1z"/>
	<path class="st2" d="M1058.06,301.64v22.38h-4.85v-9.74h-5.82v9.74h-4.85v-22.38h4.85v8.63h5.82v-8.63H1058.06z"/>
	<path class="st2" d="M1087,308.95v7.75c0,4.93-2.73,7.75-7.67,7.75c-4.89,0-7.67-2.82-7.67-7.75v-2.38h-4.45v9.69h-4.85v-22.42
		h4.85v8.72h4.45v-1.37c0-4.98,2.78-7.75,7.67-7.75C1084.27,301.2,1087,303.97,1087,308.95z M1082.2,308.55
		c0-1.89-0.88-3.13-2.86-3.13s-2.82,1.23-2.82,3.13v8.55c0,1.89,0.88,3.13,2.82,3.13c1.98,0,2.86-1.23,2.86-3.13V308.55z"/>
	<path class="st2" d="M1113.56,324.02h-4.85v-18.37h-5.55v18.37h-4.85v-22.38h15.24V324.02z"/>
	<path class="st2" d="M1117.35,316.7v-7.75c0-4.98,2.78-7.75,7.67-7.75c4.93,0,7.71,2.77,7.71,7.75v7.75c0,4.93-2.78,7.75-7.71,7.75
		C1120.12,324.46,1117.35,321.64,1117.35,316.7z M1127.87,317.1v-8.55c0-1.89-0.88-3.13-2.86-3.13s-2.82,1.23-2.82,3.13v8.55
		c0,1.89,0.88,3.13,2.82,3.13C1126.99,320.23,1127.87,318.99,1127.87,317.1z"/>
	<path class="st2" d="M768.93,345.69h8.37c4.63,0,7.22,1.67,7.22,5.73v0.26c0,2.38-0.92,3.96-2.86,4.71v0.09
		c2.29,0.71,3.44,2.42,3.44,5.07v0.22c0,4.14-2.56,6.3-7.4,6.3h-8.77V345.69z M776.73,354.76c1.94,0,2.95-0.66,2.95-2.64v-0.26
		c0-1.72-0.88-2.25-2.56-2.25h-3.35v5.15H776.73z M777.61,364.14c1.76,0,2.64-0.66,2.64-2.64v-0.26c0-1.67-0.84-2.56-3.26-2.56
		h-3.22v5.46H777.61z"/>
	<path class="st2" d="M804.13,345.69v22.38h-4.41v-14.41l-6.26,14.41h-4.98v-22.38h4.45v14.4l6.3-14.4H804.13z"/>
	<path class="st2" d="M827.96,363.97v8.24h-4.8v-4.14h-11.19v4.14h-4.85v-8.24h2.82c0.66-0.62,0.93-1.5,1.01-3.08l0.79-15.2h13.79
		v18.28H827.96z M820.69,363.97v-14.27h-4.36l-0.57,10.84c-0.09,1.63-0.4,2.69-1.32,3.44H820.69z"/>
	<path class="st2" d="M845.88,353v4.93h-10.62v3.3c0,2.11,1.01,3.13,3,3.13s3-1.01,3-3.17v-0.44h4.63v0.22
		c0,4.71-2.78,7.53-7.71,7.53c-5.02,0-7.75-2.82-7.75-7.75V353c0-4.98,2.73-7.75,7.75-7.75C843.15,345.24,845.88,348.02,845.88,353z
		 M841.17,354.28v-1.81c0-2.11-1.06-3.13-2.95-3.13c-1.89,0-2.95,1.01-2.95,3.13v1.81H841.17z"/>
	<path class="st2" d="M849.05,360.75V353c0-4.98,2.77-7.75,7.66-7.75c4.93,0,7.71,2.77,7.71,7.75v7.75c0,4.93-2.77,7.75-7.71,7.75
		C851.83,368.5,849.05,365.68,849.05,360.75z M859.58,361.15v-8.55c0-1.89-0.88-3.13-2.86-3.13s-2.82,1.23-2.82,3.13v8.55
		c0,1.89,0.88,3.13,2.82,3.13C858.7,364.27,859.58,363.04,859.58,361.15z"/>
	<path class="st2" d="M867.68,360.79v-7.84c0-4.93,2.73-7.71,7.67-7.71c4.98,0,7.45,3,7.45,7.67v0.92h-4.67v-1.28
		c0-1.98-0.84-3.08-2.78-3.08c-1.94,0-2.82,1.1-2.82,3.08v8.63c0,1.94,0.88,3.08,2.82,3.08c1.94,0,2.78-1.15,2.78-3.08v-1.76h4.67
		v1.37c0,4.71-2.42,7.71-7.45,7.71C870.42,368.5,867.68,365.73,867.68,360.79z"/>
	<path class="st2" d="M886.27,345.69h8.37c4.63,0,7.22,1.67,7.22,5.73v0.26c0,2.38-0.92,3.96-2.86,4.71v0.09
		c2.29,0.71,3.44,2.42,3.44,5.07v0.22c0,4.14-2.56,6.3-7.4,6.3h-8.77V345.69z M894.07,354.76c1.94,0,2.95-0.66,2.95-2.64v-0.26
		c0-1.72-0.88-2.25-2.55-2.25h-3.35v5.15H894.07z M894.95,364.14c1.76,0,2.64-0.66,2.64-2.64v-0.26c0-1.67-0.84-2.56-3.26-2.56
		h-3.22v5.46H894.95z"/>
	<path class="st2" d="M905.52,365.11v-2.2c0-3.48,0.92-5.15,3.35-5.68v-0.04c-2.25-0.75-3.3-2.42-3.3-5.29v-0.09
		c0-4.27,2.29-6.12,7.58-6.12h8.33v22.38h-4.85v-8.55h-2.77c-2.64,0-3.52,0.84-3.52,3.08v2.42c0,1.76-0.18,2.25-0.48,3.04h-4.89
		C905.52,366.87,905.52,366.17,905.52,365.11z M916.62,355.42v-5.64h-3.17c-2.12,0-3.08,0.84-3.08,2.73v0.13
		c0,1.89,1.15,2.78,3.57,2.78H916.62z"/>
	<path class="st2" d="M924.81,362.07v-1.32h4.58v0.75c0,1.81,1.01,2.69,2.95,2.69s2.95-0.93,2.95-2.82v-0.31
		c0-1.98-1.19-2.73-3.66-2.73h-1.72v-3.79h1.89c2.2,0,3.35-0.62,3.35-2.38v-0.09c0-1.76-0.97-2.56-2.86-2.56
		c-1.85,0-2.78,0.92-2.78,2.47v0.18h-4.54v-0.53c0-4.1,2.69-6.39,7.49-6.39c4.76,0,7.49,2.25,7.49,6.12v0.09
		c0,2.42-1.1,3.96-3.35,4.71v0.04c2.33,0.75,3.48,2.38,3.48,5.2v0.35c0,4.32-2.78,6.74-7.62,6.74S924.81,366.26,924.81,362.07z"/>
	<path class="st2" d="M959.26,345.69v22.38h-4.41v-14.41l-6.25,14.41h-4.98v-22.38h4.45v14.4l6.3-14.4H959.26z"/>
	<path class="st2" d="M965.56,368.06h-1.76v-5.29h5.02v4.76l-2.95,5.64h-2.29L965.56,368.06z"/>
	<path class="st2" d="M1003.26,345.69v22.38h-4.67v-17.14l-4.93,17.14h-3.57l-4.89-17.14v17.14h-4.32v-22.38h6.74l4.41,15.37
		l4.41-15.37H1003.26z"/>
	<path class="st2" d="M1023.08,345.69v22.38h-4.85v-9.74h-5.81v9.74h-4.85v-22.38h4.85v8.63h5.81v-8.63H1023.08z"/>
	<path class="st2" d="M1042.33,353v4.93h-10.62v3.3c0,2.11,1.01,3.13,3,3.13s3-1.01,3-3.17v-0.44h4.62v0.22
		c0,4.71-2.78,7.53-7.71,7.53c-5.02,0-7.75-2.82-7.75-7.75V353c0-4.98,2.73-7.75,7.75-7.75
		C1039.6,345.24,1042.33,348.02,1042.33,353z M1037.62,354.28v-1.81c0-2.11-1.06-3.13-2.95-3.13s-2.95,1.01-2.95,3.13v1.81H1037.62z
		"/>
	<path class="st2" d="M1069.2,345.69v22.38h-4.41v-14.41l-6.25,14.41h-4.98v-22.38h4.45v14.4l6.3-14.4H1069.2z"/>
	<path class="st2" d="M1089.02,345.69v22.38h-4.85v-9.74h-5.82v9.74h-4.85v-22.38h4.85v8.63h5.82v-8.63H1089.02z"/>
	<path class="st2" d="M1097.7,349.69h-5.68v-4.01h16.21v4.01h-5.73v18.37h-4.8V349.69z"/>
	<path class="st2" d="M1126.16,353v4.93h-10.62v3.3c0,2.11,1.01,3.13,3,3.13s3-1.01,3-3.17v-0.44h4.62v0.22
		c0,4.71-2.78,7.53-7.71,7.53c-5.02,0-7.75-2.82-7.75-7.75V353c0-4.98,2.73-7.75,7.75-7.75
		C1123.42,345.24,1126.16,348.02,1126.16,353z M1121.44,354.28v-1.81c0-2.11-1.06-3.13-2.95-3.13s-2.95,1.01-2.95,3.13v1.81H1121.44
		z"/>
	<path class="st2" d="M1145.23,352.2v9.29c0,4.76-2.03,7-5.64,7c-2.16,0-3.88-0.97-4.89-2.64v9.03h-4.85v-29.21h4.18l0.09,3.44
		c0.88-2.47,2.82-3.88,5.46-3.88C1143.2,345.24,1145.23,347.49,1145.23,352.2z M1140.38,352.82c0-2.2-0.66-3.35-2.55-3.35
		s-3.13,1.32-3.13,4.23v6.34c0,2.91,1.23,4.23,3.13,4.23s2.55-1.19,2.55-3.35V352.82z"/>
	<path class="st2" d="M1164.65,345.69v22.38h-4.85v-9.74h-5.81v9.74h-4.85v-22.38h4.85v8.63h5.81v-8.63H1164.65z"/>
	<path class="st2" d="M1183.9,353v4.93h-10.62v3.3c0,2.11,1.01,3.13,3,3.13s3-1.01,3-3.17v-0.44h4.62v0.22
		c0,4.71-2.78,7.53-7.71,7.53c-5.02,0-7.75-2.82-7.75-7.75V353c0-4.98,2.73-7.75,7.75-7.75C1181.17,345.24,1183.9,348.02,1183.9,353
		z M1179.19,354.28v-1.81c0-2.11-1.06-3.13-2.95-3.13s-2.95,1.01-2.95,3.13v1.81H1179.19z"/>
	<path class="st2" d="M1191.96,349.69h-5.68v-4.01h16.21v4.01h-5.73v18.37h-4.8V349.69z"/>
	<path class="st2" d="M784.17,412.11h-4.85v-18.37h-5.55v18.37h-4.85v-22.38h15.24V412.11z"/>
	<path class="st2" d="M787.96,404.8v-7.75c0-4.98,2.78-7.75,7.67-7.75c4.93,0,7.71,2.77,7.71,7.75v7.75c0,4.93-2.77,7.75-7.71,7.75
		C790.73,412.55,787.96,409.73,787.96,404.8z M798.49,405.2v-8.55c0-1.89-0.88-3.13-2.86-3.13s-2.82,1.23-2.82,3.13v8.55
		c0,1.89,0.88,3.13,2.82,3.13C797.61,408.32,798.49,407.09,798.49,405.2z"/>
	<path class="st2" d="M826.59,408.02v8.24h-4.8v-4.14H810.6v4.14h-4.85v-8.24h2.82c0.66-0.62,0.93-1.5,1.01-3.08l0.79-15.2h13.79
		v18.28H826.59z M819.32,408.02v-14.27h-4.36l-0.57,10.84c-0.09,1.63-0.4,2.69-1.32,3.44H819.32z"/>
	<path class="st2" d="M836.85,402.38l-2.42,3.35v6.39h-4.85v-22.38h4.85v9.6l6.3-9.6h5.37l-5.95,8.33l6.26,14.05h-5.33
		L836.85,402.38z"/>
	<path class="st2" d="M847.86,411.98v-4.14c0.48,0.13,0.84,0.18,1.45,0.18c1.5,0,2.2-0.75,2.33-2.82l0.84-15.46h13.79v22.38h-4.85
		v-18.24h-4.36l-0.66,11.94c-0.22,4.05-1.98,6.48-6.43,6.48C849.23,412.29,848.17,412.16,847.86,411.98z"/>
	<path class="st2" d="M895.22,397.05v7.75c0,4.93-2.73,7.75-7.67,7.75c-4.89,0-7.67-2.82-7.67-7.75v-2.38h-4.45v9.69h-4.85v-22.42
		h4.85v8.72h4.45v-1.37c0-4.98,2.78-7.75,7.67-7.75C892.49,389.29,895.22,392.07,895.22,397.05z M890.42,396.65
		c0-1.89-0.88-3.13-2.86-3.13s-2.82,1.23-2.82,3.13v8.55c0,1.89,0.88,3.13,2.82,3.13c1.98,0,2.86-1.23,2.86-3.13V396.65z"/>
	<path class="st2" d="M913.45,389.73v22.38h-4.85V401.8c-1.01,1.54-2.6,2.38-4.67,2.38c-3.61,0-5.77-2.25-5.77-6.96v-7.49h4.85v6.83
		c0,2.33,0.75,3.39,2.51,3.39c1.94,0,3.08-1.28,3.08-4.23v-5.99H913.45z"/>
	<path class="st2" d="M933.41,389.73v22.38H929v-14.41l-6.25,14.41h-4.98v-22.38h4.45v14.4l6.3-14.4H933.41z"/>
	<path class="st2" d="M936.4,411.98v-4.14c0.49,0.13,0.84,0.18,1.45,0.18c1.5,0,2.2-0.75,2.33-2.82l0.84-15.46h13.79v22.38h-4.85
		v-18.24h-4.36l-0.66,11.94c-0.22,4.05-1.98,6.48-6.43,6.48C937.77,412.29,936.71,412.16,936.4,411.98z"/>
	<path class="st2" d="M974.77,389.73v22.38h-4.41v-14.41l-6.25,14.41h-4.98v-22.38h4.45v14.4l6.3-14.4H974.77z"/>
	<path class="st2" d="M979.61,393.96v-12.69h4.98v12.69l-0.62,9.91h-3.74L979.61,393.96z M979.61,407.18h4.98v4.93h-4.98V407.18z"/>
</g>
</svg>
